<?xml version="1.0" encoding="utf-8"?>
<!-- Generator: Adobe Illustrator 26.0.2, SVG Export Plug-In . SVG Version: 6.00 Build 0)  -->
<svg version="1.1" xmlns="http://www.w3.org/2000/svg" xmlns:xlink="http://www.w3.org/1999/xlink" x="0px" y="0px"
	 viewBox="0 0 703 521" style="enable-background:new 0 0 703 521;" xml:space="preserve">
<style type="text/css">
	.st0{fill:none;stroke:#036063;stroke-width:3;}
	.st1{fill:#036063;}
</style>
<g id="Слой_1">
	<path class="st0" d="M100,443l-22.8,3.3l-2,0.3 M100,443l24.8-4 M100,443L48.8,190.1l-19.3,94.8 M100,443l40.1-218.7 M4.4,506.7
		l-0.7-50.2 M4.4,506.7l9.5-51.6 M4.4,506.7l20.7,1.7 M3.2,414l17-83.7 M699.4,431.9v-69.8l-37.7-1.8l40-66.5 M699.4,431.9
		L666.7,520 M699.4,431.9l-167.6-2.3 M699.4,431.9L661.1,360L622.8,288 M699.4,431.9l2.3,88.1h-35 M666.7,520l-88.2-163.1
		L391.1,29.2 M37.7,451.5l17.7-2.3 M37.7,451.5L13.9,455 M37.7,451.5l47.8-305.1L178.5,520h29.3 M37.7,451.5l-6.5-47.4l-11-73.8
		 M37.7,451.5l-12.6,56.9 M55.5,449.2l19.7-2.7 M55.5,449.2L65,392 M55.5,449.2l-26-164.3 M1,247l2.8,209.5 M1,247l12.9,208 M1,247
		L142.6,78.5 M699.4,150.9V76.5l-33.6-6.3 M699.4,150.9l-33.6-80.6 M699.4,150.9l-40.5,58 M701.7,291.8l-2.3-75.6l-40.5-9.4
		 M701.7,293.9l-42.7-85 M1.9,288.7l-0.2-12l5.2-36.6l13.5,90.2 M2.6,371l17.3-146.5l9.6,60.5 M194.5,427.3l-37.7,6.3l-32,5.4
		 M194.5,427.3l13.3-2.2l27,0.4 M194.5,427.3l13.3,92.7 M194.5,427.3l-38.1-142.4 M207.8,520l27-94.6 M207.8,520h69.1 M234.8,425.4
		l42.1,94.6 M234.8,425.4l103.7,1.5 M234.8,425.4l55.3-82 M276.9,520l61.6-93.1 M63.8,392.4L65,392 M124.8,439L66.4,169.2L13.9,455
		 M174.1,352.9l33.7-12.1l82.3,2.6 M582.8,57.3l83,12.9 M582.8,57.3l-90.5-14.1 M582.8,57.3L338.5,426.9 M582.8,57.3L659,208.8
		 M241.3,259.4l48.7,84 M241.3,259.4h-33.6l-51.5,25.6 M241.3,259.4l49.4-75.9 M391.1,29.2l-103-15.8 M391.1,29.2l101.2,14.1
		 M391.1,29.2L290.7,183.5 M665.8,70.2L513.6,314l-24.4,39l-47,75.3 M442.2,428.4l89.6,1.2 M442.2,428.4l-103.8-1.5 M442.2,428.4
		L290.7,183.5 M232.8,89.8l-25-3.8l-51,47 M232.8,89.8l55.4-76.5 M232.8,89.8l58,93.7 M531.9,429.6L622.8,288 M531.9,429.6
		L341.2,104l-53.1-90.7 M288.1,13.3L207.8,1l-65.2,77.5 M492.3,43.2L622.8,288 M492.3,43.2L290.1,343.4 M33.1,208.8l42.1,237.7
		 M173.5,41.8L156.8,133 M140.1,224.3l-29-108.2L65,392 M140.1,224.3l16.7-91.2 M140.1,224.3l16.3,60.7 M140.1,224.3l67.7-47.8l83,7
		 M3.8,456.5l10.1-1.5 M13.9,455l11.2,53.4 M75.2,446.5l67.4-368 M20.2,330.3l9.2-45.4 M622.8,288l36.2-79.2 M338.5,426.9
		l-48.4-83.5"/>
</g>
<g id="Слой_6">
	<path class="st1" d="M99,317.5L87.1,384l12.5,59.4l12.5-68.3L99,317.5z"/>
</g>
<g id="Слой_7">
	<path class="st1" d="M66.3,168.5l-10.7,58.2l10.7,53.4l9.5-71.9L66.3,168.5z"/>
</g>
<g id="Слой_2">
	<path class="st1" d="M392.3,189.2l-50.5,78.4l49.3,80.8l49.3-73.6L392.3,189.2z"/>
</g>
<g id="Слой_3">
	<path class="st1" d="M582.9,57.4l-47.5,71.9L580,210l44.5-69.5L582.9,57.4z"/>
</g>
<g id="Слой_4">
	<path class="st1" d="M622.7,288.4L578.5,357l39.5,73.5l43.3-70.2L622.7,288.4z"/>
</g>
</svg>
