<svg width="97" height="49" viewBox="0 0 97 49" fill="none" xmlns="http://www.w3.org/2000/svg">
<path d="M63.1646 10.4936C64.6522 11.7894 66.1172 13.3315 67.234 14.906V14.9524L67.0531 14.906C58.9959 8.82159 49.6409 5.51933 38.975 6.31335C33.3684 7.06127 27.5809 9.04912 24.5968 14.6273C22.8016 11.9891 21.5176 9.13262 21.251 5.84898C31.8062 -5.04616 53.6245 2.28586 63.1646 10.4936Z" fill="#EF7F1A"/>
<path d="M16.271 12.8623L9.57924 12.9551C8.80145 13.1271 7.91971 13.3361 7.54456 14.2093C6.8482 15.8813 7.17833 17.9899 7.09236 19.9222L7.18286 20.0615H14.6432V24.288H7.18286L7.09236 24.3809V48.8577H0.897959L0.852783 15.9743C0.979393 13.5452 1.7797 10.842 4.24377 9.98265C5.19788 9.64368 6.23328 9.4995 7.27321 9.37891H16.271V12.8623Z" fill="#2B2A29"/>
<path d="M86.2654 37.1069C86.3468 37.5482 86.5955 37.9522 86.9889 38.2215C87.4591 38.3657 87.9293 38.5187 88.481 38.4539V41.7051L83.8238 41.6586C82.6936 41.4729 81.5632 40.8877 80.9754 39.7543C80.6769 39.1226 80.4735 38.4539 80.4329 37.7107L80.3876 9.37891H86.2202L86.2654 37.1069Z" fill="#2B2A29"/>
<path d="M96.7934 14.906L90.9607 14.9524L90.9155 9.42546L90.9607 9.37891H96.7934V14.906Z" fill="#2B2A29"/>
<path d="M30.6025 19.0425C32.4382 22.0197 32.3386 25.8188 32.3206 29.5856H23.6845L23.594 29.6786C23.6891 32.1217 23.5218 34.6809 24.0916 36.9242C24.3312 37.4815 24.815 38.1087 25.448 38.1782C26.1714 38.2108 26.9086 38.0854 27.2565 37.3887C27.5007 36.8731 27.5324 36.274 27.573 35.6701L31.6876 35.6237C31.7826 37.6535 31.249 39.6598 29.5624 40.8721C27.234 42.2007 23.567 42.4328 21.2882 40.8257C18.0735 38.2433 17.766 34.1653 17.5353 30.1895C17.5083 25.9908 17.7434 21.9083 20.2935 18.8104C22.2648 16.5298 25.7464 16.121 28.4321 17.1847C29.2595 17.5562 30.0824 18.2112 30.6025 19.0425Z" fill="#2B2A29"/>
<path d="M46.6103 17.0914L46.6555 22.1076C46.6737 22.1493 46.6329 22.1726 46.6103 22.2004C45.0549 21.4851 42.7445 21.3924 41.1394 22.0612L40.9585 22.247V41.7076H35.1257L35.0806 16.952H39.9185C40.0271 17.3329 40.0993 17.7277 40.3255 18.0669C41.9803 16.65 44.5802 16.1857 46.6103 17.0914Z" fill="#2B2A29"/>
<path d="M60.0796 17.0881L60.1249 22.1042C60.1429 22.146 60.1022 22.1693 60.0796 22.1971C58.5106 21.4726 56.1189 21.3658 54.5183 22.1042L54.4279 22.1971V41.6579L48.5952 41.7043L48.55 16.9487H53.3878C53.4375 17.3296 53.6321 17.664 53.7495 18.017C54.0615 17.9288 54.2696 17.5988 54.5634 17.4596C56.0917 16.5632 58.4247 16.2751 60.0796 17.0881Z" fill="#2B2A29"/>
<path d="M75.5476 19.8268C76.8137 22.2188 77.1979 24.9822 77.311 27.8618L77.2658 27.9082C77.3291 31.8144 77.2567 35.7808 75.3668 38.9159C73.7796 41.4428 71.0848 42.1486 68.268 41.8885C65.6953 41.7121 63.3079 39.427 62.5709 36.9653C61.332 33.4074 61.323 29.0415 61.7119 25.0751C62.1594 21.9215 63.2265 18.3405 66.5046 17.0865C69.742 16.0507 73.7074 16.6035 75.5476 19.8268Z" fill="#2B2A29"/>
<path d="M96.7934 41.7067H90.9607L90.9155 17.044L90.9607 16.9512H96.7934V41.7067Z" fill="#2B2A29"/>
<path d="M70.6168 21.1295C71.1864 22.9966 71.0193 25.1888 71.1142 27.2603L71.069 34.0415C70.8473 35.4767 71.1096 37.2322 69.8029 38.0823C69.3236 38.1799 68.7854 38.1473 68.4464 37.7571C68.0348 37.3669 67.949 36.8467 67.8586 36.3173L67.6778 33.6698L67.5873 27.7247C67.6958 25.5138 67.4788 23.1592 68.1298 21.176C68.347 20.7812 68.7359 20.4374 69.1698 20.3863C69.7803 20.3215 70.2912 20.5954 70.6168 21.1295Z" fill="white"/>
<path d="M26.6651 20.849C27.2303 21.5086 27.2528 22.4004 27.3431 23.2643C27.3705 24.1932 27.4744 25.0941 27.4338 26.051C26.2264 26.1393 24.965 26.0787 23.7261 26.0974L23.6356 26.0045C23.7214 24.3976 23.595 22.7023 24.0878 21.2671C24.2505 20.8259 24.7026 20.51 25.1277 20.4312C25.6975 20.4312 26.2943 20.3614 26.6651 20.849Z" fill="white"/>
</svg>
