<svg width="127" height="49" viewBox="0 0 127 49" fill="none" xmlns="http://www.w3.org/2000/svg">
<path d="M11.6919 42.0094V43.1005H8.80096V44.687H11.5046V45.7781H8.80096V47.5755H11.7854V48.685H7.4425V42.0094H11.6919ZM14.1455 42.0187V47.5493H16.8638V48.685H12.7578V42.0187H14.1455ZM21.9306 42.0094V43.1005H19.0397V44.687H21.7434V45.7781H19.0397V47.5755H22.0243V48.685H17.6812V42.0094H21.9306ZM23.9792 42.0371L25.6375 47.2739L27.3059 42.0371H28.6468L26.3116 48.685H24.8288L22.4964 42.0371H23.9792ZM32.1928 42.0094L34.3936 48.685H33.0235L32.5687 47.2462H30.0593L29.5842 48.685H28.287L30.5785 42.0094H32.1928ZM30.4103 46.1644H32.2265L31.3492 43.3205L30.4103 46.1644ZM39.184 42.0094V43.1189H37.2963V48.685H35.929V43.1189H34.0427V42.0094H39.184ZM45.3827 45.2841C45.3827 45.9612 45.2655 46.5782 45.033 47.1369C44.8006 47.697 44.4496 48.1217 43.9816 48.4142C43.5137 48.705 42.9698 48.8513 42.3498 48.8513C41.3905 48.8513 40.6434 48.5527 40.1081 47.954C39.5729 47.3555 39.3054 46.5152 39.3054 45.4334C39.3054 44.3239 39.5729 43.4529 40.1067 42.8204C40.6404 42.188 41.3876 41.8709 42.3498 41.8709C43.3573 41.8709 44.1148 42.1941 44.6221 42.8388C45.1282 43.4836 45.3827 44.2977 45.3827 45.2841ZM42.325 47.7956C42.9099 47.7956 43.3295 47.5679 43.5825 47.1108C43.8368 46.6538 43.9641 46.0335 43.9641 45.2487C43.9641 44.5393 43.8266 43.9683 43.5504 43.5391C43.2755 43.1097 42.8805 42.8942 42.3673 42.8942C41.8336 42.8942 41.4271 43.1051 41.1478 43.5252C40.867 43.9469 40.7282 44.547 40.7282 45.3257C40.7282 46.1428 40.8626 46.7584 41.1317 47.1739C41.4022 47.5893 41.7999 47.7956 42.325 47.7956ZM49.1275 42.0094C49.8425 42.0094 50.3631 42.1801 50.692 42.5218C51.0197 42.8619 51.1849 43.2698 51.1849 43.7452C51.1849 44.1576 51.0767 44.5009 50.8602 44.7732C50.6439 45.0471 50.3106 45.2503 49.8602 45.3826C50.2155 45.4211 50.4757 45.5304 50.6395 45.7073C50.8032 45.8843 50.9129 46.1935 50.9656 46.6368C51.0183 47.0799 51.0737 47.497 51.1337 47.8894C51.1937 48.2819 51.2785 48.5466 51.3867 48.685H49.8864L49.7284 47.4816C49.6714 47.0353 49.6115 46.6738 49.55 46.4014C49.4886 46.1274 49.2781 45.9904 48.9184 45.9904H47.6623V48.685H46.279V42.0094H49.1275ZM48.8072 44.9271C49.1012 44.9271 49.3337 44.8379 49.5047 44.6593C49.6759 44.4793 49.7623 44.2485 49.7623 43.9669C49.7623 43.6745 49.6831 43.4513 49.5266 43.2959C49.3688 43.1421 49.1347 43.0635 48.8233 43.0635H47.6199V44.9271H48.8072ZM74.0549 42.0094V43.1005H71.164V44.687H73.8678V45.7781H71.164V47.5755H74.1486V48.685H69.8057V42.0094H74.0549ZM79.8075 43.876V43.9206H78.5003V43.876C78.4739 43.5682 78.373 43.3298 78.1976 43.1589C78.0222 42.9897 77.7793 42.9035 77.4707 42.9035C77.1682 42.9035 76.918 42.9851 76.7206 43.1451C76.5233 43.3066 76.4254 43.5282 76.4254 43.8099C76.4254 44.1253 76.5657 44.3469 76.845 44.4732C77.1257 44.5993 77.5718 44.7332 78.1829 44.8747C78.7942 45.0163 79.2474 45.2349 79.5414 45.5318C79.8354 45.8304 79.983 46.2105 79.983 46.6738C79.983 47.3232 79.7344 47.8463 79.2373 48.2449C78.74 48.6434 78.0951 48.842 77.3041 48.842C76.4501 48.842 75.8229 48.6543 75.4221 48.2803C75.023 47.9063 74.8225 47.3308 74.8225 46.5521H76.2074V46.6061C76.2074 47.0246 76.3069 47.3293 76.5071 47.5232C76.7076 47.717 76.9911 47.814 77.3597 47.814C77.715 47.814 78.0031 47.7309 78.2254 47.5632C78.449 47.3969 78.5602 47.1676 78.5602 46.8768C78.5602 46.6261 78.4812 46.4459 78.3247 46.3351C78.167 46.2244 77.9344 46.129 77.6258 46.0505L77.4035 45.9967C76.6972 45.8104 76.1855 45.6211 75.8681 45.4287C75.5523 45.2364 75.3315 45.0194 75.2086 44.7793C75.0858 44.5393 75.0243 44.2716 75.0243 43.9776C75.0302 43.3159 75.26 42.8034 75.7117 42.4418C76.165 42.0801 76.7732 41.8986 77.5351 41.8986C78.2385 41.8986 78.7926 42.0724 79.1993 42.4203C79.6043 42.7681 79.8075 43.2528 79.8075 43.876ZM85.9301 44.1885H84.5452C84.5073 43.8038 84.4035 43.5129 84.2324 43.3159C84.0598 43.1174 83.8215 43.0189 83.516 43.0189C83.0553 43.0189 82.7014 43.2421 82.4543 43.6899C82.207 44.1376 82.0843 44.7409 82.0843 45.498C82.0843 46.2521 82.1969 46.8215 82.4251 47.2076C82.6515 47.5939 82.9836 47.7863 83.4209 47.7863C83.7484 47.7863 84.0203 47.6679 84.2324 47.4278C84.4459 47.1892 84.5512 46.8876 84.5512 46.5245H85.9827C85.9827 47.2155 85.7561 47.7756 85.3043 48.2019C84.8509 48.6281 84.2661 48.842 83.5496 48.842C82.6386 48.842 81.9294 48.545 81.4247 47.9526C80.9189 47.3585 80.666 46.5368 80.666 45.4888C80.666 44.4423 80.9276 43.5945 81.4497 42.9465C81.9732 42.2971 82.6809 41.9724 83.573 41.9724C84.244 41.9724 84.8027 42.171 85.2501 42.5695C85.6977 42.9665 85.9241 43.5068 85.9301 44.1885ZM90.1693 42.0094L92.37 48.685H90.9998L90.5451 47.2462H88.0357L87.5606 48.685H86.2634L88.5548 42.0094H90.1693ZM88.3868 46.1644H90.2029L89.3256 43.3205L88.3868 46.1644ZM94.5489 42.0187V47.5493H97.2671V48.685H93.1611V42.0187H94.5489ZM101.385 42.0094L103.586 48.685H102.215L101.761 47.2462H99.2515L98.7762 48.685H97.4791L99.7706 42.0094H101.385ZM99.6024 46.1644H101.418L100.541 43.3205L99.6024 46.1644ZM108.376 42.0094V43.1189H106.488V48.685H105.121V43.1189H103.235V42.0094H108.376ZM114.575 45.2841C114.575 45.9612 114.458 46.5782 114.225 47.1369C113.993 47.697 113.642 48.1217 113.174 48.4142C112.706 48.705 112.162 48.8513 111.542 48.8513C110.583 48.8513 109.835 48.5527 109.3 47.954C108.765 47.3555 108.497 46.5152 108.497 45.4334C108.497 44.3239 108.765 43.4529 109.299 42.8204C109.833 42.188 110.58 41.8709 111.542 41.8709C112.549 41.8709 113.307 42.1941 113.814 42.8388C114.32 43.4836 114.575 44.2977 114.575 45.2841ZM111.517 47.7956C112.102 47.7956 112.522 47.5679 112.775 47.1108C113.029 46.6538 113.156 46.0335 113.156 45.2487C113.156 44.5393 113.019 43.9683 112.742 43.5391C112.467 43.1097 112.073 42.8942 111.559 42.8942C111.026 42.8942 110.619 43.1051 110.34 43.5252C110.059 43.9469 109.92 44.547 109.92 45.3257C109.92 46.1428 110.055 46.7584 110.324 47.1739C110.594 47.5893 110.992 47.7956 111.517 47.7956ZM118.32 42.0094C119.035 42.0094 119.555 42.1801 119.884 42.5218C120.212 42.8619 120.377 43.2698 120.377 43.7452C120.377 44.1576 120.269 44.5009 120.052 44.7732C119.836 45.0471 119.503 45.2503 119.052 45.3826C119.408 45.4211 119.668 45.5304 119.832 45.7073C119.995 45.8843 120.105 46.1935 120.158 46.6368C120.21 47.0799 120.266 47.497 120.326 47.8894C120.386 48.2819 120.47 48.5466 120.579 48.685H119.078L118.921 47.4816C118.864 47.0353 118.804 46.6738 118.742 46.4014C118.681 46.1274 118.47 45.9904 118.11 45.9904H116.854V48.685H115.471V42.0094H118.32ZM117.999 44.9271C118.293 44.9271 118.526 44.8379 118.697 44.6593C118.868 44.4793 118.954 44.2485 118.954 43.9669C118.954 43.6745 118.875 43.4513 118.719 43.2959C118.561 43.1421 118.327 43.0635 118.015 43.0635H116.812V44.9271H117.999ZM56.8966 43.876V43.9206H55.5894V43.876C55.563 43.5682 55.4621 43.3298 55.2867 43.1589C55.1113 42.9897 54.8684 42.9035 54.5598 42.9035C54.2573 42.9035 54.0071 42.9851 53.8097 43.1451C53.6123 43.3066 53.5143 43.5282 53.5143 43.8099C53.5143 44.1253 53.6548 44.3469 53.9341 44.4732C54.2148 44.5993 54.6609 44.7332 55.272 44.8747C55.8833 45.0163 56.3365 45.2349 56.6305 45.5318C56.9244 45.8304 57.0721 46.2105 57.0721 46.6738C57.0721 47.3232 56.8235 47.8463 56.3264 48.2449C55.8291 48.6434 55.1842 48.842 54.3932 48.842C53.5392 48.842 52.912 48.6543 52.5112 48.2803C52.112 47.9063 51.9116 47.3308 51.9116 46.5521H53.2965V46.6061C53.2965 47.0246 53.396 47.3293 53.5962 47.5232C53.7966 47.717 54.0802 47.814 54.4486 47.814C54.8041 47.814 55.0922 47.7309 55.3143 47.5632C55.5381 47.3969 55.6492 47.1676 55.6492 46.8768C55.6492 46.6261 55.5703 46.4459 55.4138 46.3351C55.2559 46.2244 55.0235 46.129 54.7149 46.0505L54.4927 45.9967C53.7863 45.8104 53.2746 45.6211 52.9572 45.4287C52.6414 45.2364 52.4206 45.0194 52.2977 44.7793C52.1748 44.5393 52.1134 44.2716 52.1134 43.9776C52.1193 43.3159 52.3489 42.8034 52.8008 42.4418C53.254 42.0801 53.8623 41.8986 54.6242 41.8986C55.3276 41.8986 55.8817 42.0724 56.2883 42.4203C56.6933 42.7681 56.8966 43.2528 56.8966 43.876ZM64.4916 43.3035C64.4916 43.6252 64.3951 43.9299 64.2036 44.2176C64.0106 44.507 63.6962 44.7733 63.2634 45.021L64.5429 46.3767C64.6378 46.1244 64.7037 45.8674 64.7417 45.6073C64.7812 45.3457 64.8001 44.9903 64.8001 44.5393H66.0973C66.0973 45.0917 66.0475 45.5734 65.948 45.9844C65.8487 46.3937 65.6614 46.8338 65.388 47.3016L66.6763 48.7034H65.037L64.5443 48.0849C64.2124 48.3587 63.8863 48.5557 63.5632 48.6773C63.24 48.799 62.8831 48.8604 62.4911 48.8604C61.7835 48.8604 61.2073 48.6804 60.7628 48.3203C60.3183 47.9587 60.0961 47.4678 60.0961 46.8461C60.0961 46.4368 60.2117 46.0521 60.4411 45.692C60.6707 45.3318 60.9982 45.021 61.4208 44.7624C61.1606 44.547 60.969 44.3208 60.8448 44.0853C60.7204 43.8499 60.6576 43.6036 60.6576 43.3482C60.6576 42.9035 60.8272 42.5404 61.168 42.2571C61.5072 41.9756 61.9839 41.834 62.598 41.834C63.1874 41.834 63.648 41.9601 63.9798 42.2141C64.3133 42.468 64.4829 42.8311 64.4916 43.3035ZM62.5906 44.2992C62.7924 44.1469 62.9505 43.9869 63.0617 43.8222C63.1726 43.6559 63.2283 43.4929 63.2283 43.3298C63.2283 43.1497 63.1726 43.0035 63.0617 42.8911C62.9505 42.7788 62.7954 42.7218 62.598 42.7218C62.4094 42.7218 62.2558 42.7758 62.136 42.8819C62.016 42.9881 61.9561 43.1328 61.9561 43.3128C61.9561 43.4621 62.022 43.6314 62.1535 43.8192C62.285 44.0069 62.4298 44.1669 62.5906 44.2992ZM63.7459 47.3462L62.1491 45.6381C61.9151 45.8027 61.7426 45.9751 61.6314 46.1535C61.5217 46.3321 61.4677 46.5275 61.4677 46.7368C61.4677 47.0522 61.5715 47.3169 61.7791 47.5278C61.9882 47.7402 62.2558 47.8463 62.5805 47.8463C62.7662 47.8463 62.9622 47.8002 63.1697 47.7093C63.3774 47.617 63.5689 47.4955 63.7459 47.3462ZM126.089 43.876V43.9206H124.781V43.876C124.755 43.5682 124.654 43.3298 124.479 43.1589C124.303 42.9897 124.06 42.9035 123.752 42.9035C123.449 42.9035 123.199 42.9851 123.002 43.1451C122.804 43.3066 122.706 43.5282 122.706 43.8099C122.706 44.1253 122.847 44.3469 123.126 44.4732C123.407 44.5993 123.853 44.7332 124.464 44.8747C125.075 45.0163 125.529 45.2349 125.822 45.5318C126.117 45.8304 126.264 46.2105 126.264 46.6738C126.264 47.3232 126.016 47.8463 125.518 48.2449C125.021 48.6434 124.376 48.842 123.585 48.842C122.731 48.842 122.104 48.6543 121.703 48.2803C121.304 47.9063 121.104 47.3308 121.104 46.5521H122.488V46.6061C122.488 47.0246 122.588 47.3293 122.788 47.5232C122.989 47.717 123.272 47.814 123.641 47.814C123.996 47.814 124.284 47.7309 124.506 47.5632C124.73 47.3969 124.841 47.1676 124.841 46.8768C124.841 46.6261 124.762 46.4459 124.606 46.3351C124.448 46.2244 124.216 46.129 123.907 46.0505L123.685 45.9967C122.978 45.8104 122.467 45.6211 122.149 45.4287C121.833 45.2364 121.613 45.0194 121.49 44.7793C121.367 44.5393 121.305 44.2716 121.305 43.9776C121.311 43.3159 121.541 42.8034 121.993 42.4418C122.446 42.0801 123.054 41.8986 123.816 41.8986C124.52 41.8986 125.074 42.0724 125.48 42.4203C125.885 42.7681 126.089 43.2528 126.089 43.876Z" fill="#2B2A29"/>
<path d="M12.697 2.92247V15.4885C12.697 16.8983 13.8198 18.0516 15.1922 18.0516C16.5645 18.0516 17.6873 16.8983 17.6873 15.4885V2.92247C17.6873 1.51264 16.5645 0.359375 15.1922 0.359375C13.8198 0.359375 12.697 1.51264 12.697 2.92247ZM5.01952 21.4993C5.01952 27.0827 9.42566 31.6089 14.8609 31.6089C20.2961 31.6089 24.7024 27.0827 24.7024 21.4993C24.7024 17.5278 22.4728 14.0921 19.2295 12.4386V6.92859C25.2923 8.84461 29.6991 14.6431 29.6991 21.4993C29.6991 29.9176 23.0558 36.7419 14.8609 36.7419C6.66613 36.7419 0.0227051 29.9176 0.0227051 21.4993C0.0227051 14.3957 4.75325 8.42699 11.1548 6.73609V12.1318C7.55667 13.6357 5.01952 17.2629 5.01952 21.4993ZM101.877 7.54682H107.375L120.492 26.2895V7.54682H126.259V36.0279H120.718L107.644 17.3446V36.0279H101.877V7.54682ZM78.1306 7.15008H94.7528V12.4656H83.8975V17.5825H94.7528V22.8187H83.8975V30.3158H94.7528V35.6311H78.1306V7.15008ZM55.3804 7.54682H74.4448V12.9019H67.7417V36.0279H61.8477V12.9019H55.3804V7.54682ZM51.6708 11.4209L47.3739 14.9646C45.8685 13.0076 44.3349 12.0291 42.7732 12.0291C42.0099 12.0291 41.3879 12.2209 40.9073 12.5978C40.4197 12.9812 40.1794 13.411 40.1794 13.887C40.1794 14.3629 40.349 14.8191 40.6953 15.2422C41.1689 15.8109 42.5894 17.0272 44.9568 18.8983C47.169 20.6305 48.5118 21.7213 48.9852 22.1708C50.1584 23.2815 50.9923 24.3393 51.4871 25.3508C51.9746 26.3688 52.2221 27.4731 52.2221 28.6695C52.2221 31.01 51.3598 32.9338 49.6284 34.4611C47.9039 35.9816 45.6494 36.7419 42.865 36.7419C40.6953 36.7419 38.8083 36.246 37.1971 35.2544C35.5858 34.2561 34.2005 32.6958 33.0557 30.567L37.9392 27.8168C39.4091 30.329 41.098 31.5851 43.0063 31.5851C44.0028 31.5851 44.8438 31.3141 45.5224 30.772C46.2007 30.2298 46.5399 29.6019 46.5399 28.8944C46.5399 28.2531 46.2855 27.6053 45.7696 26.9573C45.2608 26.316 44.1299 25.3244 42.3844 23.9955C39.0627 21.4699 36.9215 19.5197 35.9532 18.1445C34.9849 16.7694 34.4974 15.4009 34.4974 14.0323C34.4974 12.0556 35.303 10.3632 36.9072 8.95492C38.5186 7.54016 40.5045 6.83278 42.865 6.83278C44.3843 6.83278 45.8332 7.16327 47.2043 7.81789C48.5823 8.47889 50.0665 9.67563 51.6708 11.4209Z" fill="#2B2A29"/>
</svg>
