<svg width="703" height="521" viewBox="0 0 703 521" fill="none" xmlns="http://www.w3.org/2000/svg">
<path d="M99.9839 443L77.1641 446.272L75.1933 446.538M99.9839 443L124.767 438.999M99.9839 443L48.769 190.143L29.4778 284.927M99.9839 443L140.055 224.268M4.42738 506.653L3.76495 456.461M4.42738 506.653L13.9121 455.004M4.42738 506.653L25.0869 508.369M3.20473 414.013L20.2369 330.33M699.424 431.911V362.126L661.677 360.356L701.709 293.867M699.424 431.911L666.674 520M699.424 431.911L531.863 429.572M699.424 431.911L661.089 359.963L622.754 288.015M699.424 431.911L701.709 520H666.674M666.674 520L578.5 356.938L391.15 29.1608M37.7313 451.5L55.4573 449.193M37.7313 451.5L13.9121 455.004M37.7313 451.5L85.5421 146.403L178.462 520H207.785M37.7313 451.5L31.2465 404.1L20.2369 330.33M37.7313 451.5L25.0869 508.369M55.4573 449.193L75.1933 446.538M55.4573 449.193L65.0043 391.99M55.4573 449.193L29.4778 284.927M1 246.963L3.76495 456.461M1 246.963L13.9121 455.004M1 246.963L142.63 78.5M699.424 150.866V76.5048L665.802 70.2468M699.424 150.866L665.802 70.2468M699.424 150.866L658.972 208.829M701.709 293.867L699.424 218.276L658.972 208.829M701.709 293.867L658.972 208.829M1.85685 288.719L1.61036 276.707L6.77076 240.098L20.2369 330.33M2.63639 370.951L19.9153 224.464L29.4778 284.927M194.457 427.287L156.756 433.623L124.767 438.999M194.457 427.287L207.785 425.047L234.824 425.425M194.457 427.287L207.785 520M194.457 427.287L156.309 284.927M207.785 520L234.824 425.425M207.785 520H276.926M234.824 425.425L276.926 520M234.824 425.425L338.482 426.897M234.824 425.425L290.078 343.418M276.926 520L338.482 426.897M63.8354 392.41L65.0043 391.99M124.767 438.999L66.4019 169.17L13.9121 455.004M174.083 352.861L207.785 340.771L290.078 343.418M582.829 57.3215L665.802 70.2468M582.829 57.3215L492.334 43.2411M582.829 57.3215L338.482 426.897M582.829 57.3215L658.972 208.829M241.347 259.376L290.078 343.418M241.347 259.376H207.785L156.309 284.927M241.347 259.376L290.736 183.476M391.15 29.1608L288.138 13.3404M391.15 29.1608L492.334 43.2411M391.15 29.1608L290.736 183.476M665.802 70.2468L513.639 314L489.264 353.047L442.243 428.37M442.243 428.37L531.863 429.572M442.243 428.37L338.482 426.897M442.243 428.37L290.736 183.476M232.784 89.8043L207.785 86.0382L156.768 133.036M232.784 89.8043L288.138 13.3404M232.784 89.8043L290.736 183.476M531.863 429.572L622.754 288.015M531.863 429.572L341.221 103.994L288.138 13.3404M288.138 13.3404L207.785 1L142.63 78.5M492.334 43.2411L622.754 288.015M492.334 43.2411L290.078 343.418M33.0598 208.829L75.1933 446.538M173.481 41.8031L156.768 133.036M140.055 224.268L111.057 116.054L65.0043 391.99M140.055 224.268L156.768 133.036M140.055 224.268L156.309 284.927M140.055 224.268L207.785 176.5L290.736 183.476M3.76495 456.461L13.9121 455.004M13.9121 455.004L25.0869 508.369M75.1933 446.538L142.63 78.5M20.2369 330.33L29.4778 284.927M622.754 288.015L658.972 208.829M338.482 426.897L290.078 343.418" stroke-width="10" stroke="#036063"/>
<path d="M392.33 189.242L341.855 267.626L391.142 348.386L440.429 274.752L392.33 189.242Z" fill="#036063"/>
<path d="M582.944 57.4131L535.439 129.265L579.975 210.025L624.512 140.548L582.944 57.4131Z" fill="#036063"/>
<path d="M622.731 288.41L578.499 357L617.999 430.5L661.329 360.262L622.731 288.41Z" fill="#036063"/>
<path d="M66.3201 168.458L55.6313 226.653L66.3201 280.096L75.8213 208.244L66.3201 168.458Z" fill="#036063"/>
<path d="M98.9791 317.507L87.1027 384.015L99.5729 443.397L112.043 375.108L98.9791 317.507Z" fill="#036063"/>
</svg>
