<svg width="435" height="647" viewBox="0 0 435 647" fill="none" xmlns="http://www.w3.org/2000/svg">
<path d="M0 58.7838L340.946 0V587.838L0 646.622V58.7838Z" fill="#6E8889"/>
<rect y="58.7842" width="435" height="587.838" fill="#036063"/>
<path d="M101.769 399.376L91.2174 400.889L90.3061 401.011M101.769 399.376L113.228 397.526M101.769 399.376L78.0879 282.458L69.1678 326.284M101.769 399.376L120.297 298.237M57.5848 428.808L57.2785 405.6M57.5848 428.808L61.9704 404.926M57.5848 428.808L67.1375 429.602M57.0194 385.973L64.8949 347.278M378.943 394.248V361.981L361.489 361.162L380 330.418M378.943 394.248L363.8 434.98M378.943 394.248L301.465 393.167M378.943 394.248L361.218 360.98L343.492 327.712M378.943 394.248L380 434.98H363.8M363.8 434.98L323.029 359.582L236.401 208.021M72.9841 403.306L81.1804 402.239M72.9841 403.306L61.9704 404.926M72.9841 403.306L95.0913 262.233L138.057 434.98H151.615M72.9841 403.306L69.9856 381.389L64.8949 347.278M72.9841 403.306L67.1375 429.602M81.1804 402.239L90.3061 401.011M81.1804 402.239L85.5948 375.79M81.1804 402.239L69.1678 326.284M56 308.73L57.2785 405.6M56 308.73L61.9704 404.926M56 308.73L121.488 230.835M378.943 264.296V229.913L363.397 227.019M378.943 264.296L363.397 227.019M378.943 264.296L360.239 291.098M380 330.418L378.943 295.466L360.239 291.098M380 330.418L360.239 291.098M56.3962 328.038L56.2822 322.484L58.6683 305.556L64.8949 347.278M56.7566 366.061L64.7462 298.327L69.1678 326.284M145.452 392.11L128.02 395.04L113.228 397.526M145.452 392.11L151.615 391.075L164.117 391.249M145.452 392.11L151.615 434.98M145.452 392.11L127.813 326.284M151.615 434.98L164.117 391.249M151.615 434.98H183.585M164.117 391.249L183.585 434.98M164.117 391.249L212.048 391.93M164.117 391.249L189.667 353.33M183.585 434.98L212.048 391.93M85.0543 375.983L85.5948 375.79M113.228 397.526L86.2411 272.76L61.9704 404.926M136.032 357.697L151.615 352.106L189.667 353.33M325.031 221.042L363.397 227.019M325.031 221.042L283.187 214.532M325.031 221.042L212.048 391.93M325.031 221.042L360.239 291.098M167.134 314.47L189.667 353.33M167.134 314.47H151.615L127.813 326.284M167.134 314.47L189.97 279.375M236.401 208.021L188.77 200.706M236.401 208.021L283.187 214.532M236.401 208.021L189.97 279.375M363.397 227.019L293.038 339.728L281.768 357.782L260.026 392.611M260.026 392.611L301.465 393.167M260.026 392.611L212.048 391.93M260.026 392.611L189.97 279.375M163.174 236.062L151.615 234.321L128.025 256.052M163.174 236.062L188.77 200.706M163.174 236.062L189.97 279.375M301.465 393.167L343.492 327.712M301.465 393.167L213.314 242.623L188.77 200.706M188.77 200.706L151.615 195L121.488 230.835M283.187 214.532L343.492 327.712M283.187 214.532L189.667 353.33M70.8241 291.098L90.3061 401.011M135.753 213.867L128.025 256.052M120.297 298.237L106.889 248.2L85.5948 375.79M120.297 298.237L128.025 256.052M120.297 298.237L127.813 326.284M120.297 298.237L151.615 276.149L189.97 279.375M57.2785 405.6L61.9704 404.926M61.9704 404.926L67.1375 429.602M90.3061 401.011L121.488 230.835M64.8949 347.278L69.1678 326.284M343.492 327.712L360.239 291.098M212.048 391.93L189.667 353.33" stroke="white"/>
<path d="M236.947 282.041L213.608 318.285L236.398 355.627L259.188 321.58L236.947 282.041Z" fill="white"/>
<path d="M325.086 221.085L303.12 254.309L323.713 291.651L344.306 259.526L325.086 221.085Z" fill="white"/>
<path d="M343.483 327.896L323.03 359.611L341.294 393.596L361.33 361.119L343.483 327.896Z" fill="white"/>
<path d="M86.2046 272.431L81.2622 299.339L86.2046 324.051L90.5978 290.827L86.2046 272.431Z" fill="white"/>
<path d="M101.304 341.349L95.8127 372.101L101.579 399.559L107.345 367.983L101.304 341.349Z" fill="white"/>
</svg>
