<svg width="80" height="188" viewBox="0 0 80 188" fill="none" xmlns="http://www.w3.org/2000/svg">
<g clip-path="url(#clip0_129_50199)">
<path opacity="0.3" d="M31.3309 141.963L0.993225 159.652L48.6923 187.422L79.0072 169.733L31.3309 141.963Z" fill="white" stroke="#036063"/>
<path d="M48.629 185.765L48.649 185.773L48.6681 185.783C49.0629 185.99 49.5008 186.098 49.945 186.098C50.3891 186.098 50.827 185.99 51.2218 185.783L51.2409 185.773L51.2609 185.765C51.3501 185.727 51.4282 185.665 51.4861 185.585C51.5408 185.509 51.5753 185.42 51.5859 185.326V182.703H48.304V185.326C48.3147 185.42 48.3492 185.509 48.4038 185.585C48.4617 185.665 48.5398 185.727 48.629 185.765Z" fill="white" stroke="#036063"/>
<path d="M51.2208 182.588L51.2559 182.57L51.2935 182.557C51.3748 182.53 51.4465 182.477 51.4978 182.405C51.5492 182.333 51.5773 182.245 51.5773 182.155C51.5773 182.065 51.5492 181.978 51.4978 181.906C51.4465 181.834 51.3748 181.781 51.2935 181.754L51.2559 181.741L51.2208 181.722C50.8261 181.515 50.3882 181.407 49.944 181.407C49.4998 181.407 49.0619 181.515 48.6672 181.722L48.632 181.741L48.5944 181.754C48.5132 181.781 48.4414 181.834 48.3901 181.906L48.0063 181.632L48.3901 181.906C48.3388 181.978 48.3107 182.065 48.3107 182.155C48.3107 182.245 48.3388 182.333 48.3901 182.405L47.9894 182.69L48.3901 182.405C48.4414 182.477 48.5132 182.53 48.5944 182.557L48.632 182.57L48.6672 182.588C49.0619 182.795 49.4998 182.903 49.944 182.903C50.3882 182.903 50.8261 182.795 51.2208 182.588Z" fill="white" stroke="#036063"/>
<path d="M2.43549 159.389L2.43555 159.388L2.44611 159.394C2.84653 159.593 3.28661 159.697 3.73243 159.697C4.17825 159.697 4.61833 159.593 5.01876 159.394L5.0187 159.394L5.02938 159.389C5.12357 159.344 5.20543 159.276 5.26642 159.189C5.32347 159.108 5.36029 159.013 5.37341 158.914V156.295H2.09146V158.914C2.10458 159.013 2.14141 159.108 2.19845 159.189C2.25944 159.276 2.3413 159.344 2.43549 159.389Z" fill="white" stroke="#036063"/>
<path d="M2.28312 156.226L2.30724 156.235L2.3303 156.247C2.73072 156.446 3.1708 156.55 3.61662 156.55C4.05949 156.55 4.49669 156.447 4.89498 156.251C5.3007 156.028 5.34534 155.838 5.34534 155.789C5.34534 155.748 5.31024 155.568 4.90462 155.368L4.90455 155.368L4.89343 155.362C4.49868 155.155 4.06078 155.047 3.61662 155.047C3.17245 155.047 2.73456 155.155 2.33981 155.362L2.31225 155.377L2.28312 155.388C2.20046 155.419 2.12819 155.475 2.0767 155.55C2.02516 155.625 1.99716 155.714 1.99716 155.807C1.99716 155.899 2.02516 155.989 2.0767 156.064C2.12819 156.139 2.20046 156.195 2.28312 156.226Z" fill="white" stroke="#036063"/>
<path d="M75.2537 170.25L75.2538 170.25L75.2643 170.255C75.6648 170.454 76.1049 170.558 76.5507 170.558C76.9965 170.558 77.4366 170.454 77.837 170.255L77.8369 170.255L77.8476 170.25C77.9418 170.206 78.0237 170.137 78.0847 170.05C78.1417 169.969 78.1785 169.875 78.1917 169.775V167.156H74.9097V169.775C74.9228 169.875 74.9596 169.969 75.0167 170.05C75.0777 170.137 75.1595 170.206 75.2537 170.25Z" fill="white" stroke="#036063"/>
<path d="M76.5386 167.405C76.9833 167.405 77.4219 167.298 77.8185 167.094C78.1246 166.914 78.1737 166.743 78.1737 166.665C78.1737 166.585 78.1212 166.407 77.8137 166.217C77.4183 166.014 76.9815 165.908 76.5386 165.908C76.0957 165.908 75.6588 166.014 75.2635 166.217C74.956 166.407 74.9035 166.585 74.9035 166.665C74.9035 166.743 74.9526 166.914 75.2586 167.094C75.6552 167.298 76.0938 167.405 76.5386 167.405Z" fill="white" stroke="#036063"/>
<path d="M0.5 18.8345V156.525L48.3393 184.4L79.4045 28.7768L0.5 18.8345Z" fill="white" stroke="#036063"/>
<path d="M24.1642 88.3734C25.089 88.9094 25.8588 89.1401 26.3527 89.1401C26.5974 89.1401 26.7198 89.0841 26.7717 89.0422C26.8064 89.0142 26.853 88.9605 26.853 88.806C26.853 88.6363 26.7915 88.3957 26.6366 88.0916C26.4844 87.7928 26.2568 87.4617 25.9642 87.1198C25.3783 86.4356 24.5616 85.7434 23.6604 85.2146C22.7482 84.6793 21.9847 84.4492 21.4946 84.4492C21.2518 84.4492 21.1303 84.505 21.0786 84.5468C21.0439 84.5748 20.9972 84.6288 20.9972 84.7833C20.9972 85.1546 21.2713 85.7654 21.8679 86.4721C22.4441 87.1547 23.2534 87.8455 24.1642 88.3734Z" fill="white" stroke="#036063"/>
<path d="M49.1926 46.9024V184.313L79.5 166.629V29.2183L49.1926 46.9024Z" fill="white" stroke="#036063"/>
<path d="M31.3309 0.578707L0.993225 18.2673L48.6923 46.0368L79.0072 28.3483L31.3309 0.578707Z" fill="#036063" stroke="#036063"/>
<path d="M48.1941 94.7741V94.4411L0.501492 66.6522V66.9621L48.1941 94.7741Z" fill="white" stroke="#036063"/>
<mask id="path-13-inside-1_129_50199" fill="white">
<path d="M0.00149155 154.352L48.6941 182.747V183.196L0.00149155 154.801V154.352Z"/>
</mask>
<path d="M0.00149155 154.352L48.6941 182.747V183.196L0.00149155 154.801V154.352Z" fill="white"/>
<path d="M0.00149155 154.352H-0.998508V152.611L0.505249 153.488L0.00149155 154.352ZM48.6941 182.747L49.1978 181.883L49.6941 182.172V182.747H48.6941ZM48.6941 183.196H49.6941V184.937L48.1903 184.06L48.6941 183.196ZM0.00149155 154.801L-0.502262 155.665L-0.998508 155.376V154.801H0.00149155ZM0.505249 153.488L49.1978 181.883L48.1903 183.611L-0.502262 155.215L0.505249 153.488ZM49.6941 182.747V183.196H47.6941V182.747H49.6941ZM48.1903 184.06L-0.502262 155.665L0.505249 153.937L49.1978 182.333L48.1903 184.06ZM-0.998508 154.801V154.352H1.00149V154.801H-0.998508Z" fill="#036063" mask="url(#path-13-inside-1_129_50199)"/>
<path d="M44.3232 128.699L46.6077 130.038L47.2779 129.645L47.3007 103.732L44.3232 103.041V128.699Z" fill="white" stroke="#036063"/>
<path d="M47.3003 104.215L47.1077 104.329V129.745L47.2779 129.645L47.3003 104.215Z" fill="white" stroke="#036063"/>
<path d="M45.016 102.304L44.8189 102.417L46.6059 103.465L46.8125 103.342L45.016 102.304Z" fill="white" stroke="#036063"/>
</g>
<defs>
<clipPath id="clip0_129_50199">
<rect width="80" height="188" fill="white" transform="matrix(-1 0 0 1 80 0)"/>
</clipPath>
</defs>
</svg>
