<svg width="140" height="49" viewBox="0 0 140 49" fill="none" xmlns="http://www.w3.org/2000/svg">
<path fill-rule="evenodd" clip-rule="evenodd" d="M8.19838 15.1619V20.4786H0.242188V10.4429L15.9012 1.15638C17.5028 0.216387 19.9252 0.0388852 21.5837 0.997306L37.5107 10.4429V20.4786H29.5553V15.1619L18.8765 8.82835L8.19838 15.1619Z" fill="#29B5F2"/>
<path fill-rule="evenodd" clip-rule="evenodd" d="M18.8763 36.4867L29.555 30.1533V24.8359H37.5104V34.8721L21.5538 44.3354C19.9249 45.2763 17.5025 45.0986 15.901 44.1591L0.241943 34.8721V24.8359H8.19814V30.1533L18.8763 36.4867Z" fill="#5B5B5B"/>
<path d="M97.3254 34.3137C95.7379 33.8934 94.3357 33.0191 93.1279 31.6837C92.1582 30.5932 91.4546 29.3495 91.0173 27.9509C90.5783 26.5504 90.3135 25.1228 90.2205 23.6585C90.2205 23.5052 90.2205 23.3512 90.2205 23.1945C90.2205 23.0395 90.2205 22.8836 90.2205 22.7265C90.2205 22.5132 90.2205 22.3006 90.2205 22.1013C90.2205 21.8931 90.2366 21.6882 90.2684 21.469C90.3578 20.0714 90.6224 18.6949 91.0626 17.3438C91.4988 15.9915 92.1908 14.7871 93.1279 13.7289C94.3357 12.361 95.7379 11.4689 97.3254 11.0468C98.9154 10.6271 100.557 10.4147 102.249 10.4147L111.464 10.373L108.595 15.5005H103.113C101.357 15.5322 99.9453 15.6806 98.8938 16.3145C97.8828 16.9271 97.2737 18.1131 97.2133 20.1622L111.464 20.1159L108.595 25.2474H97.2133C97.2737 27.3922 97.8286 28.6421 98.8007 29.163C99.8016 29.6965 101.223 29.8628 103.068 29.8628L111.464 29.8135L108.595 34.9448H102.249C100.557 34.9448 98.9154 34.7352 97.3254 34.3137Z" fill="#5B5B5B"/>
<path d="M74.6082 10.3735V4.41522L80.9162 1.46484V10.3735H88.7375L85.869 15.2684H80.9162V25.2013C80.8872 27.6571 81.4321 29.0845 82.5513 29.4874C83.6725 29.8938 85.212 30.0964 87.1816 30.0964C87.2422 30.0964 87.3099 30.0964 87.3857 30.0964C87.4626 30.0964 87.5295 30.0964 87.5899 30.0964L84.7215 34.9426H81.8241C79.4337 34.9426 77.6365 34.2614 76.425 32.8935C75.2143 31.5244 74.6082 29.6619 74.6082 27.2981V15.2684H69.5859L72.4571 10.3735H74.6082Z" fill="#5B5B5B"/>
<path d="M136.547 12.2868C134.792 11.0451 132.34 10.4066 129.194 10.377H117.301H116.116L113.245 15.7925H117.301V34.9459H123.611V15.7925H124.564L128.694 15.8321C130.389 15.8321 131.507 16.1264 132.053 16.7158C132.597 17.3088 132.869 18.4578 132.869 20.1664V34.9459H139.18V19.4212C139.18 15.9103 138.301 13.5295 136.547 12.2868Z" fill="#5B5B5B"/>
<path d="M58.7552 29.9526C58.8129 29.9858 62.2454 30.0872 62.2454 27.4386C62.2454 24.8378 58.9305 25.058 58.842 25.058L53.3913 25.0123C50.8517 25.0449 48.8471 24.6887 47.3805 23.9377C45.9108 23.1944 45.1617 21.2992 45.1338 18.2513C45.1012 15.3929 45.8601 13.3725 47.4023 12.1875C48.9454 11.0087 51.0007 10.4167 53.5766 10.4167L68.2948 10.373L65.3883 15.7C65.3883 15.7 55.0266 15.7467 54.8323 15.7467C54.6346 15.7467 51.6675 15.6415 51.6675 17.7901C51.6675 19.9413 53.7419 19.9768 54.6182 19.9768L60.3398 19.9303C62.5769 19.96 64.4542 20.4971 65.9685 21.5386C67.479 22.5792 68.2821 24.3756 68.3744 26.9241C68.3744 26.9565 68.3744 26.98 68.3744 26.9956C68.3744 27.0124 68.3744 27.0329 68.3744 27.0643C68.4032 29.0561 67.8523 30.8629 66.7174 32.4963C65.5828 34.127 63.9538 34.9456 61.838 34.9456H45.5412L48.3238 29.9526H58.7552Z" fill="#5B5B5B"/>
<path d="M49.7602 40.127V40.9393H46.4762V43.0896H49.6051V43.8923H46.4762V46.1876H49.8378V47.027H45.5488V40.127H49.7602ZM52.238 40.1366V47.027H51.3619V40.1366H52.238ZM57.8137 44.7906H54.4614V44.864C54.4614 45.3816 54.5776 45.7863 54.8103 46.0778C55.0428 46.3707 55.3731 46.5174 55.7995 46.5174C56.1096 46.5174 56.3623 46.4328 56.5562 46.2641C56.75 46.0953 56.8631 45.8484 56.8957 45.5267H57.7671C57.7376 46.0139 57.5408 46.409 57.1795 46.7133C56.8183 47.0174 56.3453 47.1705 55.7622 47.1705C55.0475 47.1705 54.5078 46.9553 54.142 46.527C53.7761 46.0969 53.5932 45.4804 53.5932 44.6744C53.5932 43.8446 53.7853 43.2092 54.1699 42.7678C54.5544 42.3267 55.0972 42.1053 55.7995 42.1053C56.4678 42.1053 56.9702 42.298 57.3082 42.6835C57.6446 43.0689 57.8137 43.6439 57.8137 44.4084V44.7906ZM56.9236 44.16V44.0899C56.9236 43.6645 56.829 43.335 56.6383 43.0976C56.4475 42.8618 56.1593 42.744 55.7716 42.744C55.3932 42.744 55.0863 42.8746 54.8505 43.1326C54.6149 43.3923 54.4971 43.7347 54.4971 44.16H56.9236ZM61.7629 43.7681C61.7444 43.4337 61.6527 43.1819 61.4885 43.0164C61.3225 42.8508 61.1039 42.7678 60.8326 42.7678C60.4387 42.7678 60.1395 42.9193 59.9332 43.2202C59.7271 43.5213 59.6247 43.9753 59.6247 44.5821C59.6247 45.2224 59.7224 45.697 59.9178 46.0061C60.1116 46.315 60.4015 46.4695 60.786 46.4695C61.0807 46.4695 61.3179 46.3787 61.4992 46.1972C61.6808 46.0155 61.7799 45.7607 61.7986 45.4311H62.684C62.6483 45.9376 62.4576 46.3517 62.1118 46.6718C61.7676 46.992 61.3303 47.1512 60.8048 47.1512C60.1317 47.1512 59.6139 46.9379 59.2494 46.5094C58.8851 46.0824 58.7022 45.4772 58.7022 44.6937C58.7022 43.8765 58.9005 43.2394 59.2976 42.7855C59.6929 42.3315 60.1984 42.1053 60.8139 42.1053C61.3457 42.1053 61.7799 42.2566 62.1165 42.5577C62.4529 42.8588 62.6296 43.2617 62.6483 43.7681H61.7629ZM64.729 42.2105H65.7724V42.8682H64.729V45.8054C64.729 46.0203 64.7817 46.1718 64.8903 46.2593C64.9972 46.3453 65.1507 46.39 65.3508 46.39C65.4297 46.39 65.5042 46.3851 65.5772 46.3771C65.6499 46.3691 65.7151 46.3581 65.7724 46.3421V47.0382C65.6934 47.0541 65.591 47.0669 65.4654 47.0779C65.3398 47.0891 65.2035 47.0939 65.0545 47.0939C64.6407 47.0939 64.3382 47.019 64.149 46.8694C63.9599 46.7197 63.8653 46.4633 63.8653 46.1001V42.8682H63.0374V42.2105H63.8653V41.2086L64.729 40.9203V42.2105ZM69.4751 42.1912V43.0689C69.424 43.0499 69.3682 43.0371 69.3076 43.0307C69.2471 43.0243 69.1728 43.0211 69.0845 43.0211C68.6441 43.0211 68.3169 43.1326 68.1029 43.3556C67.8905 43.5786 67.7835 43.9386 67.7835 44.4356V47.027H66.8981V43.0036L66.8889 42.7758L66.8532 42.2295H67.7386L67.7525 42.8029C67.7525 42.9589 67.754 43.0769 67.7572 43.1581C67.8317 42.8444 67.999 42.6023 68.2549 42.4335C68.5123 42.2662 68.8349 42.1818 69.2208 42.1818L69.4751 42.1912ZM72.5017 47.1895C71.7668 47.1895 71.1868 46.9617 70.7636 46.5061C70.3402 46.0506 70.1279 45.4183 70.1279 44.6107C70.1279 43.8479 70.334 43.241 70.7449 42.7871C71.1574 42.3331 71.7171 42.1053 72.4243 42.1053C73.1421 42.1053 73.7142 42.3379 74.1422 42.8029C74.5717 43.2681 74.7856 43.8893 74.7856 44.6664C74.7856 45.447 74.5842 46.0618 74.1808 46.5126C73.7793 46.9633 73.2196 47.1895 72.5017 47.1895ZM71.0412 44.6841C71.0412 45.251 71.1775 45.7002 71.449 46.0331C71.7218 46.3645 72.0723 46.5316 72.5017 46.5316C72.9251 46.5316 73.2568 46.3691 73.4971 46.0444C73.7376 45.7194 73.8585 45.2719 73.8585 44.7031C73.8585 44.1091 73.7313 43.6407 73.477 43.2951C73.2227 42.9495 72.8754 42.7774 72.4334 42.7774C72.0071 42.7774 71.6691 42.9479 71.4179 43.2871C71.1668 43.6281 71.0412 44.0947 71.0412 44.6841ZM80.2451 47.027H79.3552V43.8829C79.3552 43.5467 79.2528 43.2887 79.0467 43.1072C78.8403 42.9255 78.5845 42.8331 78.276 42.8331C77.9239 42.8331 77.6341 42.9654 77.4046 43.2282C77.175 43.491 77.0588 43.827 77.0588 44.2381V47.027H76.1828V42.5799C76.1828 42.4859 76.1796 42.3697 76.1734 42.2295H77.051C77.0557 42.4254 77.0588 42.5879 77.0588 42.7153V43.0036C77.2045 42.7121 77.403 42.494 77.6542 42.3505C77.9054 42.2057 78.2061 42.1339 78.5566 42.1339C79.0496 42.1339 79.4545 42.279 79.7706 42.5673C80.0869 42.8572 80.2451 43.2552 80.2451 43.7617V47.027ZM82.8067 40.1462V41.1304H81.754V40.1462H82.8067ZM82.7231 42.2295V47.027H81.847V42.2295H82.7231ZM87.083 43.7681C87.0645 43.4337 86.9728 43.1819 86.8086 43.0164C86.6427 42.8508 86.424 42.7678 86.1528 42.7678C85.7588 42.7678 85.4596 42.9193 85.2533 43.2202C85.0472 43.5213 84.9448 43.9753 84.9448 44.5821C84.9448 45.2224 85.0425 45.697 85.2379 46.0061C85.4318 46.315 85.7216 46.4695 86.1062 46.4695C86.4008 46.4695 86.638 46.3787 86.8194 46.1972C87.0009 46.0155 87.1 45.7607 87.1187 45.4311H88.0041C87.9684 45.9376 87.7777 46.3517 87.4319 46.6718C87.0877 46.992 86.6505 47.1512 86.1249 47.1512C85.4519 47.1512 84.9341 46.9379 84.5696 46.5094C84.2053 46.0824 84.0223 45.4772 84.0223 44.6937C84.0223 43.8765 84.2207 43.2394 84.6177 42.7855C85.013 42.3315 85.5186 42.1053 86.134 42.1053C86.6659 42.1053 87.1 42.2566 87.4366 42.5577C87.773 42.8588 87.9497 43.2617 87.9684 43.7681H87.083ZM95.6309 42.2295L95.6124 43.2983L95.603 45.9153V46.6384C95.5968 47.2947 95.5301 47.7629 95.4045 48.0401C95.2789 48.3188 95.0587 48.5402 94.7424 48.7027C94.4278 48.8667 93.9935 48.9479 93.4385 48.9479C92.978 48.9479 92.6075 48.8954 92.3284 48.7918C92.0491 48.6882 91.8414 48.5322 91.7035 48.3252C91.5655 48.1181 91.4894 47.8108 91.474 47.3997H92.4058C92.4306 47.739 92.5299 47.9794 92.7065 48.1229C92.8819 48.2647 93.144 48.3362 93.4927 48.3362C93.933 48.3362 94.2478 48.212 94.437 47.9636C94.6262 47.7152 94.7239 47.2915 94.7301 46.6941L94.7348 46.1239C94.6262 46.3771 94.4401 46.5763 94.1796 46.7213C93.9208 46.8678 93.5935 46.9411 93.1998 46.9411C92.5236 46.9411 92.0275 46.7197 91.7096 46.2784C91.3917 45.8372 91.2322 45.2703 91.2322 44.5805C91.2322 43.8366 91.4213 43.2472 91.801 42.8141C92.181 42.3792 92.6833 42.1626 93.3051 42.1626C93.6292 42.1626 93.913 42.2215 94.1563 42.3379C94.3997 42.4541 94.6061 42.6372 94.7765 42.8874L94.7859 42.2295H95.6309ZM94.758 44.426C94.758 43.8511 94.623 43.4354 94.3549 43.1819C94.085 42.9287 93.761 42.8013 93.3843 42.8013C92.9874 42.8013 92.6802 42.9543 92.4632 43.2585C92.2445 43.5644 92.1361 43.9975 92.1361 44.5615C92.1361 45.1094 92.243 45.5299 92.4585 45.826C92.6726 46.1207 92.9934 46.2689 93.4199 46.2689C93.716 46.2689 93.9594 46.2052 94.1501 46.0762C94.3408 45.9456 94.4898 45.7687 94.5967 45.5409C94.7038 45.3147 94.758 44.9421 94.758 44.426ZM100.818 45.8324C100.818 45.9853 100.824 46.1812 100.838 46.4234C100.85 46.6638 100.869 46.8646 100.889 47.027H100.1C100.066 46.9186 100.044 46.8105 100.031 46.7021C100.019 46.5953 100.013 46.4633 100.013 46.3086C99.8701 46.5811 99.6825 46.796 99.4516 46.9489C99.219 47.1036 98.9227 47.1799 98.5615 47.1799C98.0701 47.1799 97.6746 47.0493 97.3738 46.7896C97.0745 46.53 96.9241 46.1892 96.9241 45.7671C96.9241 45.2687 97.1149 44.8576 97.4979 44.5328C97.8793 44.2079 98.4763 44.0454 99.2903 44.0454H99.5757C99.7073 44.0454 99.8454 44.0548 99.9942 44.074V43.7507C99.9942 43.4624 99.9647 43.2552 99.9043 43.1294C99.8438 43.0036 99.7354 42.9 99.5801 42.8189C99.4267 42.7376 99.2268 42.6979 98.9803 42.6979C98.7088 42.6979 98.4917 42.7662 98.3336 42.9049C98.1738 43.0435 98.0886 43.2458 98.0761 43.5101H97.2032C97.2342 43.0116 97.4095 42.65 97.7305 42.4254C98.0514 42.1993 98.487 42.0863 99.0345 42.0863C99.5353 42.0863 99.9632 42.1945 100.32 42.411C100.675 42.6262 100.853 42.9862 100.853 43.491L100.818 45.8324ZM99.9772 45.1921L99.9942 44.6937L99.8949 44.6793L99.7539 44.6712L99.4934 44.6664C98.9352 44.6664 98.5149 44.7478 98.2314 44.9102C97.9476 45.0743 97.8049 45.3147 97.8049 45.6317C97.8049 45.8835 97.8932 46.0856 98.067 46.2401C98.2421 46.3932 98.4779 46.4711 98.7755 46.4711C99.1445 46.4711 99.4345 46.3533 99.6437 46.1207C99.8532 45.8881 99.9647 45.5792 99.9772 45.1921ZM105.728 43.558H104.837V43.4975C104.837 43.2649 104.761 43.0864 104.61 42.9638C104.46 42.8395 104.233 42.7774 103.931 42.7774C103.627 42.7774 103.393 42.8363 103.227 42.9527C103.063 43.0689 102.979 43.2394 102.979 43.4624C102.979 43.7587 103.17 43.953 103.548 44.0454L104.63 44.3208C105.043 44.426 105.348 44.5821 105.548 44.7876C105.748 44.993 105.849 45.2703 105.849 45.6223C105.849 46.0762 105.682 46.4456 105.347 46.7323C105.012 47.0174 104.516 47.1609 103.858 47.1609C103.266 47.1609 102.809 47.027 102.488 46.7578C102.167 46.4887 102.005 46.1033 102.005 45.603H102.928C102.928 45.8771 103.015 46.0888 103.191 46.2417C103.367 46.3948 103.623 46.4695 103.959 46.4695C104.264 46.4695 104.5 46.4026 104.668 46.2705C104.833 46.1367 104.917 45.9518 104.917 45.7146C104.917 45.4852 104.83 45.326 104.655 45.2368C104.481 45.1491 104.227 45.0695 103.894 45.001C103.561 44.9325 103.258 44.8497 102.985 44.7494C102.712 44.6506 102.497 44.5072 102.337 44.3208C102.177 44.1345 102.098 43.8845 102.098 43.569C102.098 43.1471 102.264 42.7981 102.596 42.5258C102.928 42.2517 103.37 42.1149 103.922 42.1149C104.435 42.1149 104.863 42.2215 105.209 42.4335C105.555 42.6468 105.728 42.9766 105.728 43.4225V43.558ZM113.519 43.0036C113.688 42.7025 113.905 42.4779 114.166 42.3283C114.428 42.1802 114.733 42.1053 115.082 42.1053C115.611 42.1053 116.031 42.2534 116.34 42.5513C116.648 42.8476 116.802 43.2601 116.802 43.789V47.027H115.921V43.8543C115.921 43.5133 115.825 43.252 115.631 43.0737C115.437 42.8952 115.183 42.8045 114.868 42.8045C114.549 42.8045 114.268 42.9145 114.029 43.131C113.791 43.3492 113.671 43.6996 113.671 44.1806V47.027H112.786V43.8462C112.786 43.5309 112.695 43.2791 112.512 43.0896C112.327 42.9 112.079 42.8045 111.764 42.8045C111.448 42.8045 111.166 42.9161 110.915 43.1358C110.662 43.3572 110.536 43.6934 110.536 44.1442V47.027H109.651V42.8682C109.651 42.8157 109.649 42.7344 109.646 42.6262L109.632 42.2295H110.519V42.9255C110.685 42.642 110.888 42.4351 111.128 42.3028C111.37 42.1706 111.659 42.1053 111.994 42.1053C112.384 42.1053 112.702 42.1786 112.947 42.3267C113.192 42.4733 113.383 42.6993 113.519 43.0036ZM122.327 44.7906H118.974V44.864C118.974 45.3816 119.091 45.7863 119.323 46.0778C119.556 46.3707 119.886 46.5174 120.312 46.5174C120.622 46.5174 120.875 46.4328 121.069 46.2641C121.263 46.0953 121.376 45.8484 121.409 45.5267H122.28C122.25 46.0139 122.054 46.409 121.692 46.7133C121.331 47.0174 120.858 47.1705 120.275 47.1705C119.56 47.1705 119.021 46.9553 118.655 46.527C118.289 46.0969 118.106 45.4804 118.106 44.6744C118.106 43.8446 118.298 43.2092 118.683 42.7678C119.067 42.3267 119.61 42.1053 120.312 42.1053C120.981 42.1053 121.483 42.298 121.821 42.6835C122.157 43.0689 122.327 43.6439 122.327 44.4084V44.7906ZM121.436 44.16V44.0899C121.436 43.6645 121.342 43.335 121.151 43.0976C120.96 42.8618 120.672 42.744 120.284 42.744C119.906 42.744 119.599 42.8746 119.363 43.1326C119.128 43.3923 119.01 43.7347 119.01 44.16H121.436ZM124.59 42.2105H125.634V42.8682H124.59V45.8054C124.59 46.0203 124.643 46.1718 124.752 46.2593C124.859 46.3453 125.012 46.39 125.212 46.39C125.291 46.39 125.366 46.3851 125.439 46.3771C125.511 46.3691 125.576 46.3581 125.634 46.3421V47.0382C125.555 47.0541 125.452 47.0669 125.327 47.0779C125.201 47.0891 125.065 47.0939 124.916 47.0939C124.502 47.0939 124.2 47.019 124.01 46.8694C123.821 46.7197 123.727 46.4633 123.727 46.1001V42.8682H122.899V42.2105H123.727V41.2086L124.59 40.9203V42.2105ZM130.599 44.7906H127.246V44.864C127.246 45.3816 127.363 45.7863 127.595 46.0778C127.828 46.3707 128.158 46.5174 128.584 46.5174C128.895 46.5174 129.147 46.4328 129.341 46.2641C129.535 46.0953 129.648 45.8484 129.681 45.5267H130.552C130.523 46.0139 130.326 46.409 129.964 46.7133C129.603 47.0174 129.13 47.1705 128.547 47.1705C127.832 47.1705 127.293 46.9553 126.927 46.527C126.561 46.0969 126.378 45.4804 126.378 44.6744C126.378 43.8446 126.57 43.2092 126.955 42.7678C127.339 42.3267 127.882 42.1053 128.584 42.1053C129.253 42.1053 129.755 42.298 130.093 42.6835C130.43 43.0689 130.599 43.6439 130.599 44.4084V44.7906ZM129.709 44.16V44.0899C129.709 43.6645 129.614 43.335 129.423 43.0976C129.233 42.8618 128.944 42.744 128.557 42.744C128.178 42.744 127.871 42.8746 127.635 43.1326C127.4 43.3923 127.282 43.7347 127.282 44.16H129.709ZM134.511 42.1912V43.0689C134.46 43.0499 134.404 43.0371 134.343 43.0307C134.283 43.0243 134.208 43.0211 134.12 43.0211C133.68 43.0211 133.352 43.1326 133.138 43.3556C132.926 43.5786 132.819 43.9386 132.819 44.4356V47.027H131.934V43.0036L131.924 42.7758L131.889 42.2295H132.774L132.788 42.8029C132.788 42.9589 132.79 43.0769 132.793 43.1581C132.867 42.8444 133.035 42.6023 133.29 42.4335C133.548 42.2662 133.87 42.1818 134.256 42.1818L134.511 42.1912ZM138.812 43.558H137.92V43.4975C137.92 43.2649 137.844 43.0864 137.694 42.9638C137.543 42.8395 137.317 42.7774 137.015 42.7774C136.711 42.7774 136.477 42.8363 136.311 42.9527C136.146 43.0689 136.063 43.2394 136.063 43.4624C136.063 43.7587 136.253 43.953 136.632 44.0454L137.714 44.3208C138.126 44.426 138.432 44.5821 138.632 44.7876C138.832 44.993 138.933 45.2703 138.933 45.6223C138.933 46.0762 138.765 46.4456 138.43 46.7323C138.095 47.0174 137.599 47.1609 136.942 47.1609C136.35 47.1609 135.892 47.027 135.571 46.7578C135.25 46.4887 135.089 46.1033 135.089 45.603H136.012C136.012 45.8771 136.098 46.0888 136.275 46.2417C136.45 46.3948 136.706 46.4695 137.043 46.4695C137.348 46.4695 137.584 46.4026 137.751 46.2705C137.917 46.1367 138.001 45.9518 138.001 45.7146C138.001 45.4852 137.914 45.326 137.739 45.2368C137.565 45.1491 137.311 45.0695 136.978 45.001C136.644 44.9325 136.342 44.8497 136.069 44.7494C135.796 44.6506 135.581 44.5072 135.421 44.3208C135.261 44.1345 135.182 43.8845 135.182 43.569C135.182 43.1471 135.348 42.7981 135.68 42.5258C136.012 42.2517 136.453 42.1149 137.005 42.1149C137.519 42.1149 137.947 42.2215 138.292 42.4335C138.638 42.6468 138.812 42.9766 138.812 43.4225V43.558Z" fill="#5B5B5B"/>
</svg>
