<svg width="180" height="25" viewBox="0 0 180 25" xmlns="http://www.w3.org/2000/svg">
<path fill-rule="evenodd" clip-rule="evenodd" d="M0 0.0107422V24.2933H8.86506V20.0535H18.1156C19.6573 19.7323 22.7984 18.6412 24.668 16.5846C26.5952 14.4647 27.9442 8.10493 25.8243 5.21415C23.1662 1.58941 20.4282 0.39618 17.7301 0.0107422H0ZM8.86452 11.9599V7.72008H16.1878C16.8302 7.97703 18.115 8.7993 18.115 10.0327C18.115 11.2661 16.8302 11.8314 16.1878 11.9599H8.86452Z" fill="#036063"/>
<path fill-rule="evenodd" clip-rule="evenodd" d="M30.0635 0.0117188V24.2943H38.9285V20.0545H45.8664L48.3718 24.2943H57.2368L53.5752 17.9346C53.5109 17.8061 53.421 17.5106 53.5752 17.3564C53.5926 17.339 53.6383 17.3074 53.7068 17.2601C54.3966 16.784 57.3947 14.7141 57.0441 9.45494C56.6587 3.67338 52.2261 0.975313 48.3718 0.0117188H30.0635ZM38.9291 11.9603H46.6379C47.1518 11.8318 48.1796 11.2665 48.1796 10.0331C48.1796 8.7997 47.1518 8.10591 46.6379 7.9132H38.9291V11.9603Z" fill="#036063"/>
<path fill-rule="evenodd" clip-rule="evenodd" d="M74.0039 24.2943C78.4365 24.1015 87.3401 21.2878 87.4942 11.5748C87.3015 1.93888 77.2801 -0.181026 74.0039 0.0116927C73.9648 0.0139973 73.9248 0.0163293 73.884 0.0187067C70.5167 0.215145 61.8419 0.721207 60.1282 11.5748C60.1282 20.4399 68.2224 24.6797 74.0039 24.2943ZM74.0695 16.1917C75.5678 16.1245 78.5775 15.1434 78.6296 11.7565C78.5644 8.39651 75.1769 7.65732 74.0695 7.72452C74.0562 7.72532 74.0427 7.72613 74.029 7.72696C72.8907 7.79546 69.9584 7.97192 69.3791 11.7565C69.3791 14.8477 72.1152 16.3261 74.0695 16.1917Z" fill="#036063"/>
<path d="M90.5779 24.2943V0.0117188H99.6357V16.2001H113.319V24.2943H90.5779Z" fill="#6D6E70"/>
<path d="M116.016 24.2943V0.0117188H125.652V24.2943H116.016Z" fill="#6D6E70"/>
<path d="M128.351 0.0117188V24.2943H136.445V14.2729L154.175 24.2943V0.0117188H146.081V9.84038L128.351 0.0117188Z" fill="#6D6E70"/>
<path d="M157.259 24.2943V0.0117188H180V7.72047H166.51V9.64766H171.52V8.49135L174.989 12.153L171.52 15.4292V14.2729H166.51V16.2001H180V24.2943H157.259Z" fill="#6D6E70"/>
</svg>
