<svg width="186" height="25" viewBox="0 0 186 25" fill="none" xmlns="http://www.w3.org/2000/svg">
<path fill-rule="evenodd" clip-rule="evenodd" d="M32.5759 24.3158L32.438 0.978268H41.049V9.57391H57.3103V1.04583H65.506V24.3818H57.3103V15.9213H40.9793V24.3158H32.5759ZM29.9415 6.79988C30.0446 6.45569 30.0446 5.81733 29.8651 5.23502C29.6806 4.64809 29.32 4.12067 28.8262 3.60451C28.336 3.08489 27.7243 2.57845 26.9964 2.13624C26.2668 1.69557 25.4242 1.3208 24.7642 1.102C24.1013 0.880256 23.6224 0.814233 20.644 0.780453C17.6574 0.75 12.1692 0.75 9.37707 0.75C6.58997 0.75 6.49502 0.749999 6.07965 0.849546C5.65569 0.946151 4.90456 1.14563 4.15 1.47677C3.39874 1.80664 2.64748 2.26957 2.05755 2.85496C1.46578 3.43727 1.03018 4.14319 0.74771 4.85883C0.460219 5.57435 0.325599 6.30125 0.234088 7.19385C0.142842 8.08799 0.0997316 9.1445 0.187672 10.0709C0.279182 10.9973 0.508488 11.7884 0.917244 12.5153C1.32613 13.2436 1.9195 13.9046 2.67406 14.4112C3.42373 14.9194 4.33461 15.27 4.93617 15.4695C5.53786 15.669 5.83871 15.7107 8.44464 15.7331C11.0541 15.7574 15.9705 15.7574 18.5234 15.7461C21.0745 15.7331 21.2574 15.7107 21.4717 15.8215C21.6895 15.9325 21.9405 16.1737 22.0751 16.4488C22.213 16.7253 22.2346 17.0341 22.1433 17.2867C22.0534 17.5408 21.8474 17.7386 21.653 17.8817C21.4617 18.0264 21.2806 18.1132 17.7023 18.1598C14.1256 18.2015 7.15834 18.2015 3.61985 18.2258C0.0763257 18.245 -0.0401784 18.2901 0.00637025 18.6761C0.0514643 19.062 0.257496 19.7905 0.666384 20.5286C1.07673 21.2668 1.69006 22.0145 2.47782 22.6095C3.26412 23.2046 4.22141 23.647 4.97267 23.9106C5.72234 24.1744 6.27074 24.2627 9.48009 24.3063C12.6927 24.3512 18.5682 24.3512 21.6412 24.3174C24.7176 24.2853 24.9903 24.2178 25.5121 24.0102C26.0391 23.7997 26.8135 23.4475 27.4866 22.9843C28.1566 22.5211 28.7265 21.9486 29.1355 21.3423C29.5476 20.7362 29.7952 20.0961 29.9233 18.8869C30.0446 17.6741 30.0446 15.8875 30.023 14.897C30.0046 13.9046 29.9565 13.7069 29.762 13.353C29.5693 13.0024 29.2269 12.4943 28.7864 12.0103C28.336 11.5247 27.7909 11.0614 27.0978 10.6561C26.4032 10.2462 25.5604 9.89558 24.8675 9.70724C24.1727 9.51915 23.6224 9.49675 21.028 9.48715C18.4336 9.4741 13.7865 9.47411 11.3383 9.45504C8.88857 9.43227 8.63745 9.38735 8.44464 9.28768C8.25197 9.188 8.11232 9.03356 8.02412 8.80363C7.93128 8.57203 7.88791 8.26482 7.99093 8.00904C8.09064 7.75659 8.34163 7.55724 8.61431 7.42058C8.88514 7.28547 9.18109 7.20997 12.5035 7.16967C15.8308 7.13282 22.1866 7.13282 25.4905 7.14728C28.7948 7.16327 29.0473 7.19705 29.1904 7.21151C29.3399 7.22763 29.3881 7.22763 29.5111 7.20511C29.6374 7.18246 29.8417 7.13921 29.9415 6.79988ZM149.446 9.38428L152.898 9.40821L162.187 0.979932H174.18L161.605 11.7884L176.605 24.4157H164.923L153.684 15.0947H149.446V24.3512H141.244V0.880255H149.446V9.38428ZM177.732 24.4815V1.01358H185.931V24.4815H177.732ZM118.605 14.8952H126.099L122.321 7.55724L118.605 14.8952ZM128.735 20.0189H116.007L113.712 24.5492H104.487L116.649 1.01358H125.396C130.371 1.45272 135.28 16.7028 140.223 24.5492H131.067L128.735 20.0189ZM92.8714 24.4157C87.8971 23.9766 82.9872 8.72468 78.0459 0.880255H87.2006L95.9479 17.8721L104.556 0.880255H113.78L101.619 24.4157H92.8714ZM68.6838 24.3512V0.880255H76.8826V24.3512H68.6838Z" fill="#E10D13"/>
</svg>
