<svg width="86" height="195" viewBox="0 0 86 195" fill="none" xmlns="http://www.w3.org/2000/svg">
<g clip-path="url(#clip0_129_51171)">
<path opacity="0.3" d="M0.5 160.501L25.1383 146.31H60.1905L84.8041 160.501V180.309L60.1905 194.5H25.1383L0.5 180.309V160.501Z" fill="white" stroke="#036063"/>
<path d="M78.8432 174.538L83.7415 175.278L75.3783 180.492L56.8229 191.204V187.489L78.8432 174.538Z" fill="white" stroke="#036063"/>
<path d="M29.1498 191.57L21.9045 187.1L58.812 189.713L56.1662 191.57H29.1498Z" fill="white" stroke="#036063"/>
<path d="M19.3165 180.463L24.0939 188.661L9.92445 180.491L1.52885 175.257L8.64872 174.045L19.3165 180.463Z" fill="white" stroke="#036063"/>
<path d="M51.9735 45.3221L84.6536 36.5341V174.697L60.6984 188.479L51.9735 45.3221Z" fill="white" stroke="#036063"/>
<path d="M66.5413 159.973V150.885L72.2483 141.011L80.1357 136.454L85.4995 139.519L85.4757 148.63L79.7684 158.505L71.8824 163.061L66.5413 159.973Z" fill="white" stroke="#036063"/>
<path d="M63.1838 149.1L67.3629 146.645L65.5844 150.543L65.5393 150.642V150.751V159.395L63.1838 158.036V149.1Z" fill="white" stroke="#036063"/>
<path d="M76.7794 134.517L79.1349 135.876L71.6326 140.211L71.5388 140.265L71.4759 140.353L68.9892 143.835L69.0251 138.997L76.7794 134.517Z" fill="white" stroke="#036063"/>
<path d="M65.8598 150.04L63.3673 148.604L68.7031 139.36L71.1956 140.795L65.8598 150.04Z" fill="white" stroke="#036063"/>
<path d="M71.0485 56.3651L74.5921 54.3362L75.416 54.8102L72.1429 58.0606L71.0485 56.3651Z" fill="white" stroke="#036063"/>
<path d="M69.054 65.3412L67.9214 61.4229L70.5238 56.8786L71.414 57.3963L69.054 65.3412Z" fill="white" stroke="#036063"/>
<path d="M67.891 62.2102L68.5475 62.5724V66.2482L67.929 65.8869L67.891 62.2102Z" fill="white" stroke="#036063"/>
<path d="M72.0329 68.2556L69.55 66.8294V62.4108L72.3742 57.5268L76.2338 55.2813L78.6911 56.7047V61.1741L75.8678 66.0567L72.0329 68.2556Z" fill="white" stroke="#036063"/>
<path d="M71.9646 67.2165L77.7785 57.1777L78.0677 57.3481V61.2246L75.6164 65.4867L72.2842 67.4081L71.9646 67.2165Z" fill="white" stroke="#036063"/>
<path d="M75.9852 56.1271L77.0987 56.7775L77.0763 60.6524L74.6249 64.9146L71.2868 66.817L70.1715 66.1828V62.361L72.6238 58.0973L75.9852 56.1271Z" fill="white" stroke="#036063"/>
<mask id="path-16-inside-1_129_51171" fill="white">
<path d="M73.944 61.7058L73.422 61.7555L74.7642 57.0624L75.2862 57.0127L73.944 61.7058Z"/>
</mask>
<path d="M73.944 61.7058L73.422 61.7555L74.7642 57.0624L75.2862 57.0127L73.944 61.7058Z" fill="white"/>
<path d="M73.944 61.7058L74.0387 62.7013L74.7178 62.6367L74.9054 61.9808L73.944 61.7058ZM73.422 61.7555L72.4605 61.4805L72.0575 62.8898L73.5167 62.751L73.422 61.7555ZM74.7642 57.0624L74.6695 56.0669L73.9903 56.1315L73.8027 56.7874L74.7642 57.0624ZM75.2862 57.0127L76.2476 57.2877L76.6507 55.8784L75.1914 56.0172L75.2862 57.0127ZM73.8492 60.7103L73.3273 60.76L73.5167 62.751L74.0387 62.7013L73.8492 60.7103ZM74.3835 62.0304L75.7256 57.3373L73.8027 56.7874L72.4605 61.4805L74.3835 62.0304ZM74.8589 58.0579L75.3809 58.0082L75.1914 56.0172L74.6695 56.0669L74.8589 58.0579ZM74.3247 56.7377L72.9825 61.4308L74.9054 61.9808L76.2476 57.2877L74.3247 56.7377Z" fill="#036063" mask="url(#path-16-inside-1_129_51171)"/>
<path d="M73.1021 62.6495L72.8804 62.5273V61.7383L73.4703 60.7017L74.1441 60.3011L74.3908 60.4489V61.2236L73.7822 62.2775L73.1021 62.6495Z" fill="white" stroke="#036063"/>
<path d="M0.761433 36.5672L59.7482 50.6781V188.814H25.4782L0.761433 36.5672Z" fill="white" stroke="#036063"/>
<path d="M0.647583 36.7722L24.5528 50.5723V188.449L0.647583 174.697V36.7722Z" fill="white" stroke="#036063"/>
<path d="M25.7388 49.7828L29.368 38.541H55.9555L59.5619 49.7828H25.7388Z" fill="white" stroke="#036063"/>
<path d="M60.5367 49.5399L56.9223 38.2731L75.5633 27.5357L84.3234 35.7845L60.5367 49.5399Z" fill="white" stroke="#036063"/>
<path d="M58.5479 1.79102L58.167 2.03185L28.6122 1.88398L28.3182 1.79102H58.5479Z" fill="white" stroke="#036063"/>
<path d="M56.9689 0.737073L60.0706 1.75049L82.3967 14.5721L74.9885 13.2055L57.4428 3.28L56.9689 0.737073Z" fill="white" stroke="#036063"/>
<path d="M84.6562 34.7245L76.1351 26.7008V11.9103L84.6792 15.9114L84.6562 34.7245Z" fill="white" stroke="#036063"/>
<path d="M24.767 49.5409L0.978991 35.8085L9.74019 27.5358L28.4046 38.273L24.767 49.5409Z" fill="white" stroke="#036063"/>
<path d="M10.7147 14.2146L2.34497 14.9098L25.2822 1.75029L26.5844 1.32216L10.7147 14.2146Z" fill="white" stroke="#036063"/>
<path d="M0.647583 34.7458V15.9109L9.14362 11.9114L9.1669 26.7015L0.647583 34.7458Z" fill="white" stroke="#036063"/>
<path d="M10.1433 11.4135L29.1387 0.5H56.1877L75.1342 11.4134V26.6281L56.1877 37.5415H29.1388L10.1672 26.6276L10.1433 11.4135Z" fill="#036063" stroke="#036063"/>
</g>
<defs>
<clipPath id="clip0_129_51171">
<rect width="86" height="195" fill="white"/>
</clipPath>
</defs>
</svg>
