<svg width="220" height="82" viewBox="0 0 220 82" fill="none" xmlns="http://www.w3.org/2000/svg">
<path d="M68.0988 68.6359C67.4154 68.6359 66.8613 67.9502 66.8613 67.1043C66.8613 66.2581 67.4154 65.5723 68.0988 65.5723H218.162C218.845 65.5723 219.399 66.2581 219.399 67.1043C219.399 67.9502 218.845 68.6359 218.162 68.6359H68.0988Z" fill="#00699D"/>
<path fill-rule="evenodd" clip-rule="evenodd" d="M36.8289 18.2324L30.1373 22.2024V30.1902L33.4835 28.205L36.8289 26.2218V30.7831L30.1373 34.753L26.2894 32.4724L9.44662 22.4807C6.37716 27.9295 4.62081 34.2564 4.62081 41.005C4.62081 44.9287 5.21443 48.7091 6.31413 52.2592L2.91129 54.2782C1.5262 50.1146 0.773438 45.6494 0.773438 41.005C0.773438 33.5368 2.71772 26.535 6.11377 20.5053L6.1189 20.508C6.7686 19.3535 7.46412 18.2443 8.20133 17.1799L9.95602 18.2195L26.2894 27.9082V19.9694L23.1402 18.1008L19.5825 15.9902C20.6246 15.0663 21.7356 14.1991 22.9115 13.4017L26.2894 15.4059V15.6495V11.3906C27.5296 10.7537 28.8134 10.1971 30.1373 9.72852V17.6384L36.8289 13.6685V18.2324Z" fill="#E10D13"/>
<path fill-rule="evenodd" clip-rule="evenodd" d="M57.9442 26.192L51.2509 22.2219L44.516 26.218L47.8623 28.2011L51.2075 30.1863L47.3621 32.4686L40.669 28.4987V23.9347L40.6706 1.17234e-05L40.669 3.95258C34.5415 3.94731 28.3294 5.54758 22.6411 8.92282C19.3331 10.8842 16.4432 13.3027 14.0014 16.0572L10.5984 14.0391C13.4137 10.7238 16.8015 7.82273 20.7185 5.49948C27.0131 1.76513 33.8873 -0.00525678 40.6706 1.17234e-05C41.9495 1.17234e-05 43.2337 0.0630639 44.516 0.189168V21.6541L50.67 18.0028L51.2093 17.6845V9.7272C52.5112 10.1907 53.7944 10.7466 55.0546 11.3943L55.0564 15.4021L54.8502 15.5243L58.4398 13.3953C59.5968 14.1789 60.7077 15.0445 61.7659 15.9864L58.2107 18.0934L55.0966 19.9415L61.7899 23.9114L57.9442 26.192Z" fill="#E10D13"/>
<path fill-rule="evenodd" clip-rule="evenodd" d="M61.8128 48.9657V41.0281H61.8141L55.0792 37.0327V44.9703L51.2322 42.6892V34.7504L55.0774 32.4698L75.2557 20.5027L71.9223 22.478C68.8643 17.0234 64.4095 12.2981 58.7201 8.92406C55.4131 6.96095 51.9277 5.59998 48.3862 4.80461V0.767578C52.5877 1.61649 56.7287 3.17817 60.6439 5.50073C66.9397 9.23541 71.8687 14.4653 75.2557 20.5027C75.8987 21.6485 76.4837 22.8235 77.0138 24.0214L58.9249 34.7504L65.0788 38.4018L65.6181 38.721L68.7681 36.8505L72.3267 34.7414C72.5847 36.1314 72.7599 37.5519 72.8432 38.9965L69.4656 41.0024L69.2592 40.8794L72.8496 43.0092C72.7667 44.4305 72.5933 45.851 72.3293 47.2643L68.7724 45.1548L65.6598 43.3083V51.2479L61.8128 48.9657Z" fill="#00699D"/>
<path fill-rule="evenodd" clip-rule="evenodd" d="M44.5225 63.7729L51.2158 59.8011V51.8128L47.8687 53.7967L44.5243 55.7824V51.2185L51.2158 47.2494L55.0628 49.5322L71.9059 59.5218C74.9762 54.0723 76.7317 47.7469 76.7317 40.9991C76.7317 37.0746 76.1377 33.2935 75.038 29.7441L78.4404 27.7266C79.8265 31.8889 80.5787 36.3535 80.5787 40.9991C80.5787 48.466 78.6348 55.4685 75.2392 61.498L75.2316 61.4947C74.5828 62.6496 73.8889 63.7594 73.1512 64.824L67.0139 61.185L55.061 54.0951L55.0628 61.3952V62.0344L58.2128 63.9034L61.7697 66.0123C60.7276 66.937 59.6168 67.8034 58.4415 68.6L55.0628 66.5969V66.3536V70.611C53.824 71.248 52.5382 71.8056 51.2158 72.2759V64.3648L44.5225 68.3349V63.7729Z" fill="#00699D"/>
<path fill-rule="evenodd" clip-rule="evenodd" d="M19.563 33.0373V40.9742L26.297 44.9681V37.0305L30.1448 39.3128V47.2505L26.297 49.5333L9.45423 59.5229C12.5131 64.9786 16.9677 69.7041 22.6561 73.0778C25.9639 75.0399 29.4488 76.4012 32.9903 77.1969V81.2345C28.7887 80.3866 24.6492 78.8232 20.7335 76.5006C14.4375 72.7673 9.50651 67.5368 6.12139 61.4991C5.47765 60.3535 4.89248 59.1793 4.36157 57.9796L10.4988 54.3396L22.4513 47.2505L16.2984 43.6012L15.7581 43.2808L12.6072 45.1498L9.04973 47.2604C8.79147 45.8704 8.61759 44.4509 8.53255 43.0045L11.9111 41.0002L12.1174 41.1207L8.52742 38.9917C8.60981 37.5723 8.78287 36.1512 9.04725 34.7366L12.6023 36.8457L15.7164 38.6936V30.7559L19.563 33.0373Z" fill="#E10D13"/>
<path fill-rule="evenodd" clip-rule="evenodd" d="M58.7117 73.0797C53.0234 76.4546 46.8117 78.0548 40.685 78.0484V58.0661L40.6833 53.5039L33.9918 49.5352L30.1453 51.8157L33.4905 53.7996L36.836 55.7853L30.1011 59.7807L23.4096 55.8105L19.5632 58.0921L26.2557 62.0622L23.1413 63.9075L19.5869 66.017C20.6454 66.9592 21.7562 67.823 22.913 68.6074L26.5029 66.4787L26.2964 66.5999V70.6072C27.5584 71.2571 28.8426 71.811 30.1443 72.2763V64.3179L30.6838 63.9979L36.8368 60.3492V81.8142C38.1201 81.9406 39.4033 82.0025 40.6833 82.0006C47.4667 82.0088 54.3407 80.236 60.6354 76.5025C64.5513 74.1801 67.9383 71.2778 70.7547 67.9634L67.3514 65.9456C64.9098 68.6991 62.0197 71.1174 58.7117 73.0797Z" fill="#00699D"/>
<path fill-rule="evenodd" clip-rule="evenodd" d="M111.524 55.5982L111.437 39.9336H116.88V45.7026H127.161V39.9781H132.345V55.6427H127.161V49.9626H116.837V55.5982H111.524Z" fill="#E10D13"/>
<path fill-rule="evenodd" clip-rule="evenodd" d="M134.355 55.6259H139.539V39.873H134.355V55.6259Z" fill="#E10D13"/>
<path fill-rule="evenodd" clip-rule="evenodd" d="M149.634 55.6706C146.488 55.3749 143.385 45.1388 140.26 39.873H146.049L151.578 51.2773L157.021 39.873H162.853L155.164 55.6706H149.634Z" fill="#E10D13"/>
<path fill-rule="evenodd" clip-rule="evenodd" d="M170.194 39.9561C173.34 40.2518 176.443 50.4879 179.568 55.7538H173.779L168.25 44.3492L162.807 55.7538H156.975L164.664 39.9561H170.194Z" fill="#E10D13"/>
<path fill-rule="evenodd" clip-rule="evenodd" d="M163.561 52.7167L164.921 49.2773H171.401L173.064 52.7167H163.561Z" fill="#E10D13"/>
<path fill-rule="evenodd" clip-rule="evenodd" d="M180.224 55.6259H185.408V39.873H180.224V55.6259Z" fill="#E10D13"/>
<path fill-rule="evenodd" clip-rule="evenodd" d="M203.283 55.7093H208.467V39.9561H203.283V55.7093Z" fill="#E10D13"/>
<path fill-rule="evenodd" clip-rule="evenodd" d="M184.825 45.571L187.59 45.5933L193.465 39.9355H201.046L193.098 47.1908L202.58 55.6667H195.193L188.087 49.4096H184.825V45.571Z" fill="#E10D13"/>
<path fill-rule="evenodd" clip-rule="evenodd" d="M109.847 43.8398C109.912 43.6104 109.912 43.1816 109.797 42.7897C109.681 42.3973 109.451 42.0427 109.141 41.695C108.832 41.3473 108.443 41.0069 107.982 40.711C107.522 40.4151 106.989 40.1636 106.571 40.016C106.154 39.8677 105.851 39.8237 103.965 39.8012C102.078 39.7793 98.6081 39.7793 96.8441 39.7793C95.0803 39.7793 95.0229 39.7793 94.7562 39.8459C94.4902 39.9125 94.0146 40.0458 93.5396 40.2672C93.0643 40.4892 92.5893 40.8 92.2147 41.1918C91.8406 41.584 91.567 42.0573 91.387 42.5381C91.2068 43.0189 91.1208 43.5069 91.0629 44.106C91.0055 44.7049 90.9764 45.4149 91.0341 46.0363C91.0915 46.6575 91.2356 47.1899 91.4949 47.6779C91.7541 48.1665 92.1285 48.61 92.6037 48.9501C93.079 49.2907 93.655 49.5271 94.0364 49.6602C94.4179 49.7933 94.6054 49.823 96.254 49.838C97.9025 49.8527 101.013 49.8527 102.626 49.8453C104.239 49.838 104.354 49.823 104.491 49.8971C104.627 49.9707 104.786 50.1338 104.872 50.3184C104.958 50.5035 104.973 50.7108 104.915 50.8805C104.858 51.0507 104.728 51.184 104.606 51.28C104.483 51.376 104.368 51.4353 102.108 51.4649C99.8466 51.4945 95.4405 51.4945 93.2012 51.5093C90.962 51.5241 90.8902 51.554 90.919 51.8125C90.9476 52.0713 91.0771 52.5598 91.3364 53.0553C91.5958 53.5509 91.9846 54.0533 92.4814 54.453C92.9781 54.8526 93.5828 55.1483 94.0582 55.3257C94.5332 55.5028 94.879 55.5623 96.9091 55.5919C98.9396 55.6215 102.655 55.6215 104.599 55.5995C106.543 55.5771 106.715 55.5324 107.046 55.392C107.378 55.2518 107.867 55.0151 108.292 54.7046C108.717 54.3941 109.077 54.0095 109.336 53.6022C109.595 53.1955 109.754 52.7664 109.833 51.953C109.912 51.1395 109.912 49.9411 109.898 49.2759C109.883 48.61 109.855 48.477 109.732 48.2402C109.61 48.0037 109.393 47.6632 109.113 47.338C108.832 47.0127 108.486 46.702 108.047 46.4284C107.608 46.1547 107.075 45.9182 106.636 45.7924C106.197 45.6663 105.851 45.6517 104.21 45.6445C102.568 45.6371 99.6308 45.6371 98.0826 45.6223C96.5349 45.6075 96.3762 45.5777 96.254 45.5115C96.1317 45.4448 96.0452 45.341 95.9878 45.1855C95.9299 45.0305 95.9013 44.8232 95.9661 44.6534C96.0308 44.4833 96.1891 44.35 96.361 44.2581C96.5333 44.166 96.7186 44.115 98.8208 44.0891C100.923 44.0635 104.942 44.0635 107.031 44.0745C109.12 44.0851 109.279 44.1065 109.372 44.1172C109.466 44.1279 109.494 44.1279 109.573 44.1133C109.653 44.0985 109.782 44.0689 109.847 43.8398Z" fill="#E10D13"/>
<path d="M101.504 24.8705L99.6124 27.3941H93.8518V28.6562H100.968L99.1888 31.0202H93.8518V34.5741H90.915V24.8705H101.504ZM115.426 34.5741H111.515L109.411 32.0068H104.921V34.5741H101.998V29.6135H110.216C110.667 29.6135 111.049 29.5166 111.359 29.3232C111.67 29.13 111.825 28.8642 111.825 28.5255C111.825 28.1485 111.684 27.8656 111.402 27.6773C111.119 27.4886 110.724 27.3941 110.216 27.3941H101.998L103.905 24.8705H109.976C110.512 24.8705 111.068 24.9213 111.642 25.0226C112.216 25.1243 112.738 25.3056 113.209 25.5668C113.679 25.8277 114.068 26.1805 114.374 26.6254C114.68 27.0704 114.832 27.6409 114.832 28.337C114.832 28.7141 114.776 29.0719 114.663 29.4104C114.55 29.7486 114.388 30.0534 114.176 30.3243C113.964 30.595 113.705 30.8248 113.4 31.0132C113.094 31.2017 112.748 31.3344 112.362 31.4119C112.522 31.5379 112.701 31.6973 112.898 31.8907C113.096 32.0839 113.36 32.3501 113.689 32.6883L115.426 34.5741ZM119.435 34.5741H116.513V24.8705H119.435V34.5741ZM127.088 28.5109H133.131V34.5741H126.65C125.831 34.5741 125.074 34.4483 124.377 34.1968C123.681 33.9454 123.08 33.5996 122.577 33.1597C122.073 32.7199 121.678 32.1976 121.391 31.5933C121.104 30.9889 120.96 30.3338 120.96 29.628C120.96 28.922 121.104 28.2767 121.391 27.6917C121.678 27.1066 122.073 26.6037 122.577 26.1829C123.08 25.7623 123.681 25.4385 124.377 25.2114C125.074 24.9839 125.831 24.8705 126.65 24.8705H133.413L131.521 27.3941H126.65C126.255 27.3941 125.888 27.4522 125.549 27.5682C125.21 27.6842 124.916 27.8486 124.667 28.0615C124.417 28.2743 124.222 28.5231 124.08 28.8085C123.939 29.0938 123.869 29.4104 123.869 29.7583C123.869 30.1065 123.937 30.4232 124.073 30.7087C124.21 30.9937 124.403 31.2379 124.652 31.441C124.902 31.6439 125.196 31.8013 125.535 31.9123C125.874 32.0234 126.245 32.0792 126.65 32.0792H130.222V30.6721H125.337L127.088 28.5109ZM141.419 24.7109C143.715 24.7109 145.44 25.112 146.593 25.9147C147.746 26.7172 148.323 27.9842 148.323 29.715C148.323 31.4556 147.748 32.727 146.6 33.5297C145.452 34.3324 143.725 34.7335 141.419 34.7335C139.103 34.7335 137.374 34.3324 136.23 33.5297C135.086 32.727 134.515 31.4556 134.515 29.715C134.515 27.9842 135.089 26.7172 136.237 25.9147C137.385 25.112 139.113 24.7109 141.419 24.7109ZM141.419 32.2099C142.153 32.2099 142.774 32.1783 143.282 32.1154C143.791 32.0527 144.202 31.9294 144.518 31.7456C144.833 31.562 145.061 31.3079 145.202 30.9842C145.344 30.6601 145.414 30.2372 145.414 29.715C145.414 29.1929 145.344 28.7697 145.202 28.446C145.061 28.1219 144.833 27.8705 144.518 27.6917C144.202 27.5128 143.791 27.3917 143.282 27.3289C142.774 27.2662 142.153 27.2347 141.419 27.2347C140.684 27.2347 140.063 27.2662 139.555 27.3289C139.047 27.3917 138.635 27.5128 138.319 27.6917C138.004 27.8705 137.776 28.1219 137.635 28.446C137.493 28.7697 137.423 29.1929 137.423 29.715C137.423 30.2372 137.493 30.6601 137.635 30.9842C137.776 31.3079 138.004 31.562 138.319 31.7456C138.635 31.9294 139.047 32.0527 139.555 32.1154C140.063 32.1783 140.684 32.2099 141.419 32.2099ZM167.228 32.0792L165.35 34.5741H160.606C159.787 34.5741 159.03 34.4483 158.333 34.1968C157.636 33.9454 157.036 33.5996 156.533 33.1597C156.029 32.7199 155.634 32.1976 155.347 31.5933C155.06 30.9889 154.916 30.3338 154.916 29.628C154.916 28.922 155.06 28.2767 155.347 27.6917C155.634 27.1066 156.029 26.6037 156.533 26.1829C157.036 25.7623 157.636 25.4385 158.333 25.2114C159.03 24.9839 159.787 24.8705 160.606 24.8705H167.228L165.35 27.3941H160.606C160.211 27.3941 159.844 27.4522 159.505 27.5682C159.166 27.6842 158.874 27.8464 158.629 28.0542C158.385 28.2621 158.192 28.5109 158.051 28.8013C157.91 29.0913 157.839 29.4104 157.839 29.7583C157.839 30.1065 157.907 30.4232 158.044 30.7087C158.18 30.9937 158.373 31.2379 158.623 31.441C158.872 31.6439 159.166 31.8013 159.505 31.9123C159.844 32.0234 160.211 32.0792 160.606 32.0792H167.228ZM174.852 24.7109C177.149 24.7109 178.874 25.112 180.027 25.9147C181.18 26.7172 181.756 27.9842 181.756 29.715C181.756 31.4556 181.182 32.727 180.034 33.5297C178.886 34.3324 177.158 34.7335 174.852 34.7335C172.537 34.7335 170.807 34.3324 169.664 33.5297C168.52 32.727 167.948 31.4556 167.948 29.715C167.948 27.9842 168.522 26.7172 169.671 25.9147C170.819 25.112 172.546 24.7109 174.852 24.7109ZM174.852 32.2099C175.586 32.2099 176.208 32.1783 176.716 32.1154C177.224 32.0527 177.636 31.9294 177.951 31.7456C178.267 31.562 178.495 31.3079 178.636 30.9842C178.777 30.6601 178.848 30.2372 178.848 29.715C178.848 29.1929 178.777 28.7697 178.636 28.446C178.495 28.1219 178.267 27.8705 177.951 27.6917C177.636 27.5128 177.224 27.3917 176.716 27.3289C176.208 27.2662 175.586 27.2347 174.852 27.2347C174.118 27.2347 173.497 27.2662 172.989 27.3289C172.48 27.3917 172.068 27.5128 171.753 27.6917C171.438 27.8705 171.21 28.1219 171.068 28.446C170.927 28.7697 170.857 29.1929 170.857 29.715C170.857 30.2372 170.927 30.6601 171.068 30.9842C171.21 31.3079 171.438 31.562 171.753 31.7456C172.068 31.9294 172.48 32.0527 172.989 32.1154C173.497 32.1783 174.118 32.2099 174.852 32.2099ZM189.847 24.7109C192.143 24.7109 193.868 25.112 195.021 25.9147C196.174 26.7172 196.751 27.9842 196.751 29.715C196.751 31.4556 196.177 32.727 195.028 33.5297C193.88 34.3324 192.153 34.7335 189.847 34.7335C187.531 34.7335 185.801 34.3324 184.658 33.5297C183.514 32.727 182.942 31.4556 182.942 29.715C182.942 27.9842 183.517 26.7172 184.665 25.9147C185.813 25.112 187.54 24.7109 189.847 24.7109ZM189.847 32.2099C190.581 32.2099 191.202 32.1783 191.71 32.1154C192.219 32.0527 192.63 31.9294 192.946 31.7456C193.261 31.562 193.489 31.3079 193.63 30.9842C193.772 30.6601 193.842 30.2372 193.842 29.715C193.842 29.1929 193.772 28.7697 193.63 28.446C193.489 28.1219 193.261 27.8705 192.946 27.6917C192.63 27.5128 192.219 27.3917 191.71 27.3289C191.202 27.2662 190.581 27.2347 189.847 27.2347C189.112 27.2347 188.491 27.2662 187.983 27.3289C187.475 27.3917 187.063 27.5128 186.747 27.6917C186.432 27.8705 186.204 28.1219 186.063 28.446C185.921 28.7697 185.851 29.1929 185.851 29.715C185.851 30.2372 185.921 30.6601 186.063 30.9842C186.204 31.3079 186.432 31.562 186.747 31.7456C187.063 31.9294 187.475 32.0527 187.983 32.1154C188.491 32.1783 189.112 32.2099 189.847 32.2099ZM208.469 32.0792L206.578 34.5741H198.233V24.8705H201.156V32.0792H208.469Z" fill="#00699D"/>
</svg>
