<svg width="30" height="30" viewBox="0 0 30 30" fill="none" xmlns="http://www.w3.org/2000/svg">
<path d="M11.2882 17.7033C11.7634 17.7033 12.2387 17.5845 12.6248 17.3468L16.3377 21.0597C16.1001 21.4458 15.9812 21.9211 15.9812 22.3963C15.9812 23.8815 17.1991 25.0993 18.6842 25.0993C20.1694 25.0993 21.3872 23.8815 21.3872 22.3963C21.3872 20.9112 20.1694 19.6934 18.6842 19.6934C18.209 19.6934 17.7337 19.8122 17.3476 20.0498L13.6347 16.3369C13.8723 15.9508 13.9911 15.4755 13.9911 15.0003C13.9911 14.525 13.8723 14.0498 13.6347 13.6637L17.3476 9.95079C17.7337 10.1884 18.209 10.3072 18.6842 10.3072C20.1694 10.3072 21.3872 9.0894 21.3872 7.60426C21.3872 6.11911 20.1991 4.87158 18.7139 4.87158C17.2288 4.87158 16.0109 6.0894 16.0109 7.57455C16.0109 8.0498 16.1298 8.52505 16.3674 8.91119L12.6248 12.6538C12.2387 12.4161 11.7634 12.2973 11.2882 12.2973C9.80303 12.2973 8.58521 13.5151 8.58521 15.0003C8.58521 16.4854 9.80303 17.7033 11.2882 17.7033ZM19.9911 22.426C19.9911 23.1389 19.4268 23.7033 18.7139 23.7033C18.001 23.7033 17.4367 23.1389 17.4367 22.426C17.4367 21.7132 18.001 21.1488 18.7139 21.1488C19.4268 21.1191 19.9911 21.7132 19.9911 22.426ZM18.7139 6.29732C19.4268 6.29732 19.9911 6.86168 19.9911 7.57455C19.9911 8.28742 19.4268 8.85178 18.7139 8.85178C18.001 8.85178 17.4367 8.28742 17.4367 7.57455C17.4367 6.86168 18.001 6.29732 18.7139 6.29732ZM11.2882 13.7231C12.001 13.7231 12.5654 14.2874 12.5654 15.0003C12.5654 15.7132 12.001 16.2775 11.2882 16.2775C10.5753 16.2775 10.0109 15.7132 10.0109 15.0003C10.0109 14.2874 10.5753 13.7231 11.2882 13.7231Z" fill="#036063"/>
</svg>
