<svg width="500" height="124" viewBox="0 0 500 124" fill="none" xmlns="http://www.w3.org/2000/svg">
<g filter="url(#filter0_d_129_32483)">
<path fill-rule="evenodd" clip-rule="evenodd" d="M5 5.82959V71.9323H29.1327V60.3905H54.3147C58.5117 59.5162 66.6236 56.1131 72.1519 50.9473C82.2334 41.5269 81.0706 27.8638 75.2997 19.9944C68.0636 10.1271 60.6102 6.87884 53.2655 5.82959H5ZM29.1303 38.3583V26.8166H49.066C50.8148 27.5161 54.3123 29.7545 54.3123 33.1121C54.3123 36.4697 50.8148 38.0086 49.066 38.3583H29.1303Z" fill="white"/>
<path fill-rule="evenodd" clip-rule="evenodd" d="M86.8398 5.83154V71.9342H110.973V60.3925H129.859L136.679 71.9342H160.812L150.844 54.6216C150.669 54.2719 150.424 53.4674 150.844 53.0477C150.891 53.0003 151.016 52.9144 151.202 52.7856C153.08 51.4894 161.242 45.8548 160.287 31.5381C159.238 15.7994 147.172 8.45466 136.679 5.83154H86.8398ZM110.973 38.3582H131.958C133.357 38.0085 136.155 36.4696 136.155 33.112C136.155 29.7544 133.357 27.8658 131.958 27.3411H110.973V38.3582Z" fill="white"/>
<path fill-rule="evenodd" clip-rule="evenodd" d="M206.457 71.9343C218.523 71.4097 242.761 63.7502 243.18 37.3091C242.656 11.0779 215.375 5.30701 206.457 5.83164C206.35 5.83791 206.241 5.84426 206.13 5.85073C196.964 6.38548 173.349 7.76309 168.684 37.3091C168.684 61.4418 190.718 72.9836 206.457 71.9343ZM206.635 49.8772C210.713 49.6943 218.906 47.0235 219.048 37.8036C218.871 28.657 209.649 26.6448 206.635 26.8277C206.599 26.8299 206.562 26.8321 206.524 26.8344C203.426 27.0208 195.443 27.5012 193.866 37.8036C193.866 46.2186 201.315 50.2431 206.635 49.8772Z" fill="white"/>
<path d="M251.574 71.9342V5.83154H276.232V49.9H313.48V71.9342H251.574Z" fill="white"/>
<path d="M320.824 71.9342V5.83154H347.055V71.9342H320.824Z" fill="white"/>
<path d="M354.398 5.83154V71.9342H376.433V44.6537L424.698 71.9342V5.83154H402.664V32.5874L354.398 5.83154Z" fill="white"/>
<path d="M433.094 71.9342V5.83154H494.999V26.8165H458.276V32.0628H471.916V28.915L481.359 38.8829L471.916 47.8015V44.6537H458.276V49.9H494.999V71.9342H433.094Z" fill="white"/>
<path d="M85.5938 101.555H96.6445V114H93.3516V104.215H88.8867V114H85.5938V101.555ZM106.137 101.555H109.207V103.383C109.605 102.758 110.145 102.25 110.824 101.859C111.504 101.469 112.258 101.273 113.086 101.273C114.531 101.273 115.758 101.84 116.766 102.973C117.773 104.105 118.277 105.684 118.277 107.707C118.277 109.785 117.77 111.402 116.754 112.559C115.738 113.707 114.508 114.281 113.062 114.281C112.375 114.281 111.75 114.145 111.188 113.871C110.633 113.598 110.047 113.129 109.43 112.465V118.734H106.137V101.555ZM109.395 107.566C109.395 108.965 109.672 110 110.227 110.672C110.781 111.336 111.457 111.668 112.254 111.668C113.02 111.668 113.656 111.363 114.164 110.754C114.672 110.137 114.926 109.129 114.926 107.73C114.926 106.426 114.664 105.457 114.141 104.824C113.617 104.191 112.969 103.875 112.195 103.875C111.391 103.875 110.723 104.188 110.191 104.812C109.66 105.43 109.395 106.348 109.395 107.566ZM126.141 107.602C126.141 106.508 126.41 105.449 126.949 104.426C127.488 103.402 128.25 102.621 129.234 102.082C130.227 101.543 131.332 101.273 132.551 101.273C134.434 101.273 135.977 101.887 137.18 103.113C138.383 104.332 138.984 105.875 138.984 107.742C138.984 109.625 138.375 111.188 137.156 112.43C135.945 113.664 134.418 114.281 132.574 114.281C131.434 114.281 130.344 114.023 129.305 113.508C128.273 112.992 127.488 112.238 126.949 111.246C126.41 110.246 126.141 109.031 126.141 107.602ZM129.516 107.777C129.516 109.012 129.809 109.957 130.395 110.613C130.98 111.27 131.703 111.598 132.562 111.598C133.422 111.598 134.141 111.27 134.719 110.613C135.305 109.957 135.598 109.004 135.598 107.754C135.598 106.535 135.305 105.598 134.719 104.941C134.141 104.285 133.422 103.957 132.562 103.957C131.703 103.957 130.98 104.285 130.395 104.941C129.809 105.598 129.516 106.543 129.516 107.777ZM147.34 101.555H151.418L154.512 110.227L157.629 101.555H161.695V114H158.895V105.809L155.859 114H153.047L150.152 105.809V114H147.34V101.555ZM171.035 101.555H174.328V106.723H177.633C178.93 106.723 179.918 106.816 180.598 107.004C181.285 107.184 181.863 107.582 182.332 108.199C182.809 108.816 183.047 109.543 183.047 110.379C183.047 111.582 182.633 112.488 181.805 113.098C180.977 113.699 179.734 114 178.078 114H171.035V101.555ZM174.328 111.914H177.387C178.184 111.914 178.762 111.789 179.121 111.539C179.48 111.289 179.66 110.883 179.66 110.32C179.66 109.719 179.426 109.309 178.957 109.09C178.496 108.863 177.664 108.75 176.461 108.75H174.328V111.914ZM184.922 101.555H188.215V114H184.922V101.555ZM197.438 101.555H200.461V111.34H204.281V101.555H207.316V111.34H211.125V101.555H214.16V114H197.438V101.555ZM224.426 101.555H235.453V114H232.172V104.227H227.684V109.816C227.684 111.238 227.52 112.238 227.191 112.816C226.863 113.387 226.5 113.762 226.102 113.941C225.703 114.121 225.062 114.211 224.18 114.211C223.656 114.211 222.965 114.141 222.105 114V111.574C222.176 111.574 222.359 111.582 222.656 111.598C223 111.621 223.266 111.633 223.453 111.633C223.898 111.633 224.172 111.488 224.273 111.199C224.375 110.902 224.426 110.086 224.426 108.75V101.555ZM251.672 110.039L254.953 110.59C254.531 111.793 253.863 112.711 252.949 113.344C252.043 113.969 250.906 114.281 249.539 114.281C247.375 114.281 245.773 113.574 244.734 112.16C243.914 111.027 243.504 109.598 243.504 107.871C243.504 105.809 244.043 104.195 245.121 103.031C246.199 101.859 247.562 101.273 249.211 101.273C251.062 101.273 252.523 101.887 253.594 103.113C254.664 104.332 255.176 106.203 255.129 108.727H246.879C246.902 109.703 247.168 110.465 247.676 111.012C248.184 111.551 248.816 111.82 249.574 111.82C250.09 111.82 250.523 111.68 250.875 111.398C251.227 111.117 251.492 110.664 251.672 110.039ZM251.859 106.711C251.836 105.758 251.59 105.035 251.121 104.543C250.652 104.043 250.082 103.793 249.41 103.793C248.691 103.793 248.098 104.055 247.629 104.578C247.16 105.102 246.93 105.812 246.938 106.711H251.859ZM263.695 101.555H266.988V106.113H271.699V101.555H275.004V114H271.699V108.773H266.988V114H263.695V101.555ZM284.203 101.555H287.496V106.113H292.207V101.555H295.512V114H292.207V108.773H287.496V114H284.203V101.555ZM304.863 101.555H308.156V106.723H311.461C312.758 106.723 313.746 106.816 314.426 107.004C315.113 107.184 315.691 107.582 316.16 108.199C316.637 108.816 316.875 109.543 316.875 110.379C316.875 111.582 316.461 112.488 315.633 113.098C314.805 113.699 313.562 114 311.906 114H304.863V101.555ZM308.156 111.914H311.215C312.012 111.914 312.59 111.789 312.949 111.539C313.309 111.289 313.488 110.883 313.488 110.32C313.488 109.719 313.254 109.309 312.785 109.09C312.324 108.863 311.492 108.75 310.289 108.75H308.156V111.914ZM318.75 101.555H322.043V114H318.75V101.555ZM331.266 101.555H334.43V109.371L339.492 101.555H342.727V114H339.562V106.043L334.43 114H331.266V101.555ZM339.152 96.5039H340.758C340.664 97.5664 340.289 98.4023 339.633 99.0117C338.984 99.6133 338.141 99.9141 337.102 99.9141C336.062 99.9141 335.215 99.6133 334.559 99.0117C333.91 98.4023 333.539 97.5664 333.445 96.5039H335.051C335.105 97.0586 335.301 97.4805 335.637 97.7695C335.973 98.0508 336.461 98.1914 337.102 98.1914C337.742 98.1914 338.23 98.0508 338.566 97.7695C338.902 97.4805 339.098 97.0586 339.152 96.5039ZM375.645 105.234L372.398 105.82C372.289 105.172 372.039 104.684 371.648 104.355C371.266 104.027 370.766 103.863 370.148 103.863C369.328 103.863 368.672 104.148 368.18 104.719C367.695 105.281 367.453 106.227 367.453 107.555C367.453 109.031 367.699 110.074 368.191 110.684C368.691 111.293 369.359 111.598 370.195 111.598C370.82 111.598 371.332 111.422 371.73 111.07C372.129 110.711 372.41 110.098 372.574 109.23L375.809 109.781C375.473 111.266 374.828 112.387 373.875 113.145C372.922 113.902 371.645 114.281 370.043 114.281C368.223 114.281 366.77 113.707 365.684 112.559C364.605 111.41 364.066 109.82 364.066 107.789C364.066 105.734 364.609 104.137 365.695 102.996C366.781 101.848 368.25 101.273 370.102 101.273C371.617 101.273 372.82 101.602 373.711 102.258C374.609 102.906 375.254 103.898 375.645 105.234ZM391.359 110.039L394.641 110.59C394.219 111.793 393.551 112.711 392.637 113.344C391.73 113.969 390.594 114.281 389.227 114.281C387.062 114.281 385.461 113.574 384.422 112.16C383.602 111.027 383.191 109.598 383.191 107.871C383.191 105.809 383.73 104.195 384.809 103.031C385.887 101.859 387.25 101.273 388.898 101.273C390.75 101.273 392.211 101.887 393.281 103.113C394.352 104.332 394.863 106.203 394.816 108.727H386.566C386.59 109.703 386.855 110.465 387.363 111.012C387.871 111.551 388.504 111.82 389.262 111.82C389.777 111.82 390.211 111.68 390.562 111.398C390.914 111.117 391.18 110.664 391.359 110.039ZM391.547 106.711C391.523 105.758 391.277 105.035 390.809 104.543C390.34 104.043 389.77 103.793 389.098 103.793C388.379 103.793 387.785 104.055 387.316 104.578C386.848 105.102 386.617 105.812 386.625 106.711H391.547ZM403.383 101.555H406.664V106.641C407.211 106.578 407.598 106.41 407.824 106.137C408.051 105.863 408.324 105.266 408.645 104.344C409.066 103.117 409.527 102.332 410.027 101.988C410.527 101.645 411.184 101.473 411.996 101.473C412.246 101.473 412.68 101.492 413.297 101.531L413.309 103.711C412.441 103.711 411.887 103.793 411.645 103.957C411.402 104.129 411.141 104.641 410.859 105.492C410.477 106.641 409.926 107.348 409.207 107.613C410.246 107.902 411.125 108.805 411.844 110.32C411.883 110.398 411.926 110.48 411.973 110.566L413.812 114H410.273L408.633 110.402C408.297 109.676 408.004 109.211 407.754 109.008C407.512 108.797 407.148 108.691 406.664 108.691V114H403.383V101.555ZM420.059 101.555H431.32V104.215H427.336V114H424.043V104.215H420.059V101.555ZM438.211 107.602C438.211 106.508 438.48 105.449 439.02 104.426C439.559 103.402 440.32 102.621 441.305 102.082C442.297 101.543 443.402 101.273 444.621 101.273C446.504 101.273 448.047 101.887 449.25 103.113C450.453 104.332 451.055 105.875 451.055 107.742C451.055 109.625 450.445 111.188 449.227 112.43C448.016 113.664 446.488 114.281 444.645 114.281C443.504 114.281 442.414 114.023 441.375 113.508C440.344 112.992 439.559 112.238 439.02 111.246C438.48 110.246 438.211 109.031 438.211 107.602ZM441.586 107.777C441.586 109.012 441.879 109.957 442.465 110.613C443.051 111.27 443.773 111.598 444.633 111.598C445.492 111.598 446.211 111.27 446.789 110.613C447.375 109.957 447.668 109.004 447.668 107.754C447.668 106.535 447.375 105.598 446.789 104.941C446.211 104.285 445.492 103.957 444.633 103.957C443.773 103.957 443.051 104.285 442.465 104.941C441.879 105.598 441.586 106.543 441.586 107.777ZM459.551 101.555H462.621V103.383C463.02 102.758 463.559 102.25 464.238 101.859C464.918 101.469 465.672 101.273 466.5 101.273C467.945 101.273 469.172 101.84 470.18 102.973C471.188 104.105 471.691 105.684 471.691 107.707C471.691 109.785 471.184 111.402 470.168 112.559C469.152 113.707 467.922 114.281 466.477 114.281C465.789 114.281 465.164 114.145 464.602 113.871C464.047 113.598 463.461 113.129 462.844 112.465V118.734H459.551V101.555ZM462.809 107.566C462.809 108.965 463.086 110 463.641 110.672C464.195 111.336 464.871 111.668 465.668 111.668C466.434 111.668 467.07 111.363 467.578 110.754C468.086 110.137 468.34 109.129 468.34 107.73C468.34 106.426 468.078 105.457 467.555 104.824C467.031 104.191 466.383 103.875 465.609 103.875C464.805 103.875 464.137 104.188 463.605 104.812C463.074 105.43 462.809 106.348 462.809 107.566Z" fill="white"/>
</g>
<defs>
<filter id="filter0_d_129_32483" x="0" y="0.799805" width="499.999" height="122.935" filterUnits="userSpaceOnUse" color-interpolation-filters="sRGB">
<feFlood flood-opacity="0" result="BackgroundImageFix"/>
<feColorMatrix in="SourceAlpha" type="matrix" values="0 0 0 0 0 0 0 0 0 0 0 0 0 0 0 0 0 0 127 0" result="hardAlpha"/>
<feOffset/>
<feGaussianBlur stdDeviation="2.5"/>
<feComposite in2="hardAlpha" operator="out"/>
<feColorMatrix type="matrix" values="0 0 0 0 1 0 0 0 0 1 0 0 0 0 1 0 0 0 0.35 0"/>
<feBlend mode="normal" in2="BackgroundImageFix" result="effect1_dropShadow_129_32483"/>
<feBlend mode="normal" in="SourceGraphic" in2="effect1_dropShadow_129_32483" result="shape"/>
</filter>
</defs>
</svg>
