<svg width="140" height="195" viewBox="0 0 140 195" fill="none" xmlns="http://www.w3.org/2000/svg">
<g clip-path="url(#clip0_129_51381)">
<path d="M49.5173 10.0268C49.6646 9.9802 49.8142 9.94113 49.9654 9.90972L40.9918 4.6027C40.3999 4.32547 39.7449 4.21163 39.0944 4.27304C38.7043 4.30987 38.3243 4.40893 37.9683 4.56499L48.0312 10.5027C48.3613 10.3291 48.7037 10.1795 49.0556 10.0553L49.1363 10.0268H49.222H49.5173Z" fill="white" stroke="#036063"/>
<path d="M32.9343 18.2797L41.8299 23.5287C41.7992 23.4248 41.7727 23.3197 41.7504 23.2135C41.6964 23.0897 41.6526 22.9616 41.6196 22.8306L41.61 22.7926L41.6065 22.7535C41.5647 22.293 41.5644 21.8296 41.6056 21.369C41.7228 19.2312 42.3393 17.1508 43.4056 15.2959C44.3415 13.6679 45.6007 12.2536 47.1024 11.139L36.9961 5.17571C35.4286 6.23148 34.116 7.62759 33.1565 9.26217C32.1454 10.9847 31.5553 12.9231 31.4345 14.9185L31.434 14.9268L31.4332 14.935C31.3728 15.5792 31.4813 16.228 31.7479 16.8171C32.0113 17.3992 32.4201 17.903 32.9343 18.2797Z" fill="white" stroke="#036063"/>
<path d="M43.1546 23.7566L43.1831 23.7847L43.2068 23.8171C43.3047 23.9511 43.4189 24.0724 43.5467 24.1781L43.5737 24.2005L43.5973 24.2264C43.6552 24.2898 43.7212 24.345 43.7938 24.3906L43.8128 24.4026L43.8306 24.4161C44.4085 24.8561 45.1139 25.0942 45.839 25.0942C46.5641 25.0942 47.2695 24.8561 47.8474 24.4161L47.8623 24.4048L47.878 24.3946C49.5399 23.3155 50.9243 21.8578 51.9183 20.1401C52.9124 18.4223 53.4878 16.4932 53.5978 14.5099L53.5984 14.4992L53.5995 14.4884C53.6637 13.8389 53.5549 13.184 53.2842 12.5906C53.023 12.0178 52.62 11.5222 52.1143 11.1507L51.6826 10.9991L51.6723 10.9955L51.6621 10.9914L51.3769 10.877H50.4839C50.2716 10.9078 50.0624 10.9577 49.859 11.0263L49.7813 11.0524H49.6994H49.4118C49.0576 11.1824 48.7149 11.3422 48.3872 11.5299C46.7345 12.6163 45.3589 14.0769 44.3716 15.7944C43.3819 17.5161 42.8101 19.4475 42.7027 21.4323L42.7022 21.4413L42.7014 21.4504C42.666 21.8402 42.6648 22.2323 42.6978 22.6222C42.7194 22.6995 42.7473 22.775 42.7813 22.8477L42.8075 22.9036L42.8192 22.9642C42.859 23.169 42.9198 23.369 43.0007 23.5611C43.0438 23.6324 43.0954 23.6981 43.1546 23.7566Z" fill="white" stroke="#036063"/>
<mask id="path-4-inside-1_129_51381" fill="white">
<path d="M48.027 11.1032C48.4091 10.883 48.8106 10.6985 49.2263 10.5518C48.8106 10.6985 48.4091 10.883 48.027 11.1032Z"/>
</mask>
<path d="M48.027 11.1032C48.4091 10.883 48.8106 10.6985 49.2263 10.5518C48.8106 10.6985 48.4091 10.883 48.027 11.1032Z" fill="white"/>
<path d="M47.5278 10.2366C47.963 9.986 48.4201 9.77582 48.8935 9.60876L49.5591 11.4948C49.2011 11.6211 48.8553 11.7801 48.5261 11.9697L47.5278 10.2366ZM49.5591 11.4948C49.2011 11.6211 48.8553 11.7801 48.5261 11.9697L47.5278 10.2366C47.963 9.986 48.4201 9.77582 48.8935 9.60876L49.5591 11.4948Z" fill="#036063" mask="url(#path-4-inside-1_129_51381)"/>
<mask id="path-6-inside-2_129_51381" fill="white">
<path d="M50.3496 10.3008C50.0948 10.3354 49.8438 10.3941 49.6 10.4762C49.8438 10.3941 50.0948 10.3354 50.3496 10.3008Z"/>
</mask>
<path d="M50.3496 10.3008C50.0948 10.3354 49.8438 10.3941 49.6 10.4762C49.8438 10.3941 50.0948 10.3354 50.3496 10.3008Z" fill="white"/>
<path d="M50.4842 11.2917C50.2921 11.3178 50.1029 11.3621 49.9191 11.4239L49.2809 9.52852C49.5847 9.42623 49.8974 9.35302 50.215 9.30988L50.4842 11.2917ZM49.2809 9.52852C49.5847 9.42623 49.8974 9.35302 50.215 9.30988L50.4842 11.2917C50.2921 11.3178 50.1029 11.3621 49.9191 11.4239L49.2809 9.52852Z" fill="#036063" mask="url(#path-6-inside-2_129_51381)"/>
<mask id="path-8-inside-3_129_51381" fill="white">
<path d="M52.2454 10.6774L51.7456 10.502L52.2454 10.6774Z"/>
</mask>
<path d="M52.2454 10.6774L51.7456 10.502L52.2454 10.6774Z" fill="white"/>
<path d="M51.9141 11.6209L51.4144 11.4455L52.0769 9.55842L52.5766 9.73387L51.9141 11.6209ZM52.0769 9.55842L52.5766 9.73387L51.9141 11.6209L51.4144 11.4455L52.0769 9.55842Z" fill="#036063" mask="url(#path-8-inside-3_129_51381)"/>
<mask id="path-10-inside-4_129_51381" fill="white">
<path d="M42.552 23.7861C42.6123 23.9042 42.6879 24.0138 42.7769 24.112C42.6879 24.0138 42.6123 23.9042 42.552 23.7861Z"/>
</mask>
<path d="M42.552 23.7861C42.6123 23.9042 42.6879 24.0138 42.7769 24.112C42.6879 24.0138 42.6123 23.9042 42.552 23.7861Z" fill="white"/>
<path d="M43.4426 23.3313C43.4628 23.371 43.4882 23.4077 43.5179 23.4405L42.0358 24.7834C41.8876 24.6199 41.7617 24.4375 41.6614 24.2409L43.4426 23.3313ZM42.0358 24.7834C41.8876 24.6199 41.7617 24.4375 41.6614 24.2409L43.4426 23.3313C43.4628 23.371 43.4882 23.4077 43.5179 23.4405L42.0358 24.7834Z" fill="#036063" mask="url(#path-10-inside-4_129_51381)"/>
<mask id="path-12-inside-5_129_51381" fill="white">
<path d="M43.1291 24.6133C43.2173 24.71 43.3182 24.7943 43.429 24.8639C43.3182 24.7943 43.2173 24.71 43.1291 24.6133Z"/>
</mask>
<path d="M43.1291 24.6133C43.2173 24.71 43.3182 24.7943 43.429 24.8639C43.3182 24.7943 43.2173 24.71 43.1291 24.6133Z" fill="white"/>
<path d="M43.868 23.9394C43.8954 23.9695 43.9268 23.9957 43.961 24.0172L42.8969 25.7106C42.7096 25.593 42.5392 25.4505 42.3903 25.2872L43.868 23.9394ZM42.8969 25.7106C42.7096 25.593 42.5392 25.4505 42.3903 25.2872L43.868 23.9394C43.8954 23.9695 43.9268 23.9957 43.961 24.0172L42.8969 25.7106Z" fill="#036063" mask="url(#path-12-inside-5_129_51381)"/>
<mask id="path-14-inside-6_129_51381" fill="white">
<path d="M42.2302 22.708C42.2606 22.8287 42.3024 22.9462 42.3551 23.0589C42.3024 22.9462 42.2606 22.8287 42.2302 22.708Z"/>
</mask>
<path d="M42.2302 22.708C42.2606 22.8287 42.3024 22.9462 42.3551 23.0589C42.3024 22.9462 42.2606 22.8287 42.2302 22.708Z" fill="white"/>
<path d="M43.1999 22.4637C43.2148 22.5228 43.2352 22.5803 43.261 22.6354L41.4492 23.4824C41.3696 23.3121 41.3064 23.1346 41.2605 22.9524L43.1999 22.4637ZM41.4492 23.4824C41.3696 23.3121 41.3064 23.1346 41.2605 22.9524L43.1999 22.4637C43.2148 22.5228 43.2352 22.5803 43.261 22.6354L41.4492 23.4824Z" fill="#036063" mask="url(#path-14-inside-6_129_51381)"/>
<path d="M81.7785 188.243L81.6692 166.323C81.5045 166.519 81.327 166.704 81.1381 166.877L80.8329 167.23L80.8097 167.257L80.7829 167.28C80.2948 167.705 79.7638 168.078 79.1985 168.392L79.1905 168.397L79.1823 168.401C76.588 169.723 73.7194 170.411 70.8097 170.411C67.9 170.411 65.0314 169.723 62.4371 168.401L62.4275 168.396L62.4182 168.391C61.8603 168.076 61.3373 167.702 60.8579 167.277L60.8578 167.277L60.8476 167.267C60.707 167.135 60.5787 166.991 60.4644 166.836C60.3078 166.69 60.1581 166.537 60.0158 166.378V188.259C60.1054 189.175 60.4328 190.051 60.9654 190.801C61.5024 191.557 62.2288 192.157 63.071 192.54L63.0814 192.544L63.0916 192.55C65.5478 193.805 68.2654 194.46 71.0221 194.46C73.7788 194.46 76.4964 193.805 78.9526 192.55C79.7575 192.138 80.4416 191.523 80.9374 190.765C81.4302 190.011 81.72 189.142 81.7785 188.243Z" fill="white" stroke="#036063"/>
<path d="M81.7924 164.286L81.8091 164.245L81.833 164.206C81.9107 164.082 81.98 163.953 82.0405 163.82C82.0546 163.627 82.0524 163.433 82.034 163.241L82.034 163.241L82.0336 163.236C81.954 162.314 81.6311 161.429 81.0982 160.674C80.5653 159.918 79.8415 159.318 79.0015 158.936L78.9914 158.932L78.9816 158.927C76.5278 157.677 73.8147 157.025 71.0629 157.025C68.311 157.025 65.5979 157.677 63.1442 158.927L63.1259 158.936L63.1069 158.944C62.1412 159.34 61.3284 160.038 60.7895 160.935C60.2507 161.832 60.0146 162.879 60.1166 163.922L60.1223 163.98L60.1145 164.037C60.0991 164.151 60.0972 164.266 60.1086 164.379C60.1873 164.588 60.2888 164.787 60.4114 164.974L60.4446 165.024L60.4648 165.081C60.5119 165.213 60.574 165.339 60.6498 165.457C60.8423 165.699 61.0533 165.925 61.2809 166.133L61.3201 166.169L61.3509 166.212C61.4334 166.328 61.527 166.436 61.6305 166.534C62.0529 166.908 62.5133 167.237 63.0039 167.515C65.4551 168.762 68.1647 169.411 70.913 169.411C73.6617 169.411 76.3718 168.761 78.8234 167.514C79.3147 167.24 79.7769 166.917 80.203 166.549L80.5043 166.2L80.5244 166.177L80.5471 166.156C80.7883 165.938 81.007 165.696 81.2002 165.434C81.2776 165.322 81.341 165.2 81.3891 165.073L81.4078 165.023L81.4364 164.978C81.5769 164.76 81.6961 164.528 81.7924 164.286Z" fill="white" stroke="#036063"/>
<path d="M40.3815 90.0842L40.3653 90.0631L40.3515 90.0405C40.0756 89.5882 39.8282 89.1191 39.6108 88.6359C39.3594 88.2266 39.1292 87.8049 38.9211 87.3723L39.1544 153.279C39.2569 155.229 39.7786 157.133 40.6837 158.861C41.4278 160.282 42.4165 161.556 43.6015 162.626V119.456V118.956H44.1015H55.0457H55.5457V119.456V169.22C67.8728 173.114 83.4187 172.072 93.7247 166.119L93.7252 166.119C100.027 162.489 103.044 157.766 103.045 153.144C103.045 153.143 103.045 153.143 103.045 153.143L102.741 87.2079C102.508 87.6968 102.249 88.173 101.965 88.6343C101.756 89.1088 101.517 89.5694 101.249 90.0132L101.236 90.0356L101.22 90.0564C100.59 90.8897 99.8872 91.6644 99.119 92.3711C99.0035 92.488 98.9031 92.6112 98.7843 92.7571C98.7621 92.7844 98.7393 92.8124 98.7156 92.8413C98.5687 93.0207 98.3967 93.2236 98.1758 93.4157L98.1735 93.4176C96.8536 94.5516 95.4313 95.5597 93.9249 96.429C87.4595 100.168 79.0349 102.016 70.6684 102.013C62.3026 102.01 53.9394 100.155 47.5974 96.4278C46.0987 95.5591 44.6848 94.5509 43.3745 93.4164L43.3737 93.4157C43.1531 93.2239 42.9749 93.0148 42.82 92.8278C42.7973 92.8004 42.7752 92.7736 42.7536 92.7473C42.6225 92.5882 42.5078 92.4491 42.3767 92.3172C41.6566 91.6242 40.9897 90.8777 40.3815 90.0842Z" fill="white" stroke="#036063"/>
<path d="M48.348 166.018L48.3496 166.019C50.3197 167.159 52.3947 168.104 54.5455 168.842V119.906H44.6014V163.412C45.7725 164.388 47.0261 165.26 48.348 166.018Z" fill="white" stroke="#036063"/>
<path d="M81.8886 143.405C82.2185 144.146 82.7411 144.783 83.4012 145.251L89.2324 148.593C89.2273 148.582 89.2223 148.571 89.2173 148.56C88.8566 147.763 88.6909 146.893 88.7317 146.023L81.5041 141.814C81.5343 142.361 81.6639 142.901 81.8886 143.405Z" fill="white" stroke="#036063"/>
<path d="M88.7519 144.975L88.6301 99.9427L81.3866 95.7152L81.5327 140.749L88.7519 144.975Z" fill="white" stroke="#036063"/>
<path d="M89.13 99.0771L102.453 91.357L95.2243 87.1254L81.8788 94.8451L89.13 99.0771Z" fill="white" stroke="#036063"/>
<path d="M103.072 137.541L102.95 92.2256L89.6308 99.9433L89.7549 145.848V145.849C89.7549 148.022 90.5244 149.42 91.6205 150.046C92.7153 150.671 94.3114 150.627 96.1887 149.534C98.2007 148.225 99.8741 146.455 101.071 144.37C102.268 142.285 102.954 139.944 103.072 137.541Z" fill="white" stroke="#036063"/>
<path d="M28.0959 123.566C28.4167 124.288 28.921 124.913 29.5577 125.378L35.4218 128.79C35.421 128.788 35.4202 128.786 35.4194 128.785C35.0588 127.988 34.8931 127.118 34.9339 126.247L27.7172 122.045C27.7538 122.568 27.8813 123.083 28.0959 123.566Z" fill="white" stroke="#036063"/>
<path d="M34.9265 125.102L34.8047 80.0657L27.5607 75.8379L27.6825 120.896L34.9265 125.102Z" fill="white" stroke="#036063"/>
<path d="M35.3043 79.2005L48.6242 71.4822L41.3745 67.2731L28.0535 74.9687L35.3043 79.2005Z" fill="white" stroke="#036063"/>
<path d="M48.9982 72.2582L35.8034 80.0645V125.973C35.8034 128.147 36.5675 129.544 37.6609 130.173C38.7526 130.801 40.3483 130.763 42.238 129.682C44.2599 128.355 45.9386 126.565 47.1354 124.459C48.3327 122.352 49.0132 119.989 49.1207 117.566L48.9982 72.2582Z" fill="white" stroke="#036063"/>
<path d="M100.964 88.2018L100.978 88.169L100.997 88.1385C101.405 87.4796 101.759 86.788 102.053 86.0708C102.202 85.6316 102.31 85.1798 102.377 84.7208L102.381 84.6891L102.39 84.6583C102.568 84.0179 102.679 83.3604 102.721 82.6968C102.715 78.0555 99.6746 73.4131 93.4753 69.8103L93.475 69.8101C87.2604 66.1932 79.0633 64.3701 70.8325 64.3701C62.6018 64.3701 54.3919 66.1932 48.1518 69.8106L48.1503 69.8114C40.9438 73.9564 38.152 79.4881 39.1467 84.6965C39.1911 84.9195 39.2179 85.1499 39.2421 85.3571C39.2476 85.405 39.2531 85.4516 39.2585 85.4966C39.2882 85.7407 39.3206 85.9557 39.3788 86.1573C39.6559 86.8453 39.9911 87.5083 40.3807 88.139L40.3982 88.1674L40.4118 88.1979C40.6115 88.6449 40.839 89.0789 41.093 89.4973C41.6674 90.2445 42.2966 90.9475 42.9755 91.6005L42.9756 91.6005L42.983 91.6079C43.1518 91.7772 43.3004 91.9578 43.431 92.1165C43.4518 92.1417 43.4721 92.1664 43.4919 92.1903C43.6429 92.3727 43.7768 92.5268 43.9306 92.6606C45.1939 93.7543 46.557 94.7263 48.0019 95.5636L48.003 95.5643C54.2053 99.1812 62.3836 101.01 70.6078 101.014C78.8319 101.017 87.0483 99.1937 93.3263 95.5634L93.3267 95.5632C94.7788 94.7252 96.1499 93.7534 97.4224 92.6604C97.5757 92.5269 97.7034 92.3792 97.8435 92.2081C97.8632 92.184 97.8834 92.1592 97.9041 92.1337C98.0245 91.9855 98.1624 91.8159 98.3198 91.658L98.3275 91.6503L98.3356 91.6428C99.0563 90.9807 99.7164 90.2551 100.308 89.4747C100.554 89.065 100.773 88.6398 100.964 88.2018Z" fill="white" stroke="#036063"/>
<mask id="path-29-inside-7_129_51381" fill="white">
<path d="M54.0702 67.4482L54.0452 67.4733L51.4466 68.9772L54.0202 67.4733H54.0452L54.0702 67.4482Z"/>
</mask>
<path d="M54.0702 67.4482L54.0452 67.4733L51.4466 68.9772L54.0202 67.4733H54.0452L54.0702 67.4482Z" fill="white"/>
<path d="M54.0452 67.4733L54.7533 68.1794L54.6602 68.2728L54.5461 68.3388L54.0452 67.4733ZM51.4466 68.9772L51.9475 69.8427L50.9421 68.1138L51.4466 68.9772ZM54.0202 67.4733L53.5157 66.6099L53.7495 66.4733H54.0202V67.4733ZM54.0452 67.4733L54.7533 68.1794L54.4603 68.4733H54.0452V67.4733ZM54.7783 68.1543L54.7533 68.1794L53.3371 66.7672L53.3621 66.7422L54.7783 68.1543ZM54.5461 68.3388L51.9475 69.8427L50.9457 68.1117L53.5443 66.6078L54.5461 68.3388ZM50.9421 68.1138L53.5157 66.6099L54.5247 68.3367L51.9511 69.8406L50.9421 68.1138ZM54.0202 66.4733H54.0452V68.4733H54.0202V66.4733ZM53.3371 66.7672L53.3621 66.7422L54.7783 68.1543L54.7533 68.1794L53.3371 66.7672Z" fill="#036063" mask="url(#path-29-inside-7_129_51381)"/>
<path d="M60.5237 83.7085L62.6878 82.4561L62.689 82.4554L63.032 82.2556L54.6366 67.7072L54.2958 67.9057L54.2946 67.9064L52.1282 69.1601L60.5237 83.7085Z" fill="#E5EAEB" stroke="#036063"/>
<mask id="path-32-inside-8_129_51381" fill="white">
<path d="M63.714 82.4365V82.4616L62.9394 82.8877L63.714 82.4365Z"/>
</mask>
<path d="M63.714 82.4365V82.4616L62.9394 82.8877L63.714 82.4365Z" fill="white"/>
<path d="M63.714 82.4365L63.2107 81.5724L64.714 80.6968V82.4365H63.714ZM63.714 82.4616H64.714V83.0528L64.196 83.3378L63.714 82.4616ZM62.9394 82.8877L63.4214 83.7639L62.4361 82.0236L62.9394 82.8877ZM64.714 82.4365V82.4616H62.714V82.4365H64.714ZM64.196 83.3378L63.4214 83.7639L62.4574 82.0115L63.232 81.5854L64.196 83.3378ZM62.4361 82.0236L63.2107 81.5724L64.2173 83.3006L63.4427 83.7518L62.4361 82.0236Z" fill="#036063" mask="url(#path-32-inside-8_129_51381)"/>
<mask id="path-34-inside-9_129_51381" fill="white">
<path d="M54.0462 67.4736L54.0712 67.4486L54.8208 67.0225L54.0462 67.4736Z"/>
</mask>
<path d="M54.0462 67.4736L54.0712 67.4486L54.8208 67.0225L54.0462 67.4736Z" fill="white"/>
<path d="M54.0462 67.4736L54.5495 68.3377L53.3381 66.7675L54.0462 67.4736ZM54.0712 67.4486L53.3631 66.7425L53.459 66.6463L53.577 66.5792L54.0712 67.4486ZM54.8208 67.0225L54.3266 66.1531L55.3241 67.8866L54.8208 67.0225ZM53.3381 66.7675L53.3631 66.7425L54.7793 68.1546L54.7543 68.1797L53.3381 66.7675ZM53.577 66.5792L54.3266 66.1531L55.315 67.8918L54.5654 68.3179L53.577 66.5792ZM55.3241 67.8866L54.5495 68.3377L53.5429 66.6095L54.3175 66.1583L55.3241 67.8866Z" fill="#036063" mask="url(#path-34-inside-9_129_51381)"/>
<mask id="path-36-inside-10_129_51381" fill="white">
<path d="M113.567 54.0635C115.036 57.3184 116.288 60.6677 117.315 64.0892C116.288 60.6677 115.036 57.3184 113.567 54.0635Z"/>
</mask>
<path d="M113.567 54.0635C115.036 57.3184 116.288 60.6677 117.315 64.0892C116.288 60.6677 115.036 57.3184 113.567 54.0635Z" fill="white"/>
<path d="M114.478 53.652C115.966 56.9473 117.233 60.338 118.273 63.8018L116.357 64.3766C115.343 60.9974 114.107 57.6896 112.655 54.4749L114.478 53.652ZM116.357 64.3766C115.343 60.9974 114.107 57.6896 112.655 54.4749L114.478 53.652C115.966 56.9473 117.233 60.338 118.273 63.8018L116.357 64.3766Z" fill="#036063" mask="url(#path-36-inside-10_129_51381)"/>
<mask id="path-38-inside-11_129_51381" fill="white">
<path d="M108.964 93.0391L108.839 93.2145L108.039 93.6657L108.964 93.0391Z"/>
</mask>
<path d="M108.964 93.0391L108.839 93.2145L108.039 93.6657L108.964 93.0391Z" fill="white"/>
<path d="M108.964 93.0391L108.403 92.2113L109.778 93.6191L108.964 93.0391ZM108.839 93.2145L109.654 93.7946L109.524 93.976L109.33 94.0854L108.839 93.2145ZM108.039 93.6657L108.531 94.5366L107.478 92.8379L108.039 93.6657ZM109.778 93.6191L109.654 93.7946L108.024 92.6345L108.149 92.459L109.778 93.6191ZM109.33 94.0854L108.531 94.5366L107.548 92.7948L108.348 92.3436L109.33 94.0854ZM107.478 92.8379L108.403 92.2113L109.525 93.8668L108.6 94.4935L107.478 92.8379Z" fill="#036063" mask="url(#path-38-inside-11_129_51381)"/>
<path d="M90.5295 106.128V108.734L93.488 107.003C92.4899 106.754 91.5028 106.462 90.5295 106.128Z" fill="white" stroke="#036063"/>
<path d="M47.8148 32.1383C48.0229 31.0835 48.2872 30.0408 48.6065 29.0146L45.5034 30.8044L47.8148 32.1383Z" fill="white" stroke="#036063"/>
<path d="M89.5019 105.421H89.5018L89.502 105.411L89.5212 104.428L77.8586 97.7135V98.1269V102.024L89.5019 108.741V105.421Z" fill="#E5EAEB" stroke="#036063"/>
<path d="M48.3487 47.0133L48.3487 47.0133L48.3537 47.0163L48.7012 47.2222L48.7472 33.8451L47.8969 33.3411L44.9743 31.6658L44.9512 45.0525L48.3487 47.0133Z" fill="#E5EAEB" stroke="#036063"/>
<mask id="path-44-inside-12_129_51381" fill="white">
<path d="M48.1488 32.9092L49.2482 33.5609L48.1488 32.9092Z"/>
</mask>
<path d="M48.1488 32.9092L49.2482 33.5609L48.1488 32.9092Z" fill="white"/>
<path d="M48.6587 32.0489L49.7581 32.7006L48.7383 34.4211L47.6389 33.7694L48.6587 32.0489ZM48.7383 34.4211L47.6389 33.7694L48.6587 32.0489L49.7581 32.7006L48.7383 34.4211Z" fill="#036063" mask="url(#path-44-inside-12_129_51381)"/>
<mask id="path-46-inside-13_129_51381" fill="white">
<path d="M59.2194 27.7714C59.878 27.0179 60.6151 26.3373 61.4182 25.7412C61.0717 26.1529 60.7545 26.5884 60.4687 27.0445L59.2194 27.7714Z"/>
</mask>
<path d="M59.2194 27.7714C59.878 27.0179 60.6151 26.3373 61.4182 25.7412C61.0717 26.1529 60.7545 26.5884 60.4687 27.0445L59.2194 27.7714Z" fill="white"/>
<path d="M59.2194 27.7714L59.7223 28.6358L58.4664 27.1133L59.2194 27.7714ZM61.4182 25.7412L60.8222 24.9382L62.1833 26.3851L61.4182 25.7412ZM60.4687 27.0445L61.3162 27.5754L61.1851 27.7847L60.9716 27.9089L60.4687 27.0445ZM58.4664 27.1133C59.172 26.3061 59.9618 25.5769 60.8222 24.9382L62.0142 26.5442C61.2685 27.0977 60.584 27.7297 59.9723 28.4295L58.4664 27.1133ZM62.1833 26.3851C61.8669 26.7611 61.5772 27.1588 61.3162 27.5754L59.6213 26.5137C59.9318 26.018 60.2766 25.5447 60.6531 25.0973L62.1833 26.3851ZM60.9716 27.9089L59.7223 28.6358L58.7165 26.9071L59.9658 26.1802L60.9716 27.9089Z" fill="#036063" mask="url(#path-46-inside-13_129_51381)"/>
<mask id="path-48-inside-14_129_51381" fill="white">
<path d="M103.693 105.519V105.495V105.519Z"/>
</mask>
<path d="M103.693 105.519V105.495V105.519Z" fill="white"/>
<path d="M102.693 105.519V105.495H104.693V105.519H102.693ZM104.693 105.495V105.519H102.693V105.495H104.693Z" fill="#036063" mask="url(#path-48-inside-14_129_51381)"/>
<path d="M116.192 105.531L132.178 95.847L130.102 92.2286L114.118 101.935L116.192 105.531Z" fill="white" stroke="#036063"/>
<mask id="path-51-inside-15_129_51381" fill="white">
<path d="M103.693 105.52V105.495L112.663 100.407L103.693 105.52Z"/>
</mask>
<path d="M103.693 105.52V105.495L112.663 100.407L103.693 105.52Z" fill="white"/>
<path d="M103.693 105.52L104.188 106.389L102.693 107.241V105.52H103.693ZM103.693 105.495H102.693V104.913L103.199 104.625L103.693 105.495ZM112.663 100.407L112.169 99.5374L113.158 101.276L112.663 100.407ZM102.693 105.52V105.495H104.693V105.52H102.693ZM103.199 104.625L112.169 99.5374L113.156 101.277L104.186 106.365L103.199 104.625ZM113.158 101.276L104.188 106.389L103.197 104.652L112.168 99.5385L113.158 101.276Z" fill="#036063" mask="url(#path-51-inside-15_129_51381)"/>
<path d="M104.375 105.707L104.9 106.624L104.901 106.625L107.225 110.655L115.326 106.037L113.004 102.011L113.004 102.011L113.003 102.009L112.476 101.089L104.375 105.707Z" fill="#E5EAEB" stroke="#036063"/>
<mask id="path-54-inside-16_129_51381" fill="white">
<path d="M112.666 100.407L113.441 101.761L112.666 100.407Z"/>
</mask>
<path d="M112.666 100.407L113.441 101.761L112.666 100.407Z" fill="white"/>
<path d="M113.534 99.9105L114.309 101.264L112.573 102.257L111.798 100.904L113.534 99.9105ZM112.573 102.257L111.798 100.904L113.534 99.9105L114.309 101.264L112.573 102.257Z" fill="#036063" mask="url(#path-54-inside-16_129_51381)"/>
<mask id="path-56-inside-17_129_51381" fill="white">
<path d="M51.5962 15.3143L68.4372 5.08805L77.4073 0L60.5664 10.2012L51.5962 15.3143Z"/>
</mask>
<path d="M51.5962 15.3143L68.4372 5.08805L77.4073 0L60.5664 10.2012L51.5962 15.3143Z" fill="white"/>
<path d="M51.5962 15.3143L52.0914 16.183L51.0771 14.4595L51.5962 15.3143ZM68.4372 5.08805L67.9181 4.23329L67.9308 4.22557L67.9438 4.21823L68.4372 5.08805ZM77.4073 0L76.914 -0.869817L77.9254 0.855322L77.4073 0ZM60.5664 10.2012L61.0845 11.0565L61.0731 11.0634L61.0616 11.0699L60.5664 10.2012ZM51.0771 14.4595L67.9181 4.23329L68.9562 5.9428L52.1152 16.169L51.0771 14.4595ZM67.9438 4.21823L76.914 -0.869817L77.9007 0.869817L68.9305 5.95786L67.9438 4.21823ZM77.9254 0.855322L61.0845 11.0565L60.0483 9.34583L76.8893 -0.855322L77.9254 0.855322ZM61.0616 11.0699L52.0914 16.183L51.101 14.4455L60.0712 9.33238L61.0616 11.0699Z" fill="#036063" mask="url(#path-56-inside-17_129_51381)"/>
<path d="M49.6998 48.0986V49.0159L48.9288 48.5188L48.8161 48.4461C49.8493 54.7595 51.6912 60.9132 54.2967 66.7545L54.5639 66.5937L55.0003 66.3311L55.2548 66.7722L64.15 82.1867L64.3989 82.618L63.9686 82.8687L63.6682 83.0436C67.435 88.2751 71.8702 92.9867 76.8597 97.058V96.8485V95.9837L77.6091 96.4152L90.2774 103.709L90.5279 103.853V104.142V105.066C91.9818 105.57 93.4674 105.977 94.9751 106.284L94.9811 106.285C97.866 106.91 100.843 106.955 103.742 106.42L103.312 105.669L103.061 105.23L103.502 104.984L112.472 99.9712L112.904 99.7298L113.15 100.159L113.572 100.897C116.426 97.4632 118.293 93.3108 118.969 88.8868L118.158 88.4059L117.913 88.2607V87.9758V73.4636V72.586L118.668 73.0335L118.863 73.1495C118.392 70.1348 117.714 67.1558 116.834 64.2337L116.834 64.2332C115.867 61.0101 114.699 57.8514 113.336 54.776L113.042 54.9471L112.609 55.1996L112.358 54.7651L103.438 39.3256L103.188 38.8941L103.619 38.6434L103.918 38.469C100.149 33.2563 95.7233 28.5551 90.7528 24.482V24.7136V25.5694L90.0073 25.1492L77.2891 17.9808L77.0346 17.8374V17.5452V16.4828C72.8926 14.8938 68.4065 14.4365 64.0346 15.1544L64.4487 15.8647L64.7053 16.3046L64.2607 16.553L55.2905 21.5659L54.8847 21.7927L54.629 21.4043L54.1133 20.621C52.24 22.7977 50.8077 25.3226 49.8991 28.0546L49.8992 28.0546L49.8951 28.0662C49.3571 29.5599 48.9419 31.095 48.6535 32.6563L49.4547 33.1312L49.6998 33.2764V33.5613V48.0986ZM82.1182 94.3659L82.1157 94.3643C74.1847 89.373 67.0729 81.3024 61.9537 72.1985C56.8377 63.1003 53.6876 52.927 53.722 43.7003C53.3982 37.8457 55.2124 32.0731 58.8259 27.463L58.8341 27.4525L58.8429 27.4424C59.5244 26.6627 60.2871 25.9584 61.118 25.3414C66.7827 21.0421 75.06 21.1144 84.1557 26.3607C92.4083 31.1146 99.8363 39.2648 105.2 48.5662C110.562 57.8638 113.888 68.3589 113.89 77.8382C114.146 83.3608 112.558 88.8116 109.376 93.3268L109.375 93.3288L109.25 93.5042L109.243 93.5139L109.236 93.5232C106.872 96.5308 103.449 98.5167 99.6705 99.0727L99.6603 99.0742L99.6501 99.0752C93.9613 99.6736 88.2397 98.3021 83.4355 95.1886C83.4351 95.1883 83.4347 95.1881 83.4343 95.1878L83.1676 95.0175L83.1624 95.0142L82.1182 94.3659Z" fill="#E5EAEB" stroke="#036063"/>
<path d="M62.7105 14.9395L62.7105 14.9395L62.7087 14.9365L60.3832 10.8825L52.2818 15.5004L54.6042 19.5489L54.6059 19.552L55.1293 20.4496L63.2307 15.8317L62.7105 14.9395Z" fill="#E5EAEB" stroke="#036063"/>
<path d="M61.245 10.3759L63.3206 13.9942L79.3055 4.2878L77.2314 0.692312L61.245 10.3759Z" fill="white" stroke="#036063"/>
<path d="M123.371 91.1577L123.117 91.3139L122.859 91.1649L119.844 89.4249C119.208 93.203 117.734 96.7808 115.542 99.8982L129.958 91.1445C131.696 89.2157 133.077 86.9967 134.042 84.5917L123.371 91.1577Z" fill="white" stroke="#036063"/>
<path d="M77.0358 11.9306V11.6509L77.2741 11.5045L88.2878 4.7391C85.6114 4.3178 82.8773 4.39069 80.2209 4.95777L65.4381 13.8463C69.3644 13.4788 73.3309 14.0092 77.0358 15.4072V11.9306Z" fill="white" stroke="#036063"/>
<path d="M134.74 82.9633L134.74 82.9632L134.751 82.9567L139.451 80.2184L139.497 66.8846L123.658 76.5023L123.612 89.8343L134.74 82.9633Z" fill="#036063" stroke="#036063"/>
<path d="M136.358 64.4697L120.492 74.104L123.153 75.6393L139.019 66.005L136.358 64.4697Z" fill="white" stroke="#036063"/>
<path d="M119.264 74.5486L119.264 74.5486L119.259 74.5457L118.911 74.3397L118.865 87.6918L119.716 88.1961L122.614 89.869L122.661 76.5091L119.264 74.5486Z" fill="#E5EAEB" stroke="#036063"/>
<path d="M106.59 9.91088L90.7489 19.5063V22.548L106.59 12.9525V9.91088Z" fill="white" stroke="#036063"/>
<path d="M89.7513 23.4352V19.5132L78.103 12.7934L78.0831 16.1415V16.143V17.1307L89.7513 23.8486V23.4352Z" fill="#E5EAEB" stroke="#036063"/>
<path d="M116.321 53.0119L116.321 53.0119L116.316 53.015L114.202 54.2664C115.601 57.4129 116.8 60.6458 117.79 63.9455C118.712 67.0088 119.415 70.1337 119.895 73.2966L135.806 63.6589C134.791 57.0759 132.899 50.66 130.181 44.5831L116.321 53.0119Z" fill="white" stroke="#036063"/>
<mask id="path-69-inside-18_129_51381" fill="white">
<path d="M103.347 38.9749L104.646 38.624L103.872 39.0752L104.646 38.624L103.347 38.9749Z"/>
</mask>
<path d="M103.347 38.9749L104.646 38.624L103.872 39.0752L104.646 38.624L103.347 38.9749Z" fill="white"/>
<path d="M104.646 38.624L104.386 37.6586L105.15 39.4881L104.646 38.624ZM104.646 38.624L104.386 37.6586L105.15 39.4881L104.646 38.624ZM103.086 38.0095L104.386 37.6586L104.907 39.5894L103.608 39.9403L103.086 38.0095ZM105.15 39.4881L104.375 39.9393L103.368 38.2111L104.143 37.7599L105.15 39.4881ZM103.368 38.2111L104.143 37.7599L105.15 39.4881L104.375 39.9393L103.368 38.2111ZM104.907 39.5894L103.608 39.9403L103.086 38.0095L104.386 37.6586L104.907 39.5894Z" fill="#036063" mask="url(#path-69-inside-18_129_51381)"/>
<path d="M104.566 37.6853L120.757 28.2672C116.845 22.8721 112.237 18.0215 107.053 13.8425L91.1204 23.5169C96.1945 27.6366 100.714 32.3992 104.566 37.6853Z" fill="white" stroke="#036063"/>
<mask id="path-72-inside-19_129_51381" fill="white">
<path d="M107.241 37.1455L104.642 38.6243L103.343 38.9752L121.483 28.4231L124.082 26.9443L107.241 37.1455Z"/>
</mask>
<path d="M107.241 37.1455L104.642 38.6243L103.343 38.9752L121.483 28.4231L124.082 26.9443L107.241 37.1455Z" fill="white"/>
<path d="M107.241 37.1455L107.759 38.0008L107.747 38.0079L107.736 38.0146L107.241 37.1455ZM104.642 38.6243L105.137 39.4934L105.026 39.5565L104.903 39.5897L104.642 38.6243ZM103.343 38.9752L103.604 39.9406L102.84 38.1108L103.343 38.9752ZM121.483 28.4231L120.981 27.5587L120.989 27.554L121.483 28.4231ZM124.082 26.9443L123.587 26.0752L124.6 27.7997L124.082 26.9443ZM107.736 38.0146L105.137 39.4934L104.148 37.7552L106.746 36.2764L107.736 38.0146ZM104.903 39.5897L103.604 39.9406L103.082 38.0098L104.382 37.6589L104.903 39.5897ZM102.84 38.1108L120.981 27.5587L121.986 29.2875L103.846 39.8396L102.84 38.1108ZM120.989 27.554L123.587 26.0752L124.577 27.8135L121.978 29.2923L120.989 27.554ZM124.6 27.7997L107.759 38.0008L106.723 36.2902L123.564 26.089L124.6 27.7997Z" fill="#036063" mask="url(#path-72-inside-19_129_51381)"/>
<path d="M130.143 43.4363L130.143 43.4362L130.154 43.43L132.319 42.1765L123.905 27.6363L107.919 37.3194L116.338 51.8908L130.143 43.4363Z" fill="#036063" stroke="#036063"/>
<path d="M113.314 53.6309L113.43 53.5629H113.457L115.48 52.4003L107.059 37.8248L104.895 39.0566L104.553 39.2558L112.973 53.8295L113.314 53.6309Z" fill="#E5EAEB" stroke="#036063"/>
<path d="M89.8557 4.96593L78.5815 11.9164L90.2427 18.6435L106.107 9.03369L94.4471 2.307L89.8557 4.96593Z" fill="#036063" stroke="#036063"/>
<path d="M32.6203 32.5788L32.6566 32.5683L32.6942 32.5634C33.931 32.4012 35.1791 32.341 36.4258 32.3832C37.2702 32.3329 38.1168 32.3333 38.9612 32.3846L38.9801 32.3858L38.9989 32.3884C40.5704 32.6041 42.1225 32.9442 43.6406 33.4054C43.9246 33.4809 44.2024 33.529 44.5059 33.5815C44.5712 33.5929 44.6376 33.6044 44.7056 33.6164C45.0814 33.6829 45.4881 33.7634 45.9143 33.9145C48.3934 34.7325 50.7942 35.7718 53.0879 37.0199L83.0905 19.1323C73.4795 13.7479 64.7523 13.3811 58.5507 17.047C58.5504 17.0471 58.5502 17.0473 58.5499 17.0474L32.3799 32.6501C32.4598 32.6258 32.54 32.6021 32.6203 32.5788Z" fill="white" stroke="#036063"/>
<path d="M85.3046 117.065C84.7798 118.05 84.1795 118.993 83.5092 119.884L109.259 104.44L109.265 104.437C115.554 100.773 119.511 92.9577 119.511 81.6594C119.511 70.275 115.541 57.6088 109.08 46.3451C102.674 35.1779 93.8451 25.4352 84.0828 19.7044L54.0771 37.5939C63.8729 43.4782 72.6646 53.2381 79.0447 64.3542C85.5827 75.7455 89.6148 88.6073 89.5773 100.257C89.5848 102.947 89.3306 105.632 88.8186 108.273L88.8186 108.273L88.8169 108.281C88.7219 108.73 88.5869 109.12 88.4575 109.478C88.4398 109.527 88.4224 109.575 88.4052 109.622C88.2942 109.927 88.1928 110.206 88.1126 110.507C87.7414 112.025 87.258 113.513 86.6666 114.959L86.6535 114.991L86.6361 115.021C86.227 115.724 85.7826 116.407 85.3046 117.065Z" fill="white" stroke="#036063"/>
<path d="M84.4434 116.475L84.4584 116.449L84.4764 116.425C84.9406 115.805 85.3651 115.155 85.7474 114.481C86.2823 113.079 86.7134 111.64 87.0371 110.175L87.0394 110.165L87.0421 110.155C87.135 109.805 87.2534 109.48 87.3642 109.176C87.3812 109.13 87.3979 109.084 87.4143 109.038C87.5405 108.689 87.6551 108.354 87.7349 107.978C88.2342 105.402 88.4819 102.783 88.4746 100.158V100.157C88.4746 88.7856 84.4924 76.1258 78.0186 64.862C71.5447 53.5981 62.6062 43.7771 52.7429 38.0542C50.4323 36.714 48.0014 35.5943 45.4822 34.7098L45.4801 34.7091C45.1337 34.5858 44.7928 34.5163 44.4269 34.4516C44.3671 34.441 44.3062 34.4305 44.2442 34.4198C43.9366 34.3667 43.6042 34.3092 43.2698 34.2198L43.2616 34.2176L43.2535 34.2151C41.7895 33.7699 40.2928 33.4412 38.7772 33.2321C37.9716 33.184 37.1637 33.1843 36.3581 33.2333L36.3342 33.2347L36.3103 33.2339C35.1244 33.1925 33.9372 33.2481 32.7604 33.4001C32.0022 33.6313 31.26 33.9125 30.5386 34.2418L30.5001 34.2594L30.4591 34.2702C29.4442 34.5392 28.4593 34.9112 27.5196 35.3804C21.2133 39.0234 17.213 46.8356 17.1883 58.1505C17.1886 69.5342 21.1707 82.1998 27.6537 93.4789C34.1365 104.758 43.0935 114.604 52.9947 120.377C64.3002 126.929 74.147 126.436 80.5779 120.907L80.5959 120.892L80.6153 120.878C81.2507 120.429 81.8511 119.932 82.4112 119.391C83.1713 118.48 83.8513 117.504 84.4434 116.475Z" fill="white" stroke="#036063"/>
<mask id="path-80-inside-20_129_51381" fill="white">
<path d="M53.0948 37.5966C50.7571 36.2406 48.2976 35.1077 45.7488 34.2129C48.2976 35.1077 50.7571 36.2406 53.0948 37.5966Z"/>
</mask>
<path d="M53.0948 37.5966C50.7571 36.2406 48.2976 35.1077 45.7488 34.2129C48.2976 35.1077 50.7571 36.2406 53.0948 37.5966Z" fill="white"/>
<path d="M52.5931 38.4616C50.3096 37.1371 47.9072 36.0305 45.4175 35.1564L46.08 33.2693C48.6881 34.185 51.2046 35.3441 53.5966 36.7315L52.5931 38.4616ZM46.08 33.2693C48.6881 34.185 51.2046 35.3441 53.5966 36.7315L52.5931 38.4616C50.3096 37.1371 47.9072 36.0305 45.4175 35.1564L46.08 33.2693Z" fill="#036063" mask="url(#path-80-inside-20_129_51381)"/>
<mask id="path-82-inside-21_129_51381" fill="white">
<path d="M36.4316 32.8847C35.2046 32.8418 33.9761 32.9005 32.7586 33.0601C33.9761 32.9005 35.2046 32.8418 36.4316 32.8847Z"/>
</mask>
<path d="M36.4316 32.8847C35.2046 32.8418 33.9761 32.9005 32.7586 33.0601C33.9761 32.9005 35.2046 32.8418 36.4316 32.8847Z" fill="white"/>
<path d="M36.3967 33.8841C35.2248 33.8431 34.0514 33.8992 32.8886 34.0516L32.6286 32.0686C33.9007 31.9018 35.1844 31.8405 36.4666 31.8853L36.3967 33.8841ZM32.6286 32.0686C33.9007 31.9018 35.1844 31.8405 36.4666 31.8853L36.3967 33.8841C35.2248 33.8431 34.0514 33.8992 32.8886 34.0516L32.6286 32.0686Z" fill="#036063" mask="url(#path-82-inside-21_129_51381)"/>
<mask id="path-84-inside-22_129_51381" fill="white">
<path d="M38.9275 32.7588C40.4756 32.9713 42.0046 33.3066 43.5 33.7614C42.0046 33.3066 40.4756 32.9713 38.9275 32.7588Z"/>
</mask>
<path d="M38.9275 32.7588C40.4756 32.9713 42.0046 33.3066 43.5 33.7614C42.0046 33.3066 40.4756 32.9713 38.9275 32.7588Z" fill="white"/>
<path d="M39.0635 31.7681C40.6641 31.9878 42.2449 32.3344 43.791 32.8046L43.209 34.7181C41.7643 34.2787 40.2872 33.9548 38.7915 33.7495L39.0635 31.7681ZM43.209 34.7181C41.7643 34.2787 40.2872 33.9548 38.7915 33.7495L39.0635 31.7681C40.6641 31.9878 42.2449 32.3344 43.791 32.8046L43.209 34.7181Z" fill="#036063" mask="url(#path-84-inside-22_129_51381)"/>
<mask id="path-86-inside-23_129_51381" fill="white">
<path d="M27.383 35.0905C28.3573 34.6029 29.3787 34.2166 30.4314 33.9375C29.3787 34.2166 28.3573 34.6029 27.383 35.0905Z"/>
</mask>
<path d="M27.383 35.0905C28.3573 34.6029 29.3787 34.2166 30.4314 33.9375C29.3787 34.2166 28.3573 34.6029 27.383 35.0905Z" fill="white"/>
<path d="M26.9355 34.1962C27.9709 33.678 29.0564 33.2675 30.1752 32.9709L30.6876 34.9041C29.7011 35.1656 28.7437 35.5277 27.8306 35.9847L26.9355 34.1962ZM30.6876 34.9041C29.7011 35.1656 28.7437 35.5277 27.8306 35.9847L26.9355 34.1962C27.9709 33.678 29.0564 33.2675 30.1752 32.9709L30.6876 34.9041Z" fill="#036063" mask="url(#path-86-inside-23_129_51381)"/>
<mask id="path-88-inside-24_129_51381" fill="white">
<path d="M86.2019 114.693C85.8043 115.398 85.362 116.076 84.8776 116.724C85.3534 116.07 85.7954 115.392 86.2019 114.693Z"/>
</mask>
<path d="M86.2019 114.693C85.8043 115.398 85.362 116.076 84.8776 116.724C85.3534 116.07 85.7954 115.392 86.2019 114.693Z" fill="white"/>
<path d="M84.8776 116.724L85.6784 117.323L84.0692 116.135L84.8776 116.724ZM87.0728 115.185C86.6542 115.927 86.1884 116.641 85.6784 117.323L84.0769 116.125C84.5356 115.511 84.9545 114.869 85.331 114.202L87.0728 115.185ZM84.0692 116.135C84.5249 115.509 84.9482 114.86 85.3374 114.191L87.0664 115.196C86.6427 115.925 86.182 116.631 85.686 117.312L84.0692 116.135Z" fill="#036063" mask="url(#path-88-inside-24_129_51381)"/>
<mask id="path-90-inside-25_129_51381" fill="white">
<path d="M82.8816 119.807C82.2976 120.372 81.6711 120.892 81.0076 121.361C81.6711 120.892 82.2976 120.372 82.8816 119.807Z"/>
</mask>
<path d="M82.8816 119.807C82.2976 120.372 81.6711 120.892 81.0076 121.361C81.6711 120.892 82.2976 120.372 82.8816 119.807Z" fill="white"/>
<path d="M83.5772 120.525C82.9564 121.126 82.2903 121.679 81.5848 122.177L80.4304 120.544C81.0519 120.105 81.6389 119.618 82.186 119.088L83.5772 120.525ZM80.4304 120.544C81.0519 120.105 81.6389 119.618 82.186 119.088L83.5772 120.525C82.9564 121.126 82.2903 121.679 81.5848 122.177L80.4304 120.544Z" fill="#036063" mask="url(#path-90-inside-25_129_51381)"/>
<mask id="path-92-inside-26_129_51381" fill="white">
<path d="M88.328 108.102C88.1531 108.929 87.8283 109.555 87.6284 110.307C87.8283 109.555 88.1531 108.929 88.328 108.102Z"/>
</mask>
<path d="M88.328 108.102C88.1531 108.929 87.8283 109.555 87.6284 110.307C87.8283 109.555 88.1531 108.929 88.328 108.102Z" fill="white"/>
<path d="M89.3064 108.308C89.2038 108.793 89.0588 109.211 88.9279 109.573C88.7921 109.948 88.6806 110.241 88.5948 110.564L86.6619 110.05C86.776 109.621 86.9269 109.225 87.0472 108.892C87.1724 108.546 87.2773 108.237 87.3496 107.895L89.3064 108.308ZM86.6619 110.05C86.776 109.621 86.9269 109.225 87.0472 108.892C87.1724 108.546 87.2773 108.237 87.3496 107.895L89.3064 108.308C89.2038 108.793 89.0588 109.211 88.9279 109.573C88.7921 109.948 88.6806 110.241 88.5948 110.564L86.6619 110.05Z" fill="#036063" mask="url(#path-92-inside-26_129_51381)"/>
<path d="M95.5504 50.0092L95.4796 70.1393L110.719 60.8263L110.79 40.6962L95.5504 50.0092Z" fill="white" stroke="#036063"/>
<path d="M95.0447 49.1461L110.315 39.8139L82.415 23.6414L67.1443 32.9737L95.0447 49.1461Z" fill="white" stroke="#036063"/>
<path d="M94.5238 68.414V50.0168L72.613 37.3242C81.8136 45.3295 89.609 56.5523 94.5238 68.414Z" fill="white" stroke="#036063"/>
<path d="M66.2579 32.5785L81.5517 23.27L53.6527 7.09833L38.3584 16.4307L66.2579 32.5785Z" fill="white" stroke="#036063"/>
<path d="M49.2235 26.0687H49.2557L49.2876 26.0728C50.8633 26.2764 52.4183 26.617 53.9351 27.0908C54.2184 27.166 54.4957 27.2141 54.7985 27.2665C54.8638 27.2778 54.9303 27.2893 54.9983 27.3013C55.0439 27.3094 55.0899 27.3177 55.1365 27.3263L37.8549 17.3344V28.1369C38.7274 27.7342 39.6316 27.4039 40.5585 27.1494C41.3223 26.8066 42.1095 26.5189 42.9142 26.2885L42.9455 26.2795L42.9778 26.2747C44.2209 26.0886 45.4787 26.0196 46.7347 26.0687H46.7348H46.7398H46.7448H46.7497H46.7547H46.7597H46.7646H46.7696H46.7745H46.7795H46.7845H46.7894H46.7944H46.7993H46.8043H46.8092H46.8142H46.8191H46.8241H46.829H46.834H46.8389H46.8438H46.8488H46.8537H46.8587H46.8636H46.8685H46.8735H46.8784H46.8833H46.8882H46.8932H46.8981H46.903H46.9079H46.9128H46.9178H46.9227H46.9276H46.9325H46.9374H46.9423H46.9472H46.9521H46.957H46.962H46.9669H46.9718H46.9767H46.9816H46.9865H46.9914H46.9963H47.0011H47.006H47.0109H47.0158H47.0207H47.0256H47.0305H47.0354H47.0403H47.0451H47.05H47.0549H47.0598H47.0647H47.0695H47.0744H47.0793H47.0842H47.089H47.0939H47.0988H47.1037H47.1085H47.1134H47.1183H47.1231H47.128H47.1328H47.1377H47.1426H47.1474H47.1523H47.1571H47.162H47.1669H47.1717H47.1766H47.1814H47.1863H47.1911H47.196H47.2008H47.2057H47.2105H47.2154H47.2202H47.225H47.2299H47.2347H47.2396H47.2444H47.2493H47.2541H47.2589H47.2638H47.2686H47.2734H47.2783H47.2831H47.2879H47.2928H47.2976H47.3024H47.3073H47.3121H47.3169H47.3217H47.3266H47.3314H47.3362H47.341H47.3459H47.3507H47.3555H47.3603H47.3652H47.37H47.3748H47.3796H47.3844H47.3892H47.3941H47.3989H47.4037H47.4085H47.4133H47.4181H47.4229H47.4278H47.4326H47.4374H47.4422H47.447H47.4518H47.4566H47.4614H47.4662H47.471H47.4758H47.4807H47.4855H47.4903H47.4951H47.4999H47.5047H47.5095H47.5143H47.5191H47.5239H47.5287H47.5335H47.5383H47.5431H47.5479H47.5527H47.5575H47.5623H47.5671H47.5719H47.5767H47.5815H47.5863H47.5911H47.5959H47.6007H47.6055H47.6103H47.615H47.6198H47.6246H47.6294H47.6342H47.639H47.6438H47.6486H47.6534H47.6582H47.663H47.6678H47.6726H47.6774H47.6822H47.6869H47.6917H47.6965H47.7013H47.7061H47.7109H47.7157H47.7205H47.7253H47.7301H47.7348H47.7396H47.7444H47.7492H47.754H47.7588H47.7636H47.7684H47.7732H47.778H47.7827H47.7875H47.7923H47.7971H47.8019H47.8067H47.8115H47.8163H47.8211H47.8259H47.8306H47.8354H47.8402H47.845H47.8498H47.8546H47.8594H47.8642H47.869H47.8738H47.8785H47.8833H47.8881H47.8929H47.8977H47.9025H47.9073H47.9121H47.9169H47.9217H47.9265H47.9313H47.936H47.9408H47.9456H47.9504H47.9552H47.96H47.9648H47.9696H47.9744H47.9792H47.984H47.9888H47.9936H47.9984H48.0032H48.008H48.0128H48.0176H48.0224H48.0272H48.032H48.0368H48.0416H48.0464H48.0512H48.056H48.0608H48.0656H48.0704H48.0752H48.08H48.0848H48.0896H48.0944H48.0992H48.104H48.1088H48.1136H48.1184H48.1232H48.1281H48.1329H48.1377H48.1425H48.1473H48.1521H48.1569H48.1617H48.1665H48.1714H48.1762H48.181H48.1858H48.1906H48.1954H48.2003H48.2051H48.2099H48.2147H48.2195H48.2244H48.2292H48.234H48.2388H48.2436H48.2485H48.2533H48.2581H48.263H48.2678H48.2726H48.2774H48.2823H48.2871H48.2919H48.2968H48.3016H48.3064H48.3113H48.3161H48.3209H48.3258H48.3306H48.3355H48.3403H48.3451H48.35H48.3548H48.3597H48.3645H48.3694H48.3742H48.3791H48.3839H48.3888H48.3936H48.3985H48.4033H48.4082H48.413H48.4179H48.4227H48.4276H48.4324H48.4373H48.4422H48.447H48.4519H48.4568H48.4616H48.4665H48.4714H48.4762H48.4811H48.486H48.4908H48.4957H48.5006H48.5055H48.5103H48.5152H48.5201H48.525H48.5298H48.5347H48.5396H48.5445H48.5494H48.5543H48.5592H48.5641H48.5689H48.5738H48.5787H48.5836H48.5885H48.5934H48.5983H48.6032H48.6081H48.613H48.6179H48.6228H48.6277H48.6326H48.6376H48.6425H48.6474H48.6523H48.6572H48.6621H48.667H48.672H48.6769H48.6818H48.6867H48.6916H48.6966H48.7015H48.7064H48.7114H48.7163H48.7212H48.7262H48.7311H48.736H48.741H48.7459H48.7509H48.7558H48.7608H48.7657H48.7706H48.7756H48.7806H48.7855H48.7905H48.7954H48.8004H48.8053H48.8103H48.8153H48.8202H48.8252H48.8302H48.8351H48.8401H48.8451H48.8501H48.855H48.86H48.865H48.87H48.875H48.8799H48.8849H48.8899H48.8949H48.8999H48.9049H48.9099H48.9149H48.9199H48.9249H48.9299H48.9349H48.9399H48.9449H48.9499H48.9549H48.96H48.965H48.97H48.975H48.98H48.9851H48.9901H48.9951H49.0002H49.0052H49.0102H49.0153H49.0203H49.0253H49.0304H49.0354H49.0405H49.0455H49.0506H49.0556H49.0607H49.0657H49.0708H49.0758H49.0809H49.086H49.091H49.0961H49.1012H49.1062H49.1113H49.1164H49.1215H49.1266H49.1316H49.1367H49.1418H49.1469H49.152H49.1571H49.1622H49.1673H49.1724H49.1775H49.1826H49.1877H49.1928H49.1979H49.203H49.2082H49.2133H49.2184H49.2235Z" fill="white" stroke="#036063"/>
<path d="M93.9894 139.019C93.345 140.136 92.9716 141.39 92.8997 142.679C92.9028 143.817 93.3034 144.489 93.8096 144.778C94.3165 145.068 95.1068 145.075 96.1109 144.495C97.1892 143.794 98.0858 142.846 98.7266 141.728C99.3675 140.61 99.7339 139.355 99.7954 138.067C99.7927 136.928 99.3923 136.262 98.8892 135.975C98.3846 135.688 97.5999 135.681 96.6089 136.249C95.5313 136.953 94.6339 137.902 93.9894 139.019Z" fill="white" stroke="#036063"/>
<mask id="path-100-inside-27_129_51381" fill="white">
<path d="M9.62036 93.7402L9.59538 93.7653L6.99678 95.2441L9.59538 93.7402V93.7653L9.62036 93.7402Z"/>
</mask>
<path d="M9.62036 93.7402L9.59538 93.7653L6.99678 95.2441L9.59538 93.7402V93.7653L9.62036 93.7402Z" fill="white"/>
<path d="M9.59538 93.7653L10.3036 94.4713L10.2078 94.5673L10.09 94.6344L9.59538 93.7653ZM6.99678 95.2441L7.49138 96.1132L6.49589 94.3786L6.99678 95.2441ZM9.59538 93.7402L9.09449 92.8747L10.5954 92.0061V93.7402H9.59538ZM9.59538 93.7653L10.3036 94.4713L8.59538 96.1848V93.7653H9.59538ZM10.3286 94.4462L10.3036 94.4713L8.88717 93.0593L8.91216 93.0342L10.3286 94.4462ZM10.09 94.6344L7.49138 96.1132L6.50219 94.375L9.10078 92.8962L10.09 94.6344ZM6.49589 94.3786L9.09449 92.8747L10.0963 94.6057L7.49767 96.1096L6.49589 94.3786ZM10.5954 93.7402V93.7653H8.59538V93.7402H10.5954ZM8.88717 93.0593L8.91216 93.0342L10.3286 94.4462L10.3036 94.4713L8.88717 93.0593Z" fill="#036063" mask="url(#path-100-inside-27_129_51381)"/>
<path d="M18.2399 108.799L18.2399 108.799L18.2465 108.795L18.6064 108.592L10.1893 93.9992L9.84862 94.1977L9.84863 94.1977L9.84426 94.2002L7.68245 95.4304L16.1007 110.049L18.2399 108.799Z" fill="#E5EAEB" stroke="#036063"/>
<mask id="path-103-inside-28_129_51381" fill="white">
<path d="M19.2917 108.778L18.4922 109.229L19.2917 108.778Z"/>
</mask>
<path d="M19.2917 108.778L18.4922 109.229L19.2917 108.778Z" fill="white"/>
<path d="M19.7832 109.649L18.9836 110.1L18.0008 108.359L18.8003 107.907L19.7832 109.649ZM18.0008 108.359L18.8003 107.907L19.7832 109.649L18.9836 110.1L18.0008 108.359Z" fill="#036063" mask="url(#path-103-inside-28_129_51381)"/>
<mask id="path-105-inside-29_129_51381" fill="white">
<path d="M9.59639 93.7656L9.62137 93.7406L10.371 93.3145L9.59639 93.7656Z"/>
</mask>
<path d="M9.59639 93.7656L9.62137 93.7406L10.371 93.3145L9.59639 93.7656Z" fill="white"/>
<path d="M9.59639 93.7656L10.0997 94.6297L8.88818 93.0596L9.59639 93.7656ZM9.62137 93.7406L8.91317 93.0346L9.00908 92.9383L9.12719 92.8712L9.62137 93.7406ZM10.371 93.3145L9.87679 92.4451L10.8743 94.1786L10.371 93.3145ZM8.88818 93.0596L8.91317 93.0346L10.3296 94.4466L10.3046 94.4716L8.88818 93.0596ZM9.12719 92.8712L9.87679 92.4451L10.8652 94.1838L10.1156 94.6099L9.12719 92.8712ZM10.8743 94.1786L10.0997 94.6297L9.09308 92.9015L9.86766 92.4503L10.8743 94.1786Z" fill="#036063" mask="url(#path-105-inside-29_129_51381)"/>
<mask id="path-107-inside-30_129_51381" fill="white">
<path d="M69.1363 80.2061C70.5926 83.4635 71.8362 86.8125 72.8593 90.2318C71.8362 86.8125 70.5926 83.4635 69.1363 80.2061Z"/>
</mask>
<path d="M69.1363 80.2061C70.5926 83.4635 71.8362 86.8125 72.8593 90.2318C71.8362 86.8125 70.5926 83.4635 69.1363 80.2061Z" fill="white"/>
<path d="M70.0492 79.7979C71.5231 83.0948 72.7818 86.4844 73.8173 89.9451L71.9012 90.5184C70.8905 87.1405 69.662 83.8321 68.2233 80.6142L70.0492 79.7979ZM71.9012 90.5184C70.8905 87.1405 69.662 83.8321 68.2233 80.6142L70.0492 79.7979C71.5231 83.0948 72.7818 86.4844 73.8173 89.9451L71.9012 90.5184Z" fill="#036063" mask="url(#path-107-inside-30_129_51381)"/>
<mask id="path-109-inside-31_129_51381" fill="white">
<path d="M64.5142 119.406C64.4873 119.474 64.4444 119.534 64.3892 119.582L63.5897 120.058C63.9145 119.857 64.2143 119.632 64.5142 119.406Z"/>
</mask>
<path d="M64.5142 119.406C64.4873 119.474 64.4444 119.534 64.3892 119.582L63.5897 120.058C63.9145 119.857 64.2143 119.632 64.5142 119.406Z" fill="white"/>
<path d="M64.5142 119.406L63.913 118.607L66.7566 116.468L65.4436 119.775L64.5142 119.406ZM64.3892 119.582L65.0417 120.34L64.9757 120.396L64.9009 120.441L64.3892 119.582ZM63.5897 120.058L64.1014 120.917L63.0644 119.207L63.5897 120.058ZM65.4436 119.775C65.3572 119.993 65.2194 120.187 65.0417 120.34L63.7368 118.824C63.6694 118.882 63.6173 118.955 63.5847 119.037L65.4436 119.775ZM64.9009 120.441L64.1014 120.917L63.0779 119.199L63.8775 118.723L64.9009 120.441ZM63.0644 119.207C63.3437 119.035 63.6074 118.837 63.913 118.607L65.1154 120.205C64.8212 120.427 64.4853 120.68 64.1149 120.909L63.0644 119.207Z" fill="#036063" mask="url(#path-109-inside-31_129_51381)"/>
<path d="M10.2693 69.8783L10.27 69.892L10.27 69.9058C10.2453 78.9477 13.3291 88.9893 18.3892 98.0106C23.3935 106.932 30.3073 114.814 37.9902 119.723L40.7261 118.121C32.8414 113.234 25.7773 105.287 20.6391 96.2849C15.3463 87.0118 12.0707 76.5729 12.0685 67.1317C11.9155 63.051 12.7097 59.0029 14.3736 55.302C11.449 59.5638 9.99836 64.6863 10.2693 69.8783Z" fill="white" stroke="#036063"/>
<path d="M42.6849 119.327L39.852 120.972C44.3383 123.771 49.6238 125.007 54.8875 124.483L58.0299 122.677C53.5494 123.391 48.3045 122.332 42.6849 119.327Z" fill="white" stroke="#036063"/>
<path d="M38.9137 120.326L38.9907 120.375L41.749 118.773C41.7169 118.757 41.6854 118.739 41.6542 118.721L38.9137 120.326Z" fill="white" stroke="#036063"/>
<path d="M46.0515 132.545V135.177L49.0512 133.425C48.0388 133.177 47.0379 132.883 46.0515 132.545Z" fill="white" stroke="#036063"/>
<path d="M4.18637 55.1574L1.06977 56.9707L3.38463 58.3159C3.6 57.2504 3.86759 56.1963 4.18637 55.1574Z" fill="white" stroke="#036063"/>
<path d="M33.4337 124.084L33.4337 124.494L33.4337 124.497L33.4104 128.418L45.057 135.183L45.0769 131.838V131.836V130.847L33.4337 124.084Z" fill="#E5EAEB" stroke="#036063"/>
<path d="M58.7394 123.396C59.6315 122.996 60.4792 122.502 61.2679 121.923L58.7394 123.396Z" fill="white" stroke="#036063"/>
<path d="M3.92259 73.2297L4.27483 73.4305L4.29785 60.0123L3.44649 59.5077L0.547933 57.8349L0.501909 71.269L3.92152 73.2291L3.92259 73.2297Z" fill="#E5EAEB" stroke="#036063"/>
<mask id="path-119-inside-32_129_51381" fill="white">
<path d="M3.69893 59.0762L4.79834 59.7278L3.69893 59.0762Z"/>
</mask>
<path d="M3.69893 59.0762L4.79834 59.7278L3.69893 59.0762Z" fill="white"/>
<path d="M4.20883 58.2159L5.30824 58.8676L4.28844 60.5881L3.18903 59.9364L4.20883 58.2159ZM4.28844 60.5881L3.18903 59.9364L4.20883 58.2159L5.30824 58.8676L4.28844 60.5881Z" fill="#036063" mask="url(#path-119-inside-32_129_51381)"/>
<mask id="path-121-inside-33_129_51381" fill="white">
<path d="M14.7697 53.914C15.4343 53.1664 16.1708 52.4864 16.9685 51.8838C16.6437 52.3099 16.3189 52.736 16.019 53.1871L14.7697 53.914Z"/>
</mask>
<path d="M14.7697 53.914C15.4343 53.1664 16.1708 52.4864 16.9685 51.8838C16.6437 52.3099 16.3189 52.736 16.019 53.1871L14.7697 53.914Z" fill="white"/>
<path d="M14.7697 53.914L15.2726 54.7783L14.0223 53.2495L14.7697 53.914ZM16.9685 51.8838L16.3657 51.0859L17.7638 52.4901L16.9685 51.8838ZM16.019 53.1871L16.8519 53.7406L16.723 53.9344L16.5219 54.0515L16.019 53.1871ZM14.0223 53.2495C14.7306 52.4529 15.5156 51.7281 16.3657 51.0859L17.5713 52.6817C16.8261 53.2446 16.138 53.8799 15.517 54.5784L14.0223 53.2495ZM17.7638 52.4901C17.4358 52.9202 17.1308 53.3209 16.8519 53.7406L15.1862 52.6336C15.5069 52.151 15.8515 51.6995 16.1732 51.2775L17.7638 52.4901ZM16.5219 54.0515L15.2726 54.7783L14.2668 53.0496L15.5161 52.3228L16.5219 54.0515Z" fill="#036063" mask="url(#path-121-inside-33_129_51381)"/>
<path d="M71.7423 131.946L87.7288 122.215L85.6529 118.596L69.6664 128.327L71.7423 131.946Z" fill="white" stroke="#036063"/>
<mask id="path-124-inside-34_129_51381" fill="white">
<path d="M59.2425 131.913L68.2126 126.8L59.2425 131.913Z"/>
</mask>
<path d="M59.2425 131.913L68.2126 126.8L59.2425 131.913Z" fill="white"/>
<path d="M58.7472 131.044L67.7174 125.931L68.7079 127.669L59.7377 132.782L58.7472 131.044ZM68.7079 127.669L59.7377 132.782L58.7472 131.044L67.7174 125.931L68.7079 127.669Z" fill="#036063" mask="url(#path-124-inside-34_129_51381)"/>
<path d="M70.8781 132.455L68.5535 128.402L68.5532 128.402L68.0266 127.481L59.9217 132.101L60.4518 133.045L62.7757 137.096L70.8781 132.455Z" fill="#E5EAEB" stroke="#036063"/>
<mask id="path-127-inside-35_129_51381" fill="white">
<path d="M68.2106 126.8L68.9852 128.153L68.2106 126.8Z"/>
</mask>
<path d="M68.2106 126.8L68.9852 128.153L68.2106 126.8Z" fill="white"/>
<path d="M69.0786 126.303L69.8531 127.657L68.1173 128.65L67.3427 127.297L69.0786 126.303ZM68.1173 128.65L67.3427 127.297L69.0786 126.303L69.8531 127.657L68.1173 128.65Z" fill="#036063" mask="url(#path-127-inside-35_129_51381)"/>
<mask id="path-129-inside-36_129_51381" fill="white">
<path d="M7.14634 41.4064L23.9873 31.1551L32.9575 26.042L16.1165 36.2933L7.14634 41.4064Z"/>
</mask>
<path d="M7.14634 41.4064L23.9873 31.1551L32.9575 26.042L16.1165 36.2933L7.14634 41.4064Z" fill="white"/>
<path d="M7.14634 41.4064L7.64155 42.2752L6.62638 40.5522L7.14634 41.4064ZM23.9873 31.1551L23.4674 30.3009L23.4796 30.2934L23.4921 30.2863L23.9873 31.1551ZM32.9575 26.042L32.4623 25.1732L33.4775 26.8962L32.9575 26.042ZM16.1165 36.2933L16.6365 37.1475L16.6242 37.1549L16.6117 37.162L16.1165 36.2933ZM6.62638 40.5522L23.4674 30.3009L24.5073 32.0093L7.66629 42.2606L6.62638 40.5522ZM23.4921 30.2863L32.4623 25.1732L33.4527 26.9108L24.4825 32.0239L23.4921 30.2863ZM33.4775 26.8962L16.6365 37.1475L15.5966 35.4391L32.4376 25.1878L33.4775 26.8962ZM16.6117 37.162L7.64155 42.2752L6.65113 40.5376L15.6213 35.4245L16.6117 37.162Z" fill="#036063" mask="url(#path-129-inside-36_129_51381)"/>
<path d="M62.1884 120.29L62.1883 120.29L62.1998 120.284C62.5945 120.093 62.9768 119.878 63.3445 119.638L63.3444 119.638L63.3544 119.632C63.6352 119.459 63.8984 119.264 64.1773 119.054C67.2007 114.708 68.7165 109.485 68.4896 104.188L68.4891 104.177L68.4892 104.166C68.5139 94.8756 65.2506 84.5162 59.9386 75.2949C54.6268 66.0738 47.2937 58.0385 39.2294 53.3682L39.2287 53.3678C30.3911 48.2315 22.5773 48.2858 17.3486 52.2399C17.04 52.6447 16.7423 53.0377 16.4674 53.4502C14.0737 57.5886 12.8955 62.3219 13.0691 67.1038L13.0694 67.1128V67.1219C13.0694 76.3513 16.2713 86.6242 21.4961 95.789C26.7208 104.954 33.9424 112.965 41.9336 117.697L41.9687 117.718L41.9999 117.744C42.0748 117.807 42.1572 117.86 42.2452 117.903L42.2549 117.907L42.2645 117.912L43.0141 118.313L43.0195 118.316C50.5246 122.452 57.2376 122.845 62.1884 120.29Z" fill="white" stroke="#036063"/>
<path d="M22.8125 84.2725L22.5623 84.1275L22.5632 83.8384L22.6123 67.2113L21.9868 66.8541L21.9398 84.8805L59.4934 106.633V105.533L22.8125 84.2725Z" fill="white" stroke="#036063"/>
<path d="M59.4953 104.379L59.5419 88.6144L23.61 67.7881L23.5634 83.5526L59.4953 104.379Z" fill="white" stroke="#036063"/>
<path d="M38.7178 121.387L38.7258 121.392L39.0154 121.562C43.7772 124.657 49.4479 126.035 55.0947 125.468L55.1058 125.467L55.1169 125.466C58.8903 124.915 62.3069 122.929 64.6593 119.921C64.7385 119.844 64.8036 119.754 64.8517 119.654C68.0113 115.126 69.5965 109.679 69.3623 104.157C69.3598 94.6523 66.0275 84.1256 60.6597 74.7966C55.2901 65.4642 47.8563 57.283 39.6044 52.5038C30.5322 47.2312 22.2282 47.1587 16.5629 51.4851M38.7178 121.387L16.8652 51.8834M38.7178 121.387L38.71 121.382L37.6874 120.732C37.6872 120.732 37.6869 120.732 37.6867 120.731C29.7432 115.727 22.6319 107.632 17.5006 98.5004C12.3717 89.3733 9.19714 79.1688 9.16908 69.9183M38.7178 121.387L9.66904 69.9046M16.5629 51.4851C16.5625 51.4854 16.5621 51.4857 16.5617 51.4861L16.8652 51.8834M16.5629 51.4851C16.5632 51.4849 16.5635 51.4847 16.5638 51.4844L16.8652 51.8834M16.5629 51.4851C15.7393 52.1074 14.9789 52.8095 14.2927 53.5814L14.2813 53.5942L14.2709 53.6077C10.6759 58.2556 8.86551 64.0441 9.16908 69.9183M16.8652 51.8834C16.0675 52.486 15.331 53.166 14.6664 53.9136C11.1422 58.47 9.36851 64.1455 9.66904 69.9046M9.16908 69.9183C9.16907 69.9142 9.16904 69.9101 9.16904 69.906L9.66904 69.9046M9.16908 69.9183C9.1693 69.9224 9.16951 69.9265 9.16972 69.9307L9.66904 69.9046M5.27167 74.2909V75.2976L4.46951 74.6892L4.43125 74.6602C5.46017 80.9377 7.29776 87.0554 9.89854 92.8597L10.1716 92.7045L10.6035 92.459L10.8518 92.8894L19.772 108.354L20.0242 108.791L19.5846 109.039L19.2699 109.217C23.0491 114.456 27.4903 119.181 32.4815 123.272V123.066V122.199L33.232 122.633L45.8753 129.952L46.1248 130.096V130.385V131.312C47.5698 131.825 49.048 132.239 50.5491 132.552L50.5533 132.553C53.4316 133.178 56.4027 133.222 59.2943 132.687L58.8565 131.908L58.611 131.471L59.0485 131.226L68.0187 126.214L68.4508 125.972L68.6966 126.402L69.1201 127.142C71.9982 123.704 73.8754 119.534 74.5405 115.089L73.7162 114.63L73.4596 114.487V114.193V99.6308V98.7703L74.2072 99.1964L74.4127 99.3135C73.9385 96.2918 73.2598 93.3054 72.3812 90.3753L72.3812 90.375C71.4227 87.1716 70.2694 84.0303 68.928 80.9687L68.6526 81.1648L68.2046 81.4837L67.9296 81.0075L58.9844 65.5178L58.7318 65.0804L59.1717 64.8323L59.4858 64.655C55.7088 59.4294 51.2768 54.7143 46.2997 50.6258V50.8558V51.7176L45.5515 51.2898L32.8833 44.0462L32.6315 43.9023V43.6122V42.6715C28.4433 41.017 23.8898 40.5266 19.4511 41.2485L19.8728 41.9853L20.1237 42.4237L19.6827 42.6701L10.7125 47.683L10.2779 47.9259L10.0332 47.4922L9.62884 46.7757C7.76739 48.9539 6.35376 51.4829 5.47244 54.2174L5.4726 54.2174L5.46831 54.2297C4.94188 55.7286 4.52726 57.2646 4.22781 58.8249L5.02662 59.2984L5.27167 59.4437V59.7285V74.2909Z" fill="#E5EAEB" stroke="#036063"/>
<path d="M10.1804 45.6681L10.1804 45.6681L10.1826 45.6719L10.6854 46.563L18.7842 41.9466L18.2586 41.0283L18.2584 41.0278L15.9331 36.9743L7.83249 41.5917L10.1804 45.6681Z" fill="#E5EAEB" stroke="#036063"/>
<path d="M16.7946 36.4671L18.8705 40.0859L34.857 30.3547L32.7811 26.7359L16.7946 36.4671Z" fill="white" stroke="#036063"/>
<path d="M78.9478 117.525L78.692 117.684L78.4319 117.532L75.4175 115.772C74.7787 119.525 73.307 123.078 71.1218 126.17L85.509 117.412C87.2415 115.505 88.6203 113.306 89.5844 110.921L78.9478 117.525Z" fill="white" stroke="#036063"/>
<path d="M32.6558 38.0221V37.7449L32.8909 37.5981L43.7974 30.7831C41.1169 30.3598 38.3782 30.4317 35.7174 30.9989L21.0288 39.94C24.9647 39.5663 28.942 40.096 32.6558 41.4985V38.0221Z" fill="white" stroke="#036063"/>
<path d="M90.2891 109.306L90.2955 109.302L90.3021 109.298L95.0257 106.56L95.0486 93.1775L79.2332 102.819L79.1873 116.199L90.2891 109.306Z" fill="#036063" stroke="#036063"/>
<path d="M91.9074 90.7384L76.0398 100.397L78.7278 101.956L94.5745 92.2959L91.9074 90.7384Z" fill="white" stroke="#036063"/>
<path d="M75.2789 114.533L75.279 114.533L75.2877 114.538L78.1865 116.231L78.2325 102.826L74.8113 100.841L74.4581 100.64L74.4121 114.05L75.2789 114.533Z" fill="#E5EAEB" stroke="#036063"/>
<path d="M62.1623 35.9828L46.325 45.6231L46.3069 48.6841L62.1443 39.0437L62.1623 35.9828Z" fill="white" stroke="#036063"/>
<path d="M45.3217 45.6288L33.6551 38.8888V42.2583V43.2237L45.2984 49.9867L45.2984 49.5771L45.2984 49.5741L45.3217 45.6288Z" fill="#E5EAEB" stroke="#036063"/>
<path d="M85.755 70.8989L71.87 79.28L71.8695 79.2803L69.7491 80.5565C71.137 83.706 72.328 86.9394 73.3149 90.2379C74.2338 93.3026 74.9372 96.4279 75.4201 99.5908L91.3568 89.9753C90.355 83.392 88.4705 76.9751 85.755 70.8989Z" fill="white" stroke="#036063"/>
<mask id="path-145-inside-37_129_51381" fill="white">
<path d="M58.8939 65.1673L60.2181 64.8164L59.4436 65.2676L60.2181 64.8164L58.8939 65.1673Z"/>
</mask>
<path d="M58.8939 65.1673L60.2181 64.8164L59.4436 65.2676L60.2181 64.8164L58.8939 65.1673Z" fill="white"/>
<path d="M60.2181 64.8164L59.962 63.8498L60.7215 65.6805L60.2181 64.8164ZM60.2181 64.8164L59.962 63.8498L60.7215 65.6805L60.2181 64.8164ZM58.6377 64.2007L59.962 63.8498L60.4743 65.783L59.15 66.134L58.6377 64.2007ZM60.7215 65.6805L59.9469 66.1317L58.9402 64.4035L59.7148 63.9523L60.7215 65.6805ZM58.9402 64.4035L59.7148 63.9523L60.7215 65.6805L59.9469 66.1317L58.9402 64.4035ZM60.4743 65.783L59.15 66.134L58.6377 64.2007L59.962 63.8498L60.4743 65.783Z" fill="#036063" mask="url(#path-145-inside-37_129_51381)"/>
<path d="M60.141 63.8551L76.233 54.411C72.3256 48.9891 67.7072 44.1202 62.5025 39.9359L46.6658 49.6334C51.7503 53.7713 56.2796 58.5516 60.141 63.8551Z" fill="white" stroke="#036063"/>
<mask id="path-148-inside-38_129_51381" fill="white">
<path d="M62.8186 63.3372L60.22 64.816L58.8957 65.1669L77.0609 54.5647L79.6595 53.0859L62.8186 63.3372Z"/>
</mask>
<path d="M62.8186 63.3372L60.22 64.816L58.8957 65.1669L77.0609 54.5647L79.6595 53.0859L62.8186 63.3372Z" fill="white"/>
<path d="M62.8186 63.3372L63.3385 64.1914L63.326 64.1991L63.3132 64.2063L62.8186 63.3372ZM60.22 64.816L60.7146 65.6851L60.6017 65.7494L60.4761 65.7827L60.22 64.816ZM58.8957 65.1669L59.1518 66.1336L58.3916 64.3033L58.8957 65.1669ZM77.0609 54.5647L76.5568 53.701L76.5663 53.6956L77.0609 54.5647ZM79.6595 53.0859L79.165 52.2168L80.1795 53.9401L79.6595 53.0859ZM63.3132 64.2063L60.7146 65.6851L59.7254 63.9469L62.324 62.4681L63.3132 64.2063ZM60.4761 65.7827L59.1518 66.1336L58.6395 64.2003L59.9638 63.8494L60.4761 65.7827ZM58.3916 64.3033L76.5569 53.7011L77.565 55.4284L59.3998 66.0306L58.3916 64.3033ZM76.5663 53.6956L79.165 52.2168L80.1541 53.9551L77.5555 55.4339L76.5663 53.6956ZM80.1795 53.9401L63.3385 64.1914L62.2986 62.483L79.1396 52.2317L80.1795 53.9401Z" fill="#036063" mask="url(#path-148-inside-38_129_51381)"/>
<path d="M85.7178 69.6282L85.7177 69.6281L85.7269 69.6227L87.8717 68.3694L79.4796 53.7795L63.4931 63.5107L71.8888 78.1068L85.7178 69.6282Z" fill="#036063" stroke="#036063"/>
<path d="M68.5276 80.0782L68.6407 80.0144V79.992L68.8916 79.8478L71.0315 78.6182L62.6339 64.0186L60.47 65.25L60.127 65.4498L68.5276 80.0782Z" fill="#E5EAEB" stroke="#036063"/>
<path d="M45.4097 31.0323L34.1326 38.0081L45.82 44.7602L61.6875 35.1015L50.0008 28.3497L45.4097 31.0323Z" fill="#036063" stroke="#036063"/>
<path d="M115.934 52.7359C116.086 52.689 116.241 52.6494 116.397 52.6171L107.409 47.3132C106.814 47.0428 106.16 46.9327 105.51 46.9941C105.123 47.0306 104.745 47.1272 104.391 47.2789L114.454 53.2167C114.78 53.0539 115.113 52.9052 115.452 52.771L115.541 52.7359H115.636H115.934Z" fill="white" stroke="#036063"/>
<path d="M99.38 60.995L108.241 66.2352C108.21 66.1324 108.184 66.0284 108.162 65.9235C108.108 65.7997 108.064 65.6716 108.031 65.5405L108.022 65.5032L108.018 65.4649C107.975 65.0037 107.975 64.5395 108.017 64.0782C108.135 61.9407 108.751 59.8606 109.817 58.0058C110.753 56.3779 112.012 54.9635 113.514 53.849L103.413 47.8887C101.872 48.9656 100.589 50.3749 99.6585 52.0148C98.677 53.7452 98.1161 55.6834 98.0215 57.6722L98.0207 57.688L98.019 57.7037C97.9495 58.3286 98.0404 58.9608 98.2831 59.5404C98.5216 60.1101 98.8989 60.6102 99.38 60.995Z" fill="white" stroke="#036063"/>
<path d="M109.586 66.4854L109.622 66.5255L109.649 66.5723C109.724 66.7029 109.808 66.8281 109.9 66.9468L110.148 67.1535C110.735 67.5782 111.44 67.8067 112.164 67.8067C112.893 67.8067 113.603 67.5748 114.193 67.1442L114.203 67.1368L114.213 67.1299C115.872 66.0427 117.251 64.5791 118.241 62.8574C119.231 61.1357 119.803 59.2043 119.91 57.2196L119.911 57.2072L119.912 57.1949C119.979 56.5499 119.872 55.8987 119.601 55.3097C119.333 54.7263 118.915 54.2254 118.391 53.8584C118.284 53.7967 118.168 53.7512 118.048 53.7235L118.01 53.7148L117.974 53.7004L117.689 53.5859H116.924C116.709 53.6194 116.498 53.6699 116.291 53.7369L116.216 53.7614H116.137H115.858C115.503 53.9051 115.156 54.0662 114.817 54.2441C113.167 55.3298 111.795 56.7886 110.809 58.5034C109.819 60.2251 109.247 62.1565 109.14 64.1412L109.139 64.151L109.138 64.1608C109.102 64.5498 109.101 64.9413 109.135 65.3305C109.156 65.4081 109.184 65.4838 109.219 65.5567L109.245 65.6126L109.256 65.6732C109.297 65.8819 109.359 66.0857 109.443 66.2812C109.482 66.355 109.53 66.4236 109.586 66.4854Z" fill="white" stroke="#036063"/>
<mask id="path-156-inside-39_129_51381" fill="white">
<path d="M114.439 53.8131C114.828 53.6078 115.229 53.4238 115.638 53.2617C115.229 53.4238 114.828 53.6078 114.439 53.8131Z"/>
</mask>
<path d="M114.439 53.8131C114.828 53.6078 115.229 53.4238 115.638 53.2617C115.229 53.4238 114.828 53.6078 114.439 53.8131Z" fill="white"/>
<path d="M113.973 52.9284C114.394 52.7064 114.827 52.5072 115.27 52.3319L116.006 54.1915C115.63 54.3403 115.263 54.5093 114.905 54.6978L113.973 52.9284ZM116.006 54.1915C115.63 54.3403 115.263 54.5093 114.905 54.6978L113.973 52.9284C114.394 52.7064 114.827 52.5072 115.27 52.3319L116.006 54.1915Z" fill="#036063" mask="url(#path-156-inside-39_129_51381)"/>
<mask id="path-158-inside-40_129_51381" fill="white">
<path d="M116.761 53.0107C116.507 53.0481 116.256 53.1068 116.012 53.1862C116.256 53.1068 116.507 53.0481 116.761 53.0107Z"/>
</mask>
<path d="M116.761 53.0107C116.507 53.0481 116.256 53.1068 116.012 53.1862C116.256 53.1068 116.507 53.0481 116.761 53.0107Z" fill="white"/>
<path d="M116.907 54.0001C116.708 54.0293 116.512 54.0752 116.32 54.1373L115.703 52.2351C116.001 52.1384 116.306 52.0669 116.616 52.0214L116.907 54.0001ZM115.703 52.2351C116.001 52.1384 116.306 52.0669 116.616 52.0214L116.907 54.0001C116.708 54.0293 116.512 54.0752 116.32 54.1373L115.703 52.2351Z" fill="#036063" mask="url(#path-158-inside-40_129_51381)"/>
<mask id="path-160-inside-41_129_51381" fill="white">
<path d="M118.663 53.4114C118.508 53.3191 118.339 53.2515 118.163 53.2109C118.339 53.2515 118.508 53.3191 118.663 53.4114Z"/>
</mask>
<path d="M118.663 53.4114C118.508 53.3191 118.339 53.2515 118.163 53.2109C118.339 53.2515 118.508 53.3191 118.663 53.4114Z" fill="white"/>
<path d="M118.152 54.271C118.085 54.2315 118.013 54.2027 117.938 54.1853L118.388 52.2365C118.665 52.3004 118.93 52.4068 119.174 52.5519L118.152 54.271ZM118.388 52.2365C118.665 52.3004 118.93 52.4068 119.174 52.5519L118.152 54.271C118.085 54.2315 118.013 54.2027 117.938 54.1853L118.388 52.2365Z" fill="#036063" mask="url(#path-160-inside-41_129_51381)"/>
<mask id="path-162-inside-42_129_51381" fill="white">
<path d="M108.991 66.4951C109.051 66.6132 109.127 66.7228 109.216 66.821C109.127 66.7228 109.051 66.6132 108.991 66.4951Z"/>
</mask>
<path d="M108.991 66.4951C109.051 66.6132 109.127 66.7228 109.216 66.821C109.127 66.7228 109.051 66.6132 108.991 66.4951Z" fill="white"/>
<path d="M109.882 66.0403C109.902 66.08 109.927 66.1167 109.957 66.1495L108.475 67.4924C108.327 67.3288 108.201 67.1464 108.1 66.9499L109.882 66.0403ZM108.475 67.4924C108.327 67.3288 108.201 67.1464 108.1 66.9499L109.882 66.0403C109.902 66.08 109.927 66.1167 109.957 66.1495L108.475 67.4924Z" fill="#036063" mask="url(#path-162-inside-42_129_51381)"/>
<mask id="path-164-inside-43_129_51381" fill="white">
<path d="M109.541 67.3477L109.841 67.5983L109.541 67.3477Z"/>
</mask>
<path d="M109.541 67.3477L109.841 67.5983L109.541 67.3477Z" fill="white"/>
<path d="M110.182 66.5804L110.482 66.831L109.199 68.3655L108.9 68.1149L110.182 66.5804ZM109.199 68.3655L108.9 68.1149L110.182 66.5804L110.482 66.831L109.199 68.3655Z" fill="#036063" mask="url(#path-164-inside-43_129_51381)"/>
<mask id="path-166-inside-44_129_51381" fill="white">
<path d="M108.642 65.418C108.672 65.5387 108.714 65.6562 108.767 65.7689C108.714 65.6562 108.672 65.5387 108.642 65.418Z"/>
</mask>
<path d="M108.642 65.418C108.672 65.5387 108.714 65.6562 108.767 65.7689C108.714 65.6562 108.672 65.5387 108.642 65.418Z" fill="white"/>
<path d="M109.611 65.1736C109.626 65.2327 109.647 65.2903 109.673 65.3454L107.861 66.1923C107.781 66.0221 107.718 65.8446 107.672 65.6623L109.611 65.1736ZM107.861 66.1923C107.781 66.0221 107.718 65.8446 107.672 65.6623L109.611 65.1736C109.626 65.2327 109.647 65.2903 109.673 65.3454L107.861 66.1923Z" fill="#036063" mask="url(#path-166-inside-44_129_51381)"/>
</g>
<defs>
<clipPath id="clip0_129_51381">
<rect width="140" height="195" fill="white" transform="matrix(-1 0 0 1 140 0)"/>
</clipPath>
</defs>
</svg>
