<svg width="214" height="54" viewBox="0 0 214 54" fill="none" xmlns="http://www.w3.org/2000/svg">
<path fill-rule="evenodd" clip-rule="evenodd" d="M71.4956 27.1731C71.2805 25.0517 71.6332 22.8865 72.523 21.2671C73.3581 19.7465 74.5529 18.7957 76.8836 18.5943C82.0324 18.1497 84.2512 20.0752 84.4556 25.0669C84.6397 29.5674 83.1941 33.2461 78.9293 33.6357C74.2515 34.0632 71.9269 31.4266 71.4956 27.1731ZM91.4651 27.7748C92.0212 22.2966 90.4058 17.938 84.9678 16.3859C83.3524 15.9247 81.4077 15.825 79.657 15.7877C76.1922 15.7136 71.8759 15.6034 69.1111 17.1138C66.6708 18.4466 64.7941 20.7249 64.4267 24.3969C64.0584 28.0767 65.031 32.09 67.0299 33.8205C69.3728 35.8487 72.5243 36.2903 76.2836 36.5055C79.6652 36.6994 84.0216 36.3832 86.8442 35.1378C89.6721 33.89 91.0742 31.6272 91.4651 27.7748Z" fill="#3594B1"/>
<path fill-rule="evenodd" clip-rule="evenodd" d="M60.3789 19.6149L62.3463 16.3105H45.5303C42.6786 16.3095 40.6097 16.7749 39.4343 18.602C38.214 20.4988 37.9193 22.8456 37.9175 25.4632C37.9137 30.4067 37.8493 34.9191 44.2039 35.9391C44.3355 35.9602 44.4925 35.9797 44.6718 35.9975C47.7826 36.3074 57.6764 36.1441 60.7482 36.1441L62.0492 33.0326H50.9865C49.3443 33.0326 47.2879 33.2625 46.0101 32.4001C44.6708 31.4962 45.0343 30.147 45.0343 27.8699H58.4666L60.0037 24.6091H45.0343C45.0343 19.6059 45.4681 19.621 50.2921 19.621L60.3789 19.6149Z" fill="#3594B1"/>
<path fill-rule="evenodd" clip-rule="evenodd" d="M9.5205 32.4863C9.15734 32.6995 8.93247 32.9003 8.62612 33.1795C6.83754 34.7844 4.82424 36.7049 3.3242 38.5519C1.91126 40.2921 -0.622129 43.9835 0.306479 47.3174C1.01603 49.8642 4.35121 51.7468 7.238 52.5467C18.4722 55.6601 36.6685 49.9983 47.2414 45.7403C48.6466 45.1744 55.0447 42.606 55.4339 41.8304C54.3567 42.1408 53.1801 42.6333 52.08 43.012C48.5862 44.2147 44.9679 45.1914 41.3764 46.0374C36.2312 47.2495 30.7683 48.0363 25.2969 48.2396C20.7287 48.4093 12.8567 47.8291 9.70465 45.5346C7.99119 44.2875 6.62875 42.4034 7.00132 39.1282C7.40589 35.5717 9.27509 33.2569 9.5205 32.4863Z" fill="#3594B1"/>
<path fill-rule="evenodd" clip-rule="evenodd" d="M36.8497 32.9434L26.7836 32.9477C25.4016 32.9482 24.1321 32.6643 23.5341 31.6748C23.2642 31.2278 23.3387 30.9819 23.3389 30.474L23.3425 16.3105H15.9768L15.7637 30.8783C15.7062 32.5102 15.8552 33.8805 16.7354 34.824C18.3614 36.5669 22.4204 36.1441 25.2026 36.1441C28.4101 36.1441 31.689 36.1441 34.8967 36.1441L36.8497 32.9434Z" fill="#3594B1"/>
<path fill-rule="evenodd" clip-rule="evenodd" d="M59.1325 8.4264C60.0055 8.2323 61.001 7.86071 61.8901 7.61142C68.6362 5.71851 76.1982 4.41689 83.2218 4.63764C86.6997 4.74697 92.1865 5.48393 94.4259 7.32373C95.7354 8.39994 96.4291 10.1984 95.9874 12.4963C95.4813 15.1289 94.3001 16.4134 93.9111 17.4306C95.0202 16.9803 98.1545 13.7431 98.8947 13.0315C99.4755 12.4731 100.39 11.1701 100.858 10.2998C103.024 6.26569 101.022 3.66852 96.9741 2.03959C88.9853 -1.17483 73.7145 3.00577 65.7022 5.65191C62.4656 6.72084 61.895 7.13171 59.132 8.32019L58.8326 8.48626L59.1325 8.4264Z" fill="#3594B1"/>
<path fill-rule="evenodd" clip-rule="evenodd" d="M109.869 1.10938H108.774V53.1426H109.869V1.10938Z" fill="#3594B1"/>
<path d="M119.817 13.8647H117.981V5.15112H119.817V13.8647ZM129.238 13.8647H127.467L123.358 8.182V13.8647H121.522V5.15112H123.409L127.403 10.6249V5.15112H129.238V13.8647ZM134.343 13.8647H130.944V5.15112H134.343C135.696 5.15112 136.796 5.55178 137.645 6.35292C138.494 7.15423 138.918 8.20812 138.918 9.51441C138.918 10.8209 138.496 11.8725 137.651 12.6693C136.807 13.4663 135.704 13.8647 134.343 13.8647ZM134.343 12.2318C135.17 12.2318 135.827 11.9704 136.314 11.448C136.8 10.9254 137.044 10.2808 137.044 9.51441C137.044 8.71327 136.807 8.05779 136.333 7.54832C135.859 7.03885 135.196 6.78403 134.343 6.78403H132.779V12.2318H134.343ZM147.015 13.0416C146.355 13.6948 145.388 14.0215 144.113 14.0215C142.838 14.0215 141.871 13.6928 141.212 13.0352C140.553 12.3777 140.223 11.4957 140.223 10.3898V5.15112H142.084V10.3244C142.084 10.9515 142.261 11.4501 142.614 11.8203C142.967 12.1903 143.467 12.3754 144.113 12.3754C144.759 12.3754 145.257 12.1903 145.606 11.8203C145.955 11.4501 146.129 10.9515 146.129 10.3244V5.15112H148.003V10.3766C148.003 11.5002 147.674 12.3886 147.015 13.0416ZM152.759 14.0215C151.226 14.0215 150.011 13.5599 149.115 12.6366L150.11 11.2259C150.851 12.0097 151.764 12.4015 152.85 12.4015C153.324 12.4015 153.692 12.3079 153.955 12.1208C154.217 11.9334 154.349 11.7049 154.349 11.4348C154.349 11.1997 154.226 11.0037 153.981 10.847C153.735 10.6903 153.429 10.577 153.063 10.5072C152.697 10.4377 152.298 10.3375 151.868 10.2069C151.437 10.0761 151.038 9.92822 150.672 9.76266C150.306 9.5971 150 9.33588 149.754 8.97882C149.509 8.62176 149.386 8.18633 149.386 7.67236C149.386 6.92346 149.683 6.2941 150.278 5.78463C150.872 5.27516 151.665 5.02051 152.656 5.02051C154.026 5.02051 155.146 5.42549 156.016 6.23546L154.995 7.59399C154.314 6.95823 153.479 6.64044 152.488 6.64044C152.1 6.64044 151.799 6.7188 151.583 6.87554C151.368 7.03227 151.26 7.24575 151.26 7.51562C151.26 7.7246 151.383 7.90106 151.628 8.04482C151.874 8.1884 152.18 8.29514 152.546 8.36486C152.912 8.43458 153.309 8.53682 153.735 8.67175C154.161 8.80686 154.558 8.95927 154.924 9.12898C155.29 9.29886 155.596 9.56458 155.842 9.92597C156.087 10.2874 156.21 10.7207 156.21 11.2259C156.21 12.0619 155.915 12.7368 155.325 13.2508C154.734 13.7646 153.879 14.0215 152.759 14.0215ZM161.121 13.8647H159.273V6.78403H156.753V5.15112H163.628V6.78403H161.121V13.8647ZM171.783 13.8647H169.677L167.983 10.7686H166.639V13.8647H164.804V5.15112H168.836C169.724 5.15112 170.428 5.41234 170.949 5.93496C171.471 6.45741 171.731 7.13244 171.731 7.95988C171.731 8.674 171.548 9.25319 171.182 9.69727C170.816 10.1415 170.37 10.4245 169.844 10.5465L171.783 13.8647ZM168.565 9.13555C168.944 9.13555 169.254 9.02881 169.495 8.81551C169.737 8.60221 169.857 8.31694 169.857 7.95988C169.857 7.60281 169.737 7.31754 169.495 7.10407C169.254 6.89076 168.944 6.78403 168.565 6.78403H166.639V9.13555H168.565ZM174.949 13.8647H173.114V5.15112H174.949V13.8647ZM184.694 13.8647H182.6L182.07 12.3886H178.374L177.831 13.8647H175.738L179.072 5.15112H181.372L184.694 13.8647ZM181.566 10.7555L180.222 7.00615L178.878 10.7555H181.566ZM190.975 13.8647H185.495V5.15112H187.33V12.2318H190.975V13.8647ZM126.02 29.7767H123.926L123.396 28.3005H119.7L119.157 29.7767H117.064L120.398 21.0631H122.699L126.02 29.7767ZM122.892 26.6674L121.548 22.9181L120.204 26.6674H122.892ZM134.537 29.7767H132.766L128.656 24.094V29.7767H126.821V21.0631H128.708L132.702 26.5368V21.0631H134.537V29.7767ZM139.642 29.7767H136.243V21.0631H139.642C140.994 21.0631 142.095 21.4637 142.944 22.2649C143.792 23.0662 144.217 24.1201 144.217 25.4264C144.217 26.7328 143.795 27.7845 142.95 28.5813C142.106 29.3783 141.003 29.7767 139.642 29.7767ZM139.642 28.1438C140.469 28.1438 141.126 27.8824 141.613 27.3599C142.099 26.8373 142.343 26.1927 142.343 25.4264C142.343 24.6252 142.106 23.9697 141.632 23.4603C141.158 22.9508 140.495 22.696 139.642 22.696H138.078V28.1438H139.642ZM152.229 29.7767H148.83V21.0631H152.229C153.582 21.0631 154.683 21.4637 155.531 22.2649C156.38 23.0662 156.804 24.1201 156.804 25.4264C156.804 26.7328 156.382 27.7845 155.538 28.5813C154.694 29.3783 153.591 29.7767 152.229 29.7767ZM152.229 28.1438C153.057 28.1438 153.714 27.8824 154.2 27.3599C154.687 26.8373 154.931 26.1927 154.931 25.4264C154.931 24.6252 154.694 23.9697 154.22 23.4603C153.746 22.9508 153.082 22.696 152.229 22.696H150.666V28.1438H152.229ZM162.194 29.9334C160.893 29.9334 159.818 29.5089 158.969 28.6597C158.12 27.8106 157.696 26.7328 157.696 25.4264C157.696 24.1201 158.12 23.0423 158.969 22.1931C159.818 21.3438 160.893 20.9193 162.194 20.9193C163.503 20.9193 164.582 21.3418 165.431 22.1865C166.28 23.0314 166.704 24.1113 166.704 25.4264C166.704 26.7415 166.28 27.8215 165.431 28.6662C164.582 29.5111 163.503 29.9334 162.194 29.9334ZM160.3 27.4774C160.778 28.0175 161.41 28.2874 162.194 28.2874C162.978 28.2874 163.611 28.0175 164.093 27.4774C164.576 26.9375 164.817 26.2538 164.817 25.4264C164.817 24.5989 164.576 23.9153 164.093 23.3753C163.611 22.8354 162.978 22.5654 162.194 22.5654C161.41 22.5654 160.778 22.8354 160.3 23.3753C159.822 23.9153 159.583 24.5989 159.583 25.4264C159.583 26.2538 159.822 26.9375 160.3 27.4774ZM177.34 29.7767H175.492V23.6758L173.063 29.7767H172.261L169.832 23.6758V29.7767H167.996V21.0631H170.568L172.662 26.3278L174.756 21.0631H177.34V29.7767ZM185.146 29.7767H179.046V21.0631H185.146V22.696H180.881V24.538H185.056V26.1711H180.881V28.1438H185.146V29.7767ZM189.644 29.9334C188.11 29.9334 186.895 29.4719 185.999 28.5486L186.995 27.1378C187.735 27.9217 188.649 28.3135 189.734 28.3135C190.208 28.3135 190.577 28.2199 190.839 28.0327C191.102 27.8454 191.234 27.6168 191.234 27.3468C191.234 27.1117 191.111 26.9157 190.865 26.759C190.62 26.6022 190.314 26.4889 189.948 26.4192C189.581 26.3496 189.183 26.2495 188.752 26.1189C188.321 25.9881 187.923 25.8402 187.557 25.6746C187.191 25.5091 186.885 25.2478 186.639 24.8908C186.394 24.5337 186.271 24.0983 186.271 23.5843C186.271 22.8354 186.568 22.2061 187.162 21.6966C187.757 21.1871 188.55 20.9325 189.54 20.9325C190.91 20.9325 192.031 21.3374 192.901 22.1474L191.88 23.5059C191.199 22.8702 190.363 22.5524 189.373 22.5524C188.985 22.5524 188.683 22.6308 188.468 22.7875C188.252 22.9442 188.145 23.1577 188.145 23.4276C188.145 23.6366 188.268 23.813 188.513 23.9568C188.759 24.1004 189.065 24.2071 189.431 24.2768C189.797 24.3465 190.193 24.4488 190.62 24.5837C191.046 24.7188 191.443 24.8712 191.809 25.0409C192.175 25.2108 192.481 25.4765 192.726 25.8379C192.972 26.1993 193.095 26.6327 193.095 27.1378C193.095 27.9739 192.799 28.6488 192.209 29.1627C191.619 29.6765 190.764 29.9334 189.644 29.9334ZM198.006 29.7767H196.158V22.696H193.637V21.0631H200.513V22.696H198.006V29.7767ZM203.524 29.7767H201.689V21.0631H203.524V29.7767ZM209.404 29.9334C208.095 29.9334 207.003 29.5132 206.128 28.6728C205.254 27.8324 204.816 26.7501 204.816 25.4264C204.816 24.1026 205.254 23.0205 206.128 22.1799C207.003 21.3395 208.095 20.9193 209.404 20.9193C211.015 20.9193 212.217 21.6291 213.01 23.0487L211.433 23.8326C211.244 23.4668 210.966 23.1641 210.6 22.9247C210.234 22.6851 209.835 22.5654 209.404 22.5654C208.62 22.5654 207.974 22.8354 207.466 23.3753C206.957 23.9153 206.703 24.5989 206.703 25.4264C206.703 26.2538 206.957 26.9375 207.466 27.4774C207.974 28.0175 208.62 28.2874 209.404 28.2874C209.835 28.2874 210.234 28.1699 210.6 27.9346C210.966 27.6995 211.244 27.3947 211.433 27.0202L213.01 27.791C212.192 29.2193 210.99 29.9334 209.404 29.9334ZM119.817 45.6886H117.981V36.975H122.014C122.918 36.975 123.627 37.2428 124.14 37.7784C124.652 38.314 124.909 38.9825 124.909 39.7838C124.909 40.5763 124.65 41.2425 124.133 41.7826C123.616 42.3225 122.91 42.5925 122.014 42.5925H119.817V45.6886ZM121.768 40.9595C122.139 40.9595 122.442 40.8527 122.679 40.6394C122.916 40.4261 123.035 40.1408 123.035 39.7838C123.035 39.4267 122.916 39.1415 122.679 38.928C122.442 38.7147 122.139 38.6079 121.768 38.6079H119.817V40.9595H121.768ZM132.837 44.8655C132.178 45.5188 131.211 45.8454 129.936 45.8454C128.661 45.8454 127.694 45.5167 127.035 44.8591C126.375 44.2016 126.046 43.3196 126.046 42.2137V36.975H127.907V42.1483C127.907 42.7754 128.083 43.274 128.437 43.6442C128.79 44.0142 129.29 44.1993 129.936 44.1993C130.582 44.1993 131.08 44.0142 131.429 43.6442C131.778 43.274 131.952 42.7754 131.952 42.1483V36.975H133.826V42.2005C133.826 43.3241 133.496 44.2125 132.837 44.8655ZM144.863 45.6886H143.015V39.5878L140.585 45.6886H139.784L137.354 39.5878V45.6886H135.519V36.975H138.091L140.184 42.2398L142.278 36.975H144.863V45.6886ZM148.404 45.6886H146.569V36.975H150.601C151.506 36.975 152.214 37.2428 152.727 37.7784C153.24 38.314 153.496 38.9825 153.496 39.7838C153.496 40.5763 153.237 41.2425 152.721 41.7826C152.204 42.3225 151.497 42.5925 150.601 42.5925H148.404V45.6886ZM150.355 40.9595C150.726 40.9595 151.03 40.8527 151.267 40.6394C151.504 40.4261 151.622 40.1408 151.622 39.7838C151.622 39.4267 151.504 39.1415 151.267 38.928C151.03 38.7147 150.726 38.6079 150.355 38.6079H148.404V40.9595H150.355ZM157.696 45.8454C156.163 45.8454 154.948 45.3838 154.052 44.4605L155.047 43.0498C155.788 43.8336 156.701 44.2254 157.787 44.2254C158.261 44.2254 158.629 44.1319 158.892 43.9447C159.154 43.7573 159.286 43.5288 159.286 43.2587C159.286 43.0236 159.163 42.8276 158.918 42.6709C158.672 42.5142 158.366 42.4009 158 42.3311C157.634 42.2616 157.235 42.1614 156.805 42.0308C156.374 41.9 155.975 41.7521 155.609 41.5866C155.243 41.421 154.937 41.1598 154.691 40.8027C154.446 40.4457 154.323 40.0102 154.323 39.4963C154.323 38.7474 154.62 38.118 155.215 37.6085C155.809 37.0991 156.602 36.8444 157.593 36.8444C158.963 36.8444 160.083 37.2494 160.953 38.0594L159.932 39.4179C159.251 38.7821 158.416 38.4643 157.425 38.4643C157.037 38.4643 156.736 38.5427 156.52 38.6994C156.305 38.8562 156.197 39.0697 156.197 39.3395C156.197 39.5485 156.32 39.725 156.565 39.8687C156.811 40.0123 157.117 40.1191 157.483 40.1888C157.849 40.2585 158.246 40.3607 158.672 40.4957C159.099 40.6308 159.495 40.7832 159.861 40.9529C160.227 41.1228 160.533 41.3885 160.779 41.7499C161.024 42.1113 161.147 42.5446 161.147 43.0498C161.147 43.8859 160.852 44.5607 160.262 45.0747C159.672 45.5885 158.816 45.8454 157.696 45.8454Z" fill="#3594B1"/>
</svg>
