<svg width="238" height="195" viewBox="0 0 238 195" fill="none" xmlns="http://www.w3.org/2000/svg">
<g clip-path="url(#clip0_129_51853)">
<path d="M120.25 179.423L107.347 186.853L83.2685 172.975L96.1713 165.53L120.25 179.423Z" fill="white" stroke="#036063"/>
<g style="mix-blend-mode:multiply">
<path d="M105.606 174.561L119.499 194.5H102.295L90.0511 188.139C90.0305 188.017 90.0072 187.842 89.9935 187.625C89.9636 187.15 89.9798 186.471 90.1684 185.671C90.5426 184.085 91.6063 181.979 94.4424 180.039C97.8912 177.703 101.649 175.86 105.606 174.561ZM90.0923 188.343C90.0924 188.343 90.0924 188.343 90.0923 188.343L90.0923 188.343Z" fill="white"/>
<path d="M105.606 174.561L119.499 194.5H102.295L90.0511 188.139C90.0305 188.017 90.0072 187.842 89.9935 187.625C89.9636 187.15 89.9798 186.471 90.1684 185.671C90.5426 184.085 91.6063 181.979 94.4424 180.039C97.8912 177.703 101.649 175.86 105.606 174.561ZM90.0923 188.343C90.0924 188.343 90.0924 188.343 90.0923 188.343L90.0923 188.343Z" stroke="#036063"/>
</g>
<g style="mix-blend-mode:multiply">
<path d="M170.612 108.186L220.336 136.884L142.25 181.853L139.627 177.156L170.612 108.186Z" fill="white"/>
<path d="M170.612 108.186L220.336 136.884L142.25 181.853L139.627 177.156L170.612 108.186Z" stroke="#036063"/>
</g>
<g style="mix-blend-mode:multiply">
<path d="M16.1206 122.941L30.028 142.88H12.8089L0.565206 136.534C0.544617 136.412 0.521311 136.238 0.507637 136.02C0.4778 135.545 0.493964 134.866 0.68255 134.067C1.05681 132.481 2.12058 130.374 4.95702 128.434C8.4032 126.09 12.1611 124.241 16.1206 122.941Z" fill="white"/>
<path d="M16.1206 122.941L30.028 142.88H12.8089L0.565206 136.534C0.544617 136.412 0.521311 136.238 0.507637 136.02C0.4778 135.545 0.493964 134.866 0.68255 134.067C1.05681 132.481 2.12058 130.374 4.95702 128.434C8.4032 126.09 12.1611 124.241 16.1206 122.941Z" stroke="#036063"/>
</g>
<path d="M68.9534 149.828L56.0511 157.258L31.9871 143.38L44.8751 135.936L68.9534 149.828Z" fill="white" stroke="#036063"/>
<g style="mix-blend-mode:multiply">
<path d="M57.2418 146.757L81.1223 172.475H64.1114L41.639 160.356C41.6182 160.233 41.5945 160.057 41.5806 159.837C41.5508 159.362 41.567 158.683 41.7555 157.883C42.1298 156.297 43.1936 154.191 46.03 152.251C49.4885 149.898 53.2635 148.048 57.2418 146.757ZM41.6794 160.555C41.6795 160.555 41.6795 160.555 41.6794 160.554L41.6794 160.555Z" fill="white"/>
<path d="M57.2418 146.757L81.1223 172.475H64.1114L41.639 160.356C41.6182 160.233 41.5945 160.057 41.5806 159.837C41.5508 159.362 41.567 158.683 41.7555 157.883C42.1298 156.297 43.1936 154.191 46.03 152.251C49.4885 149.898 53.2635 148.048 57.2418 146.757ZM41.6794 160.555C41.6795 160.555 41.6795 160.555 41.6794 160.554L41.6794 160.555Z" stroke="#036063"/>
</g>
<path d="M167.667 43.8007L154.779 51.245L130.699 37.3517L143.587 29.9074L167.667 43.8007Z" fill="white" stroke="#036063"/>
<path d="M18.4516 135.573L20.1265 129.848L32.3447 136.904L30.6832 142.628L18.4516 135.573Z" fill="white" stroke="#036063"/>
<path d="M133.383 1.04335L145.675 8.11335L115.195 35.8451L115.166 35.8716L115.141 35.9024L49.2856 118.138L27.6288 136.262L15.2688 129.176C14.6756 128.733 14.2065 128.145 13.9065 127.468L13.4494 127.67L13.9065 127.468C13.6028 126.782 13.4831 126.03 13.5591 125.284L13.5617 125.259V125.234V124.623C13.6763 122.326 14.3298 120.088 15.4696 118.089C16.609 116.091 18.2023 114.389 20.1209 113.12L36.2718 103.782L36.2719 103.782L36.2817 103.776C38.812 102.234 41.031 100.233 42.8242 97.8748C42.8248 97.8741 42.8253 97.8734 42.8259 97.8727L106.387 16.351L106.39 16.3462C108.107 14.0884 110.231 12.1715 112.654 10.6947L128.813 1.35182L128.837 1.33798L128.859 1.32157C129.506 0.844895 130.277 0.565051 131.08 0.515695C131.882 0.466383 132.681 0.649232 133.381 1.04227C133.382 1.04263 133.383 1.04299 133.383 1.04335Z" fill="#036063" stroke="#036063"/>
<path d="M20.8578 112.695L36.021 103.957L48.1291 110.935L32.966 119.687L20.8578 112.695Z" fill="white" stroke="#036063"/>
<path d="M125.443 17.2576L113.335 10.2653L128.498 1.52728L140.606 8.50506L125.443 17.2576Z" fill="white" stroke="#036063"/>
<path d="M49.3796 110.557L49.3796 110.557L49.3873 110.553C51.9241 109.025 54.1456 107.027 55.9322 104.666C55.9329 104.665 55.9336 104.664 55.9344 104.663L119.432 23.1262L119.436 23.1208C121.148 20.8597 123.273 18.9427 125.698 17.4709L141.856 8.22177L141.857 8.22114C143.864 7.06571 145.563 7.01343 146.728 7.67709C147.891 8.33969 148.699 9.81783 148.699 12.1181V12.6646C148.553 15.2046 147.812 17.6749 146.535 19.8761C145.258 22.0774 143.481 23.9477 141.347 25.3361L121.735 36.5752L121.65 36.6242L121.589 36.7019L52.2555 125.783L32.7166 136.996L32.7147 136.997C30.7086 138.16 29.0095 138.212 27.8452 137.548C26.6821 136.885 25.8745 135.407 25.8745 133.115V132.568C26.0177 130.028 26.7579 127.556 28.0351 125.355C29.3125 123.153 31.0912 121.283 33.2268 119.897L49.3796 110.557Z" fill="white" stroke="#036063"/>
<path d="M31.8136 142.325L33.3593 136.999L52.0906 126.193V130.615L31.8136 142.325Z" fill="white" stroke="#036063"/>
<path d="M122.484 40.9253V36.5033L141.405 25.5873L142.95 29.1203L122.484 40.9253Z" fill="white" stroke="#036063"/>
<path d="M49.3803 111.352L49.3803 111.352L33.2273 120.692C31.2923 121.946 29.6803 123.639 28.5221 125.633C27.3641 127.626 26.6923 129.863 26.561 132.164V132.711C26.561 134.793 27.2911 136.119 28.3293 136.712C29.3691 137.305 30.8968 137.265 32.7162 136.218L49.3803 111.352ZM49.3803 111.352L49.3893 111.347C51.9236 109.81 54.1439 107.807 55.9329 105.445C55.9336 105.444 55.9343 105.443 55.935 105.442L119.433 23.9214L119.437 23.916C121.149 21.6546 123.274 19.7374 125.699 18.2656C125.701 18.2647 125.702 18.2637 125.704 18.2628L141.856 8.92373C141.857 8.92349 141.857 8.92325 141.858 8.92301C143.677 7.88474 145.204 7.84749 146.244 8.44426C147.283 9.04026 148.014 10.3709 148.014 12.4615V12.993C147.887 15.2992 147.217 17.543 146.059 19.5418C144.901 21.5408 143.286 23.2381 141.348 24.4958L121.735 35.782L121.65 35.8309L121.59 35.9082L52.2558 124.943L32.7169 136.218L49.3803 111.352Z" fill="white" stroke="#036063"/>
<path d="M53.0901 129.447V125.499L121.484 37.6707V41.6195L53.0901 129.447Z" fill="white" stroke="#036063"/>
<path d="M47.6663 109.576L47.6662 109.576L31.5134 118.916C29.3778 120.302 27.5991 122.172 26.3217 124.374C25.0445 126.576 24.3043 129.047 24.1611 131.587V132.119C24.1611 134.419 24.9689 135.897 26.1318 136.56C27.2964 137.223 28.9957 137.171 31.0022 136.016L47.6663 109.576ZM47.6663 109.576L47.6752 109.571C50.2096 108.034 52.4299 106.031 54.219 103.669C54.2196 103.668 54.2202 103.667 54.2209 103.667L117.734 22.1143L117.734 22.1143L117.74 22.1074C119.444 19.8398 121.569 17.9219 124 16.4588C124.002 16.4581 124.003 16.4574 124.004 16.4567L140.14 7.11783C140.141 7.11745 140.142 7.11708 140.142 7.11671C142.148 5.98473 143.848 5.93852 145.014 6.60621C146.177 7.2726 146.985 8.75137 146.985 11.0594V11.5904C146.841 14.1329 146.1 16.6059 144.823 18.8098C143.546 21.0139 141.768 22.887 139.633 24.2778L120.036 35.5795L119.951 35.6283L119.891 35.7054L50.5418 124.741L31.0026 136.016L47.6663 109.576Z" fill="white" stroke="#036063"/>
<path d="M120.785 39.9448V35.5073L139.705 24.5916L141.252 28.1395L120.785 39.9448Z" fill="white" stroke="#036063"/>
<path d="M30.2344 121.267L30.2014 121.291L30.1729 121.321C27.5028 124.113 25.8146 127.698 25.363 131.533C25.0616 133.319 25.4328 135.152 26.4047 136.68L26.4298 136.73L26.1244 136.555L24.8402 134.102L24.6469 130.165L26.0047 125.265L28.545 121.705L32.9005 118.33L46.8194 110.466L46.838 110.456L46.8556 110.444L51.0485 107.578L51.0971 107.545L51.1367 107.501L54.9243 103.327L54.9372 103.312L54.949 103.297L109.035 33.641L109.036 33.6399L118.919 20.9847L122.697 17.7139L140.754 7.21479L145.163 6.74484L145.323 6.83673L141.977 7.29268L141.876 7.30643L141.789 7.35853L122.882 18.6202L122.832 18.65L122.79 18.6906L119.251 22.1174L119.226 22.1417L119.205 22.1692L54.3835 105.32L50.4925 109.101L50.4918 109.101L50.337 109.192L49.748 109.537C49.2397 109.836 48.5115 110.263 47.6321 110.781C45.8734 111.816 43.5094 113.21 41.0888 114.646C38.6684 116.082 36.1904 117.561 34.2039 118.767C32.2314 119.963 30.7113 120.909 30.2344 121.267Z" fill="white" stroke="#036063"/>
<path d="M51.3748 128.466V124.502L119.784 36.6734V40.6379L51.3748 128.466Z" fill="white" stroke="#036063"/>
<path d="M49.3796 110.557L49.3796 110.557L49.3873 110.553C51.9241 109.025 54.1456 107.027 55.9322 104.666C55.9329 104.665 55.9336 104.664 55.9344 104.663L119.432 23.1262L119.436 23.1208C121.148 20.8597 123.273 18.9427 125.698 17.4709L141.856 8.22177L141.857 8.22114C143.864 7.06571 145.563 7.01343 146.728 7.67709C147.891 8.33969 148.699 9.81783 148.699 12.1181V12.6646C148.553 15.2046 147.812 17.6749 146.535 19.8761C145.258 22.0774 143.481 23.9477 141.347 25.3361L121.735 36.5752L121.65 36.6242L121.589 36.7019L52.2555 125.783L32.7166 136.996L32.7147 136.997C30.7086 138.16 29.0095 138.212 27.8452 137.548C26.6821 136.885 25.8745 135.407 25.8745 133.115V132.568C26.0177 130.028 26.7579 127.556 28.0351 125.355C29.3125 123.153 31.0912 121.283 33.2268 119.897L49.3796 110.557Z" fill="white" stroke="#036063"/>
<path d="M31.8136 142.325L33.3593 136.999L52.0906 126.193V130.615L31.8136 142.325Z" fill="white" stroke="#036063"/>
<path d="M122.484 40.9253V36.5033L141.405 25.5873L142.95 29.1203L122.484 40.9253Z" fill="white" stroke="#036063"/>
<path d="M49.3803 111.352L49.3803 111.352L33.2273 120.692C31.2923 121.946 29.6803 123.639 28.5221 125.633C27.3641 127.626 26.6923 129.863 26.561 132.164V132.711C26.561 134.793 27.2911 136.119 28.3293 136.712C29.3691 137.305 30.8968 137.265 32.7162 136.218L49.3803 111.352ZM49.3803 111.352L49.3893 111.347C51.9236 109.81 54.1439 107.807 55.9329 105.445C55.9336 105.444 55.9343 105.443 55.935 105.442L119.433 23.9214L119.437 23.916C121.149 21.6546 123.274 19.7374 125.699 18.2656C125.701 18.2647 125.702 18.2637 125.704 18.2628L141.856 8.92373C141.857 8.92349 141.857 8.92325 141.858 8.92301C143.677 7.88474 145.204 7.84749 146.244 8.44426C147.283 9.04026 148.014 10.3709 148.014 12.4615V12.993C147.887 15.2992 147.217 17.543 146.059 19.5418C144.901 21.5408 143.286 23.2381 141.348 24.4958L121.735 35.782L121.65 35.8309L121.59 35.9082L52.2558 124.943L32.7169 136.218L49.3803 111.352Z" fill="white" stroke="#036063"/>
<path d="M30.3278 136.946L30.3278 136.947C29.9715 136.956 29.6179 136.883 29.2939 136.734C28.9683 136.585 28.6816 136.362 28.4558 136.085C27.8588 135.239 27.5597 134.219 27.6057 133.185L27.6062 133.174V133.162V132.616C27.731 130.413 28.3726 128.271 29.4791 126.362C30.5858 124.453 32.1266 122.83 33.9767 121.626L50.1293 112.287L50.1293 112.287L50.1369 112.282C52.7473 110.711 55.0324 108.654 56.8691 106.224C56.8698 106.223 56.8706 106.222 56.8713 106.221L120.416 24.6379L120.416 24.6379L120.42 24.6318C122.084 22.4274 124.15 20.558 126.51 19.1225L142.653 9.85774L142.653 9.85788L142.664 9.85114C143.442 9.37769 144.326 9.10813 145.236 9.0674C146.074 9.07023 146.728 9.4109 147.187 10.0237C147.66 10.6549 147.952 11.6126 147.952 12.8664V13.4128C147.825 15.6148 147.182 17.7564 146.076 19.6651C144.969 21.574 143.43 23.1967 141.582 24.4027L121.845 35.7665L121.76 35.8153L121.7 35.8925L52.3502 124.928L32.9197 136.141L32.912 136.145L32.9046 136.15C32.1294 136.634 31.2414 136.909 30.3278 136.946Z" fill="white" stroke="#036063"/>
<path d="M53.0901 135.429V125.499L121.484 37.6707V47.6008L53.0901 135.429Z" fill="white" stroke="#036063"/>
<path d="M69.4547 145.211V148.963L45.375 135.07V131.318L69.4547 145.211Z" fill="white" stroke="#036063"/>
<path d="M77.1698 136.348V140.1L53.0901 126.207V122.455L77.1698 136.348Z" fill="white" stroke="#036063"/>
<path d="M84.8707 127.485V131.237L60.791 117.343V113.591L84.8707 127.485Z" fill="white" stroke="#036063"/>
<path d="M92.5858 118.607V122.359L68.5061 108.481V104.713L92.5858 118.607Z" fill="white" stroke="#036063"/>
<path d="M100.301 109.744V113.496L76.2214 99.6021V95.8501L100.301 109.744Z" fill="white" stroke="#036063"/>
<path d="M108.001 100.881V104.633L83.9365 90.7399V86.9881L108.001 100.881Z" fill="white" stroke="#036063"/>
<path d="M115.717 92.018V95.77L91.6375 81.8766V78.1245L115.717 92.018Z" fill="white" stroke="#036063"/>
<path d="M123.432 83.1547V86.9067L99.3525 73.0133V69.2613L123.432 83.1547Z" fill="white" stroke="#036063"/>
<path d="M131.148 74.2914V78.0434L107.068 64.15V60.398L131.148 74.2914Z" fill="white" stroke="#036063"/>
<path d="M138.848 65.4137V69.1811L114.769 55.2877V51.5352L138.848 65.4137Z" fill="white" stroke="#036063"/>
<path d="M146.564 56.5502V60.3022L122.484 46.4088V42.6568L146.564 56.5502Z" fill="white" stroke="#036063"/>
<path d="M76.6701 140.468L69.9546 144.345L45.8752 130.452L52.5907 126.574L76.6701 140.468Z" fill="white" stroke="#036063"/>
<path d="M84.3704 131.605L77.6695 135.482L53.5896 121.588L60.2905 117.711L84.3704 131.605Z" fill="white" stroke="#036063"/>
<path d="M92.0861 122.741L85.3706 126.618L61.2912 112.725L68.0067 108.848L92.0861 122.741Z" fill="white" stroke="#036063"/>
<path d="M99.7999 113.878L93.0862 117.741L69.0076 103.848L75.7214 99.9853L99.7999 113.878Z" fill="white" stroke="#036063"/>
<path d="M107.501 105.015L100.801 108.877L76.723 94.9848L83.4366 91.122L107.501 105.015Z" fill="white" stroke="#036063"/>
<path d="M115.216 96.1378L108.501 100.015L84.4371 86.1222L91.1366 82.2597L115.216 96.1378Z" fill="white" stroke="#036063"/>
<path d="M122.933 87.2743L116.217 91.1516L92.1377 77.2584L98.8532 73.381L122.933 87.2743Z" fill="white" stroke="#036063"/>
<path d="M130.648 78.411L123.932 82.2884L99.8528 68.3951L106.568 64.5177L130.648 78.411Z" fill="white" stroke="#036063"/>
<path d="M138.348 69.5491L131.647 73.4259L107.567 59.5324L114.268 55.6556L138.348 69.5491Z" fill="white" stroke="#036063"/>
<path d="M146.062 60.6846L139.348 64.5475L115.269 50.6693L121.984 46.7922L146.062 60.6846Z" fill="white" stroke="#036063"/>
<path d="M153.778 51.8223L147.064 55.6851L122.985 41.7924L129.699 37.9296L153.778 51.8223Z" fill="white" stroke="#036063"/>
<path d="M72.7458 124.046L72.7458 124.046L56.593 133.385C54.4574 134.772 52.6787 136.642 51.4013 138.844C50.1241 141.045 49.3839 143.517 49.2407 146.057V146.588C49.2407 148.889 50.0485 150.367 51.2114 151.029C52.376 151.693 54.0753 151.641 56.0818 150.485L72.7458 124.046ZM72.7458 124.046L72.7548 124.041C75.2891 122.504 77.5094 120.501 79.2984 118.139C79.2991 118.138 79.2998 118.137 79.3005 118.136L142.814 36.6152L142.814 36.6153L142.82 36.6077C144.518 34.3406 146.638 32.4227 149.064 30.9597C149.066 30.9589 149.067 30.9581 149.068 30.9574L165.223 21.6166L72.7458 124.046ZM75.6214 139.21L56.0822 150.485L165.224 21.6162C167.231 20.4612 168.93 20.409 170.094 21.0726C171.257 21.7352 172.065 23.2133 172.065 25.5136V26.0448C171.922 28.5853 171.182 31.0565 169.904 33.2579C168.627 35.4598 166.848 37.3298 164.713 38.7164L145.1 50.0495L145.015 50.0983L144.955 50.1752L75.6214 139.21Z" fill="white" stroke="#036063"/>
<path d="M145.85 54.4145V49.977L164.771 39.0613L166.317 42.6092L145.85 54.4145Z" fill="white" stroke="#036063"/>
<path d="M55.3118 135.739L55.2807 135.762L55.2536 135.791C52.5731 138.576 50.8828 142.165 50.4425 146.005C50.1414 147.789 50.5123 149.622 51.4832 151.149L51.5145 151.213L51.1895 151.026L49.9198 148.574L49.7265 144.635L51.0843 139.736L53.6247 136.176L57.9489 132.816L71.9451 124.937L71.9652 124.926L71.9841 124.913L76.1303 122.047L76.1797 122.013L76.2196 121.968L79.945 117.778L79.9559 117.765L79.9661 117.752L134.099 48.1119L134.1 48.1107L143.998 35.4554L147.777 32.1839L165.787 21.6234L170.192 21.1685L170.368 21.2724L166.994 21.7321L166.894 21.7458L166.806 21.7978L147.821 33.0906L147.767 33.1231L147.722 33.1683L144.324 36.5951L144.303 36.6162L144.284 36.6397L79.4628 119.775L75.5718 123.571L75.5716 123.572L75.4168 123.662L74.8278 124.007C74.3195 124.305 73.5914 124.732 72.7119 125.249C70.9532 126.283 68.5892 127.675 66.1685 129.111C63.7481 130.546 61.27 132.025 59.2833 133.231C57.3115 134.428 55.7899 135.376 55.3118 135.739Z" fill="white" stroke="#036063"/>
<path d="M76.4543 142.937V138.972L144.848 51.1443V55.1087L76.4543 142.937Z" fill="white" stroke="#036063"/>
<path d="M74.4592 125.043L74.4592 125.043L58.3064 134.383C56.1727 135.768 54.3953 137.635 53.118 139.834C51.8409 142.033 51.0997 144.501 50.9541 147.039V147.585C50.9541 149.877 51.7617 151.356 52.9248 152.019C54.0891 152.682 55.7882 152.63 57.7943 151.467L57.7954 151.467L77.3348 140.207L146.669 51.1722L146.729 51.0953L146.813 51.0465L166.426 39.7135C168.559 38.3242 170.336 36.4534 171.613 34.2521C172.89 32.0511 173.631 29.5812 173.778 27.0414V26.495C173.778 24.1948 172.97 22.7166 171.808 22.054C170.643 21.3905 168.944 21.4427 166.938 22.5976L74.4592 125.043ZM74.4592 125.043L74.4679 125.038C77.0008 123.504 79.2168 121.501 80.9966 119.135C80.9975 119.134 80.9984 119.133 80.9992 119.132L144.512 37.5967L144.516 37.5912C146.228 35.3298 148.353 33.4126 150.778 31.9408C150.78 31.9399 150.781 31.939 150.783 31.9381L166.937 22.5981L74.4592 125.043Z" fill="white" stroke="#036063"/>
<path d="M56.8805 156.779L58.4372 151.47L77.1692 140.664V145.085L56.8805 156.779Z" fill="white" stroke="#036063"/>
<path d="M147.563 55.396V50.974L166.485 40.058L168.03 43.591L147.563 55.396Z" fill="white" stroke="#036063"/>
<path d="M74.4599 125.822L74.4599 125.822L74.4685 125.817C77.0015 124.283 79.2175 122.28 80.9973 119.914C80.9982 119.913 80.999 119.912 80.9999 119.911L144.512 38.3909L144.517 38.3854C146.229 36.124 148.353 34.2068 150.779 32.735C150.78 32.7341 150.782 32.7332 150.783 32.7322L166.937 23.3924C166.937 23.3923 166.938 23.3923 166.938 23.3922C168.757 22.3458 170.285 22.3053 171.325 22.8987C172.363 23.4911 173.093 24.8173 173.093 26.8997V27.4311C172.964 29.7345 172.294 31.9752 171.135 33.9712C169.977 35.9674 168.364 37.6625 166.427 38.9186L146.814 50.2519L146.729 50.3007L146.669 50.3776L77.3356 139.412L57.7963 150.656L57.7951 150.657C55.9752 151.711 54.4476 151.755 53.4084 151.163C52.3708 150.573 51.6406 149.247 51.6406 147.165V146.618C51.7742 144.32 52.4471 142.086 53.6049 140.095C54.7631 138.105 56.3739 136.414 58.307 135.161L74.4599 125.822Z" fill="white" stroke="#036063"/>
<path d="M78.1697 143.918V139.969L146.564 52.1414V56.0902L78.1697 143.918Z" fill="white" stroke="#036063"/>
<path d="M56.6402 157.598L58.3148 151.887L70.5331 158.929L68.8717 164.653L56.6402 157.598Z" fill="white" stroke="#036063"/>
<path d="M147.563 55.396V50.974L166.485 40.058L168.03 43.591L147.563 55.396Z" fill="white" stroke="#036063"/>
<path d="M171.571 23.0522L183.849 30.1228L153.383 57.8704L153.354 57.8969L153.33 57.9276L87.4743 140.178L65.8177 158.272L53.4576 151.186C52.8633 150.74 52.3935 150.149 52.0935 149.47L51.6361 149.672L52.0935 149.47C51.7897 148.782 51.6705 148.027 51.7477 147.279L51.7503 147.253V147.228V146.679C51.8626 144.379 52.515 142.138 53.655 140.136C54.7944 138.136 56.3889 136.431 58.3095 135.161L74.4604 125.822L74.4605 125.823L74.4691 125.817C77.002 124.284 79.2181 122.28 80.9979 119.915C80.9987 119.914 80.9996 119.912 81.0005 119.911L144.513 38.3916L144.517 38.3861C146.229 36.1247 148.354 34.2075 150.78 32.7357C150.781 32.7348 150.783 32.7339 150.784 32.733L166.939 23.3925L166.966 23.377L166.991 23.3582C167.641 22.8658 168.421 22.5744 169.235 22.52C170.048 22.4657 170.859 22.6504 171.569 23.0512C171.569 23.0515 171.57 23.0519 171.571 23.0522Z" fill="#036063" stroke="white"/>
<path d="M59.0464 134.735L74.2095 125.983L86.3177 132.975L71.1544 141.713L59.0464 134.735Z" fill="white" stroke="#036063"/>
<path d="M163.632 39.2832L151.524 32.3055L166.687 23.5529L178.795 30.5452L163.632 39.2832Z" fill="white" stroke="#036063"/>
<path d="M70.002 164.35L71.5478 159.024L90.2635 148.218V152.655L70.002 164.35Z" fill="white" stroke="#036063"/>
<path d="M160.672 62.9662V58.5287L179.593 47.6131L181.139 51.1609L160.672 62.9662Z" fill="white" stroke="#036063"/>
<path d="M87.5688 133.377L87.5687 133.377L71.4159 142.716C69.4769 143.974 67.8624 145.671 66.704 147.67C65.5457 149.669 64.8761 151.913 64.7495 154.219V154.751C64.7495 156.825 65.4791 158.147 66.5173 158.738C67.5573 159.33 69.0854 159.289 70.9047 158.243L87.5688 133.377ZM87.5688 133.377L87.5783 133.371C90.1071 131.833 92.3219 129.83 94.1059 127.47C94.1066 127.468 94.1074 127.467 94.1082 127.466L157.621 45.9459L157.624 45.942C159.35 43.6811 161.485 41.7639 163.919 40.2902C163.92 40.2893 163.922 40.2884 163.923 40.2876L180.077 30.9474C180.077 30.9474 180.078 30.9474 180.078 30.9473C181.897 29.901 183.425 29.8602 184.465 30.4521C185.504 31.0428 186.233 32.3653 186.233 34.4392V34.9859C186.102 37.2866 185.43 39.5242 184.272 41.5173C183.114 43.5107 181.502 45.2034 179.567 46.4581L159.954 57.7756L159.869 57.8245L159.809 57.9015L90.4443 146.968L70.9053 158.243L87.5688 133.377Z" fill="white" stroke="#036063"/>
<path d="M68.558 158.986L68.2654 159L68.2308 159.069C67.9665 159.043 67.7077 158.973 67.4657 158.86C67.14 158.708 66.8534 158.484 66.6281 158.205C66.0348 157.354 65.7456 156.329 65.8072 155.294L65.8081 155.28V155.265V154.718C65.9365 152.517 66.5796 150.376 67.6859 148.467C68.7924 146.558 70.3313 144.935 72.179 143.728L88.3312 134.389L88.3313 134.389L88.3414 134.383C90.9442 132.794 93.2183 130.722 95.0408 128.278C95.0419 128.277 95.0429 128.275 95.044 128.274L158.555 46.7402L158.56 46.7343C160.222 44.533 162.289 42.6684 164.65 41.2402C164.651 41.2394 164.653 41.2386 164.654 41.2377L180.81 31.8969L180.817 31.8926L180.824 31.8881C181.597 31.4054 182.481 31.131 183.391 31.0918C184.229 31.0945 184.882 31.4351 185.342 32.0496C185.815 32.6825 186.107 33.6443 186.107 34.9064V35.4375C185.982 37.64 185.341 39.7824 184.234 41.6914C183.128 43.6007 181.587 45.2229 179.737 46.4271L160.031 57.8068L159.946 57.8556L159.886 57.9325L90.5364 146.968L71.1369 158.181L71.13 158.185L71.1232 158.189C70.3503 158.669 69.4672 158.944 68.558 158.986Z" fill="white" stroke="#036063"/>
<path d="M91.2622 151.489V147.524L159.672 59.6958V63.6604L91.2622 151.489Z" fill="white" stroke="#036063"/>
<path d="M218.964 73.3964L206.076 80.8407L181.996 66.9474L194.885 59.5031L218.964 73.3964Z" fill="white" stroke="#036063"/>
<path d="M69.7647 165.168L71.4261 159.443L83.6423 166.498L81.9674 172.223L69.7647 165.168Z" fill="white" stroke="#036063"/>
<path d="M184.711 30.6069L196.988 37.6772L166.446 65.4403L166.417 65.467L166.392 65.4979L100.583 147.733L78.9263 165.857L66.5666 158.771C65.9723 158.326 65.5024 157.735 65.2024 157.056C64.8986 156.368 64.7794 155.613 64.8566 154.865L64.8592 154.839V154.813V154.218C64.9738 151.921 65.6274 149.683 66.7671 147.684C67.9065 145.687 69.4998 143.985 71.4184 142.715L87.5693 133.377L87.5694 133.377L87.5789 133.371C90.1077 131.833 92.3224 129.831 94.1065 127.47C94.1072 127.469 94.108 127.468 94.1087 127.467L157.622 45.9463L157.625 45.9424C159.351 43.6814 161.486 41.7643 163.919 40.2905C163.921 40.2896 163.922 40.2888 163.924 40.2879L180.079 30.9472L180.106 30.9317L180.131 30.9129C180.781 30.4205 181.561 30.1291 182.375 30.0747C183.188 30.0204 183.999 30.205 184.709 30.6059C184.71 30.6062 184.71 30.6066 184.711 30.6069Z" fill="#036063" stroke="white"/>
<path d="M72.1552 142.29L87.3184 133.552L99.4264 140.529L84.2634 149.282L72.1552 142.29Z" fill="white" stroke="#036063"/>
<path d="M176.741 46.8523L164.632 39.86L179.796 31.122L191.904 38.0998L176.741 46.8523Z" fill="white" stroke="#036063"/>
<path d="M100.677 140.153L100.677 140.153L84.5243 149.492C82.3826 150.883 80.6003 152.76 79.3225 154.97C78.0449 157.181 77.308 159.661 77.1719 162.21V162.757C77.1719 165.049 77.9794 166.528 79.1425 167.19C80.3069 167.854 82.006 167.802 84.0121 166.639L84.0132 166.639L103.553 155.379L172.886 66.2819L172.946 66.2047L173.031 66.1559L192.644 54.8384C194.78 53.4518 196.558 51.5818 197.836 49.3801C199.113 47.1786 199.853 44.7074 199.996 42.1669V41.6201C199.996 39.3283 199.189 37.8494 198.025 37.1847C196.86 36.5193 195.161 36.5682 193.155 37.7228L100.677 140.153ZM100.677 140.153L100.685 140.148C103.221 138.62 105.443 136.622 107.23 134.261C107.23 134.26 107.231 134.259 107.232 134.258L170.729 52.7218L170.734 52.7163C172.446 50.4549 174.571 48.5378 176.996 47.0659C176.998 47.065 176.999 47.0641 177.001 47.0632L193.155 37.7232L100.677 140.153Z" fill="white" stroke="#036063"/>
<path d="M83.0975 171.919L84.6551 166.594L103.387 155.788V160.209L83.0975 171.919Z" fill="white" stroke="#036063"/>
<path d="M173.781 70.536V66.099L192.702 55.183L194.248 58.7162L173.781 70.536Z" fill="white" stroke="#036063"/>
<path d="M100.678 140.947L100.678 140.947L84.5247 150.286C82.5897 151.541 80.9777 153.234 79.8194 155.227C78.6614 157.22 77.9897 159.458 77.8584 161.758V162.305C77.8584 164.387 78.5885 165.714 79.6267 166.306C80.6665 166.899 82.1942 166.859 84.0136 165.813L100.678 140.947ZM100.678 140.947L100.687 140.941C103.221 139.404 105.441 137.402 107.23 135.039C107.231 135.039 107.232 135.038 107.232 135.037L170.73 53.5002L170.734 53.4947C172.446 51.2334 174.571 49.3162 176.997 47.8444C176.998 47.8434 177 47.8425 177.001 47.8416L193.155 38.5017C193.155 38.5017 193.155 38.5017 193.155 38.5016C194.975 37.4552 196.503 37.4147 197.543 38.008C198.581 38.6004 199.311 39.9267 199.311 42.0091V42.5415C199.191 44.8557 198.525 47.1088 197.366 49.1163C196.208 51.1237 194.59 52.8282 192.645 54.0903L173.032 65.4078L172.947 65.4566L172.887 65.5336L103.553 154.538L84.0142 165.812L100.678 140.947Z" fill="white" stroke="#036063"/>
<path d="M104.387 159.043V155.094L172.781 67.2664V71.2307L104.387 159.043Z" fill="white" stroke="#036063"/>
<path d="M99.0256 139.171L99.0256 139.171L82.8728 148.51C80.7372 149.897 78.9585 151.767 77.6811 153.969C76.4039 156.17 75.6637 158.642 75.5205 161.182V161.713C75.5205 164.013 76.3283 165.492 77.4912 166.154C78.6558 166.818 80.3553 166.766 82.3619 165.61L101.839 154.336L171.173 65.2535L171.233 65.1762L171.318 65.1274L190.93 53.8257C193.063 52.4363 194.84 50.5657 196.117 48.3644C197.394 46.1634 198.136 43.6935 198.282 41.1537V40.6073C198.282 38.3071 197.475 36.8289 196.312 36.1663C195.147 35.5028 193.448 35.555 191.442 36.7099L99.0256 139.171ZM99.0256 139.171L99.0346 139.166C101.569 137.629 103.789 135.626 105.578 133.264C105.579 133.263 105.58 133.262 105.58 133.261L169.031 51.7087L169.032 51.7088L169.036 51.7022C170.739 49.4386 172.859 47.5211 175.282 46.0532C175.284 46.0523 175.285 46.0515 175.287 46.0506L191.441 36.7104L99.0256 139.171Z" fill="white" stroke="#036063"/>
<path d="M172.082 69.5395V65.1176L191.003 54.2016L192.549 57.7345L172.082 69.5395Z" fill="white" stroke="#036063"/>
<path d="M81.5318 150.861L81.4988 150.886L81.4703 150.916C78.8002 153.708 77.1119 157.292 76.6604 161.128C76.3589 162.913 76.7302 164.747 77.702 166.275L77.732 166.335L77.4068 166.149L76.1376 163.698L75.9443 159.76L77.3018 154.861L79.8576 151.3L84.1984 147.925L98.1014 140.061L98.1195 140.051L98.1367 140.039L102.345 137.173L102.396 137.138L102.437 137.093L106.162 132.918L106.173 132.906L106.184 132.892L160.316 63.2369L160.318 63.2348L170.263 50.5788L173.965 47.3387L192.005 36.7938L196.41 36.3243L196.586 36.4277L193.212 36.8874L193.111 36.9011L193.024 36.9533L174.023 48.2773L173.97 48.3088L173.926 48.3523L170.544 51.7168L170.522 51.739L170.502 51.7638L105.681 134.914L101.79 138.695L101.789 138.696L101.634 138.787L101.045 139.132C100.537 139.43 99.8089 139.858 98.9295 140.375C97.1707 141.41 94.8068 142.804 92.3862 144.241C89.9658 145.677 87.4877 147.156 85.5012 148.361C83.5288 149.558 82.0087 150.504 81.5318 150.861Z" fill="white" stroke="#036063"/>
<path d="M102.672 158.061V154.096L171.082 66.2835V70.2327L102.672 158.061Z" fill="white" stroke="#036063"/>
<path d="M100.677 140.153L100.677 140.153L84.5243 149.492C82.3826 150.883 80.6003 152.76 79.3225 154.97C78.0449 157.181 77.308 159.661 77.1719 162.21V162.757C77.1719 165.049 77.9794 166.528 79.1425 167.19C80.3069 167.854 82.006 167.802 84.0121 166.639L84.0132 166.639L103.553 155.379L172.886 66.2819L172.946 66.2047L173.031 66.1559L192.644 54.8384C194.78 53.4518 196.558 51.5818 197.836 49.3801C199.113 47.1786 199.853 44.7074 199.996 42.1669V41.6201C199.996 39.3283 199.189 37.8494 198.025 37.1847C196.86 36.5193 195.161 36.5682 193.155 37.7228L100.677 140.153ZM100.677 140.153L100.685 140.148C103.221 138.62 105.443 136.622 107.23 134.261C107.23 134.26 107.231 134.259 107.232 134.258L170.729 52.7218L170.734 52.7163C172.446 50.4549 174.571 48.5378 176.996 47.0659C176.998 47.065 176.999 47.0641 177.001 47.0632L193.155 37.7232L100.677 140.153Z" fill="white" stroke="#036063"/>
<path d="M83.0975 171.919L84.6551 166.594L103.387 155.788V160.209L83.0975 171.919Z" fill="white" stroke="#036063"/>
<path d="M173.781 70.536V66.099L192.702 55.183L194.248 58.7162L173.781 70.536Z" fill="white" stroke="#036063"/>
<path d="M100.678 140.947L100.678 140.947L84.5247 150.286C82.5897 151.541 80.9777 153.234 79.8194 155.227C78.6614 157.22 77.9897 159.458 77.8584 161.758V162.305C77.8584 164.387 78.5885 165.714 79.6267 166.306C80.6665 166.899 82.1942 166.859 84.0136 165.813L100.678 140.947ZM100.678 140.947L100.687 140.941C103.221 139.404 105.441 137.402 107.23 135.039C107.231 135.039 107.232 135.038 107.232 135.037L170.73 53.5002L170.734 53.4947C172.446 51.2334 174.571 49.3162 176.997 47.8444C176.998 47.8434 177 47.8425 177.001 47.8416L193.155 38.5017C193.155 38.5017 193.155 38.5017 193.155 38.5016C194.975 37.4552 196.503 37.4147 197.543 38.008C198.581 38.6004 199.311 39.9267 199.311 42.0091V42.5415C199.191 44.8557 198.525 47.1088 197.366 49.1163C196.208 51.1237 194.59 52.8282 192.645 54.0903L173.032 65.4078L172.947 65.4566L172.887 65.5336L103.553 154.538L84.0142 165.812L100.678 140.947Z" fill="white" stroke="#036063"/>
<path d="M84.2013 165.735L84.1925 165.74L84.1841 165.746C83.4166 166.23 82.535 166.505 81.6278 166.541C81.2652 166.553 80.9049 166.48 80.5753 166.329C80.2505 166.18 79.9643 165.958 79.7388 165.681C79.1496 164.829 78.8607 163.804 78.918 162.769L78.9188 162.755V162.742V162.195C79.0436 159.992 79.6852 157.85 80.7917 155.941C81.8984 154.032 83.4392 152.409 85.2894 151.205L101.442 141.866L101.442 141.866L101.45 141.861C104.05 140.295 106.325 138.243 108.151 135.818C108.152 135.817 108.152 135.816 108.153 135.815L171.666 54.3106L171.67 54.305C173.337 52.1028 175.403 50.2335 177.762 48.7945L193.92 39.4517L193.92 39.4518L193.93 39.4459C194.708 38.9724 195.592 38.7029 196.502 38.6621C197.34 38.665 197.994 39.0056 198.453 39.6185C198.926 40.2496 199.218 41.2073 199.218 42.4612V43.0076C199.091 45.2096 198.448 47.3511 197.342 49.2598C196.235 51.1688 194.696 52.7915 192.847 53.9975L173.141 65.3614L173.057 65.4102L172.997 65.4873L103.647 154.522L84.2013 165.735Z" fill="white" stroke="#036063"/>
<path d="M104.387 165.024V155.094L172.781 67.2664V77.1965L104.387 165.024Z" fill="white" stroke="#036063"/>
<path d="M120.752 174.806V178.558L96.6724 164.665V160.913L120.752 174.806Z" fill="white" stroke="#036063"/>
<path d="M128.452 165.943V169.695L104.387 155.801V152.05L128.452 165.943Z" fill="white" stroke="#036063"/>
<path d="M136.168 157.079V160.831L112.088 146.938V143.186L136.168 157.079Z" fill="white" stroke="#036063"/>
<path d="M143.883 148.202V151.954L119.803 138.076V134.308L143.883 148.202Z" fill="white" stroke="#036063"/>
<path d="M151.599 139.338V143.09L127.519 129.197V125.445L151.599 139.338Z" fill="white" stroke="#036063"/>
<path d="M159.298 130.476V134.228L135.234 120.335V116.583L159.298 130.476Z" fill="white" stroke="#036063"/>
<path d="M167.015 121.613V125.365L142.935 111.471V107.719L167.015 121.613Z" fill="white" stroke="#036063"/>
<path d="M174.73 112.749V116.501L150.65 102.608V98.856L174.73 112.749Z" fill="white" stroke="#036063"/>
<path d="M182.445 103.887V107.639L158.365 93.7457V89.9937L182.445 103.887Z" fill="white" stroke="#036063"/>
<path d="M190.146 95.0084V98.7758L166.066 84.8824V81.1299L190.146 95.0084Z" fill="white" stroke="#036063"/>
<path d="M197.861 86.1461V89.898L173.781 76.0045V72.2676L197.861 86.1461Z" fill="white" stroke="#036063"/>
<path d="M127.953 170.063L121.252 173.94L97.1726 160.046L103.888 156.169L127.953 170.063Z" fill="white" stroke="#036063"/>
<path d="M135.667 161.199L128.952 165.076L104.887 151.183L111.588 147.306L135.667 161.199Z" fill="white" stroke="#036063"/>
<path d="M143.383 152.337L136.668 156.214L112.589 142.321L119.304 138.444L143.383 152.337Z" fill="white" stroke="#036063"/>
<path d="M151.097 143.473L144.384 147.336L120.305 133.443L127.019 129.58L151.097 143.473Z" fill="white" stroke="#036063"/>
<path d="M158.798 134.611L152.099 138.473L128.02 124.58L134.734 120.718L158.798 134.611Z" fill="white" stroke="#036063"/>
<path d="M166.513 125.733L159.798 129.61L135.734 115.717L142.434 111.854L166.513 125.733Z" fill="white" stroke="#036063"/>
<path d="M174.23 116.869L167.514 120.746L143.435 106.853L150.151 102.976L174.23 116.869Z" fill="white" stroke="#036063"/>
<path d="M181.945 108.007L175.23 111.884L151.15 97.9908L157.866 94.1134L181.945 108.007Z" fill="white" stroke="#036063"/>
<path d="M189.646 99.1438L182.945 103.021L158.865 89.1271L165.566 85.2503L189.646 99.1438Z" fill="white" stroke="#036063"/>
<path d="M197.36 90.2794L190.646 94.1423L166.567 80.264L173.282 76.3869L197.36 90.2794Z" fill="white" stroke="#036063"/>
<path d="M205.075 81.4171L198.361 85.2799L174.282 71.4017L180.997 67.5246L205.075 81.4171Z" fill="white" stroke="#036063"/>
<path d="M124.043 153.642L124.043 153.642L107.89 162.981C105.755 164.368 103.976 166.238 102.699 168.44C101.421 170.641 100.681 173.112 100.538 175.653V176.184C100.538 178.484 101.346 179.962 102.509 180.625C103.673 181.289 105.373 181.236 107.379 180.081L124.043 153.642ZM124.043 153.642L124.052 153.636C126.587 152.099 128.807 150.097 130.596 147.735C130.597 147.734 130.597 147.733 130.598 147.732L194.096 66.1952L194.096 66.1953L194.1 66.1891C195.808 63.9243 197.933 62.0067 200.362 60.5397C200.363 60.5389 200.365 60.5381 200.366 60.5372L216.521 51.1967L124.043 153.642ZM126.919 168.806L107.38 180.081L216.522 51.1963C218.528 50.0413 220.227 49.9891 221.392 50.6527C222.554 51.3153 223.362 52.7934 223.362 55.0936V55.6249C223.219 58.1654 222.479 60.6365 221.202 62.838C219.924 65.0398 218.146 66.9097 216.01 68.2963L196.397 79.6138L196.313 79.6627L196.253 79.7398L126.919 168.806Z" fill="white" stroke="#036063"/>
<path d="M197.145 84.0095V79.5717L216.067 68.6552L217.627 72.2044L197.145 84.0095Z" fill="white" stroke="#036063"/>
<path d="M106.609 165.334L106.578 165.357L106.551 165.385C103.87 168.171 102.18 171.76 101.74 175.6C101.439 177.384 101.81 179.217 102.781 180.744L102.812 180.808L102.486 180.621L101.217 178.184L101.024 174.246L102.382 169.346L104.907 165.786L109.277 162.412L123.243 154.532L123.261 154.522L123.279 154.51L127.487 151.644L127.538 151.609L127.579 151.563L131.304 147.389L131.315 147.376L131.326 147.363L185.397 77.7068L185.398 77.7053L195.296 65.0499L199.059 61.779L217.068 51.2807L221.474 50.8258L221.65 50.9296L218.276 51.3893L218.176 51.403L218.088 51.4549L199.088 62.7478L199.034 62.7797L198.99 62.8239L195.623 66.1884L195.601 66.2102L195.582 66.2346L130.76 149.385L126.87 153.166L126.869 153.166L126.714 153.257L126.125 153.602C125.617 153.9 124.889 154.327 124.009 154.844C122.251 155.878 119.887 157.27 117.466 158.705C115.045 160.141 112.567 161.62 110.581 162.826C108.609 164.023 107.087 164.971 106.609 165.334Z" fill="white" stroke="#036063"/>
<path d="M127.752 172.531V168.567L196.146 80.7391V84.7034L127.752 172.531Z" fill="white" stroke="#036063"/>
<path d="M125.757 154.639L125.757 154.639L109.604 163.978C107.47 165.363 105.693 167.231 104.415 169.43C103.138 171.629 102.397 174.097 102.251 176.635V177.181C102.251 179.473 103.059 180.951 104.222 181.614C105.386 182.278 107.086 182.226 109.092 181.063L109.093 181.063L128.617 169.803L197.966 80.7523L198.026 80.6753L198.111 80.6265L217.723 69.3091C219.857 67.9207 221.635 66.0502 222.912 63.8488C224.189 61.6476 224.93 59.1773 225.076 56.6372V56.0907C225.076 53.7905 224.268 52.3123 223.105 51.6497C221.941 50.9862 220.241 51.0384 218.235 52.1933L125.757 154.639ZM125.757 154.639L125.765 154.634C128.298 153.1 130.514 151.097 132.294 148.731C132.295 148.73 132.296 148.729 132.297 148.728L195.809 67.1924L195.813 67.1869C197.525 64.9255 199.65 63.0083 202.076 61.5365C202.077 61.5356 202.079 61.5347 202.08 61.5338L218.234 52.1938L125.757 154.639Z" fill="white" stroke="#036063"/>
<path d="M108.178 186.374L109.735 181.065L128.451 170.259V174.68L108.178 186.374Z" fill="white" stroke="#036063"/>
<path d="M198.861 84.9907V80.5688L217.782 69.6528L219.327 73.1857L198.861 84.9907Z" fill="white" stroke="#036063"/>
<path d="M125.757 155.417L125.757 155.417L125.766 155.412C128.299 153.879 130.515 151.875 132.295 149.51C132.296 149.508 132.296 149.507 132.297 149.506L195.81 67.9709L195.814 67.9654C197.526 65.7041 199.651 63.7869 202.076 62.3151C202.078 62.3141 202.079 62.3132 202.081 62.3123L218.235 52.972C218.236 52.972 218.236 52.9719 218.236 52.9719C220.047 51.9262 221.575 51.8852 222.617 52.4789C223.657 53.0717 224.391 54.3984 224.391 56.4798V57.0108C224.258 59.3135 223.586 61.5529 222.428 63.5484C221.27 65.5441 219.659 67.2399 217.724 68.4989L198.111 79.8162L198.027 79.865L197.967 79.9421L128.617 169.008L109.094 180.252L109.092 180.253C107.273 181.307 105.745 181.35 104.706 180.759C103.668 180.169 102.938 178.843 102.938 176.76V176.214C103.072 173.916 103.744 171.681 104.902 169.691L104.47 169.44L104.902 169.691C106.06 167.7 107.671 166.01 109.604 164.757L125.757 155.417Z" fill="white" stroke="#036063"/>
<path d="M129.451 173.513V169.564L197.86 81.7359V85.6848L129.451 173.513Z" fill="white" stroke="#036063"/>
<path d="M107.938 187.194L109.612 181.483L121.815 188.524L120.154 194.248L107.938 187.194Z" fill="white" stroke="#036063"/>
<path d="M198.861 84.9907V80.5688L217.782 69.6528L219.327 73.1857L198.861 84.9907Z" fill="white" stroke="#036063"/>
<path d="M222.867 52.6313L235.145 59.7018L204.68 87.4338L204.651 87.4604L204.627 87.4911L138.771 169.773L117.114 187.867L104.707 180.796C104.113 180.35 103.643 179.76 103.344 179.08L102.887 179.282L103.344 179.08C103.04 178.392 102.921 177.637 102.998 176.889L103 176.864V176.838V176.289C103.115 173.983 103.774 171.736 104.922 169.732C106.069 167.728 107.674 166.023 109.605 164.756L125.757 155.417L125.757 155.417L125.766 155.412C128.299 153.878 130.515 151.875 132.295 149.509C132.296 149.508 132.296 149.507 132.297 149.506L195.81 67.9707L195.814 67.9652C197.526 65.7038 199.651 63.7866 202.076 62.3148C202.078 62.3139 202.079 62.313 202.081 62.3121L218.236 52.9716L218.263 52.9561L218.287 52.9373C218.937 52.4449 219.718 52.1535 220.532 52.0991C221.345 52.0448 222.156 52.2295 222.866 52.6305C222.866 52.6307 222.867 52.631 222.867 52.6313Z" fill="#036063" stroke="#036063"/>
<path d="M110.344 164.33L125.507 155.577L137.6 162.57L122.452 171.308L110.344 164.33Z" fill="white" stroke="#036063"/>
<path d="M214.929 68.878L202.821 61.9002L217.984 53.1477L230.092 60.1399L214.929 68.878Z" fill="white" stroke="#036063"/>
<path d="M121.283 193.946L122.829 188.619L141.846 177.648L143.541 181.109L121.283 193.946Z" fill="white" stroke="#036063"/>
<path d="M138.866 162.972L138.866 162.971L122.713 172.311C120.776 173.57 119.163 175.268 118.005 177.267C116.847 179.266 116.176 181.509 116.047 183.814V184.345C116.047 186.419 116.776 187.742 117.815 188.333C118.855 188.924 120.383 188.884 122.202 187.838L138.866 162.972ZM138.866 162.972L138.876 162.966C141.404 161.428 143.619 159.425 145.403 157.064C145.404 157.063 145.405 157.062 145.406 157.061L208.919 75.5407L208.922 75.536C210.639 73.2781 212.763 71.3613 215.186 69.8845L231.344 60.5417C231.344 60.5417 231.345 60.5416 231.345 60.5416C233.155 59.496 234.684 59.4547 235.726 60.047C236.767 60.6381 237.499 61.961 237.499 64.034V64.5801C237.363 66.8821 236.689 69.1203 235.532 71.1153C234.374 73.1106 232.765 74.807 230.833 76.0687L211.22 87.3702L211.136 87.4191L211.076 87.4963L141.726 176.563L122.203 187.837L138.866 162.972Z" fill="white" stroke="#036063"/>
<path d="M119.809 188.581L119.481 188.596C119.233 188.567 118.991 188.499 118.763 188.393C118.437 188.241 118.151 188.016 117.925 187.737C117.332 186.887 117.043 185.862 117.105 184.827L117.105 184.812V184.797V184.251C117.234 182.049 117.877 179.908 118.983 177.999C120.09 176.091 121.629 174.467 123.476 173.261L139.629 163.922L139.629 163.922L139.637 163.917C142.234 162.346 144.508 160.296 146.337 157.874C146.338 157.873 146.339 157.872 146.34 157.871L209.853 76.3349L209.853 76.3349L209.857 76.329C211.52 74.1278 213.587 72.2632 215.947 70.835C215.949 70.8342 215.95 70.8333 215.952 70.8325L232.107 61.4917L232.114 61.4873L232.122 61.4828C232.894 61.0001 233.778 60.7258 234.688 60.6865C235.526 60.6893 236.18 61.0298 236.639 61.6443C237.112 62.2773 237.405 63.239 237.405 64.5012V65.0322C237.28 67.2347 236.638 69.3771 235.532 71.2861C234.425 73.1954 232.884 74.8177 231.034 76.0218L211.328 87.4015L211.243 87.4503L211.183 87.5273L141.834 176.562L122.388 187.775L122.381 187.779L122.374 187.784C121.601 188.264 120.718 188.539 119.809 188.581Z" fill="white" stroke="#036063"/>
</g>
<defs>
<clipPath id="clip0_129_51853">
<rect width="238" height="195" fill="white"/>
</clipPath>
</defs>
</svg>
