<svg width="30" height="30" viewBox="0 0 30 30" fill="none" xmlns="http://www.w3.org/2000/svg">
<path d="M10.9334 26.8168L11.6164 26.7339C11.6382 26.9081 11.6967 27.0411 11.7922 27.1332C11.8876 27.2253 12.0031 27.2713 12.1387 27.2713C12.2844 27.2713 12.407 27.2161 12.5066 27.1056C12.6062 26.9951 12.656 26.8461 12.656 26.6586C12.656 26.4812 12.6083 26.3405 12.5129 26.2367C12.4174 26.1329 12.3011 26.081 12.1638 26.081C12.0734 26.081 11.9654 26.0986 11.8399 26.1338L11.9177 25.5587C12.1086 25.5637 12.2542 25.5223 12.3547 25.4344C12.4551 25.3465 12.5053 25.2298 12.5053 25.0841C12.5053 24.9602 12.4685 24.8615 12.3948 24.7878C12.3212 24.7141 12.2233 24.6773 12.101 24.6773C11.9805 24.6773 11.8775 24.7192 11.7922 24.8029C11.7068 24.8866 11.6549 25.0088 11.6365 25.1695L10.9861 25.059C11.0313 24.8363 11.0995 24.6585 11.1907 24.5254C11.282 24.3923 11.4092 24.2877 11.5724 24.2115C11.7357 24.1353 11.9186 24.0972 12.1211 24.0972C12.4677 24.0972 12.7456 24.2077 12.9548 24.4287C13.1273 24.6095 13.2135 24.8137 13.2135 25.0414C13.2135 25.3645 13.0369 25.6223 12.6836 25.8149C12.8946 25.8601 13.0632 25.9613 13.1896 26.1187C13.316 26.2761 13.3792 26.4661 13.3792 26.6887C13.3792 27.0118 13.2612 27.2872 13.0251 27.5149C12.7891 27.7426 12.4953 27.8564 12.1437 27.8564C11.8106 27.8564 11.5344 27.7606 11.315 27.5689C11.0957 27.3772 10.9685 27.1265 10.9334 26.8168ZM16.2093 25.0138L15.5263 25.0891C15.5095 24.9485 15.466 24.8447 15.3957 24.7778C15.3254 24.7108 15.2341 24.6773 15.122 24.6773C14.973 24.6773 14.847 24.7443 14.744 24.8782C14.6411 25.0121 14.5762 25.2909 14.5494 25.7144C14.7252 25.5068 14.9437 25.403 15.2048 25.403C15.4995 25.403 15.7519 25.5152 15.962 25.7395C16.1721 25.9639 16.2771 26.2535 16.2771 26.6084C16.2771 26.9851 16.1666 27.2872 15.9456 27.5149C15.7246 27.7426 15.4409 27.8564 15.0943 27.8564C14.7227 27.8564 14.4172 27.712 14.1778 27.4233C13.9384 27.1345 13.8187 26.6611 13.8187 26.0032C13.8187 25.3285 13.9434 24.8422 14.1928 24.5442C14.4423 24.2462 14.7662 24.0972 15.1647 24.0972C15.4442 24.0972 15.6757 24.1755 15.859 24.332C16.0423 24.4886 16.1591 24.7158 16.2093 25.0138ZM14.6097 26.5531C14.6097 26.7825 14.6624 26.9595 14.7679 27.0843C14.8734 27.209 14.9939 27.2713 15.1295 27.2713C15.2601 27.2713 15.3689 27.2203 15.456 27.1182C15.543 27.016 15.5865 26.8486 15.5865 26.6159C15.5865 26.3765 15.5397 26.2012 15.4459 26.0898C15.3522 25.9785 15.235 25.9228 15.0943 25.9228C14.9587 25.9228 14.8441 25.976 14.7503 26.0823C14.6566 26.1886 14.6097 26.3456 14.6097 26.5531ZM17.8717 24.0972C18.2283 24.0972 18.507 24.2245 18.7079 24.4789C18.9473 24.7803 19.067 25.28 19.067 25.9781C19.067 26.6745 18.9465 27.1751 18.7054 27.4798C18.5062 27.7309 18.2283 27.8564 17.8717 27.8564C17.5134 27.8564 17.2246 27.7187 17.0053 27.4433C16.786 27.168 16.6764 26.677 16.6764 25.9706C16.6764 25.2775 16.7969 24.7786 17.038 24.4739C17.2372 24.2228 17.5151 24.0972 17.8717 24.0972ZM17.8717 24.6823C17.7863 24.6823 17.7101 24.7095 17.6432 24.7639C17.5762 24.8183 17.5243 24.9159 17.4875 25.0565C17.4389 25.239 17.4147 25.5462 17.4147 25.9781C17.4147 26.41 17.4364 26.7067 17.4799 26.8683C17.5235 27.0298 17.5783 27.1374 17.6444 27.191C17.7106 27.2445 17.7863 27.2713 17.8717 27.2713C17.9571 27.2713 18.0332 27.2441 18.1002 27.1897C18.1672 27.1353 18.2191 27.0378 18.2559 26.8972C18.3044 26.7164 18.3287 26.41 18.3287 25.9781C18.3287 25.5462 18.307 25.2494 18.2634 25.0879C18.2199 24.9263 18.1651 24.8183 18.099 24.7639C18.0328 24.7095 17.9571 24.6823 17.8717 24.6823ZM19.0652 23.0725C18.9538 23.0725 18.8467 23.0257 18.7651 22.9441C18.7224 22.9056 18.6923 22.8583 18.6709 22.8068C18.6496 22.7557 18.6366 22.6996 18.6366 22.644C18.6366 22.5841 18.6496 22.5285 18.6709 22.477C18.6923 22.4255 18.7224 22.3782 18.7651 22.3397C18.9237 22.1769 19.2108 22.1811 19.3694 22.3397C19.4511 22.4171 19.4937 22.5285 19.4937 22.644C19.4937 22.6996 19.4854 22.7557 19.4636 22.8068C19.4423 22.8583 19.4079 22.9056 19.3694 22.9441C19.3309 22.9826 19.2836 23.0169 19.2322 23.0382C19.1765 23.06 19.125 23.0725 19.0652 23.0725ZM14.16 17.1445C10.0246 17.1445 6.66003 13.78 6.66003 9.64453C6.66003 5.50907 10.0246 2.14453 14.16 2.14453C18.2955 2.14453 21.66 5.50907 21.66 9.64453C21.66 13.78 18.2955 17.1445 14.16 17.1445ZM14.16 3.00167C10.4971 3.00167 7.51718 5.98158 7.51718 9.64453C7.51718 13.3075 10.4971 16.2874 14.16 16.2874C17.823 16.2874 20.8029 13.3075 20.8029 9.64453C20.8029 5.98158 17.823 3.00167 14.16 3.00167Z" fill="white"/>
<path d="M14.1596 15.0014C11.2057 15.0014 8.80249 12.5982 8.80249 9.64383C8.80249 6.69029 11.2057 4.28711 14.1596 4.28711C17.1136 4.28711 19.5168 6.69029 19.5168 9.64383C19.5168 12.5982 17.1136 15.0014 14.1596 15.0014Z" fill="white"/>
<path d="M15.0046 20.5243C7.07146 20.5243 0.857178 17.7662 0.857178 14.2455C0.857178 12.1228 3.085 10.236 6.96976 9.06918C7.20037 9.00138 7.43558 9.12987 7.5038 9.35629C7.5716 9.58313 7.44311 9.82211 7.21669 9.89033C3.77138 10.9249 1.71432 12.553 1.71432 14.2455C1.71432 17.1844 7.80054 19.6671 15.0046 19.6671C15.9589 19.6671 16.59 19.6382 17.5062 19.5529C17.7385 19.5311 17.9506 19.7039 17.9728 19.94C17.9946 20.1756 17.8213 20.3845 17.5857 20.4067C16.6398 20.4945 15.9886 20.5243 15.0046 20.5243ZM21.1369 19.9069C20.9389 19.9069 20.7611 19.7692 20.7184 19.5679C20.6686 19.3365 20.8163 19.1088 21.0477 19.0594C25.4448 18.1194 28.2857 16.2298 28.2857 14.2455C28.2857 12.2755 25.4699 10.3959 21.1114 9.45757C20.8803 9.40777 20.733 9.17967 20.7828 8.94823C20.8322 8.7172 21.059 8.56778 21.2922 8.61968C26.1345 9.66223 29.1429 11.8181 29.1429 14.2455C29.1429 16.688 26.1098 18.8539 21.2269 19.8973C21.1967 19.904 21.1666 19.9069 21.1369 19.9069Z" fill="white"/>
<path d="M15.5152 22.1108C15.3926 22.1108 15.2708 22.0585 15.1863 21.9572C15.0344 21.776 15.0582 21.5056 15.2399 21.3537L16.878 19.9817L15.2399 18.6098C15.0582 18.4579 15.0344 18.1875 15.1863 18.0063C15.3374 17.8251 15.6082 17.8 15.7898 17.9527L17.8205 19.6532C17.918 19.7344 17.9741 19.8549 17.9741 19.9817C17.9741 20.1086 17.918 20.2291 17.8205 20.3103L15.7898 22.0108C15.7099 22.0781 15.6119 22.1108 15.5152 22.1108Z" fill="white"/>
</svg>
