<svg width="145" height="195" fill="none" xmlns="http://www.w3.org/2000/svg"><g clip-path="url(#clip0_129_50370)"><path d="M89.48 9.054l.224 103.39-8.627-5.028-.224-103.39 8.627 5.028zm.495-.869l-8.646-5.04L85.544.582l8.661 5.038-4.231 2.565zm.505.863l4.208-2.55.224 103.366-4.208 2.563-.223-103.379z" fill="#fff" stroke="#036063"/><path d="M84.27 7.933l.797.465-58.415 33.747v-.901L84.269 7.933zm1.31 18.792L26.653 60.776V43.301L85.564 9.266l.017 17.459z" fill="#fff" stroke="#036063"/><path d="M82.76 20.992L26.651 53.404v-3.289l56.094-32.432.013 3.309z" fill="#fff" stroke="#036063"/><path d="M82.757 20.993L26.652 53.404v-.152l56.102-32.42.003.161z" fill="#fff" stroke="#036063"/><mask id="path-8-inside-1_129_50370" fill="#fff"><path d="M98.53 86.04l-.383-.452c2.768-2.231 3.987-3.974 3.673-5.229-.47-1.742-4.091-2.283-6.72-2.684l-1.463-.243a12.98 12.98 0 00-2.124-.105c-2.75 0-6.53 0-7.278-4.601a9.68 9.68 0 011.393-5.507c.818-1.743 1.532-3.224.888-4.357s-3.117-2.092-7.365-2.51c-4.649-.47-7.591.227-8.705 2.057-1.55 2.44.644 6.187.661 6.221l-.505.314c-.104-.174-2.403-4.095-.661-6.849 1.288-2.04 4.422-2.823 9.332-2.335 4.51.453 6.965 1.342 7.818 2.806.853 1.463 0 3.102-.87 4.914a9.087 9.087 0 00-1.342 5.141c.61 4.061 3.813 4.061 6.651 4.148.74-.026 1.48.015 2.212.122l1.445.227c2.803.436 6.633 1.01 7.191 3.12.348 1.498-.854 3.415-3.848 5.803z"/></mask><path d="M98.53 86.04l-.383-.452c2.768-2.231 3.987-3.974 3.673-5.229-.47-1.742-4.091-2.283-6.72-2.684l-1.463-.243a12.98 12.98 0 00-2.124-.105c-2.75 0-6.53 0-7.278-4.601a9.68 9.68 0 011.393-5.507c.818-1.743 1.532-3.224.888-4.357s-3.117-2.092-7.365-2.51c-4.649-.47-7.591.227-8.705 2.057-1.55 2.44.644 6.187.661 6.221l-.505.314c-.104-.174-2.403-4.095-.661-6.849 1.288-2.04 4.422-2.823 9.332-2.335 4.51.453 6.965 1.342 7.818 2.806.853 1.463 0 3.102-.87 4.914a9.087 9.087 0 00-1.342 5.141c.61 4.061 3.813 4.061 6.651 4.148.74-.026 1.48.015 2.212.122l1.445.227c2.803.436 6.633 1.01 7.191 3.12.348 1.498-.854 3.415-3.848 5.803z" fill="#fff"/><path d="M98.53 86.04l-.764.646.627.742.76-.605-.623-.782zm-.383-.452l-.628-.779-.797.642.661.782.764-.645zm3.673-5.229l.971-.242-.003-.01-.002-.008-.966.26zm-6.72-2.684l-.165.987.014.002.15-.989zm-1.463-.243l.165-.987-.017-.003-.017-.002-.13.992zm-2.124-.105v1h.033l-.033-1zm-7.278-4.601l-.998.05.002.056.01.055.986-.161zm1.393-5.507l.855.519.028-.046.022-.048-.905-.425zm-6.477-6.867l-.1.995h.002l.098-.995zm-8.705 2.057l.844.536.005-.008.005-.008-.854-.52zm.661 6.221l.528.85.774-.481-.407-.816-.895.447zm-.505.314l-.857.514.522.872.863-.537-.528-.849zm-.661-6.849l.845.534-.845-.534zm9.332-2.335l.1-.995h-.001l-.099.995zm6.947 7.72l.852.524.027-.044.022-.047-.9-.433zm-1.34 5.141l-1 .042.002.054.008.053.99-.149zm6.65 4.148l-.03 1h.065l-.034-1zm2.212.122l.155-.988-.01-.001-.145.99zm1.445.227l-.155.988h.001l.154-.988zm7.191 3.12l.974-.227-.004-.015-.004-.014-.966.255zm-3.085 5.157l-.383-.453-1.527 1.291.383.453 1.527-1.29zm-.519.971c1.416-1.14 2.495-2.202 3.184-3.184.674-.96 1.094-2.019.833-3.065l-1.941.485c.052.208.02.649-.529 1.431-.534.76-1.45 1.686-2.802 2.776l1.255 1.557zm4.012-6.267c-.202-.75-.723-1.287-1.284-1.666-.561-.38-1.244-.658-1.935-.874-1.379-.43-3.022-.675-4.316-.872l-.302 1.977c1.335.204 2.817.429 4.023.805.602.187 1.077.396 1.41.62.332.225.44.41.473.53l1.931-.52zm-7.522-3.41l-1.462-.244-.33 1.973 1.463.244.33-1.973zm-1.496-.249c-.758-.1-1.523-.138-2.288-.113l.066 2c.655-.022 1.31.01 1.96.096l.262-1.983zm-2.255-.113c-1.417 0-2.84-.014-4.006-.498a3.4 3.4 0 01-1.416-1.056c-.382-.492-.703-1.191-.869-2.208l-1.974.322c.21 1.284.64 2.31 1.264 3.112a5.38 5.38 0 002.227 1.676c1.599.665 3.44.652 4.774.652v-2zm-6.279-3.651a8.68 8.68 0 011.249-4.938l-1.71-1.038a10.68 10.68 0 00-1.536 6.076l1.997-.1zm1.3-5.032c.395-.843.823-1.737 1.05-2.568.233-.844.312-1.81-.199-2.708l-1.738.988c.133.234.178.576.01 1.19-.173.63-.511 1.348-.934 2.248l1.81.85zm.851-5.277c-.509-.895-1.588-1.52-2.867-1.971-1.332-.47-3.098-.825-5.269-1.039l-.196 1.99c2.078.205 3.672.538 4.8.935 1.18.416 1.659.837 1.794 1.074l1.738-.989zm-8.133-3.01c-2.381-.24-4.402-.192-6.01.188-1.609.38-2.906 1.121-3.65 2.344l1.708 1.04c.37-.608 1.1-1.13 2.403-1.438 1.305-.309 3.08-.373 5.347-.144l.202-1.99zm-9.65 2.516c-1.013 1.594-.752 3.505-.375 4.824.39 1.36 1.002 2.414.986 2.38l1.789-.894c-.034-.068-.527-.904-.852-2.037-.336-1.173-.397-2.356.14-3.201l-1.69-1.072zm.977 5.908l-.504.314 1.055 1.698.505-.313-1.056-1.699zm.881.649a9.845 9.845 0 01-.916-2.208c-.344-1.25-.403-2.573.242-3.593l-1.69-1.069c-1.097 1.735-.877 3.75-.48 5.192a11.792 11.792 0 001.129 2.706l1.715-1.028zm-.674-5.8c.466-.738 1.31-1.331 2.706-1.68 1.403-.352 3.287-.433 5.682-.195l.198-1.99c-2.515-.25-4.653-.184-6.366.245-1.722.43-3.088 1.25-3.91 2.55l1.69 1.07zm8.387-1.875c2.22.223 3.87.548 5.041.97 1.183.425 1.755.903 2.013 1.344l1.728-1.007c-.596-1.023-1.678-1.721-3.064-2.22-1.395-.502-3.23-.847-5.518-1.077l-.2 1.99zm7.054 2.314c.248.426.282.904.108 1.569-.186.704-.562 1.464-1.016 2.41l1.802.865c.417-.867.902-1.832 1.148-2.766.256-.975.29-2.047-.314-3.085l-1.728 1.007zm-.859 3.887a10.086 10.086 0 00-1.488 5.707l1.999-.083a8.087 8.087 0 011.193-4.576l-1.704-1.048zm-1.477 5.814c.171 1.143.536 2.07 1.086 2.801.553.736 1.252 1.22 2.004 1.536 1.441.606 3.166.62 4.519.662l.061-2c-1.485-.045-2.781-.075-3.804-.505-.48-.202-.873-.485-1.181-.895-.31-.413-.575-1.009-.708-1.896l-1.977.297zm7.674 4.999c.68-.024 1.36.013 2.032.112l.29-1.98a13.33 13.33 0 00-2.391-.131l.07 1.999zm2.022.11l1.445.227.31-1.976-1.445-.227-.31 1.976zm1.446.227c1.425.221 2.992.463 4.274.892 1.357.455 1.969.983 2.104 1.495l1.933-.511c-.422-1.598-2.004-2.411-3.402-2.88-1.474-.494-3.223-.758-4.602-.972l-.307 1.976zm6.371 2.358c.089.384.015.956-.534 1.794-.548.84-1.506 1.839-2.964 3l1.247 1.565c1.537-1.226 2.678-2.379 3.391-3.47.714-1.091 1.067-2.228.808-3.342l-1.948.453z" fill="#036063" mask="url(#path-8-inside-1_129_50370)"/><path d="M84.13 67.986a13.066 13.066 0 00-1.01 5.525m1.01-5.525l.009-.025c.885-2.728 1.798-5.54.392-7.678-1.132-1.725-3.413-2.753-7.678-3.172-4.266-.418-7.139.419-8.584 2.493m15.862 8.382l-.078-.032m.078.032l-.08-.025-.001.003-.007.022-.009.02a12.74 12.74 0 00-.992 5.508v.004l.003.059a2.534 2.534 0 001.155 1.86l.002.002h.002c.922.542 2.267.564 3.862.269 1.536-.285 3.188-.84 4.719-1.353l.125-.042.068-.026.004-.002c1.018-.39 2.07-.686 3.142-.882l.018-.004.017-.002.097-.01-.007-.085m-13.128.21l.54-5.7c.446-1.372.878-2.708 1.036-3.962.156-1.247.032-2.35-.578-3.284 0 0 0 0 0 0l-.006-.008h0c-1-1.524-3.072-2.533-7.309-2.949l-.011-.001c-4.204-.41-6.825.438-8.11 2.276 0 0 0 0 0 0l-.003.005m14.44 13.622a2.425 2.425 0 001.132 1.847c1.859 1.127 5.637-.12 8.523-1.072l.183-.06c1.062-.42 2.165-.73 3.29-.924m-13.127.21l.932-5.558m-15.784-8.35l.073.05m-.073-.05l.073.05m-.073-.05l15.784 8.35m-15.71-8.3c-1.308 1.926-1.12 4.496-.67 6.48a18.56 18.56 0 001.035 3.167m-.366-9.646l.337.234s0 0 0 0m-.337-.234s0 0 0 0m.366 9.646l-.088.042a13.937 13.937 0 00.206.456l.09-.043-.01-.018a5.26 5.26 0 01-.13-.282l-.068-.155zm0 0l.363-.176m0 0c.1.231.172.385.2.444l.005.012.09-.044a2.639 2.639 0 01-.063-.13l-.155-.32-.077.038zm0 0a18.312 18.312 0 01-1.047-3.236c-.439-2.019-.509-4.322.656-6m0 0h0l-.338-.234m0 0l.001-.001.003-.004h0c.74-1.066 1.919-1.772 3.366-2.163 1.447-.39 3.192-.476 5.122-.28h.01c1.91.195 3.515.537 4.786 1.043 1.267.505 2.237 1.187 2.827 2.082 0 0 0 0 0 0l.005.008.002.003c.726 1.126.81 2.41.63 3.698-.167 1.187-.568 2.44-.955 3.646l-.086.267m12.196 5.348l.014.085a5.476 5.476 0 015.491 3.213l.003.007.003.008.037.092.058-.024m-5.606-3.381a5.586 5.586 0 015.606 3.38m0 0l-.058.025c.574 1.485.351 3.17-.5 4.873-.815 1.629-2.221 3.31-4.14 4.933l.054.067c5.818-4.832 5.19-8.584 4.644-9.897zm-5.032 10.214l.19-.153m-.19.153l-.157-.197-.208-.257m.365.454l-.365-.454m.365.454l.19-.153m0 0L82.627 73.607l-.082.009m14.466 13.127l-.554-.3m0 0l.389-.314.05.062c2.789-2.318 4.022-4.345 4.511-5.916.509-1.636.225-2.821-.014-3.398a3.406 3.406 0 00-.041-.095l-.001-.001a5.092 5.092 0 00-5.04-2.983l-.106.02H96.2c-1.045.19-2.07.482-3.058.873l-.013.005-.014.005-.057.018.022.064m0 0l-.025-.063-.133.044c-1.404.463-3.057 1.009-4.6 1.31-.808.157-1.605.252-2.334.227-.727-.024-1.42-.167-1.995-.515l-.003-.002-.05.08m9.14-1.08l-.15.05c-3.09 1.037-6.85 2.299-8.99 1.03m9.14-1.08a17.156 17.156 0 013.134-.89l-13.668-.278m1.393 2.248l.048-.082a2.922 2.922 0 01-1.359-2.17l-.082.004m1.393 2.248a3.03 3.03 0 01-1.393-2.248" fill="#fff" stroke="#036063"/><mask id="path-11-inside-2_129_50370" fill="#fff"><path d="M79.988 75.69l1.219-.715c.266-.166.483-.401.627-.68l-1.22.697a1.741 1.741 0 01-.626.697z"/></mask><path d="M79.988 75.69l1.219-.715c.266-.166.483-.401.627-.68l-1.22.697a1.741 1.741 0 01-.626.697z" fill="#fff"/><path d="M81.207 74.975l.506.862.011-.007.012-.007-.53-.848zm.627-.68l.888.459 1.552-3.007-2.937 1.68.497.868zm-1.22.697l-.496-.868-.264.151-.135.273.896.444zm-.12 1.56l1.219-.715-1.012-1.725-1.219.715 1.012 1.725zm1.242-.729c.419-.26.76-.63.986-1.07l-1.777-.917a.742.742 0 01-.267.29l1.058 1.697zm-.399-2.396l-1.219.697.993 1.736 1.22-.697-.994-1.736zm-1.618 1.121a.742.742 0 01-.267.297l1.072 1.688c.423-.269.764-.648.987-1.097l-1.792-.888z" fill="#036063" mask="url(#path-11-inside-2_129_50370)"/><mask id="path-13-inside-3_129_50370" fill="#fff"><path d="M80.615 74.94l1.219-.697c.128-.301.215-.617.26-.941l-1.218.697a2.493 2.493 0 01-.261.941z"/></mask><path d="M80.615 74.94l1.219-.697c.128-.301.215-.617.26-.941l-1.218.697a2.493 2.493 0 01-.261.941z" fill="#fff"/><path d="M81.834 74.243l.496.868.292-.167.132-.31-.92-.391zm.26-.941l.991.138.282-2.018-1.769 1.012.497.868zm-1.218.697l-.497-.868-.461.264-.04.53.998.074zm.235 1.809l1.219-.697-.993-1.736-1.219.697.993 1.736zm1.643-1.173c.162-.382.274-.784.331-1.195l-1.98-.277a2.715 2.715 0 01-.192.688l1.84.784zm-1.156-2.201l-1.219.697.993 1.736 1.22-.697-.994-1.736zm-1.72 1.491a1.494 1.494 0 01-.156.564l1.785.902c.208-.411.332-.86.366-1.319l-1.994-.147z" fill="#036063" mask="url(#path-13-inside-3_129_50370)"/><path d="M81.606 73.057l-.24.138a5.686 5.686 0 00-.04-.334l.269-.156c.008.117.012.235.011.352z" fill="#fff" stroke="#036063"/><mask id="path-16-inside-4_129_50370" fill="#fff"><path d="M80.77 72.605l1.202-.698a5.345 5.345 0 00-.174-.662l-1.219.697c0 .227.14.453.192.663z"/></mask><path d="M80.77 72.605l1.202-.698a5.345 5.345 0 00-.174-.662l-1.219.697c0 .227.14.453.192.663z" fill="#fff"/><path d="M81.972 71.907l.502.865.616-.357-.136-.7-.982.192zm-.174-.662l.949-.316-.386-1.158-1.06.606.497.868zm-1.219.697l-.496-.868-.504.288v.58h1zm.694 1.527l1.201-.697-1.004-1.73-1.201.698 1.004 1.73zm1.68-1.753a6.347 6.347 0 00-.206-.787l-1.898.632c.059.176.106.356.142.538l1.963-.383zm-1.651-1.339l-1.22.697.994 1.736 1.219-.697-.993-1.736zm-1.723 1.565c0 .303.092.558.14.687l.037.097.027.071.018.05 1.94-.485a2.454 2.454 0 00-.086-.27L81.619 72l-.026-.068a1.027 1.027 0 01-.019-.054l-.001-.004v.004l.003.013a.38.38 0 01.003.052h-2z" fill="#036063" mask="url(#path-16-inside-4_129_50370)"/><path d="M65.617 32.08c.062.004.124.01.185.018l-.066.04a3.43 3.43 0 00-.12-.058zm15.575 38.936l-.335.191L69.135 36.55l.334-.191 11.723 34.657zM68.874 34.841c.094.182.18.368.258.559l-.297.17a8.17 8.17 0 00-.26-.543l.299-.186zm-.892-1.377c.15.168.292.344.425.527l-.346.197a7.69 7.69 0 00-.412-.534l.333-.19zm-.951-.824l.12.09-.29.166a5.589 5.589 0 00-.11-.092l.28-.164z" fill="#fff" stroke="#036063"/><mask id="path-23-inside-5_129_50370" fill="#fff"><path d="M65.83 32.764l1.22-.714-1.22.714h.087-.087z"/></mask><path d="M65.83 32.764l1.22-.714-1.22.714h.087-.087z" fill="#fff"/><path d="M65.83 32.764l-.505-.862-3.178 1.862h3.683v-1zm.506.863l1.219-.715-1.012-1.725-1.218.715 1.011 1.725zm.207-2.44l-1.218.715 1.011 1.725 1.219-.715-1.012-1.725zm-.713 2.577h.087v-2h-.087v2zm.087-2h-.087v2h.087v-2z" fill="#036063" mask="url(#path-23-inside-5_129_50370)"/><path d="M75.464 71.697l-.001-.002-12.047-35.62v-.001c-.344-1.039-.342-1.905-.132-2.477.196-.536.563-.814 1.084-.82.393.031.774.154 1.11.359a6.279 6.279 0 012.576 3.338h0l.002.006 12.049 35.622.473-.16-.473.16c.351 1.04.352 1.905.143 2.476-.195.533-.566.815-1.1.82a2.493 2.493 0 01-1.108-.342 6.47 6.47 0 01-2.576-3.359z" fill="#fff" stroke="#036063"/><mask id="path-26-inside-6_129_50370" fill="#fff"><path d="M70.217 82.45a1.307 1.307 0 01-.156-.54v-.226l-6.373-3.695a.85.85 0 000 .21c.015.192.062.38.14.557.09.165.221.304.382.4l6.356 3.713c-.15-.107-.27-.25-.349-.418z"/></mask><path d="M70.217 82.45a1.307 1.307 0 01-.156-.54v-.226l-6.373-3.695a.85.85 0 000 .21c.015.192.062.38.14.557.09.165.221.304.382.4l6.356 3.713c-.15-.107-.27-.25-.349-.418z" fill="#036063"/><path d="M70.217 82.45l.907-.421L71.11 82l-.016-.028-.878.479zm-.156-.54h-1v.033l.002.033.998-.066zm0-.226h1v-.576l-.499-.29-.501.866zm-6.373-3.695l.502-.865-1.31-.759-.184 1.502.992.122zm0 .21l.997-.08-.002-.021-.003-.022-.992.122zm.14.557l-.918.399.018.04.021.04.878-.479zm.382.4l-.517.856.006.004.007.004.504-.863zm6.356 3.713l-.505.864 1.083-1.68-.579.816zm.53-.897a.307.307 0 01-.038-.127l-1.995.131c.022.334.116.66.276.953l1.756-.957zm-.035-.061v-.227h-2v.227h2zm-.499-1.092l-6.372-3.695-1.003 1.73 6.372 3.695 1.003-1.73zm-7.866-2.952c-.019.15-.019.303 0 .454l1.984-.245a.14.14 0 010 .036l-1.984-.245zm-.005.41c.024.303.098.6.22.878l1.833-.798a.745.745 0 01-.06-.238l-1.993.159zm.258.957c.175.321.431.59.744.779l1.035-1.712a.062.062 0 01-.022-.023l-1.757.956zm.757.786l6.355 3.713 1.009-1.727-6.355-3.713-1.009 1.727zm7.438 2.034a.064.064 0 01-.02-.025l-1.813.844c.15.324.383.604.675.811l1.158-1.63z" fill="#036063" mask="url(#path-26-inside-6_129_50370)"/><mask id="path-28-inside-7_129_50370" fill="#fff"><path d="M77.321 69.083l-6.355-3.712a1.287 1.287 0 011.306-.122l6.355 3.695a1.305 1.305 0 00-1.306.14z"/></mask><path d="M77.321 69.083l-6.355-3.712a1.287 1.287 0 011.306-.122l6.355 3.695a1.305 1.305 0 00-1.306.14z" fill="#fff"/><path d="M70.966 65.371l-.587-.81-1.24.9 1.323.774.504-.864zm1.306-.122l.502-.864-.036-.022-.039-.018-.427.904zm6.355 3.695l-.409.913.912-1.778-.503.865zm-.801-.724l-6.356-3.712-1.008 1.727 6.355 3.712 1.009-1.727zm-6.273-2.04a.288.288 0 01.142-.053l-.186-1.991a2.288 2.288 0 00-1.13.426l1.174 1.619zm.142-.053a.287.287 0 01.15.026l.854-1.808a2.287 2.287 0 00-1.19-.21l.186 1.992zm.074-.013l6.355 3.694 1.006-1.729-6.355-3.694-1.006 1.729zm7.267 1.917a2.304 2.304 0 00-1.187-.188l.212 1.989a.305.305 0 01.157.025l.818-1.826zm-1.187-.188a2.306 2.306 0 00-1.12.434l1.184 1.612a.305.305 0 01.148-.057l-.212-1.989z" fill="#036063" mask="url(#path-28-inside-7_129_50370)"/><path d="M69.546 75.68l.014 5.134-5.371-3.114-.014-5.133 5.37 3.114z" fill="#036063" stroke="#036063"/><mask id="path-31-inside-8_129_50370" fill="#fff"><path d="M70.044 75.392l-6.372-3.694a2.707 2.707 0 010-.645l6.372 3.694a2.898 2.898 0 000 .645z"/></mask><path d="M70.044 75.392l-6.372-3.694a2.707 2.707 0 010-.645l6.372 3.694a2.898 2.898 0 000 .645z" fill="#fff"/><path d="M63.672 71.698l-.993.119.06.495.431.25.502-.864zm0-.645l.502-.865-1.314-.762-.181 1.507.993.12zm6.372 3.694l.994.115.075-.65-.567-.33-.502.865zm.502-.22l-6.373-3.695-1.003 1.73 6.373 3.695 1.003-1.73zm-5.881-2.949a1.704 1.704 0 010-.406l-1.986-.239c-.035.294-.035.59 0 .884l1.986-.239zm-1.495.34l6.373 3.694 1.003-1.73-6.373-3.694-1.003 1.73zm5.881 2.715c-.034.29-.034.584 0 .874l1.987-.23a1.803 1.803 0 010-.415l-1.987-.23z" fill="#036063" mask="url(#path-31-inside-8_129_50370)"/><path d="M69.963 73.68a4.58 4.58 0 00-.14.32l-5.494-3.184c.039-.111.082-.22.13-.327l5.504 3.19z" fill="#fff" stroke="#036063"/><mask id="path-34-inside-9_129_50370" fill="#fff"><path d="M70.637 73.493l-6.372-3.695a3.89 3.89 0 01.609-.784l6.373 3.694a4.502 4.502 0 00-.61.785z"/></mask><path d="M70.637 73.493l-6.372-3.695a3.89 3.89 0 01.609-.784l6.373 3.694a4.502 4.502 0 00-.61.785z" fill="#fff"/><path d="M64.265 69.798l-.861-.509-.513.868.872.506.502-.865zm.609-.784l.502-.865-.664-.385-.544.541.706.709zm6.373 3.694l.716.697.894-.919-1.109-.643-.502.865zm-.108-.08l-6.373-3.695-1.003 1.73 6.373 3.695 1.003-1.73zm-6.013-2.321c.126-.214.278-.41.454-.585l-1.412-1.417a4.92 4.92 0 00-.764.984l1.722 1.018zm-.754-.428l6.373 3.694 1.003-1.73-6.372-3.694-1.004 1.73zm6.157 2.132a5.497 5.497 0 00-.744.959l1.705 1.045c.135-.22.294-.424.474-.61l-1.434-1.394z" fill="#036063" mask="url(#path-34-inside-9_129_50370)"/><mask id="path-36-inside-10_129_50370" fill="#fff"><path d="M71.245 72.708l-6.373-3.694a4.36 4.36 0 01.575-.453l6.355 3.712a2.54 2.54 0 00-.557.435z"/></mask><path d="M71.245 72.708l-6.373-3.694a4.36 4.36 0 01.575-.453l6.355 3.712a2.54 2.54 0 00-.557.435z" fill="#fff"/><path d="M64.872 69.014l-.683-.73-.983.92 1.165.675.501-.865zm.575-.453l.504-.864-.536-.314-.52.343.552.835zm6.355 3.712l.5.865 1.49-.86-1.486-.869-.504.864zm-.056-.43l-6.372-3.694-1.003 1.73 6.372 3.694 1.003-1.73zm-6.19-2.099c.137-.129.285-.245.442-.349l-1.102-1.669c-.25.166-.487.352-.707.557l1.366 1.461zm-.614-.32l6.356 3.712 1.008-1.727-6.355-3.712-1.008 1.727zm6.36 1.983c-.286.165-.548.37-.777.607l1.44 1.389c.1-.104.213-.193.337-.265l-1-1.731z" fill="#036063" mask="url(#path-36-inside-10_129_50370)"/><path d="M76.327 69.08l-4.47 2.58-5.36-3.132 4.469-2.579 5.36 3.132zm-4.618 13.216h0l-.004.002c-.425.25-.648.195-.734.142-.097-.059-.254-.255-.254-.756V75.4a3.476 3.476 0 011.51-2.74l5.347-3.146s0 0 0 0c.413-.243.676-.205.802-.134.125.07.29.273.29.748v6.264a3.564 3.564 0 01-1.51 2.76l-5.448 3.143zM57.385 49.553l.032-12.264 11.9-6.832-.031 12.264-11.9 6.832z" fill="#fff" stroke="#036063"/><path d="M56.917 36.421l-7.883-4.595 11.901-6.832 7.883 4.595-11.901 6.832zm-8.382-3.729l7.881 4.594-.032 12.264-7.881-4.594.032-12.264z" fill="#036063" stroke="#036063"/><mask id="path-43-inside-11_129_50370" fill="#fff"><path d="M66.913 80.168l1.219-.715c.271-.16.49-.396.626-.68l-1.218.698c-.131.292-.35.535-.627.697z"/></mask><path d="M66.913 80.168l1.219-.715c.271-.16.49-.396.626-.68l-1.218.698c-.131.292-.35.535-.627.697z" fill="#fff"/><path d="M66.913 80.168l-.506-.863 1.01 1.727-.504-.864zm1.219-.715l-.506-.863.506.863zm.626-.68l.901.435 1.398-2.902-2.795 1.6.496.867zm-1.218.698l-.497-.868-.283.161-.133.297.913.41zm-.121 1.56l1.218-.715-1.011-1.725-1.219.714 1.012 1.725zm1.218-.715c.443-.26.8-.646 1.022-1.108l-1.801-.869a.586.586 0 01-.232.251l1.011 1.726zm-.375-2.41l-1.219.697.993 1.736 1.219-.698-.993-1.736zm-1.635 1.155a.533.533 0 01-.218.243l1.007 1.728c.457-.267.82-.67 1.036-1.152l-1.825-.819z" fill="#036063" mask="url(#path-43-inside-11_129_50370)"/><mask id="path-45-inside-12_129_50370" fill="#fff"><path d="M67.54 79.383l1.218-.697c.144-.295.233-.614.261-.94l-1.218.696a2.494 2.494 0 01-.261.941z"/></mask><path d="M67.54 79.383l1.218-.697c.144-.295.233-.614.261-.94l-1.218.696a2.494 2.494 0 01-.261.941z" fill="#fff"/><path d="M68.758 78.686l.497.868.267-.153.135-.277-.899-.438zm.261-.94l.997.087.167-1.906-1.66.95.496.868zm-1.218.696l-.497-.868-.461.264-.04.53.998.074zm.235 1.81l1.219-.698-.993-1.736-1.219.697.993 1.736zm1.621-1.128c.198-.405.32-.842.359-1.291l-1.993-.176a1.686 1.686 0 01-.164.591l1.798.876zm-1.134-2.247l-1.219.697.993 1.736 1.219-.697-.993-1.736zm-1.72 1.492a1.493 1.493 0 01-.156.563l1.785.902c.208-.41.332-.859.366-1.318l-1.995-.147z" fill="#036063" mask="url(#path-45-inside-12_129_50370)"/><path d="M68.531 77.431l-.23.132a4.65 4.65 0 00-.042-.33l.263-.15c.007.115.01.232.01.348z" fill="#fff" stroke="#036063"/><mask id="path-48-inside-13_129_50370" fill="#fff"><path d="M67.696 76.996l1.218-.697a5.543 5.543 0 00-.191-.662l-1.219.697c.078.216.142.438.192.662z"/></mask><path d="M67.696 76.996l1.218-.697a5.543 5.543 0 00-.191-.662l-1.219.697c.078.216.142.438.192.662z" fill="#fff"/><path d="M67.696 76.996l-.976.218.295 1.324 1.177-.674-.496-.868zm1.218-.697l.497.868.64-.366-.16-.72-.977.218zm-.191-.662l.941-.337-.402-1.124-1.036.593.497.868zm-1.219.697l-.496-.868-.728.416.283.789.941-.337zm.688 1.53l1.219-.697-.993-1.736-1.219.697.993 1.736zm1.699-1.783a6.549 6.549 0 00-.227-.781l-1.883.674c.064.177.116.358.157.542l1.953-.435zm-1.665-1.312l-1.218.697.993 1.736 1.218-.697-.993-1.736zm-1.663 1.902c.063.177.116.359.157.543l1.952-.436a6.573 6.573 0 00-.226-.781l-1.883.674z" fill="#036063" mask="url(#path-48-inside-13_129_50370)"/><path d="M68.118 75.407l-.334.192-11.706-34.66.319-.185 11.72 34.654zM56.062 39.798l-.336.2a7.904 7.904 0 00-.281-.583l.348-.2c.099.19.189.385.27.583zm-1.219-1.959c.15.167.292.342.424.525l-.346.198a7.538 7.538 0 00-.405-.533l.327-.19zm-1.211-1.02l.119.07h.076c.086.059.171.12.254.184l-.284.165a5.897 5.897 0 00-.78-.561 3.368 3.368 0 00-.363-.193c.345.042.679.156.978.335zm-3.274 3.645h0l-.001-.001c-.351-1.03-.352-1.89-.143-2.459.196-.532.567-.814 1.103-.818.39.02.77.137 1.103.341a6.33 6.33 0 012.577 3.356h0l.002.006L67.03 76.494h0c.352 1.04.353 1.905.145 2.477-.194.535-.563.814-1.086.819-.39-.023-.77-.14-1.105-.342a6.47 6.47 0 01-2.595-3.36v-.001L50.357 40.464zM77.32 71.709l.688.402c-.246.074-.485.17-.715.286l-1.373-.794c.169-.044.341-.072.516-.086.22-.016.44.014.647.088l.237.104zm-3.905 1.739a6.71 6.71 0 011.463-1.32l1.507.89a7.715 7.715 0 00-1.373 1.353l-1.597-.923zm-.649.811l1.608.93a9.594 9.594 0 00-.238.386l-1.61-.93c.077-.13.157-.26.24-.386zm.757 2.578l-1.596-.935c.047-.122.096-.243.149-.363l1.603.927a9.92 9.92 0 00-.156.37zm-.442 3.801l-.655-.383a2.218 2.218 0 01-.89-2.007l.001-.021v-.022c.006-.442.057-.882.154-1.313l1.566.943a7.233 7.233 0 00-.247 1.785c-.03.342-.006.686.071 1.018zm1.909-4.546a7.932 7.932 0 012.558-2.695c.966-.552 1.726-.544 2.214-.265.487.278.879.925.89 2.04a8.01 8.01 0 01-3.614 6.246c-.964.583-1.725.572-2.212.29-.491-.283-.884-.945-.886-2.05a7.94 7.94 0 011.05-3.566zm22.831 13.407l-2.518 1.46v-3.184l2.531-1.473-.013 3.197z" fill="#fff" stroke="#036063"/><path d="M78.806 74.716l18.537 10.716-2.539 1.477-18.522-10.717 2.524-1.476z" fill="#fff" stroke="#036063"/><path d="M94.303 90.961L75.77 80.263l.013-3.204 18.521 10.717v3.185z" fill="#036063" stroke="#036063"/><mask id="path-64-inside-14_129_50370" fill="#fff"><path d="M94.264 92.368l-2.385-1.325a.592.592 0 00.244.523l2.368 1.324a.575.575 0 01-.227-.522z"/></mask><path d="M94.264 92.368l-2.385-1.325a.592.592 0 00.244.523l2.368 1.324a.575.575 0 01-.227-.522z" fill="#fff"/><path d="M91.879 91.043l.485-.874-1.37-.761-.112 1.563.997.072zm.244.523l-.586.81.047.034.05.029.489-.873zm2.368 1.324l-.489.873 1.09-1.672-.601.8zm.259-1.397l-2.386-1.324-.97 1.748 2.385 1.325.97-1.749zm-3.868-.522c-.02.27.03.542.145.788l1.812-.846c.03.063.042.133.037.202l-1.995-.144zm.145.788c.114.245.29.458.51.617l1.172-1.62c.056.04.101.095.13.157l-1.812.846zm.608.68l2.367 1.324.977-1.745-2.368-1.325-.977 1.746zm3.456-.348c.06.044.106.103.135.17l-1.835.795c.108.251.28.47.5.634l1.2-1.6zm.135.17a.42.42 0 01.032.216l-1.988-.219c-.03.272.012.547.12.798l1.836-.794z" fill="#036063" mask="url(#path-64-inside-14_129_50370)"/><mask id="path-66-inside-15_129_50370" fill="#fff"><path d="M99.365 84.368l-2.368-1.324a.575.575 0 00-.575 0l2.368 1.342a.556.556 0 01.575 0v-.018z"/></mask><path d="M99.365 84.368l-2.368-1.324a.575.575 0 00-.575 0l2.368 1.342a.556.556 0 01.575 0v-.018z" fill="#fff"/><path d="M99.365 84.368h1v-.586l-.512-.286-.488.872zm-2.368-1.324l-.5.866.012.007.488-.873zm-.287-.077v-1 1zm-.288.077l-.5-.866-1.513.874 1.52.862.493-.87zm2.368 1.342l-.493.87.509.288.5-.302-.516-.856zm.575 0l-.516.856 1.516.914v-1.77h-1zm.488-.89l-2.368-1.325-.976 1.746 2.368 1.324.976-1.745zm-2.356-1.318a1.575 1.575 0 00-.787-.211v2a.426.426 0 01-.213-.057l1-1.732zm-.787-.211c-.277 0-.549.073-.788.211l1 1.732a.426.426 0 01-.212.057v-2zm-.78 1.947l2.367 1.342.986-1.74-2.368-1.342-.986 1.74zm3.376 1.328a.444.444 0 01-.228.064v-2c-.284 0-.561.077-.804.223l1.032 1.713zm-.228.064a.444.444 0 01-.23-.064l1.033-1.713a1.556 1.556 0 00-.803-.223v2zm1.287-.92v-.018h-2v.018h2z" fill="#036063" mask="url(#path-66-inside-15_129_50370)"/><path d="M93.76 91.43l-1.382-.768v-3.14l1.37.765.012 3.142zm-.053-6.194l2.72-1.565 1.357.77-2.72 1.564-1.357-.769zm-1.162.876c.054-.094.12-.18.197-.257l1.477.826a2.255 2.255 0 00-.314.548l-1.482-.829c.028-.1.07-.197.122-.288zm6.511-1.239l.007-.005.007-.004a.475.475 0 01.05-.027.48.48 0 01.006.072v4.28a1.245 1.245 0 01-.579 1.01l-3.735 2.208a.471.471 0 01-.062.03.478.478 0 01-.004-.069v-4.364a1.243 1.243 0 01.576-.993l3.734-2.138z" fill="#fff" stroke="#036063"/><path d="M98.407 90.042l-3.416 1.975v-4a1.139 1.139 0 01.468-.806l3.407-2.024v4.064a1.035 1.035 0 01-.46.791zm.457-5.203v-.002.002z" fill="#fff" stroke="#036063"/><path d="M96.53 88.484a2.27 2.27 0 01.667-.766c.238-.131.353-.09.388-.071.045.024.145.115.182.381a2.256 2.256 0 01-.997 1.735c-.25.14-.368.095-.391.083-.018-.01-.116-.08-.118-.365.012-.348.104-.69.268-.997z" fill="#fff" stroke="#036063"/><mask id="path-74-inside-16_129_50370" fill="#fff"><path d="M97.102 87.505a.47.47 0 01.435 0l3.482 2.004a.466.466 0 00-.435 0h-.122l-3.482-2.004h.122z"/></mask><path d="M97.102 87.505a.47.47 0 01.435 0l3.482 2.004a.466.466 0 00-.435 0h-.122l-3.482-2.004h.122z" fill="#fff"/><path d="M97.102 87.505v1h.245l.218-.114-.463-.886zm.218-.054v-1 1zm.217.054l.499-.867-.018-.01-.018-.01-.463.887zm3.482 2.004l-.463.886.962-1.753-.499.867zm-.217-.054v-1 1zm-.218.054v1h.246l.217-.114-.463-.886zm-.122 0l-.499.867.232.133h.267v-1zm-3.482-2.004v-1h-3.742l3.243 1.866.499-.866zm.585.886a.53.53 0 01-.245.06v-2c-.238 0-.471.058-.681.167l.926 1.773zm-.245.06a.53.53 0 01-.246-.06L98 86.618a1.47 1.47 0 00-.68-.167v2zm-.282-.08l3.483 2.005.997-1.734-3.482-2.004-.998 1.733zm4.445.252a1.47 1.47 0 00-.681-.168v2a.53.53 0 01-.246-.06l.927-1.772zm-.681-.168a1.47 1.47 0 00-.681.168l.926 1.772a.526.526 0 01-.245.06v-2zm-.218.054h-.122v2h.122v-2zm.377.133l-3.482-2.004-.998 1.733 3.482 2.005.998-1.734zm-3.981-.137h.122v-2h-.122v2z" fill="#036063" mask="url(#path-74-inside-16_129_50370)"/><path d="M96.858 88.348c.04-.06.085-.116.135-.168l2.601 1.497a2.292 2.292 0 00-.204.32l-2.615-1.504c.025-.05.052-.099.083-.145z" fill="#fff" stroke="#036063"/><mask id="path-77-inside-17_129_50370" fill="#fff"><path d="M99.66 90.729l-3.482-2.004a.85.85 0 000 .209.506.506 0 00.227.488l3.482 2.021a.61.61 0 01-.244-.505v-.21h.017z"/></mask><path d="M99.66 90.729l-3.482-2.004a.85.85 0 000 .209.506.506 0 00.227.488l3.482 2.021a.61.61 0 01-.244-.505v-.21h.017z" fill="#fff"/><path d="M99.66 90.729v1h3.743l-3.244-1.867-.499.867zm-3.482-2.004l.5-.867-1.308-.752-.184 1.496.992.123zm0 .209l.992.126.016-.124-.015-.125-.993.123zm.227.488l-.544.839.02.013.022.013.502-.865zm3.482 2.021l-.502.865 1.102-1.665-.6.8zm-.244-.505h1l-2-.028 1 .028zm0-.21v-1h-1v1h1zm.516-.866l-3.482-2.004-.998 1.733 3.483 2.005.997-1.734zm-4.973-1.26a1.815 1.815 0 000 .454l1.985-.245a.15.15 0 010 .036l-1.985-.245zm0 .206c-.036.28.009.566.128.823l1.814-.841c.04.084.054.178.042.27l-1.984-.252zm.128.823c.12.257.309.475.547.63l1.088-1.678c.078.05.14.122.18.207l-1.815.841zm.589.656l3.482 2.021 1.004-1.73-3.482-2.021-1.004 1.73zm4.584.356a.39.39 0 01.117.143l-1.801.869c.112.232.278.434.484.588l1.2-1.6zm.117.143a.4.4 0 01.039.18l-2-.056a1.61 1.61 0 00.16.745l1.801-.869zm-.96.152h.999v-.209h-2v.209h1zm0 .79h.016v-2h-.017v2z" fill="#036063" mask="url(#path-77-inside-17_129_50370)"/><path d="M100.306 90.415c.095-.165.227-.306.386-.412a.389.389 0 01.033-.018l.002.032a1.243 1.243 0 01-.549.933.344.344 0 01-.034.018l-.001-.017a1.25 1.25 0 01.163-.536z" fill="#fff" stroke="#036063"/><mask id="path-80-inside-18_129_50370" fill="#fff"><path d="M100.095 86.668l-.313-.175a2.747 2.747 0 011.375-.418l.314.174a2.942 2.942 0 00-1.376.419z"/></mask><path d="M100.095 86.668l-.313-.175a2.747 2.747 0 011.375-.418l.314.174a2.942 2.942 0 00-1.376.419z" fill="#fff"/><path d="M99.782 86.493l-.531-.847-1.434.899 1.479.822.486-.874zm1.375-.418l.486-.874-.241-.134-.275.009.03 1zm.314.174l.048 1 3.502-.17-3.064-1.703-.486.873zm-.89-.455l-.313-.174-.972 1.747.313.175.972-1.748zm-.268 1.547c.263-.165.565-.257.875-.266l-.061-2a3.748 3.748 0 00-1.876.571l1.062 1.695zm.358-.392l.314.174.972-1.748-.314-.174-.972 1.748zm.752-1.698a3.941 3.941 0 00-1.844.56l1.032 1.713c.276-.165.587-.26.908-.276l-.096-1.997z" fill="#036063" mask="url(#path-80-inside-18_129_50370)"/><mask id="path-82-inside-19_129_50370" fill="#fff"><path d="M101.47 86.25l-.313-.174c.276-.006.547.066.783.209l.314.174a1.863 1.863 0 00-.784-.21z"/></mask><path d="M101.47 86.25l-.313-.174c.276-.006.547.066.783.209l.314.174a1.863 1.863 0 00-.784-.21z" fill="#fff"/><path d="M101.47 86.25l-.486.874.208.115.237.01.041-1zm-.313-.174l-.02-1-3.7.075 3.234 1.799.486-.874zm.783.209l-.515.856.014.01.015.008.486-.874zm.314.174l-.462.887.948-1.761-.486.874zm-.298-1.083l-.313-.175-.972 1.749.313.174.972-1.748zm-.779 1.7a.464.464 0 01.248.065l1.031-1.713a2.461 2.461 0 00-1.319-.352l.04 2zm.277.083l.314.174.972-1.748-.314-.174-.972 1.748zm1.262-1.587a2.861 2.861 0 00-1.204-.321l-.083 1.998c.127.005.25.038.363.097l.924-1.774z" fill="#036063" mask="url(#path-82-inside-19_129_50370)"/><mask id="path-84-inside-20_129_50370" fill="#fff"><path d="M97.954 93.884l-.313-.174a2.108 2.108 0 01-.888-1.952 6.296 6.296 0 01.975-3.172l.313.192a6.243 6.243 0 00-.975 3.154 2.094 2.094 0 00.888 1.952z"/></mask><path d="M97.954 93.884l-.313-.174a2.108 2.108 0 01-.888-1.952 6.296 6.296 0 01.975-3.172l.313.192a6.243 6.243 0 00-.975 3.154 2.094 2.094 0 00.888 1.952z" fill="#fff"/><path d="M97.64 93.71l-.573.82.043.029.045.025.486-.874zm-.887-1.952l.994.106.004-.037.001-.038-1-.031zm.975-3.172l.522-.853-.84-.514-.527.832.845.535zm.313.192l.844.537.547-.859-.869-.531-.522.853zm-.975 3.154l.994.11.004-.038.002-.04-1-.032zm1.374 1.078l-.313-.174-.972 1.748.313.174.972-1.748zm-.226-.12a1.108 1.108 0 01-.373-.449l-1.82.828c.23.506.591.941 1.046 1.26l1.147-1.639zm-.373-.449a1.111 1.111 0 01-.094-.577l-1.989-.212a3.11 3.11 0 00.262 1.617l1.82-.828zm-.089-.652c.03-.947.314-1.868.82-2.668l-1.689-1.07a7.296 7.296 0 00-1.13 3.675l2 .063zm-.546-2.35l.313.192 1.044-1.706-.313-.192-1.044 1.706zm-.008-1.199a7.243 7.243 0 00-1.131 3.66l1.999.064a5.24 5.24 0 01.819-2.649l-1.687-1.075zm-1.126 3.581a3.093 3.093 0 00.259 1.624l1.82-.828a1.093 1.093 0 01-.09-.574l-1.989-.222zm.259 1.624a3.09 3.09 0 001.054 1.261l1.138-1.644a1.091 1.091 0 01-.372-.445l-1.82.828z" fill="#036063" mask="url(#path-84-inside-20_129_50370)"/><mask id="path-86-inside-21_129_50370" fill="#fff"><path d="M98.042 88.777l-.314-.192a6.218 6.218 0 012.055-2.09l.313.173a6.272 6.272 0 00-2.054 2.11z"/></mask><path d="M98.042 88.777l-.314-.192a6.218 6.218 0 012.055-2.09l.313.173a6.272 6.272 0 00-2.054 2.11z" fill="#fff"/><path d="M97.728 88.585l-.858-.512-.508.85.845.516.521-.853zm2.055-2.09l.486-.875-.515-.286-.5.31.529.85zm.313.173l.533.847 1.43-.9-1.477-.82-.486.873zm-1.532 1.256l-.314-.192-1.043 1.707.313.191 1.044-1.706zm.023 1.174a5.217 5.217 0 011.724-1.755l-1.056-1.698a7.218 7.218 0 00-2.385 2.428l1.717 1.025zm.71-1.73l.313.174.972-1.748-.313-.174-.972 1.748zm.267-1.546a7.271 7.271 0 00-2.382 2.445l1.72 1.02a5.269 5.269 0 011.727-1.772l-1.065-1.693z" fill="#036063" mask="url(#path-86-inside-21_129_50370)"/><path d="M98.396 89.174a6.243 6.243 0 011.958-2.077c.78-.425 1.338-.4 1.669-.21.328.19.617.65.62 1.51a6.138 6.138 0 01-2.788 4.814c-.78.433-1.337.407-1.667.216-.329-.191-.618-.655-.622-1.516a6.25 6.25 0 01.83-2.737z" fill="#fff" stroke="#036063"/><mask id="path-89-inside-22_129_50370" fill="#fff"><path d="M102.901 90.242l.853-.489V88.69l-.853.506v1.046z"/></mask><path d="M102.901 90.242l.853-.489V88.69l-.853.506v1.046z" fill="#fff"/><path d="M102.901 90.242h-1v1.724l1.496-.856-.496-.868zm.853-.489l.497.869.503-.288v-.58h-1zm0-1.063h1v-1.754l-1.51.894.51.86zm-.853.506l-.51-.86-.49.29v.57h1zm.496 1.913l.854-.487-.993-1.737-.854.489.993 1.736zm1.357-1.355V88.69h-2v1.064h2zm-1.51-1.924l-.853.505 1.02 1.721.853-.505-1.02-1.72zm-1.343 1.366v1.046h2v-1.046h-2z" fill="#036063" mask="url(#path-89-inside-22_129_50370)"/><mask id="path-91-inside-23_129_50370" fill="#fff"><path d="M102.901 89.196l.853-.505L100.829 87l-.853.505 2.925 1.69z"/></mask><path d="M102.901 89.196l.853-.505L100.829 87l-.853.505 2.925 1.69z" fill="#fff"/><path d="M102.901 89.196l-.501.866.507.293.503-.299-.509-.86zm.853-.505l.509.86 1.471-.871-1.48-.855-.5.865zM100.829 87l.5-.866-.507-.293-.503.299.51.86zm-.853.505l-.51-.86-1.47.871 1.48.855.5-.866zm3.434 2.551l.853-.505-1.019-1.72-.853.505 1.019 1.72zm.844-2.231l-2.925-1.69-1.001 1.73 2.925 1.691 1.001-1.731zm-3.935-1.685l-.853.505 1.019 1.72.853-.505-1.019-1.72zm-.844 2.231l2.925 1.69 1.001-1.73-2.925-1.691-1 1.731z" fill="#036063" mask="url(#path-91-inside-23_129_50370)"/><mask id="path-93-inside-24_129_50370" fill="#fff"><path d="M99.976 87.506v1.063l2.925 1.673v-1.046l-2.925-1.69z"/></mask><path d="M99.976 87.506v1.063l2.925 1.673v-1.046l-2.925-1.69z" fill="#fff"/><path d="M99.976 87.506l.5-.866-1.5-.867v1.733h1zm0 1.063h-1v.58l.503.288.497-.868zm2.925 1.673l-.497.868 1.497.856v-1.724h-1zm0-1.046h1v-.577l-.5-.288-.5.865zm-3.925-1.69v1.063h2v-1.063h-2zm.503 1.931l2.925 1.673.993-1.736-2.925-1.673-.993 1.736zm4.422.805v-1.046h-2v1.046h2zm-.5-1.911l-2.925-1.69-1 1.73 2.924 1.691 1.001-1.731z" fill="#036063" mask="url(#path-93-inside-24_129_50370)"/><mask id="path-95-inside-25_129_50370" fill="#fff"><path d="M100.409 93.953l.853-.488v-1.063l-.853.506v1.045z"/></mask><path d="M100.409 93.953l.853-.488v-1.063l-.853.506v1.045z" fill="#fff"/><path d="M100.409 93.953h-1v1.724l1.496-.856-.496-.868zm.853-.488l.496.868.504-.287v-.58h-1zm0-1.063h1v-1.754l-1.51.894.51.86zm-.853.506l-.51-.86-.49.29v.57h1zm.496 1.913l.853-.487-.993-1.737-.853.488.993 1.737zm1.357-1.356v-1.063h-2v1.063h2zm-1.51-1.923l-.853.505 1.019 1.721.854-.505-1.02-1.721zm-1.343 1.366v1.045h2v-1.045h-2z" fill="#036063" mask="url(#path-95-inside-25_129_50370)"/><mask id="path-97-inside-26_129_50370" fill="#fff"><path d="M100.409 92.908l.853-.506-2.925-1.69-.853.505 2.925 1.69z"/></mask><path d="M100.409 92.908l.853-.506-2.925-1.69-.853.505 2.925 1.69z" fill="#fff"/><path d="M100.409 92.908l-.5.866.506.292.503-.298-.509-.86zm.853-.506l.51.86 1.47-.87-1.48-.855-.5.865zm-2.925-1.69l.5-.866-.507-.293-.503.299.51.86zm-.853.505l-.51-.86-1.47.871 1.48.855.5-.866zm3.434 2.551l.854-.505-1.02-1.721-.853.505 1.019 1.721zm.844-2.231l-2.925-1.69-1 1.73 2.924 1.691 1.001-1.731zm-3.935-1.685l-.853.505 1.02 1.72.853-.505-1.02-1.72zm-.844 2.231l2.925 1.69 1.001-1.731-2.925-1.69-1 1.731z" fill="#036063" mask="url(#path-97-inside-26_129_50370)"/><mask id="path-99-inside-27_129_50370" fill="#fff"><path d="M97.484 91.218v1.045l2.925 1.69v-1.045l-2.925-1.69z"/></mask><path d="M97.484 91.218v1.045l2.925 1.69v-1.045l-2.925-1.69z" fill="#fff"/><path d="M97.484 91.218l.5-.866-1.5-.867v1.733h1zm0 1.045h-1v.578l.5.288.5-.866zm2.925 1.69l-.5.867 1.5.867v-1.733h-1zm0-1.045h1v-.577l-.5-.288-.5.865zm-3.925-1.69v1.045h2v-1.045h-2zm.5 1.911l2.924 1.69 1.001-1.73-2.925-1.691-1 1.731zm4.425.825v-1.046h-2v1.046h2zm-.5-1.911l-2.925-1.691-1 1.732 2.924 1.69 1.001-1.731z" fill="#036063" mask="url(#path-99-inside-27_129_50370)"/><mask id="path-101-inside-28_129_50370" fill="#fff"><path d="M103.335 93.065l.853-.506v-1.045l-.853.488v1.063z"/></mask><path d="M103.335 93.065l.853-.506v-1.045l-.853.488v1.063z" fill="#fff"/><path d="M103.335 93.065h-1v1.755l1.509-.895-.509-.86zm.853-.506l.51.86.49-.29v-.57h-1zm0-1.045h1V89.79l-1.497.856.497.868zm-.853.488l-.497-.868-.503.288v.58h1zm.509 1.923l.854-.505-1.02-1.721-.853.505 1.019 1.721zm1.344-1.366v-1.045h-2v1.045h2zm-1.497-1.913l-.853.488.993 1.736.853-.488-.993-1.736zm-1.356 1.356v1.063h2v-1.063h-2z" fill="#036063" mask="url(#path-101-inside-28_129_50370)"/><mask id="path-103-inside-29_129_50370" fill="#fff"><path d="M103.335 92.001l.854-.488-2.316-1.394-.853.488 2.315 1.394z"/></mask><path d="M103.335 92.001l.854-.488-2.316-1.394-.853.488 2.315 1.394z" fill="#fff"/><path d="M103.335 92.001l-.515.857.502.303.51-.292-.497-.868zm.854-.488l.496.868 1.479-.846-1.46-.878-.515.856zm-2.316-1.394l.516-.857-.503-.302-.51.291.497.868zm-.853.488l-.497-.868-1.479.846 1.46.879.516-.857zm2.812 2.262l.853-.488-.993-1.736-.853.488.993 1.736zm.872-2.212l-2.315-1.395-1.032 1.714 2.316 1.394 1.031-1.713zm-3.328-1.406l-.853.488.993 1.736.853-.488-.993-1.736zm-.872 2.213l2.316 1.394 1.031-1.713-2.315-1.395-1.032 1.714z" fill="#036063" mask="url(#path-103-inside-29_129_50370)"/><mask id="path-105-inside-30_129_50370" fill="#fff"><path d="M101.02 90.607v1.064l2.315 1.394v-1.063l-2.315-1.395z"/></mask><path d="M101.02 90.607v1.064l2.315 1.394v-1.063l-2.315-1.395z" fill="#fff"/><path d="M101.02 90.607l.516-.856-1.516-.913v1.77h1zm0 1.064h-1v.565l.484.291.516-.856zm2.315 1.394l-.515.856 1.515.913v-1.77h-1zm0-1.063h1v-.566l-.484-.291-.516.857zm-3.315-1.395v1.064h2v-1.064h-2zm.484 1.92l2.316 1.394 1.031-1.713-2.315-1.394-1.032 1.713zm3.831.538v-1.063h-2v1.063h2zm-.484-1.92l-2.315-1.394-1.032 1.713 2.316 1.394 1.031-1.713z" fill="#036063" mask="url(#path-105-inside-30_129_50370)"/><path d="M51.638 41.746a4.106 4.106 0 01-.542-1.848c.002-.57.197-.832.367-.93.17-.097.498-.134.995.148a4.185 4.185 0 011.868 3.26c-.01.557-.206.818-.378.916-.172.098-.496.133-.984-.149a4.1 4.1 0 01-1.326-1.397zm11.815 34.99a4.19 4.19 0 01-.552-1.845c.003-.553.198-.813.371-.91.175-.1.505-.133.991.147a4.151 4.151 0 011.87 3.23c-.004.564-.2.828-.373.927-.175.1-.503.134-.989-.146a4.185 4.185 0 01-1.318-1.403zm-36.8-38.11h.05a.093.093 0 00.076-.043l.002-.004.008-.014.01-.013a.442.442 0 00-.018.027l-.005.01m-.123.037l.123-.037m-.123.037l-.043.01m.043-.01l-.043.01m.166-.047a.052.052 0 00-.002.005l.002-.005zm-.166.046a.092.092 0 01-.036-.07c0-.013.003-.026.007-.038l-.464-.186m.493.294L51.764 12.2c-14.8 0-25.211 25.08-25.647 26.142m0 0l.463.19c.213-.52 2.908-7.014 7.383-13.371 2.238-3.18 4.907-6.304 7.917-8.63 3.01-2.326 6.33-3.83 9.884-3.83h.013l.014-.001a5.066 5.066 0 014.103 1.743c1.349 1.59 1.75 4.234 1.669 7.174-.082 2.913-.632 5.974-1.05 8.288h0l-.088.482c-.187 1.027-.354 1.945-.389 2.54m-29.919 5.415l29.92-5.415m0 0a.127.127 0 01-.106.104.11.11 0 01-.081-.113v-.031c0-.3.054-.698.145-1.216.048-.268.099-.534.153-.822.057-.294.117-.611.182-.976m-.294 3.054l-4.288-20.042m4.582 16.988v.002l-.492-.09.492.088zm0 0c.4-2.2.938-5.183 1.044-8.012.053-1.416-.001-2.81-.242-4.061-.24-1.248-.671-2.386-1.398-3.254h0l-.008-.01a4.89 4.89 0 00-3.978-1.65m0 0h.016v.5l-.033-.5h.017z" fill="#fff" stroke="#036063"/><path d="M24.91 35.819l.028.002a.057.057 0 00.036-.009l.025-.016.027-.013a7.793 7.793 0 003.663-3.75 7.804 7.804 0 00.46-5.225l-.003-.011-.003-.012c-.483-2.287.351-4.631 1.747-6.729 1.4-2.104 3.41-4.026 5.41-5.505 2.416-1.79 5.008-3.112 7.319-3.823 1.156-.356 2.253-.563 3.231-.593.974-.03 1.862.112 2.57.49l.018.01.016.01a3.793 3.793 0 011.674 3.973c-.276 5.142.82 7.8 2.264 9.254 1.462 1.471 3.375 1.817 5.036 2.108.564.095 1.069.186 1.5.297.428.11.819.252 1.14.466.334.223.582.52.724.917.136.381.16.82.114 1.317l-.498-.047M24.91 35.819l33.558-10.021c1.093.188 2.06.364 2.737.809.321.211.565.478.72.837.157.364.237.857.17 1.541h0l-.001.006a.095.095 0 01-.034.064l.322.383-.322-.383a.094.094 0 01-.132-.012.095.095 0 01-.022-.07l-.498-.043M24.91 35.819h-.028a.092.092 0 01-.082-.045.11.11 0 01.06-.132h0l.009-.005a7.469 7.469 0 003.962-8.776c-.73-3.745 1.85-8.393 7.28-12.413h0c2.116-1.57 4.68-2.987 7.13-3.789 2.464-.807 4.7-.953 6.258-.15a3.89 3.89 0 011.823 4.024l-.005.03-.002.03c-.264 4.768.606 7.47 2.088 9.04 1.46 1.548 3.425 1.884 5.023 2.157l.042.008-33.558 10.02zm36.498-6.89a.596.596 0 00.136.435l-3.202-2.892h.002c2.263.384 3.238.628 3.064 2.458zM23.493 37.53l.224 103.391-8.627-5.028-.224-103.375 8.627 5.013z" fill="#fff" stroke="#036063"/><path d="M23.987 36.661l-8.646-5.024 4.218-2.578 8.66 5.038-4.232 2.564zm.507.864l4.207-2.55.224 103.366-4.207 2.563-.224-103.38zm32.128-4.803l.027.013.028.01a.076.076 0 010 .142l-.028.01-.027.014a1.535 1.535 0 01-1.392 0l-.027-.014-.029-.01a.075.075 0 010-.142l.029-.01.026-.013a1.536 1.536 0 011.393 0zm6.32-3.433l.026.013.027.01a.075.075 0 01.036.027l.403-.281-.403.282a.075.075 0 010 .086l.41.286-.41-.286a.074.074 0 01-.036.027l-.027.01-.026.014a1.57 1.57 0 01-1.413 0l-.026-.014-.028-.01a.074.074 0 01-.049-.07.075.075 0 01.05-.07l.027-.01.026-.014a1.57 1.57 0 011.413 0zM11.497 131.136l.032 12.767-10.995-6.389-.032-12.767 10.995 6.389zm3.131-13.618l-2.963 12.559-11.093-6.446 2.963-12.559 11.093 6.446zm.572-.824l-10.999-6.392 4.138-2.386 10.999 6.391-4.137 2.387zm4.638-1.521l.016 10.848v.001l.051 13.635-7.376 4.251-.032-13.003 3.14-13.309 4.2-2.423z" fill="#fff" stroke="#036063"/><path d="M13.161 120.947l-9.943-5.736.737-3.162 9.942 5.782-.736 3.116zm-1.497 9.13L.572 123.631l1.675-7.088 11.093 6.414-1.676 7.12z" fill="#fff" stroke="#036063"/><path d="M11.04 128.98l-.977-.571.381-1.57.978.562-.381 1.579zm-5.915-6.049l-.966-.569.382-1.571.976.561-.392 1.579zm2.365 1.413l-.979-.571.382-1.57.978.562-.381 1.579zm.45 2.98l-1.43-.834.106-.447 1.43.833-.106.448z" fill="#fff" stroke="#036063"/><mask id="path-126-inside-31_129_50370" fill="#fff"><path d="M11.318 122.814l.191-.872 1.376.802-.21.854-1.357-.784z"/></mask><path d="M11.318 122.814l.191-.872 1.376.802-.21.854-1.357-.784z" fill="#fff"/><path d="M11.318 122.814l-.977-.215-.157.715.634.366.5-.866zm.191-.872l.504-.864-1.186-.691-.294 1.341.976.214zm1.376.802l.971.238.178-.726-.646-.376-.503.864zm-.21.854l-.5.866 1.155.667.317-1.295-.971-.238zm-.38-.57l.19-.871-1.952-.429-.192.871 1.953.429zm-1.29-.222l1.376.802 1.007-1.728-1.375-.802-1.007 1.728zm.908-.3l-.209.854 1.943.476.209-.854-1.943-.476zm1.263.226l-1.358-.784-1 1.732 1.358.784 1-1.732z" fill="#036063" mask="url(#path-126-inside-31_129_50370)"/><path d="M5.17 125.754l-1.428-.832.107-.451 1.43.822-.109.461z" fill="#036063" stroke="#036063"/><path d="M2.49 124.187l-1.43-.834.107-.447 1.43.833-.107.448z" fill="#fff" stroke="#036063"/><mask id="path-130-inside-32_129_50370" fill="#fff"><path d="M1.986 117.725l.191-.871 6.547 3.746-.192.872-6.546-3.747z"/></mask><path d="M1.986 117.725l.191-.871 6.547 3.746-.192.872-6.546-3.747z" fill="#fff"/><path d="M1.986 117.725l-.977-.215-.158.718.638.365.497-.868zm.191-.871l.497-.868-1.181-.676-.292 1.329.976.215zm6.547 3.746l.977.215.157-.717-.637-.365-.497.867zm-.192.872l-.496.868 1.18.676.293-1.329-.977-.215zm-5.57-3.532l.192-.872-1.953-.429-.192.871 1.954.43zm-1.281-.219l6.546 3.747.994-1.735-6.547-3.747-.993 1.735zm6.066 2.665l-.191.871 1.953.43.192-.872-1.954-.429zm1.282.218l-6.546-3.747-.994 1.736 6.547 3.747.993-1.736z" fill="#036063" mask="url(#path-130-inside-32_129_50370)"/><path d="M3.034 120.203l-.007.015-.006.014a.668.668 0 01-.84.369.67.67 0 01-.255-.874l.01-.018.007-.018a.666.666 0 01.836-.38.686.686 0 01.255.892zm8.613 5.174l.196.46-.196-.46a.663.663 0 01-.497.01.613.613 0 01-.348-.563.618.618 0 01.721-.598.62.62 0 01.49.46.617.617 0 01-.014.339.667.667 0 01-.352.352zm-1.681 38.21l.033 19.714-.74-.438-.033-19.706.74.43zm.502-.864l-.739-.429.716-.405.739.429-.716.405zm.498.867l.725-.41.032 19.716-.724.417-.033-19.723zm24.227-15.496l.033 19.704-.74-.43-.033-19.704.74.43zm.499-.866l-.745-.433.711-.415.746.433-.712.415zm.501.865l.708-.412.032 19.72-.707.405-.033-19.713zm18.814-11.137l.016 19.722-.74-.43-.017-19.722.741.43zm.502-.865l-.742-.43.703-.402.742.43-.703.402zm.498.867l.708-.404.032 19.711-.724.417-.016-19.724zm20.033-11.73l.033 19.703-.74-.429-.033-19.704.74.43zm.5-.867l-.747-.433.712-.414.746.433-.712.414zm.5.866l.707-.412.033 19.705-.707.412-.033-19.705zm18.256-11.031l.033 19.714-.74-.437-.033-19.706.74.429zm.504-.864l-.744-.431.705-.403.75.431-.712.403zm.497.868l.724-.41.016 19.716-.708.412-.032-19.718zm17.942-11.402l.033 19.704-.74-.43-.033-19.704.74.43zm.501-.866l-.744-.431.725-.418.743.432-.724.417zm.499.867l.724-.418.017 19.724-.708.405-.033-19.711z" fill="#fff" stroke="#036063"/><path d="M3.852 166.915v1.597l-1.577-.917v-1.597l1.577.917z" fill="#036063" stroke="#036063"/><path d="M4.352 166.05l-1.582-.92 117.26-68.018 1.587.934L4.352 166.05z" fill="#fff" stroke="#036063"/><path d="M4.852 166.916L122.11 98.918v1.597L4.852 168.514v-1.598z" fill="#036063" stroke="#036063"/><mask id="path-155-inside-33_129_50370" fill="#fff"><path d="M9.769 131.911a.59.59 0 00-.522 0l-8.323 4.497a.646.646 0 01.54 0h.14l8.304-4.497h-.14z"/></mask><path d="M9.769 131.911a.59.59 0 00-.522 0l-8.323 4.497a.646.646 0 01.54 0h.14l8.304-4.497h-.14z" fill="#fff"/><path d="M9.769 131.911l-.442.898.21.102h.232v-1zm-.261-.06v1-1zm-.261.06l-.442-.897-.017.009-.017.009.476.879zm-8.323 4.497l-.475-.88.894 1.788-.419-.908zm.54 0l-.42.908.2.092h.22v-1zm.14 0v1h.252l.223-.121-.476-.879zm8.304-4.497l.476.88-.476-1.88v1zm.303-.897a1.599 1.599 0 00-.703-.163v2a.416.416 0 01-.18-.042l.883-1.795zm-.703-.163a1.6 1.6 0 00-.703.163l.883 1.795a.416.416 0 01-.18.042v-2zm-.737.181L.45 135.528l.95 1.76 8.323-4.497-.95-1.759zm-7.428 6.284a.365.365 0 01-.149.032v-2a1.64 1.64 0 00-.69.152l.84 1.816zm-.149.032a.365.365 0 01-.15-.032l.84-1.816a1.64 1.64 0 00-.69-.152v2zm.27.06h.14v-2h-.14v2zm.615-.121l8.305-4.496-.952-1.759-8.305 4.496.952 1.759zm7.83-6.376h-.14v2h.14v-2z" fill="#036063" mask="url(#path-155-inside-33_129_50370)"/><path d="M10.232 133.06l-7.441 4.005a2.5 2.5 0 00-.318-.49l7.397-4.004a1.493 1.493 0 01.362.489z" fill="#fff" stroke="#036063"/><mask id="path-158-inside-34_129_50370" fill="#fff"><path d="M2.507 137.785l8.322-4.479a.993.993 0 010 .226.629.629 0 01-.278.575l-8.288 4.479a.595.595 0 00.279-.575 1.197 1.197 0 000-.226h-.035z"/></mask><path d="M2.507 137.785l8.322-4.479a.993.993 0 010 .226.629.629 0 01-.278.575l-8.288 4.479a.595.595 0 00.279-.575 1.197 1.197 0 000-.226h-.035z" fill="#fff"/><path d="M2.507 137.785l-.474-.881.474 1.881v-1zm8.322-4.479l.994-.114-.168-1.466-1.3.699.474.881zm0 .226l-.993-.114-.011.099.008.098.996-.083zm-.278.575l.475.88.04-.021.037-.025-.552-.834zm-8.288 4.479l-.523-.852.999 1.732-.476-.88zm.279-.575l-.996-.094-.01.106.013.106.993-.118zm0-.226l.995-.095-.085-.905h-.91v1zm.439.88l8.322-4.479-.947-1.761-8.323 4.479.948 1.761zm6.855-5.245v-.002l1.987.228a1.992 1.992 0 000-.454l-1.987.228zm-.003.195a.373.373 0 01.036-.193l1.8.872a1.63 1.63 0 00.157-.845l-1.993.166zm.036-.193a.373.373 0 01.13-.148l1.104 1.667c.244-.161.439-.385.566-.647l-1.8-.872zm.206-.194l-8.287 4.479.95 1.759 8.288-4.479-.95-1.759zm-7.289 6.211c.26-.159.468-.39.6-.664l-1.8-.871a.41.41 0 01.154-.17l1.046 1.705zm.6-.664a1.59 1.59 0 00.149-.882l-1.986.236a.406.406 0 01.038-.225l1.8.871zm.151-.67a2.206 2.206 0 000-.415l-1.99.189a.2.2 0 010 .038l1.99.188zm-.995-1.32h-.035v2h.035v-2z" fill="#036063" mask="url(#path-158-inside-34_129_50370)"/><path d="M1.352 136.91a1.434 1.434 0 01.69 1.117.302.302 0 01-.022.124v.001c-.021.002-.08.002-.187-.053a1.463 1.463 0 01-.688-1.131.28.28 0 01.022-.115l.001-.002c.021-.002.079 0 .184.059zm-.192-.057h-.001s0 0 0 0zm135.913-26.631h0v-.497l.357-.174a14.066 14.066 0 01-.532 3.676l-.244.14c.261-1.027.402-2.082.419-3.145zM36.112 176.279l-21.011-12.212 92.082-53.223 21.012 12.23-92.083 53.205z" fill="#fff" stroke="#036063"/><path d="M129.388 123.578l.012-.007.012-.007a16.99 16.99 0 006.808-8.791l.296-.165a19.053 19.053 0 01-7.587 9.627l-93.051 53.793-.014.008-.014.009a6.465 6.465 0 01-3.752 1.092l.995-.764a7.46 7.46 0 003.274-1.086l93.021-53.709z" fill="#fff" stroke="#036063"/><path d="M108.848 109.739l21.075 12.317c-.224.164-.455.319-.692.465l-21.09-12.259c.241-.166.477-.34.707-.523zm21.901 11.642l-21.1-12.332a16.585 16.585 0 001.699-1.826l21.142 12.289a15.092 15.092 0 01-1.741 1.869zm4.891-7.862a17.307 17.307 0 01-2.504 5.212l-21.183-12.312a18.09 18.09 0 002.57-5.275l21.117 12.375zm.466-3.262c-.006.754-.08 1.506-.223 2.245l-21.096-12.362c.153-.693.251-1.397.291-2.105l21.028 12.222zm-.331-2.251a7.1 7.1 0 01.248 1.046l-20.935-12.17a8.16 8.16 0 00-.119-.986l20.806 12.11zm-1.601-2.138c.135.083.264.175.385.274l-19.967-11.621-.021-.056 19.603 11.403zM13.451 164.972l20.93 12.182a4.412 4.412 0 01-3.329-.215L11.49 165.553a5.378 5.378 0 001.961-.581z" fill="#fff" stroke="#036063"/><mask id="path-171-inside-35_129_50370" fill="#fff"><path d="M35.466 177.206l-22.008-12.809.645-.332 22.007 12.792c-.205.134-.42.25-.644.349z"/></mask><path d="M35.466 177.206l-22.008-12.809.645-.332 22.007 12.792c-.205.134-.42.25-.644.349z" fill="#fff"/><path d="M13.459 164.397l-.458-.89-1.624.835 1.579.919.503-.864zm.644-.332l.502-.864-.473-.275-.486.25.457.889zm22.007 12.792l.545.839 1.364-.886-1.406-.817-.503.864zm-.14-.515l-22.008-12.81-1.006 1.729 22.007 12.809 1.006-1.728zm-22.054-11.056l.644-.331-.914-1.779-.645.331.915 1.779zm-.316-.356l22.008 12.792 1.005-1.729-22.008-12.792-1.005 1.729zm21.966 11.089c-.16.104-.33.195-.504.272l.808 1.83a5.67 5.67 0 00.785-.425l-1.09-1.677z" fill="#036063" mask="url(#path-171-inside-35_129_50370)"/><path d="M27.343 176.779c.044.116.09.23.141.342L8.092 165.85a4.386 4.386 0 01-1.002-.843l20.253 11.772zm-3.549-24.996l.008-.004.008-.005a4.412 4.412 0 014.176-.164l11.512 6.661a5.45 5.45 0 00-2.237.721l-.632.324-.014.008-.013.008c-.592.353-1.155.753-1.684 1.196l-.001.001a15.875 15.875 0 00-2.497 2.643 17.776 17.776 0 00-3.08 6.362 12.51 12.51 0 00-.416 3.078c-.01.1-.01.2 0 .3a7.779 7.779 0 00.513 2.71l-11.54-6.685a3.786 3.786 0 01-1.528-1.964h0l-.002-.005a6.656 6.656 0 01-.372-2.154v-.246c-.007-.967.116-1.931.366-2.866v-.002a17.144 17.144 0 012.91-5.994h0l.002-.003a15.08 15.08 0 012.343-2.497c.48-.405.994-.765 1.539-1.077l.639-.346z" fill="#fff" stroke="#036063"/><path d="M31.988 165.564a15.977 15.977 0 015.08-5.377c1.958-1.126 3.623-1.174 4.768-.523 1.144.651 1.945 2.099 1.956 4.354a15.942 15.942 0 01-7.196 12.466c-1.968 1.135-3.632 1.182-4.775.53-1.141-.652-1.938-2.105-1.95-4.361a15.998 15.998 0 012.117-7.089zm84.094-66.878l.013-.007.012-.008a4.409 4.409 0 014.175-.164l11.489 6.736a5.413 5.413 0 00-2.232.717l-.652.343-.007.004-.008.005c-.599.342-1.166.739-1.694 1.184l-.002.003a16.74 16.74 0 00-2.494 2.658 18.077 18.077 0 00-3.08 6.362h0a12.46 12.46 0 00-.399 3.105v.245h0v.006a7.64 7.64 0 00.445 2.473c.028.087.059.174.092.26l-11.55-6.706a3.574 3.574 0 01-1.522-1.939h0l-.003-.008a7.253 7.253 0 01-.391-2.179v-.237c.004-.992.127-1.981.368-2.944a17.103 17.103 0 012.926-6.008h0l.003-.005a14.24 14.24 0 012.338-2.475l.002-.001a12.05 12.05 0 011.54-1.097l.631-.323z" fill="#fff" stroke="#036063"/><path d="M124.28 112.426a15.854 15.854 0 015.068-5.342c1.967-1.135 3.632-1.182 4.774-.53 1.142.652 1.939 2.105 1.951 4.361a15.896 15.896 0 01-7.196 12.396c-1.959 1.126-3.619 1.175-4.76.524-1.139-.65-1.936-2.099-1.948-4.354a15.87 15.87 0 012.111-7.055z" fill="#fff" stroke="#036063"/><path d="M36.06 157.579l-21.013-12.23 92.083-53.206 21.011 12.213-92.082 53.223z" fill="#036063" stroke="#036063"/><path d="M27.526 169.179L6.293 156.82a20.577 20.577 0 013.04-6.404l21.278 12.29a21.423 21.423 0 00-3.085 6.473zm5.819-9.595a19.009 19.009 0 00-2.136 2.312l-21.2-12.283a17.219 17.219 0 012.23-2.296l21.106 12.267zm.781-.673l-21.06-12.271a12.09 12.09 0 011.04-.712l21.036 12.244c-.35.231-.688.478-1.016.739zm-7.384 15.068c.024.469.082.935.174 1.395L6.159 163.309a8.762 8.762 0 01-.352-1.498l20.935 12.168zm.369-3.812a15.318 15.318 0 00-.362 2.641L5.724 160.606v-.005c.01-.913.107-1.821.289-2.714l21.098 12.28zm2.259 7.931a4.09 4.09 0 01-.857-1.152l.7-.402a4.255 4.255 0 002.407 1.717l-.893.686a4.105 4.105 0 01-1.357-.849zm103.188-75.437a6.325 6.325 0 00-2.896.859l-.511.267-20.987-12.199a5.331 5.331 0 015.017-.19l19.377 11.263z" fill="#fff" stroke="#036063"/><path d="M136.981 108.7c-.319-1.842-1.229-3.198-2.598-3.846-1.528-.724-3.475-.49-5.494.675l-93.08 53.712-.012.007-.011.008a16.962 16.962 0 00-7.643 13.252h0v.012a7.32 7.32 0 00.599 3.141l-.597.344a8.049 8.049 0 01-.378-2.58 18.877 18.877 0 018.554-14.841l93.068-53.793c2.255-1.3 4.197-1.413 5.577-.714 1.31.664 2.261 2.136 2.476 4.404l-.461.219zM32.356 174.427l.033 19.704-.74-.43-.033-19.704.74.43z" fill="#fff" stroke="#036063"/><path d="M32.855 173.561l-.746-.433.712-.415.746.433-.712.415zm.501.865l.707-.412.033 19.72-.707.405-.033-19.713zm24.228-15.495l.033 19.706-.74-.429-.033-19.714.74.437zm.501-.865l-.748-.442.71-.405.748.434-.71.413zm.499.867l.707-.412.033 19.705-.707.412-.033-19.705zm18.797-11.136l.033 19.704-.74-.43-.033-19.704.74.43zm.499-.866l-.746-.433.712-.415.746.433-.712.415zm.501.865l.707-.412.033 19.72-.707.405-.033-19.713zm20.032-11.745l.033 19.721-.74-.43-.033-19.721.74.43zm.501-.865l-.748-.434.71-.414.748.442-.71.406zm.499.867l.707-.405.033 19.713-.707.412-.033-19.72zm18.273-11.017l.033 19.704-.74-.43-.033-19.703.74.429zm.499-.866l-.746-.433.712-.415.746.434-.712.414zm.501.865l.708-.411.032 19.72-.707.404-.033-19.713zm17.946-11.414l.033 19.721-.741-.429-.032-19.721.74.429zm.501-.865l-.741-.43.703-.402.741.43-.703.402zm.499.867l.707-.404.033 19.712-.707.412-.033-19.72z" fill="#fff" stroke="#036063"/><path d="M26.244 177.756v1.596l-1.578-.918-.01-1.596 1.588.918z" fill="#036063" stroke="#036063"/><path d="M26.744 176.89l-1.596-.922 117.258-68.017 1.582.92L26.744 176.89z" fill="#fff" stroke="#036063"/><path d="M27.244 177.756l117.244-68.019.01 1.602-117.254 68.015v-1.598z" fill="#036063" stroke="#036063"/></g><defs><clipPath id="clip0_129_50370"><path fill="#fff" d="M0 0h145v195H0z"/></clipPath></defs></svg>