<svg width="214" height="195" fill="none" xmlns="http://www.w3.org/2000/svg"><g clip-path="url(#clip0_129_51210)"><path d="M26.33 162.44v3.498l-7.162-4.08v-3.498l7.162 4.08zm.498-.868l-7.157-4.076 118.397-68.717 7.133 4.076-118.373 68.717zm.506.865L145.706 93.72v3.493L27.334 165.93v-3.493zm60.125 28.206v3.496l-7.137-4.077v-3.474l7.137 4.055zm.497-.868l-7.13-4.051 118.37-68.716 7.133 4.075-118.373 68.692zm.503.865l118.372-68.692v3.467L88.459 194.133v-3.493z" fill="#fff" stroke="#036063"/><path d="M90.62 181.98v-25.434c.1.071.208.13.322.177a5.667 5.667 0 005.216-.005 1.83 1.83 0 00.26-.144v25.434a1.168 1.168 0 01-.684.953l-.01.005-.01.005a4.817 4.817 0 01-4.362 0l-.01-.005-.01-.005a1.22 1.22 0 01-.711-.981zm-1.057-26.645l-.058-.111a.166.166 0 01.21.05l-.096.069.095-.069a.169.169 0 01.032.097l-.13-.025-.014-.003-.014-.003-.025-.005zm0 0l-.058-.111a.166.166 0 00-.077.085l.135.026zm.828.162l-.03-.006-.117-.117-.079.079-.419-.082.001-.006v-.022 0-.001 0-.001 0-.001 0-.001 0-.001 0-.001 0-.001 0-.001 0-.001 0-.001 0-.001 0-.001 0-.001 0-.001 0-.001 0-.001 0-.001 0-.001 0-.001 0-.001 0-.001 0-.001 0-.002 0-.001 0-.001 0-.001 0-.001 0-.001 0-.001 0-.002 0-.001 0-.001 0-.001 0-.001 0-.002 0-.001 0-.001 0-.001 0-.002 0-.001 0-.001 0-.002 0-.001 0-.001 0-.002 0-.001 0-.001 0-.002 0-.001 0-.001 0-.002 0-.001 0-.002 0-.001 0-.001 0-.002 0-.001 0-.002 0-.001 0-.002 0-.001 0-.002 0-.001 0-.002 0-.001 0-.002 0-.001 0-.002 0-.001 0-.002 0-.001 0-.002 0-.001 0-.002 0-.001 0-.002 0-.001 0-.002 0-.001 0-.002 0-.001 0-.002 0-.001 0-.002 0-.001 0-.002 0-.001 0-.002 0-.001 0-.002 0-.001 0-.002 0-.001 0-.001 0-.002 0-.001 0-.002 0-.001 0-.002 0-.001 0-.001 0-.002 0-.001 0-.002 0-.001 0-.001 0-.002 0-.001 0-.001 0-.001 0-.002 0-.001 0-.001 0-.002 0-.001 0-.001 0-.001 0-.001 0-.002 0-.001 0-.001 0-.001 0-.001 0-.002 0-.001 0-.001 0-.001 0-.001 0-.001 0-.001 0-.001 0-.001 0-.001 0-.001 0-.001 0-.001 0-.001 0-.001 0-.001 0-.001 0-.001 0-.001 0-.001 0-.001 0-.001 0-.001 0-.001 0-.001 0-.001 0-.001 0-.001 0-.001 0-.001 0-.001 0-.001 0-.001 0-.001 0-.001 0-.001 0-.001 0-.001 0-.001 0-.001 0-.001 0-.001 0-.001 0-.001 0-.001 0-.001 0-.001 0-.001 0a1.168 1.168 0 01.684-.953l.01-.005.011-.005a4.806 4.806 0 014.362 0l.02.009.02.008a1.04 1.04 0 01.644 1.093l-.012.09.012.049-.012.05.008.067-.075.084a.847.847 0 01-.27.189l-.016.007-.015.008a4.665 4.665 0 01-4.326 0l-.025-.013-.026-.011a.607.607 0 01-.24-.169l-.012-.014-.013-.013-.085-.084v-.024zm-61.568-.847v-25.19c.097.069.2.13.307.183a5.821 5.821 0 005.491-.124v25.155a1.217 1.217 0 01-.692.961h0l-.007.003a4.966 4.966 0 01-4.374 0l-.007-.003-.007-.003a1.22 1.22 0 01-.71-.982zm-.496-26.725h-.178l.002-.013.003-.017.001-.017a1.166 1.166 0 01.704-.971l.015-.007.014-.007a4.818 4.818 0 014.362 0l.014.007.014.006a1.091 1.091 0 01.654 1.11l-.009.084.01.043-.004.018v.228l-.074.083a.848.848 0 01-.27.189l-.013.005-.013.007a4.818 4.818 0 01-4.362 0h0l-.007-.003a1.2 1.2 0 01-.297-.207l-.066-.074v-.464h-.5zm-.381.525v-.002.002zm117.392 22.373v-25.03l.058.027a5.811 5.811 0 005.248-.002c.194-.091.37-.217.518-.372v25.399a1.228 1.228 0 01-.71.96l-.009.004-.009.004a4.896 4.896 0 01-4.368 0l-.009-.004-.008-.004a1.214 1.214 0 01-.492-.406 1.203 1.203 0 01-.219-.576z" fill="#fff" stroke="#036063"/><path d="M144.324 124.47c.033.082.077.16.129.231v.128l.206.231" stroke="#036063"/><path d="M196.755 99.912l.113-.08v25.44a1.144 1.144 0 01-.68.949l-.012.005-.013.007a4.817 4.817 0 01-4.362 0l-.01-.005-.01-.005a1.222 1.222 0 01-.71-.982v-24.954a5.663 5.663 0 005.19-.032l.029-.015.027-.019.438-.309zm-6.283-1.072l-.661-.166.02-.05v-.096 0-.001 0-.001 0-.001 0-.001 0-.001 0-.001 0-.001 0-.001 0-.001 0-.001 0-.001 0-.001 0-.001 0-.001 0-.001 0-.001 0-.001 0-.001 0-.001 0-.001 0-.001 0-.001 0-.001 0-.001 0-.001 0-.002 0-.001 0-.001 0-.001 0-.001 0-.001 0-.002 0-.001 0-.001 0-.001 0-.002 0-.001 0-.001 0-.001 0-.002 0-.001 0-.001 0-.002 0-.001 0-.001 0-.002 0-.001 0-.001 0-.002 0-.001 0-.002 0-.001 0-.001 0-.002 0-.001 0-.002 0-.001 0-.002 0-.001 0-.001 0-.002 0-.001 0-.002 0-.001 0-.002 0-.001 0-.002 0-.001 0-.002 0-.001 0-.002 0-.001 0-.002 0-.001 0-.002 0-.001 0-.002 0-.002 0-.001 0-.002 0-.001 0-.002 0-.001 0-.002 0-.001 0-.002 0-.001 0-.001 0-.002 0-.001 0-.002 0-.001 0-.002 0-.001 0-.002 0-.001 0-.002 0-.001 0-.001 0-.002 0-.001 0-.001 0-.002 0-.001 0-.002 0-.001 0-.001 0-.002 0-.001 0-.001 0-.001 0-.002 0-.001 0-.001 0-.001 0-.002 0-.001 0-.001 0-.001 0-.002 0-.001 0-.001 0-.001 0-.001 0-.001 0-.001 0-.002 0-.001 0-.001 0-.001 0-.001 0-.001 0-.001 0-.001 0-.001 0-.001 0-.001 0-.001 0-.001 0-.001 0-.001 0-.001 0-.001 0-.001 0-.001 0-.001 0-.001 0-.001 0-.001 0-.001 0-.001 0-.001 0-.001 0-.001 0-.001 0-.001 0-.001 0-.001 0-.001 0-.001 0-.001 0-.001 0-.001 0-.001 0-.001 0-.001 0-.001 0-.001 0-.001a1.142 1.142 0 01.679-.927l.013-.006.013-.007a4.814 4.814 0 014.352-.005c.655.374.763.774.702 1.041l-.026.114.018.074-.02.082.029.11-.014.053v.018l-.206.14v.134l-.198.14a4.66 4.66 0 01-4.296-.014 1.649 1.649 0 01-.317-.22l-.09-.1a.552.552 0 01.002-.108zm-.678-.245c.01.025.014.052.011.078l-.121-.03-.024-.007-.017-.004-.132-.033a.147.147 0 01.082-.084.151.151 0 01.116-.002l-.006.015.006-.015c.01.004.02.01.029.015.024.017.044.04.056.067zM150.995 1.123C157.274-.45 165.009.81 173.454 5.51l-.959.655a47.07 47.07 0 00-7.795-3.53l-.011-.004-.011-.003c-.507-.15-.964-.232-1.385-.303l-.098-.016c-.383-.065-.73-.123-1.092-.22a31.96 31.96 0 00-4.958-1.171l-.032-.005h-.032a24.74 24.74 0 00-2.913.101 26.507 26.507 0 00-3.173.108zm60.817 82.89l.001-.006c.557-2.901.836-5.848.833-8.802.039-12.682-4.419-26.72-11.625-39.166-7.058-12.189-16.779-22.894-27.569-29.317l.968-.66c10.755 6.286 20.513 16.97 27.592 29.203 7.139 12.337 11.526 26.204 11.488 38.654v.001c-.018 8.679-2.145 15.435-5.769 20.095.077-.135.153-.27.228-.407a22.547 22.547 0 001.456-2.258l.014-.026.011-.027a32.302 32.302 0 001.593-4.87c.091-.317.2-.613.318-.93l.073-.198c.144-.39.29-.81.388-1.286z" fill="#fff" stroke="#036063"/><path d="M207.136 93.044l-.018.024-.015.026a25.947 25.947 0 01-2.122 3.193 20.392 20.392 0 01-1.98 1.602l-.02.014-.018.016c-6.993 6.079-17.841 6.61-30.322-.57-10.914-6.29-20.783-17.056-27.925-29.399-7.142-12.343-11.529-26.217-11.529-38.694.025-12.467 4.43-20.967 11.399-24.987a18.194 18.194 0 013.243-1.217l.037-.01.034-.016a21.56 21.56 0 012.478-.917 25.488 25.488 0 013.924-.196h.042a23.67 23.67 0 012.677-.002c1.598.23 3.176.584 4.718 1.059l.013.004.013.003c.418.104.809.17 1.169.23l.176.028c.412.07.792.142 1.192.27a46.05 46.05 0 017.966 3.683h.003c10.875 6.265 20.725 17.019 27.857 29.352 7.133 12.334 11.52 26.202 11.52 38.666v0a45.387 45.387 0 01-.814 8.61 7.92 7.92 0 01-.346 1.138 9.929 9.929 0 01-.069.186c-.119.32-.246.662-.348 1.026l-.003.01-.002.009a31.311 31.311 0 01-1.535 4.7 21.576 21.576 0 01-1.395 2.159z" fill="#fff" stroke="#036063"/><path d="M173.024 5.892a47.584 47.584 0 00-8.232-3.804l-.662 1.887a45.582 45.582 0 017.886 3.644l1.008-1.727zm-8.894-1.917a45.582 45.582 0 017.886 3.644l1.008-1.727a47.584 47.584 0 00-8.232-3.804l-.662 1.887z" fill="#036063" mask="url(#path-18-inside-1_129_51210)"/><path d="M154.21.517a26.986 26.986 0 00-4.198.213l.257 1.984a24.988 24.988 0 013.887-.198l.054-2zm-3.941 2.197a24.988 24.988 0 013.887-.198l.054-2a26.986 26.986 0 00-4.198.214l.257 1.984z" fill="#036063" mask="url(#path-20-inside-2_129_51210)"/><path d="M156.917 2.402c1.607.246 3.191.62 4.737 1.119l.614-1.904A32.453 32.453 0 00157.22.425l-.303 1.977zm5.351-.785A32.453 32.453 0 00157.22.425l-.303 1.977c1.607.246 3.191.62 4.737 1.119l.614-1.904z" fill="#036063" mask="url(#path-22-inside-3_129_51210)"/><path d="M144.657 4.817a17.703 17.703 0 013.193-1.288l-.565-1.919a19.707 19.707 0 00-3.553 1.434l.925 1.773zm2.628-3.207a19.707 19.707 0 00-3.553 1.434l.925 1.773a17.703 17.703 0 013.193-1.288l-.565-1.919z" fill="#036063" mask="url(#path-24-inside-4_129_51210)"/><path d="M208.11 90.614c-.415.738-.875 1.45-1.377 2.133l1.613 1.184a23.081 23.081 0 001.507-2.336l-1.743-.981zm.236 3.317a23.081 23.081 0 001.507-2.336l-1.743-.981c-.415.738-.875 1.45-1.377 2.133l1.613 1.184z" fill="#036063" mask="url(#path-26-inside-5_129_51210)"/><path d="M204.647 95.995a19.831 19.831 0 01-1.961 1.59l1.158 1.63a21.794 21.794 0 002.158-1.75l-1.355-1.47zm-.803 3.22a21.794 21.794 0 002.158-1.75l-1.355-1.47a19.831 19.831 0 01-1.961 1.59l1.158 1.63z" fill="#036063" mask="url(#path-28-inside-6_129_51210)"/><mask id="path-30-inside-7_129_51210" fill="#fff"><path d="M211.321 83.913c-.18.873-.54 1.567-.772 2.389.232-.822.592-1.541.772-2.389z"/></mask><path d="M211.321 83.913c-.18.873-.54 1.567-.772 2.389.232-.822.592-1.541.772-2.389z" fill="#fff"/><path d="M211.321 83.913l.98.202-1.958-.41.978.208zm-.979-.202c-.074.36-.188.695-.326 1.07-.133.36-.3.79-.43 1.25l1.925.542c.103-.363.231-.691.382-1.101a9.37 9.37 0 00.408-1.357l-1.959-.404zm1.169 2.862c.103-.365.233-.703.383-1.113.144-.395.3-.842.405-1.339l-1.956-.416a7.868 7.868 0 01-.328 1.07c-.134.366-.3.798-.429 1.255l1.925.543z" fill="#036063" mask="url(#path-30-inside-7_129_51210)"/><path d="M34.1 71.064l-.038.005-.035.01c-.138.041-.274.084-.41.127L142.642 6.47l.003-.001c6.785-3.919 16.185-3.44 26.758 2.33L56.106 75.936a44.07 44.07 0 00-7.792-3.566l-.005-.002a9.397 9.397 0 00-1.3-.315l-.252-.046c-.315-.056-.612-.11-.92-.186a31.47 31.47 0 00-5.036-1.092l-.032-.004h-.031a23.746 23.746 0 00-2.595.127 23.094 23.094 0 00-4.044.212zm60.831 81.681l.004-.014.002-.013c.572-2.857.852-5.764.834-8.677.064-12.515-4.316-26.368-11.416-38.646-6.94-12.003-16.507-22.546-27.135-28.882l113.19-67.15c10.621 6.196 20.257 16.737 27.247 28.814 7.046 12.174 11.375 25.86 11.337 38.157-.051 12.12-4.362 20.674-11.209 24.637l-.005.003-108.867 64.628.008-.007.024-.03a24.651 24.651 0 002.217-3.378 19.446 19.446 0 001.432-2.238l.013-.023.01-.024a31.245 31.245 0 001.562-4.772c.293-.782.544-1.578.752-2.385z" fill="#fff" stroke="#036063"/><path d="M90.392 161.518l-.024.031-.018.035a23.683 23.683 0 01-2.118 3.337 20.047 20.047 0 01-1.954 1.6l-.017.013-.016.014c-6.994 6.004-17.716 6.508-30.015-.568-10.772-6.2-20.506-16.825-27.548-29.005-7.042-12.179-11.366-25.867-11.366-38.164.026-12.133 4.379-20.682 11.242-24.651a19.73 19.73 0 013.246-1.194l.038-.01.036-.016c.8-.36 1.626-.657 2.472-.89a22.075 22.075 0 013.87-.197l.036.001.036-.003c.826-.088 1.656-.13 2.486-.126 1.645.231 3.271.585 4.863 1.058l.011.003.01.003c.348.087.69.148 1.013.206l.232.041c.395.073.772.151 1.162.28a44.867 44.867 0 017.865 3.632l.003.002c10.733 6.174 20.448 16.78 27.48 28.946 7.033 12.167 11.356 25.848 11.356 38.146v.005a41.887 41.887 0 01-.76 8.361 22.637 22.637 0 01-.727 2.297l-.01.029-.008.03a30.211 30.211 0 01-1.51 4.625c-.406.74-.863 1.451-1.366 2.129z" fill="#036063" stroke="#036063"/><mask id="path-35-inside-8_129_51210" fill="#fff"><path d="M56.236 76.516a43.564 43.564 0 00-7.957-3.673 45.37 45.37 0 017.957 3.673z"/></mask><path d="M56.236 76.516a43.564 43.564 0 00-7.957-3.673 45.37 45.37 0 017.957 3.673z" fill="#fff"/><path d="M48.28 72.843l.325-.946-.655 1.89.33-.944zm8.464 2.812a44.565 44.565 0 00-8.139-3.758l-.651 1.891a42.57 42.57 0 017.773 3.589l1.017-1.722zm-8.794-1.868a44.377 44.377 0 017.78 3.592l1.01-1.727a46.374 46.374 0 00-8.13-3.752l-.66 1.888z" fill="#036063" mask="url(#path-35-inside-8_129_51210)"/><path d="M38.196 70.354a23.586 23.586 0 00-4.167.215l.279 1.98a21.578 21.578 0 013.814-.196l.074-1.999zm-3.888 2.195a21.578 21.578 0 013.814-.196l.074-1.999a23.586 23.586 0 00-4.167.215l.279 1.98z" fill="#036063" mask="url(#path-37-inside-9_129_51210)"/><mask id="path-39-inside-10_129_51210" fill="#fff"><path d="M40.865 71.225c1.682.234 3.343.595 4.97 1.078a30.97 30.97 0 00-4.97-1.078z"/></mask><path d="M40.865 71.225c1.682.234 3.343.595 4.97 1.078a30.97 30.97 0 00-4.97-1.078z" fill="#fff"/><path d="M45.835 72.303l-.285.959.577-1.915-.292.956zm-5.108-.088a32.95 32.95 0 014.823 1.047l.57-1.917a34.943 34.943 0 00-5.116-1.11l-.277 1.98zm5.4-.868a31.96 31.96 0 00-5.13-1.114l-.263 1.983a29.96 29.96 0 014.81 1.044l.583-1.913z" fill="#036063" mask="url(#path-39-inside-10_129_51210)"/><path d="M28.755 74.618a19.218 19.218 0 013.132-1.172l-.535-1.927c-1.188.33-2.346.763-3.459 1.294l.861 1.805zm2.597-3.1c-1.188.33-2.346.764-3.459 1.295l.861 1.805a19.218 19.218 0 013.133-1.172l-.535-1.927z" fill="#036063" mask="url(#path-41-inside-11_129_51210)"/><path d="M91.333 159.229a18.109 18.109 0 01-1.342 2.094l1.605 1.192a19.93 19.93 0 001.49-2.324l-1.753-.962zm.263 3.286a19.93 19.93 0 001.49-2.324l-1.753-.962a18.109 18.109 0 01-1.342 2.094l1.605 1.192z" fill="#036063" mask="url(#path-43-inside-12_129_51210)"/><path d="M87.921 164.526c-.61.57-1.257 1.101-1.935 1.588l1.168 1.624a21.561 21.561 0 002.133-1.75l-1.366-1.462zm-.767 3.212a21.561 21.561 0 002.133-1.75l-1.366-1.462c-.61.57-1.257 1.101-1.935 1.588l1.168 1.624z" fill="#036063" mask="url(#path-45-inside-13_129_51210)"/><path d="M93.53 152.37a22.046 22.046 0 01-.713 2.261l1.871.704c.304-.807.564-1.63.78-2.465l-1.937-.5zm1.158 2.965c.304-.807.564-1.63.78-2.465l-1.937-.5a22.046 22.046 0 01-.715 2.261l1.872.704z" fill="#036063" mask="url(#path-47-inside-14_129_51210)"/><path d="M90.955 140.683l118.372-68.718v3.493L90.955 144.175v-3.492zm109.386-90.22v-.01a3.683 3.683 0 00-1.807-3.3 3.708 3.708 0 00-3.773 0l-.004.001L92.791 106.23l107.55-55.766zm0 0v.01m0-.01v.01m0 0a3.686 3.686 0 01-1.837 3.188L96.513 112.582h-.001m103.829-62.11l-103.829 62.11m0 0a3.7 3.7 0 01-1.851.501m1.851-.501l-1.851.501m0 0a3.708 3.708 0 01-1.854-.492m1.854.492l-1.854-.492m0 0a3.69 3.69 0 01-1.357-1.351m1.357 1.351l-1.357-1.351m0 0a3.68 3.68 0 01-.495-1.846m.495 1.846l-.495-1.846m0 0a3.678 3.678 0 011.836-3.164l-1.836 3.164z" fill="#fff" stroke="#036063"/><path d="M124.574 117.952l3.134 1.876a4.44 4.44 0 00-.534.135h-.388l-.076.025c-.364.12-.716.273-1.051.459l-4.172-2.498a3.763 3.763 0 013.087.003zm-5.246 15.494l.533.319.104-.048-.104.048-.533-.319zm0 0a3.747 3.747 0 01-.075-.295 2.491 2.491 0 01-.133-.39l-.01-.038-.004-.039a7.559 7.559 0 010-1.395 13.705 13.705 0 015.598-10.206l-4.214-2.523a12.686 12.686 0 00-5.64 9.719v.007l-.001.008a3.736 3.736 0 001.528 3.386l2.951 1.766z" fill="#fff" stroke="#036063"/><path d="M120.741 133.922h-.001a2.025 2.025 0 01-.165-.29h-.001a2.463 2.463 0 01-.192-.597l-.012-.064-.027-.058a1.4 1.4 0 01-.087-.234 6.599 6.599 0 01.003-1.176l.001-.008.001-.008a12.672 12.672 0 011.718-5.63 12.718 12.718 0 014.075-4.252c.323-.2.667-.363 1.025-.488h.386l.077-.026a3.7 3.7 0 01.648-.153h.408l.03-.004a2.05 2.05 0 01.436-.007l.323.129.01.004.01.004.445.155a3.79 3.79 0 011.514 3.385l-.001.009-.001.008a12.776 12.776 0 01-1.713 5.7 12.815 12.815 0 01-4.11 4.312l-.013.008-.012.009a3.448 3.448 0 01-4.089.003l-.293-.225a5.311 5.311 0 01-.393-.506z" fill="#fff" stroke="#036063"/><path d="M126.184 121.903c.312-.194.646-.35.995-.465l-.625-1.899a6.58 6.58 0 00-1.425.665l1.055 1.699zm.37-2.364a6.58 6.58 0 00-1.425.665l1.055 1.699c.312-.194.646-.35.995-.465l-.625-1.899z" fill="#036063" mask="url(#path-54-inside-15_129_51210)"/><path d="M128.554 121.25c.126-.016.253-.016.379 0l.239-1.986a3.613 3.613 0 00-.857 0l.239 1.986zm.618-1.986a3.613 3.613 0 00-.857 0l.239 1.986c.126-.016.253-.016.379 0l.239-1.986z" fill="#036063" mask="url(#path-56-inside-16_129_51210)"/><path d="M127.893 119.24a5.225 5.225 0 00-.956.223l.635 1.896c.192-.064.389-.11.589-.137l-.268-1.982zm-.321 2.119c.192-.064.389-.11.589-.137l-.268-1.982a5.225 5.225 0 00-.956.223l.635 1.896z" fill="#036063" mask="url(#path-58-inside-17_129_51210)"/><mask id="path-60-inside-18_129_51210" fill="#fff"><path d="M129.954 120.72l-.515-.18.515.18z"/></mask><path d="M129.954 120.72l-.515-.18.515.18z" fill="#fff"/><path d="M130.284 119.776l-.515-.18-.659 1.888.515.18.659-1.888zm-1.174 1.708l.515.18.659-1.888-.515-.18-.659 1.888z" fill="#036063" mask="url(#path-60-inside-18_129_51210)"/><path d="M119.212 134.27c.081.174.177.341.286.5l1.649-1.131a1.641 1.641 0 01-.125-.22l-1.81.851zm1.935-.631a1.641 1.641 0 01-.125-.22l-1.81.851c.081.174.177.341.286.5l1.649-1.131z" fill="#036063" mask="url(#path-62-inside-19_129_51210)"/><mask id="path-64-inside-20_129_51210" fill="#fff"><path d="M120.659 134.718l.335.257-.335-.257z"/></mask><path d="M120.659 134.718l.335.257-.335-.257z" fill="#fff"/><path d="M120.05 135.511l.335.257 1.217-1.587-.334-.257-1.218 1.587zm1.552-1.33l-.334-.257-1.218 1.587.335.257 1.217-1.587z" fill="#036063" mask="url(#path-64-inside-20_129_51210)"/><path d="M118.792 133.011c.047.186.112.366.193.54l1.81-.851a.964.964 0 01-.064-.18l-1.939.491zm2.003-.311a.964.964 0 01-.064-.18l-1.939.491c.047.186.112.366.193.54l1.81-.851z" fill="#036063" mask="url(#path-66-inside-21_129_51210)"/><path d="M34.315 70.895c6.158-1.443 13.72-.136 21.963 4.435l-.948.67a48.166 48.166 0 00-7.892-3.603l-.012-.005-.012-.003c-.504-.15-.965-.237-1.391-.312a69.37 69.37 0 00-.2-.034 13.96 13.96 0 01-.994-.197 34.821 34.821 0 00-5.214-1.117l-.031-.004h-.031c-.92-.01-1.838.033-2.752.127-.83-.03-1.66-.014-2.486.043zm61.825 72.862c-.036 8.684-2.171 15.443-5.801 20.104.08-.146.159-.294.236-.442a20.193 20.193 0 001.479-2.257l.014-.026.012-.028a32.03 32.03 0 001.567-4.843c.088-.31.195-.599.31-.909l.081-.224c.144-.394.29-.821.388-1.309v-.001c.57-2.892.85-5.833.833-8.779.039-12.682-4.412-26.727-11.612-39.175-7.054-12.196-16.773-22.905-27.567-29.315l.958-.676c10.766 6.286 20.529 16.968 27.61 29.204 7.142 12.34 11.53 26.213 11.491 38.676z" fill="#fff" stroke="#036063"/><path d="M89.724 162.849l-.02.027-.017.029a19.216 19.216 0 01-2.346 3.29 17.637 17.637 0 01-1.964 1.635l-.017.013-.017.014c-7.123 6.083-17.975 6.611-30.453-.567-10.914-6.29-20.783-17.063-27.925-29.409-7.142-12.347-11.53-26.221-11.53-38.685.026-12.468 4.457-20.992 11.425-24.986a18.196 18.196 0 013.243-1.218l.041-.011.04-.018a16.47 16.47 0 012.466-.914c1.3-.178 2.612-.244 3.922-.196l.035.001.035-.003a23.32 23.32 0 012.642-.126 33.82 33.82 0 015.044 1.084l.016.005.017.003c.36.08.706.138 1.029.193.106.017.21.035.31.053.413.072.795.15 1.183.279a47.175 47.175 0 017.996 3.684h.002c10.874 6.252 20.718 17.005 27.844 29.342 7.126 12.337 11.507 26.211 11.507 38.675v.003a43.064 43.064 0 01-.814 8.581c-.083.411-.208.78-.347 1.163l-.076.206c-.116.316-.24.652-.341 1.008l-.003.01-.002.01a30.973 30.973 0 01-1.509 4.673 19.242 19.242 0 01-1.416 2.152z" fill="#fff" stroke="#036063"/><path d="M55.658 75.728a48.665 48.665 0 00-8.255-3.802l-.664 1.886a46.663 46.663 0 017.916 3.647l1.003-1.73zm-8.919-1.915a46.663 46.663 0 017.916 3.646l1.003-1.73a48.665 48.665 0 00-8.255-3.803l-.664 1.886z" fill="#036063" mask="url(#path-71-inside-22_129_51210)"/><path d="M36.858 70.354c-1.409-.051-2.82.02-4.216.214l.275 1.981a22.222 22.222 0 013.868-.196l.073-1.999zm-3.941 2.195a22.222 22.222 0 013.868-.196l.073-1.999c-1.409-.051-2.82.02-4.216.214l.275 1.981z" fill="#036063" mask="url(#path-73-inside-23_129_51210)"/><path d="M39.416 72.216a33.24 33.24 0 015 1.072l.568-1.918a35.315 35.315 0 00-5.3-1.136l-.268 1.982zm5.568-.846a35.315 35.315 0 00-5.3-1.136l-.268 1.982a33.24 33.24 0 015 1.072l.568-1.918z" fill="#036063" mask="url(#path-75-inside-24_129_51210)"/><path d="M27.296 74.665a17.698 17.698 0 013.168-1.19l-.522-1.932a19.69 19.69 0 00-3.526 1.326l.88 1.796zm2.646-3.122a19.69 19.69 0 00-3.526 1.326l.88 1.796a17.698 17.698 0 013.168-1.19l-.522-1.932z" fill="#036063" mask="url(#path-77-inside-25_129_51210)"/><path d="M90.746 160.425a18.716 18.716 0 01-1.393 2.121l1.594 1.209a20.677 20.677 0 001.542-2.348l-1.743-.982zm.2 3.33a20.677 20.677 0 001.543-2.348l-1.743-.982a18.716 18.716 0 01-1.393 2.121l1.594 1.209z" fill="#036063" mask="url(#path-79-inside-26_129_51210)"/><path d="M87.237 165.821a17.23 17.23 0 01-1.922 1.603l1.165 1.625a19.204 19.204 0 002.146-1.788l-1.389-1.44zm-.757 3.228a19.204 19.204 0 002.146-1.788l-1.389-1.44a17.23 17.23 0 01-1.922 1.603l1.165 1.625z" fill="#036063" mask="url(#path-81-inside-27_129_51210)"/><mask id="path-83-inside-28_129_51210" fill="#fff"><path d="M93.932 153.725c-.18.899-.54 1.592-.773 2.414.232-.822.593-1.515.773-2.414z"/></mask><path d="M93.932 153.725c-.18.899-.54 1.592-.773 2.414.232-.822.593-1.515.773-2.414z" fill="#fff"/><path d="M92.951 153.528a7.331 7.331 0 01-.325 1.09c-.132.361-.3.792-.43 1.25l1.926.542c.103-.364.23-.69.382-1.107.146-.4.303-.856.408-1.382l-1.96-.393zm1.17 2.882c.104-.364.232-.69.383-1.107.146-.4.303-.856.408-1.382l-1.96-.393a7.331 7.331 0 01-.326 1.09c-.132.361-.3.792-.43 1.25l1.926.542z" fill="#036063" mask="url(#path-83-inside-28_129_51210)"/><path d="M53.462 79.131l.001.001C64.03 85.217 73.616 95.65 80.552 107.63c6.935 11.98 11.194 25.462 11.156 37.617v.004a42.476 42.476 0 01-.789 8.324 7.757 7.757 0 01-.342 1.123l-.05.131c-.12.328-.25.679-.348 1.056l-.002.007a32.727 32.727 0 01-1.484 4.574 20.365 20.365 0 01-1.366 2.077l-.023.031-.018.034a20.861 20.861 0 01-2.09 3.183 19.204 19.204 0 01-1.908 1.578l-.015.012-.015.012a18.907 18.907 0 01-8.394 4.102l-1.38.229-.003.001a56.48 56.48 0 01-24.082-1.087 56.398 56.398 0 01-21.423-11.024 56.244 56.244 0 01-14.845-18.946 56.094 56.094 0 01-5.55-23.396 54.278 54.278 0 0112.093-34.404 55.758 55.758 0 015.088-5.408 13.88 13.88 0 011.688-1.146 16.424 16.424 0 013.136-1.19l.04-.01.037-.018a16.62 16.62 0 012.466-.888 27.58 27.58 0 013.834-.198h2.551a28.82 28.82 0 014.778 1.032l.013.004.013.003c.345.086.68.147.996.204l.234.043c.388.072.76.15 1.151.28a44.306 44.306 0 017.763 3.555z" fill="#fff" stroke="#036063"/><path d="M13.533 107.877v.003a65.93 65.93 0 0016.731 43.449 66.23 66.23 0 0037.48 21.054 59.962 59.962 0 01-3.839.156 55.974 55.974 0 01-21.414-4.066 55.881 55.881 0 01-18.224-11.931 55.716 55.716 0 01-12.258-17.979 55.604 55.604 0 01-4.428-21.288 54.32 54.32 0 019.634-30.91 64.569 64.569 0 00-3.682 21.512zm66.176 11.019a9.45 9.45 0 01-1.6 5.259 9.505 9.505 0 01-14.603 1.434 9.446 9.446 0 01-2.057-10.315 9.478 9.478 0 013.496-4.248 9.51 9.51 0 0111.985 1.178 9.45 9.45 0 012.779 6.692zM68.503 62.57V46.18a5.66 5.66 0 005.217-.019l.029-.015.026-.019.438-.308.088-.062v16.838a1.194 1.194 0 01-.688.957l-.009.004-.008.004a4.815 4.815 0 01-4.362 0l-.01-.005-.01-.004a1.224 1.224 0 01-.711-.982zm-.568-17.878v-1.284l.066-.033.007-.003.008-.004a4.97 4.97 0 014.355-.009c.66.4.766.8.705 1.068l-.026.113.018.075-.012.05.011.09a.425.425 0 010 .1l-.083.095-.127.142v.06l-.198.139a4.66 4.66 0 01-4.274-.003l-.218-.145v-.068l-.147-.147-.085-.084v-.152zm39.25-9.872v5.528a1.215 1.215 0 01-.71.96l-.007.004-.007.003a4.971 4.971 0 01-4.375 0l-.007-.003-.006-.003a1.221 1.221 0 01-.493-.406l-.402.286.402-.286a1.218 1.218 0 01-.218-.576v-5.18l.028.016.01.005.011.006a5.894 5.894 0 005.262 0l.033-.017.031-.022.438-.308.01-.008z" fill="#fff" stroke="#036063"/><path d="M100.421 33.827c.033.082.076.16.129.231v.129l.206.23" stroke="#036063"/><path d="M113.787 33.58c.239-.226.459-.472.658-.735l-.002.05a4.932 4.932 0 01-.903 2.427 4.956 4.956 0 01-2.019 1.644l-.013.006-.013.006a16.656 16.656 0 01-15.199 0l-.013-.007-.013-.005a5.015 5.015 0 01-2.956-3.968c.184.214.38.418.588.61.102.122.212.24.327.35l.007.006.006.005c.461.411.963.775 1.497 1.087l.013.007.013.007a17.89 17.89 0 0016.132 0l.012-.007.012-.006a8.875 8.875 0 001.473-1.062l.008-.006.007-.007c.132-.127.258-.261.378-.401z" fill="#fff" stroke="#036063"/><path d="M93.35 31.289v-.072l-.034-.086a3.642 3.642 0 01-.127-.393 3.373 3.373 0 01.003-.608 5.014 5.014 0 012.88-3.99l.008-.004.008-.004a16.891 16.891 0 0115.23 0l.012.006.013.006a4.644 4.644 0 012.129 1.876c.496.832.719 1.797.637 2.76l-.003.037.002.037c.008.123.009.246.005.369a3.947 3.947 0 01-.288.538l-.028.044-.018.048a1.696 1.696 0 01-.195.372 5.1 5.1 0 01-.581.648l-.021.02-.019.023c-.1.118-.206.232-.317.34a7.889 7.889 0 01-1.289.928 16.888 16.888 0 01-15.205 0 8.225 8.225 0 01-1.316-.955 3.166 3.166 0 01-.26-.282l-.024-.029-.027-.025a6.071 6.071 0 01-.644-.684 3.397 3.397 0 01-.184-.373l-.011-.025-.014-.024a2.546 2.546 0 00-.181-.277 3.886 3.886 0 01-.08-.115.761.761 0 01-.06-.106z" fill="#fff" stroke="#036063"/><path d="M94.112 30.669a5.013 5.013 0 01-.912-2.427c.203.27.437.518.695.738.1.14.215.269.341.386l.006.005.006.005c.462.402.964.757 1.498 1.06l.01.005.01.005a17.813 17.813 0 0016.134 0l.011-.006.012-.006a8.918 8.918 0 001.464-1.054c.15-.122.288-.259.411-.408.12-.124.236-.25.348-.38a5.021 5.021 0 01-2.746 3.76h0l-.004.002a16.838 16.838 0 01-15.204 0l-.011-.006-.012-.005a5.032 5.032 0 01-2.057-1.674z" fill="#fff" stroke="#036063"/><path d="M93.413 26.784a.609.609 0 01-.062-.11v-.02l-.005-.034a2.577 2.577 0 01-.021-.43l.002-.082-.023-.078a2.72 2.72 0 01-.106-.567 5.006 5.006 0 012.805-3.95h0l.009-.005a16.892 16.892 0 0115.23 0l.016.008.016.007a4.645 4.645 0 012.17 1.861 4.63 4.63 0 01.666 2.776l-.003.04.003.04c.01.12.012.239.006.358a4.24 4.24 0 01-.294.572l-.022.036-.016.04c-.049.123-.114.24-.193.348a7.882 7.882 0 01-.602.696l-.016.017-.015.017c-.084.105-.18.2-.285.285l-.009.007-.01.009a7.877 7.877 0 01-1.296.935 16.813 16.813 0 01-15.207 0 8.126 8.126 0 01-1.318-.933 1.587 1.587 0 01-.23-.269l-.04-.06-.056-.045a3.565 3.565 0 01-.628-.67 1.833 1.833 0 01-.178-.338l-.008-.019-.009-.018a2.124 2.124 0 00-.149-.247l-.06-.086a3.485 3.485 0 01-.062-.091z" fill="#fff" stroke="#036063"/><path d="M113.782 24.416c.126-.13.247-.262.364-.398a5.033 5.033 0 01-2.885 3.78l-.01.004-.009.005a16.842 16.842 0 01-15.204 0h0l-.008-.003a5.056 5.056 0 01-2.832-4.14c.209.266.44.513.694.738.1.142.216.273.344.391l.006.005.006.006c.462.402.964.757 1.498 1.06l.01.005.01.005a17.813 17.813 0 0016.134 0l.011-.006.012-.006a8.915 8.915 0 001.453-1.044 1 1 0 00.236-.251h.023l.147-.151z" fill="#fff" stroke="#036063"/><path d="M93.704 22.657l-.017-.045-.025-.041a5.901 5.901 0 01-.323-.592 3.016 3.016 0 01-.014-.365l.002-.08-.023-.075a2.722 2.722 0 01-.106-.567 4.988 4.988 0 012.805-3.95h0l.011-.006a16.708 16.708 0 0115.226 0l.017.009.017.007a4.645 4.645 0 012.17 1.861 4.63 4.63 0 01.666 2.776l-.003.035.003.035c.007.122.009.245.004.367a5.76 5.76 0 01-.297.582l-.019.033-.014.034a1.56 1.56 0 01-.193.348 7.832 7.832 0 01-.586.68c-.071.062-.122.13-.153.172l-.036.053h-.02l-.142.126a7.87 7.87 0 01-1.296.936 16.811 16.811 0 01-15.207-.001 8.126 8.126 0 01-1.318-.933 1.58 1.58 0 01-.23-.268l-.036-.054-.05-.043a4.638 4.638 0 01-.637-.679 2.06 2.06 0 01-.176-.355zm49.887-17.983l.054-.06v17.032a1.277 1.277 0 01-.718.968h0l-.006.003a4.971 4.971 0 01-4.375 0h0l-.01-.005a1.254 1.254 0 01-.493-.41l-.407.29.407-.29a1.255 1.255 0 01-.222-.576V5.124a5.816 5.816 0 005.211-.029l.019-.01.017-.01c.172-.106.334-.227.484-.362l.021-.018.018-.021zm-6.261-.924v-.653l-.519.14a1.153 1.153 0 01.658-.802l.013-.005.012-.006a4.814 4.814 0 014.362 0l.02.01.021.008a1.067 1.067 0 01.669 1.08.763.763 0 00-.013.106l-.121.123v.168l-.06.068a2.369 2.369 0 01-.303.226 4.813 4.813 0 01-4.312.006l-.373-.262-.054-.055V3.75zM50.636 57.98v3.496L43.5 57.398v-3.473l7.137 4.055zm.497-.868l-7.131-4.052 27.067-15.78 7.131 4.052-27.067 15.779zm.503.864l27.067-15.779v3.492L51.636 61.467v-3.491zM8.1 153.801l.044-4.123 8.516-11.537 12.82 15.085-21.38.575zm1.264.967l21.186-.569.058-.002.056-.015 1.647-.433-12.205 7.28-10.742-6.261z" fill="#fff" stroke="#036063"/><path d="M24.632 167.638l.047-12.848 14.528-8.051v12.224l-14.575 8.675zm-.453-13.723L4.647 142.597l14.518-8.661 19.556 11.319-14.542 8.66zm-3.569 7.333v-4.753l-.246-.145-12.385-7.268-.753-.442v5.963l.248.145 12.137 7.075v.287h2.479l-1.48-.862zM4.083 156.39l.07-12.923 19.604 11.317v12.873L4.082 156.39z" fill="#fff" stroke="#036063"/><path d="M24.217 154.654l-.317-.582 15.212-8.583.092.052v.447l-14.987 8.666zm-19.05.64l.066-6.469 2.087-1.214-.044 6.466-2.109 1.217zm14.118 8.769l-13.628-7.898 2.116-1.221 13.602 7.921-2.09 1.198zm5.166 7.772l.073-17.179 2.087-1.215-.072 17.179-2.088 1.215zm-.425-18.046l-22.945-13.29 2.088-1.197L26.12 152.57l-2.094 1.219z" fill="#fff" stroke="#036063"/><path d="M19.709 164.338v-7.69l-.25-.145-14.599-8.476-.75-.436v8.862l.248.144 14.35 8.317v.227h2.387l-1.386-.803zM.5 158.548v-17.184l22.947 13.291v17.184L.5 158.548zm45.743-9.129a3.36 3.36 0 00-.537-.227l1.166-.755a2.082 2.082 0 011.248-.141l-1.877 1.123zm5.445 6.635l-1.415.835v0-.002 0-.001 0-.001 0-.001 0-.001 0-.001 0-.001 0-.001 0-.001 0-.002 0-.001 0-.001 0-.001 0-.001 0-.001 0-.001 0-.001 0-.001 0-.001 0-.001 0-.001 0-.001 0-.001 0-.001 0-.001 0-.001 0-.001 0-.001 0-.001 0-.001 0-.001 0-.001 0-.001 0-.001 0-.001 0-.001 0-.001 0-.001 0-.001 0-.001 0-.001 0-.001 0-.001 0-.001 0-.001 0-.001 0-.001 0-.001 0-.001 0-.001 0-.001 0-.001 0-.001 0-.001 0-.001 0-.001 0-.001 0-.001 0-.001 0-.001 0-.001 0-.001 0-.001 0-.001 0-.001 0-.001 0-.001 0-.001 0-.001 0-.001 0-.001 0-.001 0-.001 0-.001 0-.001 0-.001 0-.001 0-.001 0-.001 0a4.072 4.072 0 00-.002-.837 7.99 7.99 0 00-3.023-5.838l1.959-1.214a7.211 7.211 0 013.26 5.391h0l.001.005a1.911 1.911 0 01-.78 1.739z" fill="#fff" stroke="#036063"/><path d="M48.94 156.914v0a2.071 2.071 0 01-.106.269l-.058.121.01.133a2.022 2.022 0 01-.042.067l-.106.075a1.768 1.768 0 01-2.005-.002l-.007-.005-.006-.004a6.991 6.991 0 01-3.22-5.61l-.002-.015-.001-.015a1.908 1.908 0 01.676-1.658h1.499c.173.062.339.144.493.245a7.001 7.001 0 012.875 5.506v.022l.003.022c.024.22.024.442 0 .662l-.003.027v.16z" fill="#036063" stroke="#036063"/><path d="M46.9 149.269a3.849 3.849 0 00-.939-.451l-.615 1.903c.16.052.312.125.453.217l1.1-1.669zm-1.554 1.452c.16.052.312.125.453.217l1.1-1.669a3.849 3.849 0 00-.938-.451l-.615 1.903z" fill="#036063" mask="url(#path-117-inside-29_129_51210)"/><mask id="path-119-inside-30_129_51210" fill="#fff"><path d="M44.908 149.641h.412-.412z"/></mask><path d="M44.908 149.641h.412-.412z" fill="#fff"/><path d="M44.908 150.641h.412v-2h-.412v2zm.412-2h-.412v2h.412v-2z" fill="#036063" mask="url(#path-119-inside-30_129_51210)"/><mask id="path-121-inside-31_129_51210" fill="#fff"><path d="M43.773 149.846h.283-.283z"/></mask><path d="M43.773 149.846h.283-.283z" fill="#fff"/><path d="M43.773 150.846h.283v-2h-.283v2zm.283-2h-.283v2h.283v-2z" fill="#036063" mask="url(#path-121-inside-31_129_51210)"/><path d="M48.39 157.479a.12.12 0 010 .017l1.993.163c.01-.114.01-.229 0-.343l-1.993.163zm1.993.18c.01-.114.01-.229 0-.343l-1.993.163a.12.12 0 010 .017l1.993.163z" fill="#036063" mask="url(#path-123-inside-32_129_51210)"/><mask id="path-125-inside-33_129_51210" fill="#fff"><path d="M49.074 157.886l-.18.128.18-.128z"/></mask><path d="M49.074 157.886l-.18.128.18-.128z" fill="#fff"/><path d="M48.494 157.071l-.18.128 1.16 1.629.18-.128-1.16-1.629zm.98 1.757l.18-.128-1.16-1.629-.18.128 1.16 1.629z" fill="#036063" mask="url(#path-125-inside-33_129_51210)"/><path d="M49.595 156.679h-1v.205h2v-.205h-1zm-1 .205v.026h2v-.231h-2v.231h2v-.026h-2z" fill="#036063" mask="url(#path-127-inside-34_129_51210)"/><path d="M51.642 76.317l.1 38.166L14.996 93.18l-.1-38.166 36.746 21.303z" fill="#036063" stroke="#036063"/><path d="M52.142 75.45l-36.75-21.305 14.527-8.388 36.775 21.305-14.552 8.388zm.601.866l14.45-8.384v25.12l-11.274 19.596-3.176 1.837v-38.17zM14.92 94.289l35.655 20.67-37.99 2.475 2.334-23.145z" fill="#fff" stroke="#036063"/><mask id="path-133-inside-35_129_51210" fill="#fff"><path d="M41.893 97.5v-4.264V97.5z"/></mask><path d="M41.893 97.5v-4.264V97.5z" fill="#fff"/><path d="M42.893 97.5v-4.264h-2V97.5h2zm-2-4.264V97.5h2v-4.264h-2z" fill="#036063" mask="url(#path-133-inside-35_129_51210)"/><path d="M44.648 97.834v8.091-8.091z" stroke="#036063"/><mask id="path-136-inside-36_129_51210" fill="#fff"><path d="M44.648 97.5v-2.696V97.5z"/></mask><path d="M44.648 97.5v-2.696V97.5z" fill="#fff"/><path d="M45.648 97.5v-2.696h-2V97.5h2zm-2-2.696V97.5h2v-2.697h-2z" fill="#036063" mask="url(#path-136-inside-36_129_51210)"/><path d="M41.842 106.207l-.992-.126 1.979.287-.987-.161zm.987.161c.03-.183.03-.37 0-.554l-1.974.323a.284.284 0 010-.091l1.974.322zm-1.98-.267v-.02l1.985.251c.02-.16.02-.322 0-.482l-1.984.251z" fill="#036063" mask="url(#path-138-inside-37_129_51210)"/><path d="M41.549 105.253a.283.283 0 01-.045-.147l-2 .046c.01.423.137.834.367 1.189l1.678-1.088zm-2.045-.101c.01.423.137.834.367 1.189l1.678-1.088a.283.283 0 01-.045-.147l-2 .046z" fill="#036063" mask="url(#path-140-inside-38_129_51210)"/><path d="M41.893 97.5v8.425V97.5z" stroke="#036063"/><mask id="path-143-inside-39_129_51210" fill="#fff"><path d="M47.404 107.492v-1.259 1.259z"/></mask><path d="M47.404 107.492v-1.259 1.259z" fill="#fff"/><path d="M48.404 107.492v-1.259h-2v1.259h2zm-2-1.259v1.259h2v-1.259h-2z" fill="#036063" mask="url(#path-143-inside-39_129_51210)"/><mask id="path-145-inside-40_129_51210" fill="#fff"><path d="M47.404 97.474v-1.079 1.08z"/></mask><path d="M47.404 97.474v-1.079 1.08z" fill="#fff"/><path d="M48.404 97.474v-1.079h-2v1.08h2zm-2-1.079v1.08h2v-1.08h-2z" fill="#036063" mask="url(#path-145-inside-40_129_51210)"/><mask id="path-147-inside-41_129_51210" fill="#fff"><path d="M43.953 107.877l-.18-.18.283.206-.103-.026z"/></mask><path d="M43.953 107.877l-.18-.18.283.206-.103-.026z" fill="#fff"/><path d="M43.953 107.877l-.706.708.196.195.269.067.241-.97zm-.18-.18l.587-.809-1.293 1.517.706-.708zm.283.206l-.241.97.829-1.78-.588.81zm.604-.734l-.18-.18-1.413 1.416.18.18 1.413-1.416zm-1.474 1.338l.283.205 1.175-1.619-.284-.205-1.174 1.619zm1.112-1.575l-.103-.025-.483 1.94.102.026.484-1.941z" fill="#036063" mask="url(#path-147-inside-41_129_51210)"/><mask id="path-149-inside-42_129_51210" fill="#fff"><path d="M44.648 107.518v-1.619 1.619z"/></mask><path d="M44.648 107.518v-1.619 1.619z" fill="#fff"/><path d="M45.648 107.518v-1.619h-2v1.619h2zm-2-1.619v1.619h2v-1.619h-2z" fill="#036063" mask="url(#path-149-inside-42_129_51210)"/><path d="M47.404 97.475v8.424-8.424z" stroke="#036063"/><mask id="path-152-inside-43_129_51210" fill="#fff"><path d="M47.404 106.233v1.259-1.259z"/></mask><path d="M47.404 106.233v1.259-1.259z" fill="#fff"/><path d="M46.404 106.233v1.259h2v-1.259h-2zm2 1.259v-1.259h-2v1.259h2z" fill="#036063" mask="url(#path-152-inside-43_129_51210)"/><mask id="path-154-inside-44_129_51210" fill="#fff"><path d="M47.404 97.474v-1.079 9.504-8.425z"/></mask><path d="M47.404 97.474v-1.079 9.504-8.425z" fill="#fff"/><path d="M48.404 97.474v-1.079h-2v1.08h2zm-2-1.079v9.504h2v-9.504h-2zm2 9.504v-8.425h-2v8.425h2z" fill="#036063" mask="url(#path-154-inside-44_129_51210)"/><path d="M44.648 97.5v.334-.334z" stroke="#036063"/><mask id="path-157-inside-45_129_51210" fill="#fff"><path d="M47.404 107.492v.694-.694z"/></mask><path d="M47.404 107.492v.694-.694z" fill="#fff"/><path d="M46.404 107.492v.694h2v-.694h-2zm2 .694v-.694h-2v.694h2z" fill="#036063" mask="url(#path-157-inside-45_129_51210)"/><mask id="path-159-inside-46_129_51210" fill="#fff"><path d="M47.376 109.085l.026-.899-.026.899z"/></mask><path d="M47.376 109.085l.026-.899-.026.899z" fill="#fff"/><path d="M48.375 109.113l.026-.899-2-.057-.025.899 2 .057zm-1.973-.956l-.026.899 2 .057.025-.899-2-.057z" fill="#036063" mask="url(#path-159-inside-46_129_51210)"/><mask id="path-161-inside-47_129_51210" fill="#fff"><path d="M47.404 105.899v.334-.334z"/></mask><path d="M47.404 105.899v.334-.334z" fill="#fff"/><path d="M46.404 105.899v.334h2v-.334h-2zm2 .334v-.334h-2v.334h2z" fill="#036063" mask="url(#path-161-inside-47_129_51210)"/><path d="M41.438 91.059a1.595 1.595 0 00-.76 0L41.155 93a.407.407 0 01-.194 0l.477-1.942zM41.155 93a.407.407 0 01-.194 0l.477-1.942a1.595 1.595 0 00-.76 0L41.155 93z" fill="#036063" mask="url(#path-163-inside-48_129_51210)"/><path d="M42.557 91.925a2.879 2.879 0 00-.75-.787l-1.161 1.628c.09.065.169.146.229.24l1.682-1.08zm-1.911.841c.09.065.169.146.229.24l1.682-1.08a2.879 2.879 0 00-.75-.788l-1.161 1.628z" fill="#036063" mask="url(#path-165-inside-49_129_51210)"/><path d="M41.34 105.776a.872.872 0 01-.169-.218l-.009-.017-.01-.016a.782.782 0 01-.126-.402V92.446l.01-.003c.087.076.164.162.229.256.06.162.086.335.075.508v12.569zm2.493.845V94.019l.029.022.158.238c.077.123.12.262.126.406v12.609l-.057-.041a1.219 1.219 0 01-.256-.632z" fill="#fff" stroke="#036063"/><path d="M46.945 94.243a1.543 1.543 0 00-.733 0l.475 1.943a.457.457 0 01-.217 0l.475-1.943zm-.258 1.943a.457.457 0 01-.217 0l.475-1.943a1.543 1.543 0 00-.733 0l.475 1.943z" fill="#036063" mask="url(#path-169-inside-50_129_51210)"/><path d="M48.402 96.336a2.59 2.59 0 00-.67-1.59l-1.48 1.347a.59.59 0 01.154.363l1.996-.12zm-2.15-.243a.59.59 0 01.154.363l1.996-.12a2.59 2.59 0 00-.67-1.59l-1.48 1.347z" fill="#036063" mask="url(#path-171-inside-51_129_51210)"/><path d="M46.487 108.331V95.714l.025-.006.115.084c.147.175.234.392.251.62v12.577l-.023-.014a.988.988 0 01-.292-.321.888.888 0 01-.076-.323zm2.743 1.735l.011-.053V97.281h.022c.091.082.171.175.238.278a.92.92 0 01.13.439v12.359h-.218a.711.711 0 01-.059-.056 2.189 2.189 0 01-.13-.18.27.27 0 01.006-.055z" fill="#fff" stroke="#036063"/><mask id="path-175-inside-52_129_51210" fill="#fff"><path d="M18.177 83.27l.025-4.263-.026 4.263z"/></mask><path d="M18.177 83.27l.025-4.263-.026 4.263z" fill="#fff"/><path d="M19.177 83.277l.025-4.264-2-.012-.026 4.263 2 .013zM17.201 79l-.026 4.263 2 .013.026-4.264-2-.012z" fill="#036063" mask="url(#path-175-inside-52_129_51210)"/><path d="M20.932 83.605v8.09-8.09z" stroke="#036063"/><mask id="path-178-inside-53_129_51210" fill="#fff"><path d="M20.932 83.27l.026-2.67-.026 2.67z"/></mask><path d="M20.932 83.27l.026-2.67-.026 2.67z" fill="#fff"/><path d="M21.932 83.28l.026-2.67-2-.02-.026 2.671 2 .02zm-1.974-2.69l-.026 2.671 2 .02.026-2.672-2-.019z" fill="#036063" mask="url(#path-178-inside-53_129_51210)"/><mask id="path-180-inside-54_129_51210" fill="#fff"><path d="M18.024 91.977a1.622 1.622 0 000-.23.793.793 0 010 .23z"/></mask><path d="M18.024 91.977a1.622 1.622 0 000-.23.793.793 0 010 .23z" fill="#fff"/><path d="M19.022 92.048a2.626 2.626 0 000-.372l-1.995.14c.002.03.002.06 0 .09l1.995.142zm-1.987-.156a.2.2 0 010-.06l1.979.29a1.819 1.819 0 000-.521l-1.979.29z" fill="#036063" mask="url(#path-180-inside-54_129_51210)"/><path d="M17.843 91.06a.18.18 0 01-.027-.106l-1.997-.109c-.025.451.091.9.333 1.281l1.691-1.067zm-2.024-.215c-.025.451.091.9.333 1.281l1.691-1.067a.18.18 0 01-.027-.105l-1.997-.109z" fill="#036063" mask="url(#path-182-inside-55_129_51210)"/><path d="M18.177 83.27v8.425-8.424z" stroke="#036063"/><mask id="path-185-inside-56_129_51210" fill="#fff"><path d="M23.688 93.263v-1.26 1.26z"/></mask><path d="M23.688 93.263v-1.26 1.26z" fill="#fff"/><path d="M24.688 93.263v-1.26h-2v1.26h2zm-2-1.26v1.26h2v-1.26h-2z" fill="#036063" mask="url(#path-185-inside-56_129_51210)"/><mask id="path-187-inside-57_129_51210" fill="#fff"><path d="M23.688 83.27v-1.104 1.105z"/></mask><path d="M23.688 83.27v-1.104 1.105z" fill="#fff"/><path d="M24.688 83.27v-1.104h-2v1.105h2zm-2-1.104v1.105h2v-1.105h-2z" fill="#036063" mask="url(#path-187-inside-57_129_51210)"/><path d="M20.729 92.8h-.001l-1.488 1.336c.148.165.322.303.515.41l.974-1.746zm-1.488 1.336c.147.165.32.303.514.41l.974-1.746h-.001l-1.488 1.336z" fill="#036063" mask="url(#path-189-inside-58_129_51210)"/><mask id="path-191-inside-59_129_51210" fill="#fff"><path d="M20.932 93.288v-1.593 1.593z"/></mask><path d="M20.932 93.288v-1.593 1.593z" fill="#fff"/><path d="M21.932 93.288v-1.593h-2v1.593h2zm-2-1.593v1.593h2v-1.593h-2z" fill="#036063" mask="url(#path-191-inside-59_129_51210)"/><path d="M23.688 83.27v8.425-8.424z" stroke="#036063"/><mask id="path-194-inside-60_129_51210" fill="#fff"><path d="M23.688 92.004v1.258-1.258z"/></mask><path d="M23.688 92.004v1.258-1.258z" fill="#fff"/><path d="M22.688 92.004v1.258h2v-1.258h-2zm2 1.258v-1.258h-2v1.258h2z" fill="#036063" mask="url(#path-194-inside-60_129_51210)"/><mask id="path-196-inside-61_129_51210" fill="#fff"><path d="M23.688 83.27v-1.104 9.53-8.425z"/></mask><path d="M23.688 83.27v-1.104 9.53-8.425z" fill="#fff"/><path d="M24.688 83.27v-1.104h-2v1.105h2zm-2-1.104v9.53h2v-9.53h-2zm2 9.53V83.27h-2v8.424h2z" fill="#036063" mask="url(#path-196-inside-61_129_51210)"/><mask id="path-198-inside-62_129_51210" fill="#fff"><path d="M20.932 83.604v-.334.334z"/></mask><path d="M20.932 83.604v-.334.334z" fill="#fff"/><path d="M21.932 83.604v-.334h-2v.334h2zm-2-.334v.334h2v-.334h-2z" fill="#036063" mask="url(#path-198-inside-62_129_51210)"/><mask id="path-200-inside-63_129_51210" fill="#fff"><path d="M23.688 93.263v.693-.693z"/></mask><path d="M23.688 93.263v.693-.693z" fill="#fff"/><path d="M22.688 93.263v.693h2v-.693h-2zm2 .693v-.693h-2v.693h2z" fill="#036063" mask="url(#path-200-inside-63_129_51210)"/><mask id="path-202-inside-64_129_51210" fill="#fff"><path d="M23.688 94.88v-.924.925z"/></mask><path d="M23.688 94.88v-.924.925z" fill="#fff"/><path d="M24.688 94.88v-.924h-2v.925h2zm-2-.924v.925h2v-.925h-2z" fill="#036063" mask="url(#path-202-inside-64_129_51210)"/><mask id="path-204-inside-65_129_51210" fill="#fff"><path d="M23.688 91.695v.309-.309z"/></mask><path d="M23.688 91.695v.309-.309z" fill="#fff"/><path d="M22.688 91.695v.309h2v-.309h-2zm2 .309v-.309h-2v.309h2z" fill="#036063" mask="url(#path-204-inside-65_129_51210)"/><mask id="path-206-inside-66_129_51210" fill="#fff"><path d="M17.508 77.825h-.257.257z"/></mask><path d="M17.508 77.825h-.257.257z" fill="#fff"/><path d="M17.508 76.825h-.257v2h.257v-2zm-.257 2h.257v-2h-.257v2z" fill="#036063" mask="url(#path-206-inside-66_129_51210)"/><path d="M18.901 77.862a2.364 2.364 0 00-.848-.891l-1.04 1.709c.055.033.1.08.13.136l1.758-.954zm-1.888.818c.055.033.1.08.13.136l1.758-.954a2.364 2.364 0 00-.848-.891l-1.04 1.709z" fill="#036063" mask="url(#path-208-inside-67_129_51210)"/><path d="M17.527 91.725l-.03-.001a1.379 1.379 0 01-.258-.297.679.679 0 01-.103-.398V78.325h.03a1.043 1.043 0 01.361.701v12.7z" fill="#fff" stroke="#036063"/><path d="M25.156 96.088h-1v.129h2v-.128h-1zm0 .128h1v-.128h-2v.129h1z" fill="#036063" mask="url(#path-211-inside-68_129_51210)"/><mask id="path-213-inside-69_129_51210" fill="#fff"><path d="M25.438 96.602l.026.025-.026-.025z"/></mask><path d="M25.438 96.602l.026.025-.026-.025z" fill="#fff"/><path d="M24.73 97.308l.026.026 1.416-1.413-.026-.026-1.416 1.413zm1.442-1.387l-.026-.026-1.416 1.413.026.026 1.416-1.413z" fill="#036063" mask="url(#path-213-inside-69_129_51210)"/><path d="M20.433 80.61v12.42a.988.988 0 01-.236-.579V79.95l.075.165.012.026.015.025a.935.935 0 01.134.444zm-.514-.996h0z" fill="#fff" stroke="#036063"/><mask id="path-216-inside-70_129_51210" fill="#fff"><path d="M23.017 80.984h-.284.284z"/></mask><path d="M23.017 80.984h-.284.284z" fill="#fff"/><path d="M23.017 79.984h-.284v2h.284v-2zm-.284 2h.284v-2h-.284v2z" fill="#036063" mask="url(#path-216-inside-70_129_51210)"/><path d="M24.683 82.086a2.565 2.565 0 00-.843-1.642l-1.331 1.493a.565.565 0 01.186.362l1.988-.213zm-2.174-.15a.565.565 0 01.186.363l1.988-.213a2.565 2.565 0 00-.843-1.642l-1.331 1.493z" fill="#036063" mask="url(#path-218-inside-71_129_51210)"/><path d="M22.72 81.484h.02l.11.087c.186.17.306.4.338.65v12.663a.64.64 0 01-.109-.023.836.836 0 01-.263-.294l-.004-.008-.004-.007a.654.654 0 01-.087-.298v-12.77zm3.064 1.81l.015.034.02.031a.833.833 0 01.128.41v12.555a.07.07 0 01-.02.01h-.19l-.067-.062a2.1 2.1 0 01-.088-.148v0-.001 0-.001 0-.001 0-.001 0-.001 0-.001 0-.001 0-.001 0-.001 0-.001 0-.026l-.002-.026a1.234 1.234 0 010-.256l.003-.026V83.071l.015-.004a.553.553 0 01.186.228zm13.966-3.426l-13.912-7.981.045-7.148 13.912 7.981-.044 7.148z" fill="#fff" stroke="#036063"/></g><defs><clipPath id="clip0_129_51210"><path fill="#fff" d="M0 0h214v195H0z"/></clipPath></defs></svg>