<svg width="500" height="124" fill="none" xmlns="http://www.w3.org/2000/svg"><g filter="url(#filter0_d_129_32483)" fill="#fff"><path fill-rule="evenodd" clip-rule="evenodd" d="M5 5.83v66.102h24.133V60.391h25.182c4.197-.875 12.309-4.278 17.837-9.444 10.081-9.42 8.919-23.083 3.148-30.953C68.064 10.127 60.61 6.88 53.266 5.83H5zm24.13 32.528V26.817h19.936c1.749.7 5.246 2.938 5.246 6.295 0 3.358-3.497 4.897-5.246 5.246H29.13zM86.84 5.832v66.102h24.133V60.393h18.886l6.82 11.541h24.133l-9.968-17.312c-.175-.35-.42-1.155 0-1.574.047-.048.172-.134.358-.262 1.878-1.297 10.04-6.931 9.085-21.248-1.049-15.739-13.115-23.083-23.608-25.706h-49.84zm24.133 32.526h20.985c1.399-.35 4.197-1.888 4.197-5.246 0-3.358-2.798-5.246-4.197-5.77h-20.985v11.016zm95.484 33.576c12.066-.524 36.304-8.184 36.723-34.625-.524-26.231-27.805-32.002-36.723-31.477l-.327.019c-9.166.534-32.781 1.912-37.446 31.458 0 24.133 22.034 35.675 37.773 34.625zm.178-22.057c4.078-.183 12.271-2.854 12.413-12.073-.177-9.147-9.399-11.16-12.413-10.976l-.111.006c-3.098.187-11.081.667-12.658 10.97 0 8.415 7.449 12.44 12.769 12.073z"/><path d="M251.574 71.934V5.832h24.658V49.9h37.248v22.034h-61.906zm69.25 0V5.832h26.231v66.102h-26.231zm33.574-66.102v66.102h22.035v-27.28l48.265 27.28V5.832h-22.034v26.755L354.398 5.832zm78.696 66.102V5.832h61.905v20.985h-36.723v5.246h13.64v-3.148l9.443 9.968-9.443 8.918v-3.147h-13.64V49.9h36.723v22.034h-61.905zm-347.5 29.621h11.05V114h-3.292v-9.785h-4.465V114h-3.293v-12.445zm20.543 0h3.07v1.828a4.6 4.6 0 011.617-1.524 4.466 4.466 0 012.262-.586c1.445 0 2.672.567 3.68 1.7 1.007 1.132 1.511 2.711 1.511 4.734 0 2.078-.507 3.695-1.523 4.852-1.016 1.148-2.246 1.722-3.692 1.722a4.22 4.22 0 01-1.874-.41c-.555-.273-1.141-.742-1.758-1.406v6.269h-3.293v-17.179zm3.258 6.011c0 1.399.277 2.434.832 3.106.554.664 1.23.996 2.027.996.766 0 1.402-.305 1.91-.914.508-.617.762-1.625.762-3.024 0-1.304-.262-2.273-.785-2.906-.524-.633-1.172-.949-1.946-.949-.804 0-1.472.313-2.004.937-.531.618-.796 1.536-.796 2.754zm16.746.036c0-1.094.269-2.153.808-3.176a5.558 5.558 0 012.285-2.344c.993-.539 2.098-.809 3.317-.809 1.883 0 3.426.614 4.629 1.84 1.203 1.219 1.804 2.762 1.804 4.629 0 1.883-.609 3.446-1.828 4.688-1.211 1.234-2.738 1.851-4.582 1.851a7.27 7.27 0 01-3.269-.773 5.32 5.32 0 01-2.356-2.262c-.539-1-.808-2.215-.808-3.644zm3.375.175c0 1.235.293 2.18.879 2.836.585.657 1.308.985 2.167.985.86 0 1.579-.328 2.157-.985.586-.656.879-1.609.879-2.859 0-1.219-.293-2.156-.879-2.813-.578-.656-1.297-.984-2.157-.984-.859 0-1.582.328-2.167.984-.586.657-.879 1.602-.879 2.836zm17.824-6.222h4.078l3.094 8.672 3.117-8.672h4.066V114h-2.8v-8.191L155.859 114h-2.812l-2.895-8.191V114h-2.812v-12.445zm23.695 0h3.293v5.168h3.305c1.297 0 2.285.093 2.965.281.687.18 1.265.578 1.734 1.195.477.617.715 1.344.715 2.18 0 1.203-.414 2.109-1.242 2.719-.828.601-2.071.902-3.727.902h-7.043v-12.445zm3.293 10.359h3.059c.797 0 1.375-.125 1.734-.375s.539-.656.539-1.219c0-.601-.234-1.011-.703-1.23-.461-.227-1.293-.34-2.496-.34h-2.133v3.164zm10.594-10.359h3.293V114h-3.293v-12.445zm12.516 0h3.023v9.785h3.82v-9.785h3.035v9.785h3.809v-9.785h3.035V114h-16.722v-12.445zm26.988 0h11.027V114h-3.281v-9.773h-4.488v5.589c0 1.422-.164 2.422-.493 3-.328.571-.691.946-1.089 1.125-.399.18-1.04.27-1.922.27-.524 0-1.215-.07-2.075-.211v-2.426c.071 0 .254.008.551.024.344.023.61.035.797.035.445 0 .719-.145.82-.434.102-.297.153-1.113.153-2.449v-7.195zm27.246 8.484l3.281.551c-.422 1.203-1.09 2.121-2.004 2.754-.906.625-2.043.937-3.41.937-2.164 0-3.766-.707-4.805-2.121-.82-1.133-1.23-2.562-1.23-4.289 0-2.062.539-3.676 1.617-4.84 1.078-1.172 2.441-1.758 4.09-1.758 1.851 0 3.312.614 4.383 1.84 1.07 1.219 1.582 3.09 1.535 5.614h-8.25c.023.976.289 1.738.797 2.285.508.539 1.14.808 1.898.808.516 0 .949-.14 1.301-.422.352-.281.617-.734.797-1.359zm.187-3.328c-.023-.953-.269-1.676-.738-2.168-.469-.5-1.039-.75-1.711-.75-.719 0-1.312.262-1.781.785-.469.524-.699 1.234-.691 2.133h4.921zm11.836-5.156h3.293v4.558h4.711v-4.558h3.305V114h-3.305v-5.227h-4.711V114h-3.293v-12.445zm20.508 0h3.293v4.558h4.711v-4.558h3.305V114h-3.305v-5.227h-4.711V114h-3.293v-12.445zm20.66 0h3.293v5.168h3.305c1.297 0 2.285.093 2.965.281.687.18 1.265.578 1.734 1.195.477.617.715 1.344.715 2.18 0 1.203-.414 2.109-1.242 2.719-.828.601-2.071.902-3.727.902h-7.043v-12.445zm3.293 10.359h3.059c.797 0 1.375-.125 1.734-.375.36-.25.539-.656.539-1.219 0-.601-.234-1.011-.703-1.23-.461-.227-1.293-.34-2.496-.34h-2.133v3.164zm10.594-10.359h3.293V114h-3.293v-12.445zm12.516 0h3.164v7.816l5.062-7.816h3.235V114h-3.165v-7.957L334.43 114h-3.164v-12.445zm7.886-5.051h1.606c-.094 1.062-.469 1.898-1.125 2.508-.649.601-1.492.902-2.531.902-1.04 0-1.887-.3-2.543-.902-.649-.61-1.02-1.446-1.114-2.508h1.606c.054.555.25.977.586 1.265.336.282.824.422 1.465.422.64 0 1.128-.14 1.464-.422.336-.288.532-.71.586-1.265zm36.493 8.73l-3.247.586c-.109-.648-.359-1.136-.75-1.465-.382-.328-.882-.492-1.5-.492-.82 0-1.476.285-1.968.856-.485.562-.727 1.508-.727 2.836 0 1.476.246 2.519.738 3.129.5.609 1.168.914 2.004.914.625 0 1.137-.176 1.535-.528.399-.359.68-.972.844-1.84l3.235.551c-.336 1.485-.981 2.606-1.934 3.364-.953.757-2.23 1.136-3.832 1.136-1.82 0-3.273-.574-4.359-1.722-1.079-1.149-1.618-2.739-1.618-4.77 0-2.055.543-3.652 1.629-4.793 1.086-1.148 2.555-1.723 4.407-1.723 1.515 0 2.718.329 3.609.985.898.648 1.543 1.64 1.934 2.976zm15.714 4.805l3.282.551c-.422 1.203-1.09 2.121-2.004 2.754-.907.625-2.043.937-3.41.937-2.165 0-3.766-.707-4.805-2.121-.82-1.133-1.231-2.562-1.231-4.289 0-2.062.539-3.676 1.618-4.84 1.078-1.172 2.441-1.758 4.089-1.758 1.852 0 3.313.614 4.383 1.84 1.071 1.219 1.582 3.09 1.535 5.614h-8.25c.024.976.289 1.738.797 2.285.508.539 1.141.808 1.899.808.515 0 .949-.14 1.3-.422.352-.281.618-.734.797-1.359zm.188-3.328c-.024-.953-.27-1.676-.738-2.168-.469-.5-1.039-.75-1.711-.75-.719 0-1.313.262-1.782.785-.468.524-.699 1.234-.691 2.133h4.922zm11.836-5.156h3.281v5.086c.547-.063.934-.231 1.16-.504.227-.274.5-.871.821-1.793.421-1.227.882-2.012 1.382-2.356.5-.343 1.157-.515 1.969-.515.25 0 .684.019 1.301.058l.012 2.18c-.868 0-1.422.082-1.664.246-.243.172-.504.684-.786 1.535-.382 1.149-.933 1.856-1.652 2.121 1.039.289 1.918 1.192 2.637 2.707.039.078.082.16.129.246l1.839 3.434h-3.539l-1.64-3.598c-.336-.726-.629-1.191-.879-1.394-.242-.211-.606-.317-1.09-.317V114h-3.281v-12.445zm16.676 0h11.261v2.66h-3.984V114h-3.293v-9.785h-3.984v-2.66zm18.152 6.047c0-1.094.269-2.153.809-3.176.539-1.024 1.3-1.805 2.285-2.344.992-.539 2.097-.809 3.316-.809 1.883 0 3.426.614 4.629 1.84 1.203 1.219 1.805 2.762 1.805 4.629 0 1.883-.61 3.446-1.828 4.688-1.211 1.234-2.739 1.851-4.582 1.851a7.272 7.272 0 01-3.27-.773 5.323 5.323 0 01-2.355-2.262c-.54-1-.809-2.215-.809-3.644zm3.375.175c0 1.235.293 2.18.879 2.836.586.657 1.308.985 2.168.985.859 0 1.578-.328 2.156-.985.586-.656.879-1.609.879-2.859 0-1.219-.293-2.156-.879-2.813-.578-.656-1.297-.984-2.156-.984-.86 0-1.582.328-2.168.984-.586.657-.879 1.602-.879 2.836zm17.965-6.222h3.07v1.828a4.61 4.61 0 011.617-1.524 4.466 4.466 0 012.262-.586c1.445 0 2.672.567 3.68 1.7 1.008 1.132 1.511 2.711 1.511 4.734 0 2.078-.507 3.695-1.523 4.852-1.016 1.148-2.246 1.722-3.691 1.722a4.22 4.22 0 01-1.875-.41c-.555-.273-1.141-.742-1.758-1.406v6.269h-3.293v-17.179zm3.258 6.011c0 1.399.277 2.434.832 3.106.554.664 1.23.996 2.027.996.766 0 1.402-.305 1.91-.914.508-.617.762-1.625.762-3.024 0-1.304-.262-2.273-.785-2.906-.524-.633-1.172-.949-1.946-.949-.804 0-1.472.313-2.004.937-.531.618-.796 1.536-.796 2.754z"/></g><defs><filter id="filter0_d_129_32483" x="0" y=".8" width="499.999" height="122.935" filterUnits="userSpaceOnUse" color-interpolation-filters="sRGB"><feFlood flood-opacity="0" result="BackgroundImageFix"/><feColorMatrix in="SourceAlpha" values="0 0 0 0 0 0 0 0 0 0 0 0 0 0 0 0 0 0 127 0" result="hardAlpha"/><feOffset/><feGaussianBlur stdDeviation="2.5"/><feComposite in2="hardAlpha" operator="out"/><feColorMatrix values="0 0 0 0 1 0 0 0 0 1 0 0 0 0 1 0 0 0 0.35 0"/><feBlend in2="BackgroundImageFix" result="effect1_dropShadow_129_32483"/><feBlend in="SourceGraphic" in2="effect1_dropShadow_129_32483" result="shape"/></filter></defs></svg>