<svg width="86" height="195" fill="none" xmlns="http://www.w3.org/2000/svg"><g clip-path="url(#clip0_129_51171)"><path opacity=".3" d="M.5 160.501l24.638-14.191H60.19l24.614 14.191v19.808L60.19 194.5H25.139L.5 180.309v-19.808z" fill="#fff" stroke="#036063"/><path d="M78.843 174.538l4.898.74-8.363 5.214-18.555 10.712v-3.715l22.02-12.951z" fill="#fff" stroke="#036063"/><path d="M29.15 191.57l-7.245-4.47 36.907 2.613-2.646 1.857H29.15z" fill="#fff" stroke="#036063"/><path d="M19.317 180.463l4.777 8.198-14.17-8.17-8.395-5.234 7.12-1.212 10.668 6.418zM51.974 45.322l32.68-8.788v138.163l-23.956 13.782-8.724-143.157z" fill="#fff" stroke="#036063"/><path d="M66.541 159.973v-9.088l5.707-9.874 7.888-4.557 5.364 3.065-.024 9.111-5.708 9.875-7.886 4.556-5.34-3.088z" fill="#fff" stroke="#036063"/><path d="M63.184 149.1l4.179-2.455-1.779 3.898-.045.099v8.753l-2.355-1.359V149.1zm13.596-14.583l2.355 1.359-7.502 4.335-.094.054-.063.088-2.487 3.482.036-4.838 7.754-4.48z" fill="#fff" stroke="#036063"/><path d="M65.86 150.04l-2.493-1.436 5.336-9.244 2.493 1.435-5.336 9.245zm5.189-93.675l3.543-2.029.824.474-3.273 3.25-1.094-1.695zm-1.995 8.976l-1.133-3.918 2.603-4.544.89.517-2.36 7.945zm-1.163-3.131l.656.362v3.676l-.618-.361-.038-3.677z" fill="#fff" stroke="#036063"/><path d="M72.033 68.256l-2.483-1.427v-4.418l2.824-4.884 3.86-2.246 2.457 1.424v4.47l-2.823 4.882-3.835 2.199z" fill="#fff" stroke="#036063"/><path d="M71.965 67.216l5.813-10.038.29.17v3.877l-2.452 4.262-3.332 1.921-.32-.192z" fill="#fff" stroke="#036063"/><path d="M75.985 56.127l1.114.65-.023 3.875-2.451 4.263-3.338 1.902-1.116-.634V62.36l2.453-4.264 3.361-1.97z" fill="#fff" stroke="#036063"/><mask id="path-16-inside-1_129_51171" fill="#fff"><path d="M73.944 61.706l-.522.05 1.342-4.694.522-.05-1.342 4.694z"/></mask><path d="M73.944 61.706l-.522.05 1.342-4.694.522-.05-1.342 4.694z" fill="#fff"/><path d="M73.944 61.706l.095.995.679-.064.187-.656-.961-.275zm-.522.05l-.962-.276-.402 1.41 1.459-.139-.095-.995zm1.342-4.694l-.094-.995-.68.065-.187.655.961.275zm.522-.05l.962.276.403-1.41-1.46.14.095.995zM73.85 60.71l-.522.05.19 1.991.522-.05-.19-1.99zm.534 1.32l1.343-4.693-1.923-.55-1.343 4.694 1.924.55zm.476-3.972l.522-.05-.19-1.99-.522.049.19 1.99zm-.534-1.32l-1.343 4.693 1.923.55 1.343-4.693-1.923-.55z" fill="#036063" mask="url(#path-16-inside-1_129_51171)"/><path d="M73.102 62.65l-.222-.123v-.789l.59-1.036.674-.4.247.147v.775l-.609 1.054-.68.372zM.761 36.567l58.987 14.111v138.136h-34.27L.761 36.567z" fill="#fff" stroke="#036063"/><path d="M.648 36.772l23.905 13.8V188.45L.648 174.697V36.772zm25.091 13.011l3.629-11.242h26.588l3.606 11.242H25.739zm34.798-.243l-3.615-11.267 18.641-10.737 8.76 8.248L60.537 49.54zM58.548 1.791l-.381.24-29.555-.147-.294-.093h30.23z" fill="#fff" stroke="#036063"/><path d="M56.969.737L60.07 1.75l22.326 12.822-7.409-1.366L57.444 3.28 56.969.737z" fill="#fff" stroke="#036063"/><path d="M84.656 34.724l-8.52-8.023V11.91l8.543 4-.023 18.813zM24.767 49.54L.979 35.81l8.761-8.273 18.665 10.737-3.638 11.268zM10.715 14.215l-8.37.695L25.282 1.75l1.302-.428-15.87 12.893z" fill="#fff" stroke="#036063"/><path d="M.648 34.746V15.91l8.496-4 .023 14.79-8.52 8.045z" fill="#fff" stroke="#036063"/><path d="M10.143 11.414L29.14.5h27.049l18.946 10.913v15.215L56.188 37.541h-27.05l-18.97-10.913-.025-15.214z" fill="#036063" stroke="#036063"/></g><defs><clipPath id="clip0_129_51171"><path fill="#fff" d="M0 0h86v195H0z"/></clipPath></defs></svg>