<svg width="214" height="54" fill="none" xmlns="http://www.w3.org/2000/svg"><path fill-rule="evenodd" clip-rule="evenodd" d="M71.496 27.173c-.215-2.121.137-4.286 1.027-5.906.835-1.52 2.03-2.471 4.36-2.673 5.15-.444 7.368 1.481 7.573 6.473.184 4.5-1.262 8.18-5.527 8.569-4.678.427-7.002-2.21-7.433-6.463zm19.97.602c.555-5.478-1.06-9.837-6.498-11.39-1.616-.46-3.56-.56-5.311-.597-3.465-.074-7.781-.185-10.546 1.326-2.44 1.333-4.317 3.61-4.684 7.283-.369 3.68.604 7.693 2.603 9.424 2.343 2.028 5.494 2.47 9.254 2.684 3.381.194 7.738-.122 10.56-1.367 2.828-1.248 4.23-3.51 4.621-7.363zm-31.087-8.16l1.967-3.304H45.53c-2.851-.002-4.92.464-6.096 2.291-1.22 1.897-1.515 4.244-1.517 6.861-.003 4.944-.068 9.456 6.287 10.476.132.021.288.04.468.059 3.11.31 13.004.146 16.076.146l1.301-3.111H50.986c-1.642 0-3.698.23-4.976-.633-1.34-.904-.976-2.253-.976-4.53h13.433l1.537-3.26h-14.97c0-5.004.434-4.989 5.258-4.989l10.087-.006zM9.52 32.486c-.363.214-.588.414-.894.694-1.788 1.604-3.802 3.525-5.302 5.372-1.413 1.74-3.946 5.431-3.018 8.765.71 2.547 4.045 4.43 6.932 5.23 11.234 3.113 29.43-2.549 40.003-6.807 1.406-.566 7.804-3.134 8.193-3.91-1.077.31-2.254.803-3.354 1.182-3.494 1.203-7.112 2.18-10.704 3.025-5.145 1.212-10.608 2-16.08 2.203-4.567.17-12.44-.41-15.591-2.705C7.99 44.288 6.629 42.403 7 39.128c.405-3.556 2.274-5.871 2.52-6.642z" fill="#3594B1"/><path fill-rule="evenodd" clip-rule="evenodd" d="M36.85 32.943l-10.066.005c-1.382 0-2.652-.284-3.25-1.273-.27-.447-.195-.693-.195-1.201l.004-14.163h-7.366l-.213 14.567c-.058 1.632.091 3.002.971 3.946 1.626 1.743 5.685 1.32 8.468 1.32h9.694l1.953-3.2zM59.133 8.426c.872-.194 1.868-.565 2.757-.815 6.746-1.892 14.308-3.194 21.332-2.973 3.478.109 8.965.846 11.204 2.686 1.31 1.076 2.003 2.874 1.561 5.172-.506 2.633-1.687 3.917-2.076 4.935 1.11-.45 4.243-3.688 4.984-4.4.58-.558 1.495-1.86 1.963-2.731 2.166-4.034.164-6.631-3.884-8.26-7.989-3.215-23.26.966-31.272 3.612-3.236 1.069-3.807 1.48-6.57 2.668l-.3.166.3-.06zm50.736-7.316h-1.095v52.033h1.095V1.109z" fill="#3594B1"/><path d="M119.817 13.865h-1.836V5.15h1.836v8.714zm9.421 0h-1.771l-4.109-5.683v5.683h-1.836V5.15h1.887l3.994 5.474V5.15h1.835v8.714zm5.105 0h-3.399V5.15h3.399c1.353 0 2.453.4 3.302 1.202.849.801 1.273 1.855 1.273 3.161 0 1.307-.422 2.359-1.267 3.155-.844.797-1.947 1.196-3.308 1.196zm0-1.633c.827 0 1.484-.262 1.971-.784.486-.523.73-1.167.73-1.934 0-.8-.237-1.456-.711-1.966s-1.137-.764-1.99-.764h-1.564v5.448h1.564zm12.672.81c-.66.653-1.627.98-2.902.98-1.275 0-2.242-.33-2.901-.987-.659-.657-.989-1.54-.989-2.645V5.15h1.861v5.173c0 .627.177 1.126.53 1.496.353.37.853.555 1.499.555.646 0 1.144-.185 1.493-.555.349-.37.523-.869.523-1.496V5.151h1.874v5.226c0 1.123-.329 2.012-.988 2.665zm5.744.98c-1.533 0-2.748-.462-3.644-1.385l.995-1.411c.741.784 1.654 1.175 2.74 1.175.474 0 .842-.093 1.105-.28.262-.188.394-.416.394-.686 0-.235-.123-.431-.368-.588a2.606 2.606 0 00-.918-.34 11.574 11.574 0 01-2.391-.744 2.214 2.214 0 01-.918-.784c-.245-.357-.368-.793-.368-1.307 0-.749.297-1.378.892-1.887.594-.51 1.387-.764 2.378-.764 1.37 0 2.49.404 3.36 1.214l-1.021 1.359c-.681-.636-1.516-.954-2.507-.954-.388 0-.689.079-.905.236a.75.75 0 00-.323.64c0 .209.123.385.368.529.246.143.552.25.918.32s.763.172 1.189.307c.426.135.823.287 1.189.457.366.17.672.436.918.797.245.361.368.795.368 1.3 0 .836-.295 1.51-.885 2.025-.591.514-1.446.77-2.566.77zm8.362-.157h-1.848V6.784h-2.52V5.151h6.875v1.633h-2.507v7.08zm10.662 0h-2.106l-1.694-3.096h-1.344v3.096h-1.835V5.15h4.032c.888 0 1.592.261 2.113.784.522.522.782 1.197.782 2.025 0 .714-.183 1.293-.549 1.737a2.406 2.406 0 01-1.338.85l1.939 3.318zm-3.218-4.73c.379 0 .689-.106.93-.32.242-.213.362-.498.362-.855s-.12-.642-.362-.856c-.241-.213-.551-.32-.93-.32h-1.926v2.352h1.926zm6.384 4.73h-1.835V5.15h1.835v8.714zm9.745 0H182.6l-.53-1.476h-3.696l-.543 1.476h-2.093l3.334-8.714h2.3l3.322 8.714zm-3.128-3.11l-1.344-3.749-1.344 3.75h2.688zm9.409 3.11h-5.48V5.15h1.835v7.08h3.645v1.634zM126.02 29.777h-2.094l-.53-1.477H119.7l-.543 1.477h-2.093l3.334-8.714h2.301l3.321 8.714zm-3.128-3.11l-1.344-3.749-1.344 3.75h2.688zm11.645 3.11h-1.771l-4.11-5.683v5.683h-1.835v-8.714h1.887l3.994 5.474v-5.474h1.835v8.714zm5.105 0h-3.399v-8.714h3.399c1.352 0 2.453.4 3.302 1.202.848.801 1.273 1.855 1.273 3.161 0 1.307-.422 2.359-1.267 3.155-.844.797-1.947 1.196-3.308 1.196zm0-1.633c.827 0 1.484-.262 1.971-.784.486-.523.73-1.167.73-1.934 0-.8-.237-1.456-.711-1.966s-1.137-.764-1.99-.764h-1.564v5.448h1.564zm12.587 1.633h-3.399v-8.714h3.399c1.353 0 2.454.4 3.302 1.202.849.801 1.273 1.855 1.273 3.161 0 1.307-.422 2.359-1.266 3.155-.844.797-1.947 1.196-3.309 1.196zm0-1.633c.828 0 1.485-.262 1.971-.784.487-.523.731-1.167.731-1.934 0-.8-.237-1.456-.711-1.966s-1.138-.764-1.991-.764h-1.563v5.448h1.563zm9.965 1.79c-1.301 0-2.376-.425-3.225-1.274-.849-.85-1.273-1.927-1.273-3.234 0-1.306.424-2.384 1.273-3.233.849-.85 1.924-1.274 3.225-1.274 1.309 0 2.388.423 3.237 1.267.849.845 1.273 1.925 1.273 3.24 0 1.316-.424 2.396-1.273 3.24-.849.845-1.928 1.267-3.237 1.267zm-1.894-2.457c.478.54 1.11.81 1.894.81.784 0 1.417-.27 1.899-.81.483-.54.724-1.223.724-2.05 0-.828-.241-1.512-.724-2.052-.482-.54-1.115-.81-1.899-.81s-1.416.27-1.894.81-.717 1.224-.717 2.051c0 .828.239 1.512.717 2.051zm17.04 2.3h-1.848v-6.101l-2.429 6.1h-.802l-2.429-6.1v6.1h-1.836v-8.713h2.572l2.094 5.265 2.094-5.265h2.584v8.714zm7.806 0h-6.1v-8.714h6.1v1.633h-4.265v1.842h4.175v1.633h-4.175v1.973h4.265v1.633zm4.498.156c-1.534 0-2.749-.461-3.645-1.384l.996-1.411c.74.784 1.654 1.175 2.739 1.175.474 0 .843-.093 1.105-.28.263-.188.395-.416.395-.686 0-.235-.123-.431-.369-.588a2.59 2.59 0 00-.917-.34 11.614 11.614 0 01-2.391-.744 2.214 2.214 0 01-.918-.784c-.245-.357-.368-.793-.368-1.307 0-.749.297-1.378.891-1.887.595-.51 1.388-.764 2.378-.764 1.37 0 2.491.404 3.361 1.214l-1.021 1.359c-.681-.636-1.517-.954-2.507-.954-.388 0-.69.079-.905.236a.748.748 0 00-.323.64c0 .209.123.385.368.529.246.143.552.25.918.32s.762.172 1.189.307c.426.135.823.287 1.189.457.366.17.672.436.917.797.246.361.369.795.369 1.3 0 .836-.296 1.51-.886 2.025-.59.514-1.445.77-2.565.77zm8.362-.156h-1.848v-7.081h-2.521v-1.633h6.876v1.633h-2.507v7.08zm5.518 0h-1.835v-8.714h1.835v8.714zm5.88.156c-1.309 0-2.401-.42-3.276-1.26-.874-.84-1.312-1.923-1.312-3.247 0-1.323.438-2.405 1.312-3.246.875-.84 1.967-1.26 3.276-1.26 1.611 0 2.813.71 3.606 2.129l-1.577.784a2.384 2.384 0 00-.833-.908 2.141 2.141 0 00-1.196-.36c-.784 0-1.43.27-1.938.81-.509.54-.763 1.224-.763 2.051 0 .828.254 1.512.763 2.051.508.54 1.154.81 1.938.81.431 0 .83-.117 1.196-.352s.644-.54.833-.915l1.577.771c-.818 1.428-2.02 2.142-3.606 2.142zM119.817 45.69h-1.836v-8.714h4.033c.904 0 1.613.268 2.126.803.512.536.769 1.205.769 2.006 0 .792-.259 1.459-.776 1.999s-1.223.81-2.119.81h-2.197v3.096zm1.951-4.73c.371 0 .674-.106.911-.32.237-.213.356-.498.356-.855s-.119-.642-.356-.856c-.237-.213-.54-.32-.911-.32h-1.951v2.352h1.951zm11.069 3.906c-.659.654-1.626.98-2.901.98s-2.242-.328-2.901-.986c-.66-.657-.989-1.54-.989-2.645v-5.239h1.861v5.173c0 .627.176 1.126.53 1.496.353.37.853.555 1.499.555.646 0 1.144-.185 1.493-.555.349-.37.523-.869.523-1.496v-5.173h1.874V42.2c0 1.124-.33 2.012-.989 2.665zm12.026.824h-1.848v-6.101l-2.43 6.1h-.801l-2.43-6.1v6.1h-1.835v-8.713h2.572l2.093 5.265 2.094-5.265h2.585v8.714zm3.541 0h-1.835v-8.714h4.032c.905 0 1.613.268 2.126.803.513.536.769 1.205.769 2.006 0 .792-.259 1.459-.775 1.999-.517.54-1.224.81-2.12.81h-2.197v3.096zm1.951-4.73c.371 0 .675-.106.912-.32.237-.213.355-.498.355-.855s-.118-.642-.355-.856c-.237-.213-.541-.32-.912-.32h-1.951v2.352h1.951zm7.341 4.886c-1.533 0-2.748-.461-3.644-1.384l.995-1.411c.741.784 1.654 1.175 2.74 1.175.474 0 .842-.093 1.105-.28.262-.188.394-.416.394-.686 0-.235-.123-.431-.368-.588a2.606 2.606 0 00-.918-.34 11.574 11.574 0 01-2.391-.744 2.214 2.214 0 01-.918-.784c-.245-.357-.368-.793-.368-1.307 0-.749.297-1.378.892-1.888.594-.509 1.387-.764 2.378-.764 1.37 0 2.49.405 3.36 1.215l-1.021 1.359c-.681-.636-1.516-.954-2.507-.954-.388 0-.689.079-.905.235a.751.751 0 00-.323.64c0 .21.123.386.368.53.246.143.552.25.918.32s.763.172 1.189.307c.427.135.823.287 1.189.457.366.17.672.435.918.797.245.361.368.795.368 1.3 0 .836-.295 1.51-.885 2.025-.59.514-1.446.77-2.566.77z" fill="#3594B1"/></svg>