<svg width="186" height="25" fill="none" xmlns="http://www.w3.org/2000/svg"><path fill-rule="evenodd" clip-rule="evenodd" d="M32.576 24.316L32.438.978h8.611v8.596H57.31V1.046h8.196v23.336H57.31v-8.46H40.98v8.394h-8.404zM29.942 6.8c.103-.344.103-.983-.077-1.565-.184-.587-.545-1.114-1.039-1.63a8.795 8.795 0 00-1.83-1.469c-.73-.44-1.572-.815-2.232-1.034-.663-.222-1.142-.288-4.12-.322C17.657.75 12.169.75 9.377.75c-2.787 0-2.882 0-3.297.1-.424.096-1.175.296-1.93.627-.751.33-1.503.793-2.092 1.378a5.817 5.817 0 00-1.31 2.004C.46 5.574.326 6.3.234 7.194.143 8.088.1 9.144.188 10.07c.091.926.32 1.717.73 2.444a5.582 5.582 0 001.756 1.896c.75.508 1.66.859 2.262 1.059.602.199.903.24 3.509.263 2.61.024 7.525.024 10.078.013 2.552-.013 2.734-.035 2.949.075.217.111.468.353.603.628.138.276.16.585.068.838-.09.254-.296.452-.49.595-.191.144-.372.231-3.95.278-3.577.041-10.545.041-14.083.066-3.544.019-3.66.064-3.614.45.045.386.251 1.115.66 1.853a6.761 6.761 0 001.812 2.08c.786.596 1.743 1.038 2.495 1.302.75.263 1.298.352 4.507.395 3.213.045 9.088.045 12.161.011 3.077-.032 3.35-.1 3.871-.307.527-.21 1.302-.563 1.975-1.026a6.37 6.37 0 001.649-1.642c.412-.606.66-1.246.787-2.455.122-1.213.122-3 .1-3.99-.018-.992-.067-1.19-.261-1.544a7.448 7.448 0 00-.976-1.343 7.305 7.305 0 00-1.688-1.354 9.667 9.667 0 00-2.23-.949c-.695-.188-1.246-.21-3.84-.22-2.594-.013-7.241-.013-9.69-.032-2.45-.023-2.7-.068-2.893-.167a.864.864 0 01-.42-.484c-.094-.232-.137-.54-.034-.795.1-.252.35-.452.623-.588.271-.136.567-.211 3.89-.251 3.327-.037 9.683-.037 12.987-.023 3.304.016 3.556.05 3.7.065a.88.88 0 00.32-.007c.126-.023.33-.066.43-.405zm119.504 2.584l3.452.024L162.187.98h11.993l-12.575 10.808 15 12.628h-11.682l-11.239-9.321h-4.238v9.256h-8.202V.881h8.202v8.503zm28.286 15.098V1.014h8.199v23.468h-8.199zm-59.127-9.587h7.494l-3.778-7.338-3.716 7.338zm10.13 5.124h-12.728l-2.295 4.53h-9.225l12.162-23.535h8.747c4.975.439 9.884 15.689 14.827 23.535h-9.156l-2.332-4.53zm-35.864 4.397C87.897 23.976 82.987 8.725 78.046.88H87.2l8.747 16.992L104.556.88h9.224l-12.161 23.536h-8.748zm-24.187-.065V.881h8.199v23.47h-8.2z" fill="#E10D13"/></svg>