<svg width="97" height="49" fill="none" xmlns="http://www.w3.org/2000/svg"><path d="M63.165 10.494c1.487 1.295 2.952 2.838 4.069 4.412v.046l-.18-.046c-8.059-6.084-17.414-9.387-28.08-8.593-5.607.748-11.394 2.736-14.378 8.314-1.795-2.638-3.08-5.494-3.346-8.778 10.555-10.895 32.373-3.563 41.914 4.645z" fill="#EF7F1A"/><path d="M16.271 12.862l-6.692.093c-.778.172-1.66.381-2.034 1.254-.697 1.672-.367 3.78-.453 5.713l.09.14h7.461v4.226h-7.46l-.09.093v24.477H.897L.853 15.974c.126-2.429.927-5.132 3.39-5.991.955-.34 1.99-.484 3.03-.604h8.998v3.483zm69.994 24.245c.082.441.33.845.724 1.114.47.145.94.298 1.492.233v3.251l-4.657-.046c-1.13-.186-2.26-.771-2.849-1.905-.298-.631-.501-1.3-.542-2.043l-.045-28.332h5.832l.045 27.728zm10.528-22.201l-5.832.046-.046-5.527.046-.046h5.832v5.527zm-66.191 4.137c1.836 2.977 1.737 6.776 1.719 10.543h-8.636l-.091.093c.095 2.443-.072 5.002.498 7.245.24.557.723 1.185 1.356 1.254.723.033 1.46-.093 1.808-.79.245-.515.276-1.114.317-1.718l4.115-.046c.095 2.03-.439 4.036-2.126 5.248-2.328 1.329-5.995 1.56-8.274-.046-3.215-2.583-3.522-6.66-3.753-10.637-.027-4.198.208-8.28 2.759-11.379 1.97-2.28 5.452-2.689 8.138-1.625.828.371 1.65 1.026 2.17 1.858zm16.008-1.952l.046 5.017c.018.041-.023.065-.046.092-1.555-.715-3.865-.808-5.47-.139l-.181.186v19.46h-5.833l-.045-24.755h4.837c.11.38.181.776.407 1.115 1.655-1.417 4.255-1.881 6.285-.976zm13.47-.003l.045 5.016c.018.042-.023.065-.045.093-1.57-.724-3.961-.831-5.562-.093l-.09.093v19.46l-5.833.047-.045-24.755h4.838c.05.38.244.715.361 1.068.313-.088.52-.418.814-.557 1.529-.897 3.862-1.185 5.517-.372zm15.468 2.739c1.266 2.392 1.65 5.155 1.763 8.035l-.045.046c.063 3.906-.01 7.873-1.9 11.008-1.586 2.527-4.281 3.233-7.098 2.973-2.573-.177-4.96-2.462-5.697-4.924-1.239-3.558-1.248-7.924-.86-11.89.448-3.153 1.516-6.735 4.794-7.988 3.237-1.036 7.202-.483 9.043 2.74zm21.245 21.88h-5.832l-.046-24.663.046-.093h5.832v24.756z" fill="#2B2A29"/><path d="M70.617 21.13c.57 1.867.402 4.059.497 6.13l-.045 6.781c-.222 1.436.04 3.191-1.266 4.041-.48.098-1.018.065-1.357-.325-.411-.39-.497-.91-.587-1.44l-.181-2.647-.09-5.945c.108-2.211-.11-4.566.542-6.549.217-.395.606-.739 1.04-.79.61-.064 1.121.21 1.447.744zm-43.952-.281c.565.66.588 1.551.678 2.415.027.93.131 1.83.09 2.787-1.207.088-2.468.028-3.707.046l-.09-.093c.085-1.606-.041-3.302.452-4.737.162-.441.615-.757 1.04-.836.57 0 1.166-.07 1.537.418z" fill="#fff"/></svg>