<svg width="80" height="188" fill="none" xmlns="http://www.w3.org/2000/svg"><g clip-path="url(#clip0_129_50199)"><path opacity=".3" d="M31.33 141.963L.994 159.652l47.7 27.77 30.314-17.689-47.676-27.77z" fill="#fff" stroke="#036063"/><path d="M48.629 185.765l.02.008.02.01a2.75 2.75 0 002.553 0l.019-.01.02-.008a.539.539 0 00.325-.439v-2.623h-3.282v2.623a.55.55 0 00.325.439z" fill="#fff" stroke="#036063"/><path d="M51.22 182.588l.036-.018.038-.013a.41.41 0 00.204-.152.432.432 0 000-.499.41.41 0 00-.204-.152l-.038-.013-.035-.019a2.749 2.749 0 00-2.554 0l-.035.019-.038.013a.41.41 0 00-.204.152l-.384-.274.384.274a.43.43 0 000 .499l-.4.285.4-.285a.41.41 0 00.204.152l.038.013.035.018a2.749 2.749 0 002.554 0zM2.435 159.389v-.001l.011.006a2.89 2.89 0 002.573 0h0l.01-.005a.61.61 0 00.344-.475v-2.619H2.091v2.619a.62.62 0 00.344.475z" fill="#fff" stroke="#036063"/><path d="M2.283 156.226l.024.009.023.012a2.89 2.89 0 002.565.004c.406-.223.45-.413.45-.462 0-.041-.035-.221-.44-.421h0l-.012-.006a2.749 2.749 0 00-2.553 0l-.028.015-.029.011a.436.436 0 00-.206.162.452.452 0 00.206.676zm72.971 14.024h0l.01.005a2.891 2.891 0 002.573 0h0l.01-.005a.617.617 0 00.344-.475v-2.619H74.91v2.619a.615.615 0 00.344.475z" fill="#fff" stroke="#036063"/><path d="M76.539 167.405c.444 0 .883-.107 1.28-.311.306-.18.355-.351.355-.429 0-.08-.053-.258-.36-.448a2.791 2.791 0 00-2.55 0c-.308.19-.36.368-.36.448 0 .078.049.249.355.429.396.204.835.311 1.28.311zM.5 18.834v137.691L48.34 184.4 79.403 28.777.5 18.834z" fill="#fff" stroke="#036063"/><path d="M24.164 88.373c.925.536 1.695.767 2.189.767.244 0 .367-.056.419-.098.034-.028.081-.082.081-.236 0-.17-.062-.41-.216-.714a5.109 5.109 0 00-.673-.972 9.338 9.338 0 00-2.304-1.905c-.912-.536-1.675-.766-2.165-.766-.243 0-.365.056-.416.098-.035.028-.082.082-.082.236 0 .372.274.982.87 1.69a8.957 8.957 0 002.297 1.9zm25.029-41.471v137.411L79.5 166.629V29.219L49.193 46.901z" fill="#fff" stroke="#036063"/><path d="M31.33.579L.994 18.267l47.7 27.77 30.314-17.689L31.331.578z" fill="#036063" stroke="#036063"/><path d="M48.194 94.774v-.333L.501 66.652v.31l47.693 27.812z" fill="#fff" stroke="#036063"/><mask id="path-13-inside-1_129_50199" fill="#fff"><path d="M.001 154.352l48.693 28.395v.449L.001 154.801v-.449z"/></mask><path d="M.001 154.352l48.693 28.395v.449L.001 154.801v-.449z" fill="#fff"/><path d="M.001 154.352h-1v-1.741l1.504.877-.504.864zm48.693 28.395l.504-.864.496.289v.575h-1zm0 .449h1v1.741l-1.504-.877.504-.864zM.001 154.801l-.503.864-.497-.289v-.575h1zm.504-1.313l48.693 28.395-1.008 1.728-48.692-28.396 1.007-1.727zm49.19 29.259v.449h-2v-.449h2zm-1.505 1.313L-.502 155.665l1.007-1.728 48.693 28.396-1.008 1.727zM-.999 154.801v-.449h2v.449h-2z" fill="#036063" mask="url(#path-13-inside-1_129_50199)"/><path d="M44.323 128.699l2.285 1.339.67-.393.023-25.913-2.978-.691v25.658z" fill="#fff" stroke="#036063"/><path d="M47.3 104.215l-.192.114v25.416l.17-.1.022-25.43zm-2.284-1.911l-.197.113 1.787 1.048.206-.123-1.796-1.038z" fill="#fff" stroke="#036063"/></g><defs><clipPath id="clip0_129_50199"><path fill="#fff" transform="matrix(-1 0 0 1 80 0)" d="M0 0h80v188H0z"/></clipPath></defs></svg>