<svg width="180" height="25" xmlns="http://www.w3.org/2000/svg"><path fill-rule="evenodd" clip-rule="evenodd" d="M0 .01v24.283h8.865v-4.24h9.25c1.542-.32 4.683-1.412 6.553-3.468 1.927-2.12 3.276-8.48 1.156-11.37C23.166 1.588 20.428.395 17.73.01H0zm8.865 11.95V7.72h7.323c.642.257 1.927 1.08 1.927 2.313s-1.285 1.798-1.927 1.927H8.865zM30.064.012v24.282h8.864v-4.24h6.938l2.506 4.24h8.865l-3.662-6.36c-.064-.128-.154-.423 0-.578a1.36 1.36 0 01.132-.096c.69-.476 3.688-2.546 3.337-7.805-.385-5.782-4.818-8.48-8.672-9.443H30.064zm8.865 11.948h7.709c.514-.128 1.542-.694 1.542-1.927s-1.028-1.927-1.542-2.12h-7.709v4.047zm35.075 12.334c4.432-.192 13.336-3.006 13.49-12.72C87.302 1.94 77.28-.18 74.004.013l-.12.007c-3.367.195-12.042.7-13.756 11.555 0 8.865 8.094 13.105 13.876 12.72zm.066-8.102c1.498-.067 4.508-1.049 4.56-4.435-.066-3.36-3.453-4.1-4.56-4.032l-.041.002c-1.138.068-4.07.245-4.65 4.03 0 3.09 2.736 4.57 4.69 4.435z" fill="#036063"/><path d="M90.578 24.294V.012h9.058V16.2h13.683v8.094H90.578zm25.438 0V.012h9.636v24.282h-9.636zM128.351.012v24.282h8.094V14.273l17.73 10.021V.012h-8.094V9.84L128.351.012zm28.908 24.282V.012H180V7.72h-13.49v1.928h5.01V8.49l3.469 3.662-3.469 3.276v-1.156h-5.01V16.2H180v8.094h-22.741z" fill="#6D6E70"/></svg>