<svg width="127" height="49" fill="none" xmlns="http://www.w3.org/2000/svg"><path d="M11.692 42.01v1.09H8.8v1.587h2.704v1.091H8.8v1.797h2.984v1.11H7.442v-6.676h4.25zm2.454.009v5.53h2.718v1.136h-4.106v-6.666h1.388zm7.785-.01V43.1H19.04v1.587h2.703v1.091H19.04v1.797h2.984v1.11h-4.343v-6.676h4.25zm2.048.028l1.659 5.237 1.668-5.237h1.34l-2.334 6.648h-1.483l-2.333-6.648h1.483zm8.214-.028l2.2 6.676h-1.37l-.454-1.439h-2.51l-.475 1.439h-1.297l2.291-6.676h1.615zm-1.783 4.155h1.817l-.878-2.843-.939 2.843zm8.774-4.155v1.11h-1.888v5.566H35.93v-5.566h-1.886v-1.11h5.141zm6.199 3.275c0 .677-.117 1.294-.35 1.853-.232.56-.583.985-1.051 1.277-.468.291-1.012.437-1.632.437-.96 0-1.707-.298-2.242-.897-.535-.599-.803-1.439-.803-2.52 0-1.11.268-1.981.802-2.614.533-.632 1.28-.95 2.243-.95 1.007 0 1.765.324 2.272.969.506.645.76 1.459.76 2.445zm-3.058 2.512c.585 0 1.005-.228 1.258-.685.254-.457.381-1.078.381-1.862 0-.71-.137-1.28-.414-1.71-.274-.43-.67-.645-1.183-.645-.533 0-.94.211-1.22.631-.28.422-.419 1.022-.419 1.8 0 .818.135 1.433.404 1.849.27.415.668.622 1.193.622zm6.802-5.787c.715 0 1.236.171 1.565.513a1.7 1.7 0 01.493 1.223c0 .413-.108.756-.325 1.028-.216.274-.55.477-1 .61.355.038.616.147.78.324.163.177.273.486.326.93.052.443.108.86.168 1.252.06.393.145.658.253.796h-1.5l-.159-1.203a12.03 12.03 0 00-.178-1.08c-.061-.275-.272-.412-.632-.412h-1.256v2.695H46.28v-6.676h2.848zm-.32 2.918c.294 0 .527-.09.698-.268a.964.964 0 00.257-.692c0-.292-.079-.516-.235-.671-.158-.154-.392-.233-.704-.233H47.62v1.864h1.187zm25.248-2.918V43.1h-2.891v1.587h2.704v1.091h-2.704v1.797h2.985v1.11h-4.343v-6.676h4.249zm5.752 1.867v.045H78.5v-.045c-.026-.308-.127-.546-.302-.717-.176-.17-.419-.255-.727-.255-.303 0-.553.081-.75.241-.198.162-.296.383-.296.665 0 .315.14.537.42.663.28.126.727.26 1.338.402.611.141 1.064.36 1.358.657.294.298.442.679.442 1.142 0 .65-.249 1.172-.746 1.57-.497.4-1.142.598-1.933.598-.854 0-1.481-.188-1.882-.562-.399-.374-.6-.95-.6-1.728h1.385v.054c0 .419.1.723.3.917.2.194.484.291.853.291.355 0 .643-.083.865-.25a.809.809 0 00.335-.687c0-.25-.079-.431-.235-.542-.158-.11-.39-.206-.7-.285l-.222-.053c-.706-.187-1.218-.376-1.535-.568-.316-.193-.536-.41-.66-.65a1.736 1.736 0 01-.184-.801c.006-.662.236-1.175.688-1.536.453-.362 1.061-.543 1.823-.543.704 0 1.258.173 1.664.521.405.348.609.833.609 1.456zm6.123.313h-1.385c-.038-.385-.142-.676-.313-.873-.172-.199-.41-.297-.716-.297-.46 0-.815.223-1.062.67-.247.449-.37 1.052-.37 1.809 0 .754.113 1.324.341 1.71.227.386.559.578.996.578.327 0 .6-.118.811-.358.214-.239.32-.54.32-.903h1.43c0 .69-.226 1.25-.678 1.677-.453.426-1.038.64-1.754.64-.911 0-1.62-.297-2.125-.89-.506-.593-.759-1.415-.759-2.463 0-1.047.262-1.895.784-2.542.523-.65 1.23-.975 2.123-.975.671 0 1.23.199 1.677.597.448.398.674.938.68 1.62zm4.24-2.18l2.2 6.676H91l-.455-1.439h-2.51l-.474 1.439h-1.298l2.292-6.676h1.614zm-1.783 4.155h1.816l-.877-2.843-.94 2.843zm6.162-4.145v5.53h2.718v1.136h-4.106v-6.666h1.388zm6.836-.01l2.201 6.676h-1.371l-.454-1.439h-2.51l-.475 1.439H97.48l2.292-6.676h1.614zm-1.783 4.155h1.816l-.877-2.843-.939 2.843zm8.774-4.155v1.11h-1.888v5.566h-1.367v-5.566h-1.886v-1.11h5.141zm6.199 3.275c0 .677-.117 1.294-.35 1.853-.232.56-.583.985-1.051 1.277-.468.291-1.012.437-1.632.437-.959 0-1.707-.298-2.242-.897-.535-.599-.803-1.439-.803-2.52 0-1.11.268-1.981.802-2.614.534-.632 1.281-.95 2.243-.95 1.007 0 1.765.324 2.272.969.506.645.761 1.459.761 2.445zm-3.058 2.512c.585 0 1.005-.228 1.258-.685.254-.457.381-1.078.381-1.862 0-.71-.137-1.28-.414-1.71-.275-.43-.669-.645-1.183-.645-.533 0-.94.211-1.219.631-.281.422-.42 1.022-.42 1.8 0 .818.135 1.433.404 1.849.27.415.668.622 1.193.622zm6.803-5.787c.715 0 1.235.171 1.564.513a1.7 1.7 0 01.493 1.223c0 .413-.108.756-.325 1.028-.216.274-.549.477-1 .61.356.038.616.147.78.324.163.177.273.486.326.93.052.443.108.86.168 1.252.06.393.144.658.253.796h-1.501l-.157-1.203a11.821 11.821 0 00-.179-1.08c-.061-.275-.272-.412-.632-.412h-1.256v2.695h-1.383v-6.676h2.849zm-.321 2.918c.294 0 .527-.09.698-.268a.965.965 0 00.257-.692c0-.292-.079-.516-.235-.671-.158-.154-.392-.233-.704-.233h-1.203v1.864h1.187zm-61.102-1.051v.045h-1.308v-.045c-.026-.308-.127-.546-.302-.717-.176-.17-.419-.255-.727-.255-.303 0-.553.081-.75.241-.198.162-.296.383-.296.665 0 .315.14.537.42.663.28.126.727.26 1.338.402.611.141 1.065.36 1.358.657.294.298.442.679.442 1.142 0 .65-.248 1.172-.746 1.57-.497.4-1.142.598-1.933.598-.854 0-1.481-.188-1.882-.562-.399-.374-.6-.95-.6-1.728h1.386v.054c0 .419.099.723.3.917.2.194.483.291.852.291.355 0 .643-.083.865-.25a.808.808 0 00.335-.687c0-.25-.079-.431-.235-.542-.158-.11-.39-.206-.7-.285l-.221-.053c-.707-.187-1.218-.376-1.536-.568-.316-.193-.536-.41-.66-.65a1.734 1.734 0 01-.184-.801c.006-.662.236-1.175.688-1.536.453-.362 1.061-.543 1.823-.543.704 0 1.258.173 1.664.521.405.348.609.833.609 1.456zm7.595-.572c0 .321-.097.626-.288.914-.193.289-.508.555-.94.803l1.279 1.356a3.7 3.7 0 00.199-.77c.04-.261.058-.617.058-1.068h1.297c0 .553-.05 1.034-.149 1.445-.1.41-.287.85-.56 1.318l1.288 1.401h-1.639l-.493-.618a3.51 3.51 0 01-.98.592c-.324.122-.68.183-1.073.183-.708 0-1.284-.18-1.728-.54-.445-.361-.667-.852-.667-1.474 0-.41.116-.794.345-1.154.23-.36.557-.671.98-.93a2.272 2.272 0 01-.576-.677 1.56 1.56 0 01-.187-.737c0-.444.17-.808.51-1.09.34-.282.816-.424 1.43-.424.59 0 1.05.126 1.382.38.333.254.503.617.512 1.09zm-1.901.995c.201-.152.36-.312.47-.477a.883.883 0 00.167-.492.598.598 0 00-.166-.439c-.111-.112-.267-.17-.464-.17a.67.67 0 00-.462.16.548.548 0 00-.18.432c0 .15.066.318.197.506.132.188.277.348.438.48zm1.155 3.047l-1.597-1.708a1.852 1.852 0 00-.518.516c-.11.178-.163.373-.163.583a1.077 1.077 0 001.113 1.11c.185 0 .381-.047.589-.138.207-.092.399-.214.576-.363zm62.343-3.47v.045h-1.308v-.045c-.026-.308-.127-.546-.302-.717-.176-.17-.419-.255-.727-.255-.303 0-.553.081-.75.241-.198.162-.296.383-.296.665 0 .315.141.537.42.663.281.126.727.26 1.338.402.611.141 1.065.36 1.358.657.295.298.442.679.442 1.142 0 .65-.248 1.172-.746 1.57-.497.4-1.142.598-1.933.598-.854 0-1.481-.188-1.882-.562-.399-.374-.599-.95-.599-1.728h1.384v.054c0 .419.1.723.3.917.201.194.484.291.853.291.355 0 .643-.083.865-.25a.808.808 0 00.335-.687c0-.25-.079-.431-.235-.542-.158-.11-.39-.206-.699-.285l-.222-.053c-.707-.187-1.218-.376-1.536-.568-.316-.193-.536-.41-.659-.65a1.733 1.733 0 01-.185-.801c.006-.662.236-1.175.688-1.536.453-.362 1.061-.543 1.823-.543.704 0 1.258.173 1.664.521.405.348.609.833.609 1.456zM12.697 2.922v12.566c0 1.41 1.123 2.564 2.495 2.564s2.495-1.154 2.495-2.563V2.921c0-1.41-1.123-2.563-2.495-2.563s-2.495 1.154-2.495 2.563zM5.02 21.5c0 5.584 4.406 10.11 9.84 10.11 5.436 0 9.842-4.526 9.842-10.11 0-3.971-2.23-7.407-5.473-9.06V6.93c6.063 1.916 10.47 7.714 10.47 14.57 0 8.419-6.643 15.243-14.838 15.243S.023 29.918.023 21.499c0-7.103 4.73-13.072 11.132-14.763v5.396c-3.598 1.504-6.135 5.13-6.135 9.367zm96.857-13.952h5.498l13.117 18.742V7.547h5.767v28.48h-5.541l-13.074-18.682v18.683h-5.767V7.547zM78.131 7.15h16.622v5.316H83.897v5.117h10.856v5.236H83.897v7.497h10.856v5.315H78.13V7.151zm-22.75.397h19.064v5.355h-6.703v23.126h-5.894V12.902H55.38V7.547zm-3.71 3.874l-4.297 3.544c-1.506-1.957-3.04-2.936-4.6-2.936-.764 0-1.386.192-1.867.569-.487.383-.728.813-.728 1.289s.17.932.516 1.355c.474.569 1.894 1.785 4.262 3.656 2.212 1.733 3.555 2.823 4.028 3.273 1.173 1.11 2.007 2.168 2.502 3.18a7.58 7.58 0 01.735 3.319c0 2.34-.862 4.264-2.594 5.791-1.724 1.52-3.979 2.28-6.763 2.28-2.17 0-4.057-.495-5.668-1.487-1.611-.998-2.997-2.558-4.141-4.687l4.883-2.75c1.47 2.512 3.159 3.768 5.067 3.768.997 0 1.838-.27 2.516-.813.679-.542 1.018-1.17 1.018-1.878 0-.64-.255-1.289-.77-1.937-.51-.641-1.64-1.633-3.386-2.962-3.321-2.525-5.462-4.475-6.43-5.85-.97-1.376-1.457-2.744-1.457-4.113 0-1.976.806-3.669 2.41-5.077 1.612-1.415 3.598-2.122 5.958-2.122 1.52 0 2.968.33 4.34.985 1.377.66 2.861 1.858 4.466 3.603z" fill="#2B2A29"/></svg>