<svg width="140" height="195" fill="none" xmlns="http://www.w3.org/2000/svg"><g clip-path="url(#clip0_129_51381)"><path d="M49.517 10.027c.148-.047.297-.086.448-.117l-8.973-5.307a3.662 3.662 0 00-3.024-.038l10.063 5.938c.33-.174.673-.323 1.025-.448l.08-.028h.381zM32.934 18.28l8.896 5.249a4.047 4.047 0 01-.08-.316 2.462 2.462 0 01-.13-.382l-.01-.038-.004-.04a7.714 7.714 0 010-1.384 13.69 13.69 0 011.8-6.073 13.646 13.646 0 013.696-4.157L36.996 5.176a12.643 12.643 0 00-3.84 4.086 12.689 12.689 0 00-1.721 5.656l-.001.009v.008a3.722 3.722 0 001.5 3.345z" fill="#fff" stroke="#036063"/><path d="M43.155 23.757l.028.028.024.032c.098.134.212.255.34.361l.027.023.023.025a.951.951 0 00.197.165l.019.012.018.013a3.315 3.315 0 004.016 0l.015-.011.016-.01a12.591 12.591 0 004.04-4.255 12.638 12.638 0 001.68-5.63v-.01l.002-.012a3.697 3.697 0 00-1.486-3.337l-.431-.152-.01-.004-.01-.004-.286-.114h-.893a3.55 3.55 0 00-.625.15l-.078.025h-.369a6.72 6.72 0 00-1.025.478 12.643 12.643 0 00-4.015 4.264 12.689 12.689 0 00-1.67 5.638v.018c-.036.39-.037.782-.004 1.172.021.078.05.153.083.226l.026.056.012.06c.04.205.1.405.182.597a1 1 0 00.154.196z" fill="#fff" stroke="#036063"/><path d="M47.528 10.237a8.153 8.153 0 011.366-.628l.665 1.886a6.209 6.209 0 00-1.033.475l-.998-1.733zm2.031 1.258a6.209 6.209 0 00-1.033.475l-.998-1.733a8.153 8.153 0 011.366-.628l.665 1.886z" fill="#036063" mask="url(#path-4-inside-1_129_51381)"/><path d="M50.484 11.292a3.07 3.07 0 00-.565.132l-.638-1.895c.304-.103.616-.176.934-.22l.27 1.983zm-1.203-1.763c.304-.103.616-.176.934-.22l.27 1.983a3.07 3.07 0 00-.566.132l-.638-1.895z" fill="#036063" mask="url(#path-6-inside-2_129_51381)"/><mask id="path-8-inside-3_129_51381" fill="#fff"><path d="M52.245 10.677l-.5-.175.5.175z"/></mask><path d="M52.245 10.677l-.5-.175.5.175z" fill="#fff"/><path d="M51.914 11.62l-.5-.175.663-1.887.5.176-.663 1.887zm.163-2.062l.5.176-.663 1.887-.5-.176.663-1.887z" fill="#036063" mask="url(#path-8-inside-3_129_51381)"/><path d="M43.443 23.331c.02.04.045.077.075.11l-1.482 1.342a2.498 2.498 0 01-.375-.542l1.782-.91zm-1.407 1.452a2.498 2.498 0 01-.375-.542l1.782-.91c.02.04.045.077.075.11l-1.482 1.342z" fill="#036063" mask="url(#path-10-inside-4_129_51381)"/><path d="M43.868 23.94a.45.45 0 00.093.077l-1.064 1.694a2.445 2.445 0 01-.507-.424l1.478-1.348zm-.971 1.77a2.445 2.445 0 01-.507-.423l1.478-1.348a.45.45 0 00.093.078l-1.064 1.694z" fill="#036063" mask="url(#path-12-inside-5_129_51381)"/><path d="M43.2 22.464a.94.94 0 00.061.171l-1.812.847a2.959 2.959 0 01-.188-.53l1.939-.488zm-1.75 1.018a2.959 2.959 0 01-.19-.53l1.94-.488a.94.94 0 00.061.171l-1.812.847z" fill="#036063" mask="url(#path-14-inside-6_129_51381)"/><path d="M81.778 188.243l-.109-21.92a5.887 5.887 0 01-.53.554l-.306.353-.023.027-.027.023a9.263 9.263 0 01-1.585 1.112l-.007.005-.009.004a18.439 18.439 0 01-16.745 0l-.01-.005-.009-.005a9.091 9.091 0 01-1.56-1.114h0l-.01-.01a3.18 3.18 0 01-.384-.431 7.098 7.098 0 01-.448-.458v21.881c.09.916.417 1.792.95 2.542a5.248 5.248 0 002.105 1.739l.01.004.01.006a17.43 17.43 0 0015.862 0 5.206 5.206 0 001.984-1.785 5.231 5.231 0 00.841-2.522z" fill="#fff" stroke="#036063"/><path d="M81.792 164.286l.017-.041.024-.039c.078-.124.147-.253.207-.386a3.444 3.444 0 00-.006-.579h0v-.005a5.223 5.223 0 00-3.033-4.3l-.01-.004-.01-.005a17.445 17.445 0 00-15.837 0l-.018.009-.02.008a4.851 4.851 0 00-2.317 1.991 4.878 4.878 0 00-.672 2.987l.005.058-.008.057a1.461 1.461 0 00-.005.342c.078.209.18.408.302.595l.034.05.02.057c.047.132.109.258.185.376.192.242.403.468.63.676l.04.036.03.043c.083.116.177.224.28.322.423.374.883.703 1.374.981a17.441 17.441 0 0015.82-.001 8.28 8.28 0 001.379-.965l.301-.349.02-.023.023-.021c.241-.218.46-.46.653-.722.078-.112.141-.234.19-.361l.018-.05.028-.045c.14-.218.26-.45.356-.692z" fill="#fff" stroke="#036063"/><path d="M40.382 90.084l-.017-.02-.014-.023a12.717 12.717 0 01-.74-1.405c-.252-.41-.482-.831-.69-1.264l.233 65.907a13.565 13.565 0 004.447 9.347v-43.67h11.945v50.264c12.327 3.894 27.873 2.852 38.179-3.101h0c6.302-3.63 9.319-8.353 9.32-12.975v-.001l-.304-65.935c-.233.489-.492.965-.776 1.426-.209.475-.448.935-.716 1.38l-.013.022-.016.02a17.415 17.415 0 01-2.101 2.315c-.115.117-.216.24-.335.386a26.11 26.11 0 01-.068.084c-.147.18-.32.383-.54.575l-.002.002a27.978 27.978 0 01-4.25 3.011c-6.465 3.739-14.89 5.587-23.256 5.584-8.365-.003-16.729-1.858-23.07-5.585a27.585 27.585 0 01-4.224-3.012h0a4.88 4.88 0 01-.554-.588 24.418 24.418 0 01-.066-.08 6.08 6.08 0 00-.377-.43 19.901 19.901 0 01-1.995-2.234z" fill="#fff" stroke="#036063"/><path d="M48.348 166.018l.002.001a35.144 35.144 0 006.195 2.823v-48.936h-9.944v43.506a26.241 26.241 0 003.747 2.606zm33.541-22.613c.33.741.852 1.378 1.512 1.846l5.831 3.342-.015-.033a5.527 5.527 0 01-.485-2.537l-7.228-4.209c.03.547.16 1.087.385 1.591zm6.863 1.57l-.122-45.032-7.243-4.228.146 45.034 7.219 4.226zm.378-45.898l13.323-7.72-7.229-4.232-13.345 7.72 7.251 4.232zm13.942 38.464l-.122-45.315-13.32 7.717.125 45.905v.001c0 2.173.77 3.571 1.866 4.197 1.094.625 2.69.581 4.568-.512a15.17 15.17 0 004.882-5.164 15.217 15.217 0 002.001-6.829zm-74.976-13.975c.32.722.825 1.347 1.462 1.812l5.864 3.412-.003-.005a5.53 5.53 0 01-.485-2.538l-7.217-4.202c.037.523.164 1.038.379 1.521zm6.83 1.536l-.121-45.036-7.244-4.228.122 45.058 7.243 4.206zm.378-45.902l13.32-7.718-7.25-4.209-13.32 7.696 7.25 4.232z" fill="#fff" stroke="#036063"/><path d="M48.998 72.258l-13.195 7.806v45.909c0 2.174.765 3.571 1.858 4.2 1.092.628 2.687.59 4.577-.491a15.272 15.272 0 004.897-5.223 15.328 15.328 0 001.986-6.893l-.123-45.308z" fill="#fff" stroke="#036063"/><path d="M100.964 88.202l.014-.033.019-.03c.408-.66.762-1.351 1.056-2.068a7.65 7.65 0 00.324-1.35l.004-.032.009-.03a9.605 9.605 0 00.331-1.962c-.006-4.642-3.046-9.284-9.246-12.887h0c-6.215-3.617-14.412-5.44-22.642-5.44-8.231 0-16.441 1.823-22.681 5.44l-.002.001c-7.206 4.145-9.998 9.677-9.003 14.885.044.224.07.454.095.661l.017.14c.03.244.062.459.12.66.277.688.612 1.351 1.002 1.982l.017.028.014.03c.2.448.427.882.681 1.3.574.748 1.204 1.45 1.882 2.103h0l.008.008c.169.17.317.35.448.508l.06.074c.152.183.286.337.44.47A26.585 26.585 0 0048 95.565h.002c6.202 3.617 14.38 5.446 22.605 5.45 8.224.003 16.44-1.82 22.718-5.45h0a26.991 26.991 0 004.096-2.904c.154-.133.281-.28.422-.452l.06-.074a6.19 6.19 0 01.416-.476l.008-.008.008-.007c.72-.662 1.38-1.388 1.972-2.168.246-.41.465-.835.656-1.273z" fill="#fff" stroke="#036063"/><mask id="path-29-inside-7_129_51381" fill="#fff"><path d="M54.07 67.448l-.025.025-2.598 1.504 2.573-1.504h.025l.025-.025z"/></mask><path d="M54.07 67.448l-.025.025-2.598 1.504 2.573-1.504h.025l.025-.025z" fill="#fff"/><path d="M54.045 67.473l.708.706-.093.094-.114.066-.5-.866zm-2.598 1.504l.5.866-1.005-1.73.505.864zm2.573-1.504l-.504-.863.233-.137h.271v1zm.025 0l.708.706-.293.294h-.415v-1zm.733.681l-.025.025-1.416-1.412.025-.025 1.416 1.412zm-.232.185l-2.599 1.504-1.001-1.731 2.598-1.504 1.002 1.73zm-3.604-.225l2.574-1.504 1.009 1.727-2.574 1.504-1.009-1.727zm3.078-1.64h.025v2h-.025v-2zm-.683.293l.025-.025 1.416 1.412-.025.025-1.416-1.412z" fill="#036063" mask="url(#path-29-inside-7_129_51381)"/><path d="M60.524 83.709l2.164-1.253h.001l.343-.2-8.395-14.549-.341.199h-.001l-2.167 1.254 8.396 14.549z" fill="#E5EAEB" stroke="#036063"/><mask id="path-32-inside-8_129_51381" fill="#fff"><path d="M63.714 82.436v.026l-.775.426.775-.452z"/></mask><path d="M63.714 82.436v.026l-.775.426.775-.452z" fill="#fff"/><path d="M63.714 82.436l-.503-.864 1.503-.875v1.74h-1zm0 .026h1v.59l-.518.286-.482-.876zm-.775.426l.482.876-.985-1.74.503.864zm1.775-.452v.026h-2v-.026h2zm-.518.902l-.775.426-.964-1.752.775-.427.964 1.753zm-1.76-1.314l.775-.452 1.006 1.729-.774.45-1.007-1.727z" fill="#036063" mask="url(#path-32-inside-8_129_51381)"/><mask id="path-34-inside-9_129_51381" fill="#fff"><path d="M54.046 67.474l.025-.025.75-.427-.775.452z"/></mask><path d="M54.046 67.474l.025-.025.75-.427-.775.452z" fill="#fff"/><path d="M54.046 67.474l.504.864-1.212-1.57.708.706zm.025-.025l-.708-.706.096-.097.118-.067.494.87zm.75-.427l-.494-.869.997 1.734-.503-.865zm-1.483-.255l.025-.024 1.416 1.412-.025.025-1.416-1.413zm.239-.188l.75-.426.988 1.739-.75.426-.988-1.739zm1.747 1.308l-.774.45-1.007-1.728.775-.45 1.006 1.728z" fill="#036063" mask="url(#path-34-inside-9_129_51381)"/><path d="M114.478 53.652a81.864 81.864 0 013.795 10.15l-1.916.575a79.703 79.703 0 00-3.702-9.902l1.823-.823zm1.879 10.725a79.703 79.703 0 00-3.702-9.902l1.823-.823a81.864 81.864 0 013.795 10.15l-1.916.575z" fill="#036063" mask="url(#path-36-inside-10_129_51381)"/><mask id="path-38-inside-11_129_51381" fill="#fff"><path d="M108.964 93.04l-.125.174-.8.452.925-.627z"/></mask><path d="M108.964 93.04l-.125.174-.8.452.925-.627z" fill="#fff"/><path d="M108.964 93.04l-.561-.829 1.375 1.408-.814-.58zm-.125.174l.815.58-.13.182-.194.11-.491-.871zm-.8.452l.492.87-1.053-1.698.561.828zm1.739-.047l-.124.176-1.63-1.16.125-.176 1.629 1.16zm-.448.466l-.799.452-.983-1.742.8-.451.982 1.741zm-1.852-1.247l.925-.627 1.122 1.656-.925.626-1.122-1.655z" fill="#036063" mask="url(#path-38-inside-11_129_51381)"/><path d="M90.53 106.128v2.606l2.958-1.731a35.85 35.85 0 01-2.959-.875zm-42.715-73.99c.208-1.054.472-2.097.791-3.123l-3.103 1.79 2.312 1.333z" fill="#fff" stroke="#036063"/><path d="M89.502 105.421h0v-.01l.02-.983-11.663-6.715v4.311l11.643 6.717v-3.32zM48.349 47.013h0l.005.003.347.206.046-13.377-.85-.504-2.923-1.675-.023 13.387 3.398 1.96z" fill="#E5EAEB" stroke="#036063"/><mask id="path-44-inside-12_129_51381" fill="#fff"><path d="M48.149 32.91l1.1.65-1.1-.65z"/></mask><path d="M48.149 32.91l1.1.65-1.1-.65z" fill="#fff"/><path d="M48.659 32.049l1.1.652-1.02 1.72-1.1-.652 1.02-1.72zm.08 2.372l-1.1-.652 1.02-1.72 1.1.652-1.02 1.72z" fill="#036063" mask="url(#path-44-inside-12_129_51381)"/><mask id="path-46-inside-13_129_51381" fill="#fff"><path d="M59.22 27.771a14.012 14.012 0 012.198-2.03c-.346.412-.663.847-.95 1.303l-1.249.727z"/></mask><path d="M59.22 27.771a14.012 14.012 0 012.198-2.03c-.346.412-.663.847-.95 1.303l-1.249.727z" fill="#fff"/><path d="M59.22 27.771l.502.865-1.256-1.523.753.658zm2.198-2.03l-.596-.803 1.361 1.447-.765-.644zm-.95 1.303l.848.531-.13.21-.214.124-.503-.864zm-2.002.07a15.02 15.02 0 012.356-2.176l1.192 1.606a13.014 13.014 0 00-2.042 1.886l-1.506-1.317zm3.717-.729c-.316.376-.606.774-.867 1.19l-1.695-1.061c.31-.496.656-.97 1.032-1.417l1.53 1.288zm-1.211 1.524l-1.25.727-1.005-1.729 1.249-.727 1.006 1.729z" fill="#036063" mask="url(#path-46-inside-13_129_51381)"/><mask id="path-48-inside-14_129_51381" fill="#fff"><path d="M103.693 105.519v-.024.024z"/></mask><path d="M103.693 105.519v-.024.024z" fill="#fff"/><path d="M102.693 105.519v-.024h2v.024h-2zm2-.024v.024h-2v-.024h2z" fill="#036063" mask="url(#path-48-inside-14_129_51381)"/><path d="M116.192 105.531l15.986-9.684-2.076-3.618-15.984 9.706 2.074 3.596z" fill="#fff" stroke="#036063"/><mask id="path-51-inside-15_129_51381" fill="#fff"><path d="M103.693 105.52v-.025l8.97-5.088-8.97 5.113z"/></mask><path d="M103.693 105.52v-.025l8.97-5.088-8.97 5.113z" fill="#fff"/><path d="M103.693 105.52l.495.869-1.495.852v-1.721h1zm0-.025h-1v-.582l.506-.288.494.87zm8.97-5.088l-.494-.87.989 1.739-.495-.869zm-9.97 5.113v-.025h2v.025h-2zm.506-.895l8.97-5.088.987 1.74-8.97 5.088-.987-1.74zm9.959-3.349l-8.97 5.113-.991-1.737 8.971-5.114.99 1.738z" fill="#036063" mask="url(#path-51-inside-15_129_51381)"/><path d="M104.375 105.707l.525.917.001.001 2.324 4.03 8.101-4.618-2.322-4.026h0l-.001-.002-.527-.92-8.101 4.618z" fill="#E5EAEB" stroke="#036063"/><mask id="path-54-inside-16_129_51381" fill="#fff"><path d="M112.666 100.407l.775 1.354-.775-1.354z"/></mask><path d="M112.666 100.407l.775 1.354-.775-1.354z" fill="#fff"/><path d="M113.534 99.91l.775 1.354-1.736.993-.775-1.353 1.736-.993zm-.961 2.347l-.775-1.353 1.736-.993.775 1.353-1.736.993z" fill="#036063" mask="url(#path-54-inside-16_129_51381)"/><mask id="path-56-inside-17_129_51381" fill="#fff"><path d="M51.596 15.314L68.437 5.088 77.407 0l-16.84 10.201-8.97 5.113z"/></mask><path d="M51.596 15.314L68.437 5.088 77.407 0l-16.84 10.201-8.97 5.113z" fill="#fff"/><path d="M51.596 15.314l.495.869-1.014-1.723.52.854zM68.437 5.088l-.519-.855.013-.007.013-.008.493.87zM77.407 0l-.493-.87L77.925.855 77.407 0zm-16.84 10.201l.517.855-.01.007-.012.007-.496-.869zm-9.49 4.258L67.918 4.233l1.038 1.71-16.84 10.226-1.039-1.71zM67.944 4.22l8.97-5.089.987 1.74-8.97 5.088-.987-1.74zM77.925.854l-16.84 10.201-1.037-1.71L76.89-.855l1.036 1.71zM61.062 11.07l-8.97 5.113-.991-1.738 8.97-5.113.99 1.738z" fill="#036063" mask="url(#path-56-inside-17_129_51381)"/><path d="M49.7 48.099v.917l-.771-.497-.113-.073a74.468 74.468 0 005.48 18.308l.268-.16.436-.263.255.441 8.895 15.415.249.431-.43.25-.3.176a73.57 73.57 0 0013.19 14.014v-1.074l.75.431 12.668 7.294.25.144v1.213a34.79 34.79 0 004.448 1.218l.006.001c2.885.625 5.862.67 8.761.135l-.43-.751-.251-.439.441-.246 8.97-5.013.432-.241.246.429.422.738a24.604 24.604 0 005.397-12.01l-.811-.481-.245-.145V72.586l.755.448.195.115a66.537 66.537 0 00-2.029-8.915h0a80.268 80.268 0 00-3.498-9.458l-.294.171-.433.253-.251-.435-8.92-15.44-.25-.43.431-.252.299-.174a74.579 74.579 0 00-13.165-13.987v1.087l-.746-.42-12.718-7.168-.254-.144v-1.354a24.988 24.988 0 00-13-1.329l.414.71.256.44-.444.249-8.97 5.013-.406.227-.256-.389-.516-.783a22.075 22.075 0 00-4.214 7.434h0l-.004.011a29.194 29.194 0 00-1.242 4.59l.802.475.245.145V48.1zm32.418 46.267l-.002-.002c-7.931-4.991-15.043-13.062-20.162-22.166-5.116-9.098-8.266-19.271-8.232-28.498a24.16 24.16 0 015.104-16.237l.008-.01.009-.01a14.514 14.514 0 012.275-2.102c5.665-4.299 13.942-4.227 23.038 1.02 8.252 4.754 15.68 12.904 21.044 22.205 5.362 9.298 8.688 19.793 8.69 29.272a24.888 24.888 0 01-4.514 15.489l-.001.002-.125.175-.007.01-.007.01a14.933 14.933 0 01-9.566 5.549l-.01.001-.01.001a25.002 25.002 0 01-16.215-3.886v-.001l-.267-.17-.006-.004-1.044-.648z" fill="#E5EAEB" stroke="#036063"/><path d="M62.71 14.94h0l-.001-.003-2.326-4.054-8.101 4.617 2.322 4.049.002.003.523.898 8.102-4.618-.52-.893z" fill="#E5EAEB" stroke="#036063"/><path d="M61.245 10.376l2.076 3.618 15.984-9.706L77.231.692l-15.986 9.684zm62.126 80.782l-.254.156-.258-.15-3.015-1.74a25.597 25.597 0 01-4.302 10.474l14.416-8.754a22.059 22.059 0 004.084-6.552l-10.671 6.566zM77.036 11.93v-.28l.238-.146L88.288 4.74a22.144 22.144 0 00-8.067.219l-14.783 8.888a25.99 25.99 0 0111.598 1.561v-3.476z" fill="#fff" stroke="#036063"/><path d="M134.74 82.963h0l.011-.006 4.7-2.739.046-13.333-15.839 9.617-.046 13.332 11.128-6.87z" fill="#036063" stroke="#036063"/><path d="M136.358 64.47l-15.866 9.634 2.661 1.535 15.866-9.634-2.661-1.535z" fill="#fff" stroke="#036063"/><path d="M119.264 74.549h0l-.005-.003-.348-.206-.046 13.352.851.504 2.898 1.673.047-13.36-3.397-1.96z" fill="#E5EAEB" stroke="#036063"/><path d="M106.59 9.91l-15.841 9.596v3.042l15.841-9.595V9.91z" fill="#fff" stroke="#036063"/><path d="M89.751 23.435v-3.922l-11.648-6.72-.02 3.349v.989l11.668 6.718v-.414z" fill="#E5EAEB" stroke="#036063"/><path d="M116.321 53.012h0l-.005.003-2.114 1.251a81.41 81.41 0 013.588 9.68 67.677 67.677 0 012.105 9.35l15.911-9.637a74.543 74.543 0 00-5.625-19.076l-13.86 8.429z" fill="#fff" stroke="#036063"/><mask id="path-69-inside-18_129_51381" fill="#fff"><path d="M103.347 38.975l1.299-.351-.774.451.774-.451-1.299.35z"/></mask><path d="M103.347 38.975l1.299-.351-.774.451.774-.451-1.299.35z" fill="#fff"/><path d="M104.646 38.624l-.26-.965.764 1.83-.504-.865zm0 0l-.26-.965.764 1.83-.504-.865zm-1.56-.614l1.3-.351.521 1.93-1.299.351-.522-1.93zm2.064 1.478l-.775.451-1.007-1.728.775-.451 1.007 1.728zm-1.782-1.277l.775-.451 1.007 1.728-.775.451-1.007-1.728zm1.539 1.378l-1.299.351-.522-1.93 1.3-.351.521 1.93z" fill="#036063" mask="url(#path-69-inside-18_129_51381)"/><path d="M104.566 37.685l16.191-9.418a75.315 75.315 0 00-13.704-14.425L91.12 23.517a75.597 75.597 0 0113.446 14.168z" fill="#fff" stroke="#036063"/><mask id="path-72-inside-19_129_51381" fill="#fff"><path d="M107.241 37.145l-2.599 1.48-1.299.35 18.14-10.552 2.599-1.479-16.841 10.201z"/></mask><path d="M107.241 37.145l-2.599 1.48-1.299.35 18.14-10.552 2.599-1.479-16.841 10.201z" fill="#fff"/><path d="M107.241 37.145l.518.856-.012.007-.011.007-.495-.87zm-2.599 1.48l.495.868-.111.063-.123.034-.261-.966zm-1.299.35l.261.966-.764-1.83.503.864zm18.14-10.552l-.502-.864.008-.005.494.87zm2.599-1.479l-.495-.869L124.6 27.8l-.518-.856zm-16.346 11.07l-2.599 1.48-.989-1.739 2.598-1.479.99 1.739zm-2.833 1.576l-1.299.35-.522-1.93 1.3-.351.521 1.93zm-2.063-1.48l18.141-10.551 1.005 1.729-18.14 10.552-1.006-1.73zm18.149-10.556l2.598-1.479.99 1.739-2.599 1.478-.989-1.738zm3.611.246L107.759 38l-1.036-1.71 16.841-10.201 1.036 1.71z" fill="#036063" mask="url(#path-72-inside-19_129_51381)"/><path d="M130.143 43.436h0l.011-.006 2.165-1.254-8.414-14.54-15.986 9.683 8.419 14.572 13.805-8.455z" fill="#036063" stroke="#036063"/><path d="M113.314 53.63l.116-.067h.027l2.023-1.163-8.421-14.575-2.164 1.232-.342.199 8.42 14.574.341-.2z" fill="#E5EAEB" stroke="#036063"/><path d="M89.856 4.966l-11.274 6.95 11.66 6.727 15.865-9.61-11.66-6.726-4.591 2.659z" fill="#036063" stroke="#036063"/><path d="M32.62 32.579l.037-.01.037-.006a22.773 22.773 0 013.732-.18 21.11 21.11 0 012.535.002h.02l.018.003c1.571.216 3.123.556 4.642 1.017.284.076.561.124.865.176l.2.035c.375.067.782.147 1.208.298 2.48.819 4.88 1.858 7.174 3.106L83.09 19.132c-9.611-5.384-18.339-5.75-24.54-2.085h-.001L32.38 32.65l.24-.071zm52.685 84.486a21.528 21.528 0 01-1.796 2.819l25.75-15.444.006-.003c6.289-3.664 10.246-11.48 10.246-22.778 0-11.384-3.97-24.05-10.431-35.314-6.406-11.167-15.235-20.91-24.997-26.64L54.077 37.593c9.796 5.884 18.588 15.644 24.968 26.76 6.538 11.392 10.57 24.253 10.532 35.903a41.513 41.513 0 01-.758 8.016h0l-.002.008a8.8 8.8 0 01-.36 1.197l-.052.144c-.11.305-.212.584-.292.885a31.57 31.57 0 01-1.446 4.452l-.014.032-.017.03a24.12 24.12 0 01-1.331 2.044z" fill="#fff" stroke="#036063"/><path d="M84.443 116.475l.015-.026.018-.024c.465-.62.89-1.27 1.271-1.944a30.6 30.6 0 001.29-4.306l.002-.01.003-.01c.093-.35.211-.675.322-.979l.05-.138a7.75 7.75 0 00.32-1.06c.5-2.576.748-5.195.74-7.82v-.001c0-11.371-3.982-24.031-10.455-35.295-6.474-11.264-15.413-21.085-25.276-26.808a42.596 42.596 0 00-7.26-3.344h-.003a6.377 6.377 0 00-1.053-.258l-.183-.032a10.93 10.93 0 01-.974-.2l-.008-.002-.008-.003a29.015 29.015 0 00-4.477-.983 20.108 20.108 0 00-2.419.001l-.024.002-.024-.001a21.78 21.78 0 00-3.55.166c-.758.231-1.5.513-2.221.842l-.039.017-.04.011c-1.016.27-2 .641-2.94 1.11-6.307 3.643-10.307 11.456-10.332 22.77 0 11.384 3.983 24.05 10.466 35.329 6.482 11.279 15.44 21.125 25.34 26.898 11.306 6.552 21.153 6.059 27.584.53l.018-.015.02-.014a15.265 15.265 0 001.795-1.487 20.55 20.55 0 002.032-2.916z" fill="#fff" stroke="#036063"/><path d="M52.593 38.462a42.092 42.092 0 00-7.176-3.306l.663-1.887a44.096 44.096 0 017.517 3.462l-1.004 1.73zm-6.513-5.193a44.096 44.096 0 017.517 3.462l-1.004 1.73a42.092 42.092 0 00-7.176-3.305l.663-1.887z" fill="#036063" mask="url(#path-80-inside-20_129_51381)"/><path d="M36.397 33.884a21.272 21.272 0 00-3.508.168l-.26-1.983a23.27 23.27 0 013.838-.184l-.07 2zm-3.768-1.815a23.27 23.27 0 013.838-.184l-.07 2a21.272 21.272 0 00-3.508.167l-.26-1.983z" fill="#036063" mask="url(#path-82-inside-21_129_51381)"/><path d="M39.063 31.768c1.601.22 3.182.566 4.728 1.037l-.582 1.913a28.5 28.5 0 00-4.418-.969l.273-1.98zm4.146 2.95a28.5 28.5 0 00-4.418-.969l.273-1.98c1.6.219 3.18.565 4.727 1.036l-.582 1.913z" fill="#036063" mask="url(#path-84-inside-22_129_51381)"/><path d="M26.936 34.196a16.934 16.934 0 013.24-1.225l.512 1.933c-.987.262-1.944.624-2.857 1.08l-.895-1.788zm3.752.708c-.987.262-1.944.624-2.857 1.08l-.895-1.788a16.934 16.934 0 013.24-1.225l.512 1.933z" fill="#036063" mask="url(#path-86-inside-23_129_51381)"/><mask id="path-88-inside-24_129_51381" fill="#fff"><path d="M86.202 114.693a18.89 18.89 0 01-1.324 2.031c.475-.654.917-1.332 1.324-2.031z"/></mask><path d="M86.202 114.693a18.89 18.89 0 01-1.324 2.031c.475-.654.917-1.332 1.324-2.031z" fill="#fff"/><path d="M84.878 116.724l.8.599-1.609-1.188.809.589zm2.195-1.539a19.884 19.884 0 01-1.395 2.138l-1.601-1.198c.459-.614.877-1.256 1.254-1.923l1.742.983zm-3.004.95c.456-.626.88-1.275 1.268-1.944l1.73 1.005a24.534 24.534 0 01-1.381 2.116l-1.617-1.177z" fill="#036063" mask="url(#path-88-inside-24_129_51381)"/><path d="M83.577 120.525a16.77 16.77 0 01-1.992 1.652l-1.155-1.633a14.775 14.775 0 001.756-1.456l1.391 1.437zm-3.147.019a14.775 14.775 0 001.756-1.456l1.391 1.437a16.77 16.77 0 01-1.992 1.652l-1.155-1.633z" fill="#036063" mask="url(#path-90-inside-25_129_51381)"/><mask id="path-92-inside-26_129_51381" fill="#fff"><path d="M88.328 108.102c-.175.827-.5 1.453-.7 2.205.2-.752.525-1.378.7-2.205z"/></mask><path d="M88.328 108.102c-.175.827-.5 1.453-.7 2.205.2-.752.525-1.378.7-2.205z" fill="#fff"/><path d="M89.306 108.308a9.293 9.293 0 01-.378 1.265c-.136.375-.247.668-.333.991l-1.933-.514c.114-.429.265-.825.385-1.158.125-.346.23-.655.303-.997l1.956.413zm-2.644 1.742c.114-.429.265-.825.385-1.158.125-.346.23-.655.303-.997l1.956.413a9.293 9.293 0 01-.378 1.265c-.136.375-.247.668-.333.991l-1.933-.514z" fill="#036063" mask="url(#path-92-inside-26_129_51381)"/><path d="M95.55 50.01l-.07 20.13 15.239-9.314.071-20.13-15.24 9.313zm-.505-.864l15.27-9.332-27.9-16.173-15.27 9.333 27.9 16.172zm-.521 19.268V50.017L72.613 37.324c9.2 8.006 16.996 19.228 21.91 31.09zM66.258 32.578l15.294-9.308-27.9-16.172-15.294 9.333 27.9 16.147zm-17.034-6.509h.032l.032.004c1.575.203 3.13.544 4.647 1.018.283.075.56.123.863.175l.2.035.139.025-17.282-9.992v10.803a17.522 17.522 0 012.704-.988 17.54 17.54 0 012.355-.86l.032-.01.032-.004a20.09 20.09 0 013.757-.206h2.488zm44.766 112.95a8.244 8.244 0 00-1.09 3.66c.003 1.138.403 1.81.91 2.099.507.29 1.297.297 2.3-.283a8.11 8.11 0 002.617-2.767 8.143 8.143 0 001.068-3.661c-.002-1.139-.403-1.805-.906-2.092-.504-.287-1.29-.294-2.28.274a8.208 8.208 0 00-2.62 2.77z" fill="#fff" stroke="#036063"/><mask id="path-100-inside-27_129_51381" fill="#fff"><path d="M9.62 93.74l-.025.025-2.598 1.48 2.598-1.505v.025l.025-.025z"/></mask><path d="M9.62 93.74l-.025.025-2.598 1.48 2.598-1.505v.025l.025-.025z" fill="#fff"/><path d="M9.595 93.765l.709.706-.096.096-.118.067-.495-.869zm-2.598 1.48l.494.868-.995-1.734.5.865zm2.598-1.505l-.5-.865 1.5-.869v1.734h-1zm0 .025l.709.706-1.709 1.714v-2.42h1zm.734.681l-.025.025-1.417-1.412.025-.025 1.417 1.412zm-.239.188l-2.599 1.48-.989-1.739 2.599-1.479.989 1.738zm-3.594-.255l2.598-1.504 1.002 1.73-2.598 1.505-1.002-1.731zm4.1-.639v.025h-2v-.025h2zm-1.709-.68l.025-.026 1.417 1.412-.025.025-1.417-1.412z" fill="#036063" mask="url(#path-100-inside-27_129_51381)"/><path d="M18.24 108.799h0l.007-.004.36-.203-8.418-14.593-.34.199h0l-.005.002-2.162 1.23 8.419 14.619 2.139-1.25z" fill="#E5EAEB" stroke="#036063"/><mask id="path-103-inside-28_129_51381" fill="#fff"><path d="M19.292 108.778l-.8.451.8-.451z"/></mask><path d="M19.292 108.778l-.8.451.8-.451z" fill="#fff"/><path d="M19.783 109.649l-.8.451-.982-1.741.8-.452.982 1.742zm-1.782-1.29l.8-.452.982 1.742-.8.451-.982-1.741z" fill="#036063" mask="url(#path-103-inside-28_129_51381)"/><mask id="path-105-inside-29_129_51381" fill="#fff"><path d="M9.596 93.766l.025-.025.75-.427-.775.452z"/></mask><path d="M9.596 93.766l.025-.025.75-.427-.775.452z" fill="#fff"/><path d="M9.596 93.766l.504.864-1.212-1.57.708.706zm.025-.025l-.708-.706.096-.097.118-.067.494.87zm.75-.427l-.494-.869.997 1.734-.503-.865zm-1.483-.254l.025-.025 1.417 1.412-.025.025-1.417-1.412zm.24-.189l.749-.426.988 1.739-.75.426-.988-1.739zm1.746 1.308l-.774.45-1.007-1.728.775-.45 1.006 1.728z" fill="#036063" mask="url(#path-105-inside-29_129_51381)"/><path d="M70.05 79.798a83.538 83.538 0 013.767 10.147l-1.916.573a81.514 81.514 0 00-3.678-9.904l1.826-.816zm1.851 10.72a81.514 81.514 0 00-3.678-9.904l1.826-.816a83.538 83.538 0 013.768 10.147l-1.916.573z" fill="#036063" mask="url(#path-107-inside-30_129_51381)"/><mask id="path-109-inside-31_129_51381" fill="#fff"><path d="M64.514 119.406a.455.455 0 01-.125.176l-.8.476c.325-.201.625-.426.925-.652z"/></mask><path d="M64.514 119.406a.455.455 0 01-.125.176l-.8.476c.325-.201.625-.426.925-.652z" fill="#fff"/><path d="M64.514 119.406l-.601-.799 2.844-2.139-1.313 3.307-.93-.369zm-.125.176l.653.758-.066.056-.075.045-.512-.859zm-.8.476l.512.859-1.037-1.71.526.851zm1.855-.283a1.45 1.45 0 01-.402.565l-1.305-1.516a.548.548 0 00-.152.213l1.859.738zm-.543.666l-.8.476-1.023-1.718.8-.476 1.023 1.718zm-1.837-1.234c.28-.172.543-.37.849-.6l1.202 1.598c-.294.222-.63.475-1 .704l-1.05-1.702z" fill="#036063" mask="url(#path-109-inside-31_129_51381)"/><path d="M10.27 69.878v.028c-.025 9.042 3.06 19.083 8.12 28.105 5.003 8.921 11.917 16.803 19.6 21.712l2.736-1.602c-7.885-4.887-14.949-12.834-20.087-21.836-5.293-9.273-8.568-19.712-8.57-29.153a26.435 26.435 0 012.305-11.83 23.592 23.592 0 00-4.105 14.576zm32.415 49.449l-2.833 1.645a23.925 23.925 0 0015.036 3.511l3.142-1.806c-4.48.714-9.726-.345-15.345-3.35zm-3.771.999l.077.049 2.758-1.602a1.783 1.783 0 01-.095-.052l-2.74 1.605zm7.137 12.219v2.632l3-1.752a34.79 34.79 0 01-3-.88zM4.186 55.157L1.07 56.971l2.315 1.345a33.17 33.17 0 01.801-3.159z" fill="#fff" stroke="#036063"/><path d="M33.434 124.084v.413l-.024 3.921 11.647 6.765.02-3.345v-.991l-11.643-6.763z" fill="#E5EAEB" stroke="#036063"/><path d="M58.74 123.396c.892-.4 1.74-.894 2.528-1.473l-2.529 1.473z" fill="#fff" stroke="#036063"/><path d="M3.923 73.23l.352.2.023-13.418-.852-.504-2.898-1.673-.046 13.434 3.42 1.96h0z" fill="#E5EAEB" stroke="#036063"/><mask id="path-119-inside-32_129_51381" fill="#fff"><path d="M3.699 59.076l1.1.652-1.1-.652z"/></mask><path d="M3.699 59.076l1.1.652-1.1-.652z" fill="#fff"/><path d="M4.209 58.216l1.1.652-1.02 1.72-1.1-.652 1.02-1.72zm.08 2.372l-1.1-.652 1.02-1.72 1.1.652-1.02 1.72z" fill="#036063" mask="url(#path-119-inside-32_129_51381)"/><mask id="path-121-inside-33_129_51381" fill="#fff"><path d="M14.77 53.914a15.205 15.205 0 012.198-2.03c-.324.426-.65.852-.949 1.303l-1.25.727z"/></mask><path d="M14.77 53.914a15.205 15.205 0 012.198-2.03c-.324.426-.65.852-.949 1.303l-1.25.727z" fill="#fff"/><path d="M14.77 53.914l.503.864-1.25-1.529.747.665zm2.198-2.03l-.602-.798 1.398 1.404-.796-.606zm-.949 1.303l.833.554-.129.193-.201.117-.503-.864zm-1.997.063a16.215 16.215 0 012.344-2.164l1.205 1.596a14.206 14.206 0 00-2.054 1.896l-1.495-1.329zm3.742-.76c-.328.43-.633.83-.912 1.25l-1.666-1.106c.32-.483.665-.934.987-1.356l1.59 1.212zm-1.242 1.561l-1.25.727-1.005-1.728 1.25-.727 1.005 1.728z" fill="#036063" mask="url(#path-121-inside-33_129_51381)"/><path d="M71.742 131.946l15.987-9.731-2.076-3.619-15.987 9.731 2.076 3.619z" fill="#fff" stroke="#036063"/><mask id="path-124-inside-34_129_51381" fill="#fff"><path d="M59.242 131.913l8.97-5.113-8.97 5.113z"/></mask><path d="M59.242 131.913l8.97-5.113-8.97 5.113z" fill="#fff"/><path d="M58.747 131.044l8.97-5.113.99 1.738-8.97 5.113-.99-1.738zm9.96-3.375l-8.97 5.113-.99-1.738 8.97-5.113.99 1.738z" fill="#036063" mask="url(#path-124-inside-34_129_51381)"/><path d="M70.878 132.455l-2.325-4.053h0l-.526-.921-8.105 4.62.53.944 2.324 4.051 8.102-4.641z" fill="#E5EAEB" stroke="#036063"/><mask id="path-127-inside-35_129_51381" fill="#fff"><path d="M68.21 126.8l.775 1.353-.774-1.353z"/></mask><path d="M68.21 126.8l.775 1.353-.774-1.353z" fill="#fff"/><path d="M69.079 126.303l.774 1.354-1.736.993-.774-1.353 1.736-.994zm-.962 2.347l-.774-1.353 1.736-.994.774 1.354-1.736.993z" fill="#036063" mask="url(#path-127-inside-35_129_51381)"/><mask id="path-129-inside-36_129_51381" fill="#fff"><path d="M7.146 41.406l16.841-10.25 8.97-5.114-16.84 10.251-8.97 5.113z"/></mask><path d="M7.146 41.406l16.841-10.25 8.97-5.114-16.84 10.251-8.97 5.113z" fill="#fff"/><path d="M7.146 41.406l.496.87-1.016-1.724.52.854zm16.841-10.25l-.52-.855.013-.008.012-.007.495.87zm8.97-5.114l-.495-.869 1.015 1.723-.52-.854zm-16.84 10.251l.52.855-.013.007-.012.007-.495-.869zm-9.49 4.26L23.466 30.3l1.04 1.708L7.666 42.26l-1.04-1.709zm16.865-10.267l8.97-5.113.99 1.738-8.97 5.113-.99-1.738zm9.985-3.39l-16.84 10.252-1.04-1.709 16.84-10.251 1.04 1.708zM16.613 37.162l-8.97 5.113-.99-1.737 8.97-5.113.99 1.737z" fill="#036063" mask="url(#path-129-inside-36_129_51381)"/><path d="M62.188 120.29h0l.012-.006c.394-.191.777-.406 1.144-.646h0l.01-.006c.281-.173.544-.368.823-.578a24.218 24.218 0 004.313-14.866v-.022c.024-9.29-3.24-19.65-8.551-28.871-5.312-9.221-12.645-17.257-20.71-21.927h0c-8.838-5.137-16.652-5.082-21.88-1.128-.309.405-.607.798-.882 1.21a25.429 25.429 0 00-3.398 13.654v.018c0 9.23 3.202 19.502 8.427 28.667 5.225 9.165 12.446 17.176 20.438 21.908l.035.021.03.026c.076.063.158.116.246.159l.01.004.01.005.75.401.005.003c7.505 4.136 14.218 4.529 19.168 1.974z" fill="#fff" stroke="#036063"/><path d="M22.813 84.272l-.25-.145v-.289l.05-16.627-.626-.357-.047 18.026 37.553 21.753v-1.1l-36.68-21.26z" fill="#fff" stroke="#036063"/><path d="M59.495 104.379l.047-15.765L23.61 67.788l-.047 15.765 35.932 20.826z" fill="#fff" stroke="#036063"/><path d="M38.718 121.387l.008.005.29.17a24.932 24.932 0 0016.079 3.906l.01-.001.012-.001a14.837 14.837 0 009.542-5.545.94.94 0 00.193-.267 25.218 25.218 0 004.51-15.497c-.002-9.505-3.334-20.031-8.702-29.36-5.37-9.333-12.804-17.514-21.056-22.293-9.072-5.273-17.376-5.345-23.041-1.019m22.155 69.902L16.865 51.883m21.853 69.504l-.008-.005-1.023-.65v-.001c-7.944-5.004-15.055-13.099-20.186-22.23-5.13-9.128-8.304-19.332-8.332-28.583m29.549 51.469L9.669 69.905m6.894-18.42l-.001.001.303.397m-.302-.398s0 0 0 0l.302.398m-.302-.398a15.707 15.707 0 00-2.27 2.096l-.012.013-.01.014a24.588 24.588 0 00-5.102 16.31m7.696-18.035a15.205 15.205 0 00-2.199 2.03A24.088 24.088 0 009.67 69.906m-.5.013v-.012l.5-.001m-.5.013v.013l.5-.026M5.272 74.29v1.007l-.802-.609-.039-.029A73.636 73.636 0 009.9 92.86l.273-.156.431-.245.249.43 8.92 15.465.252.437-.44.248-.314.178a74.61 74.61 0 0013.211 14.055v-1.073l.751.434 12.643 7.319.25.144v1.216c1.445.513 2.923.927 4.424 1.24l.004.001c2.879.625 5.85.669 8.741.134l-.438-.779-.245-.437.438-.245 8.97-5.012.432-.242.246.43.423.74a24.401 24.401 0 005.42-12.053l-.824-.459-.256-.143V98.771l.747.425.206.118a67.62 67.62 0 00-2.032-8.939h0a82.043 82.043 0 00-3.453-9.406l-.275.196-.448.319-.275-.477-8.946-15.49-.252-.437.44-.248.314-.177A75.05 75.05 0 0046.3 50.625v1.093l-.748-.428-12.669-7.244-.252-.144v-1.23a24.964 24.964 0 00-13.18-1.423l.422.736.25.439-.44.246-8.97 5.013-.435.243-.245-.434-.404-.716a21.7 21.7 0 00-4.157 7.441h0l-.004.013a32.16 32.16 0 00-1.24 4.595l.799.473.245.146V74.29z" fill="#E5EAEB" stroke="#036063"/><path d="M10.18 45.668h0l.003.004.502.891 8.1-4.616-.526-.919h0l-2.326-4.054-8.1 4.618 2.347 4.076z" fill="#E5EAEB" stroke="#036063"/><path d="M16.795 36.467l2.075 3.619 15.987-9.731-2.076-3.62-15.986 9.732zm62.153 81.058l-.256.159-.26-.152-3.014-1.76a25.404 25.404 0 01-4.296 10.398l14.387-8.758a21.807 21.807 0 004.075-6.491l-10.636 6.604zM32.656 38.022v-.277l.235-.147 10.906-6.815a22.168 22.168 0 00-8.08.216L21.03 39.94a25.963 25.963 0 0111.627 1.559v-3.477z" fill="#fff" stroke="#036063"/><path d="M90.29 109.306l.005-.004.007-.004 4.724-2.738.023-13.383-15.816 9.642-.046 13.38 11.102-6.893z" fill="#036063" stroke="#036063"/><path d="M91.907 90.738l-15.867 9.659 2.688 1.559 15.847-9.66-2.668-1.558z" fill="#fff" stroke="#036063"/><path d="M75.279 114.533h0l.009.005 2.898 1.693.046-13.405-3.42-1.985-.354-.201-.046 13.41.867.483z" fill="#E5EAEB" stroke="#036063"/><path d="M62.162 35.983l-15.837 9.64-.018 3.061 15.837-9.64.018-3.061z" fill="#fff" stroke="#036063"/><path d="M45.322 45.629l-11.667-6.74v4.335l11.643 6.763v-.413l.024-3.945z" fill="#E5EAEB" stroke="#036063"/><path d="M85.755 70.899L71.87 79.28h0l-2.12 1.276a83.022 83.022 0 013.565 9.682 68.633 68.633 0 012.105 9.353l15.937-9.616A74.063 74.063 0 0085.755 70.9z" fill="#fff" stroke="#036063"/><mask id="path-145-inside-37_129_51381" fill="#fff"><path d="M58.894 65.167l1.324-.35-.774.45.774-.45-1.324.35z"/></mask><path d="M58.894 65.167l1.324-.35-.774.45.774-.45-1.324.35z" fill="#fff"/><path d="M60.218 64.816l-.256-.966.76 1.83-.504-.864zm0 0l-.256-.966.76 1.83-.504-.864zm-1.58-.615l1.324-.351.512 1.933-1.324.351-.512-1.933zm2.084 1.48l-.775.45-1.007-1.728.775-.45 1.006 1.727zm-1.782-1.278l.775-.45 1.006 1.727-.774.452-1.007-1.729zm1.534 1.38l-1.324.351-.512-1.933 1.324-.351.512 1.933z" fill="#036063" mask="url(#path-145-inside-37_129_51381)"/><path d="M60.141 63.855l16.092-9.444a74.34 74.34 0 00-13.73-14.475l-15.837 9.697A76.045 76.045 0 0160.14 63.855z" fill="#fff" stroke="#036063"/><mask id="path-148-inside-38_129_51381" fill="#fff"><path d="M62.819 63.337l-2.599 1.479-1.324.35 18.164-10.6 2.598-1.48-16.84 10.252z"/></mask><path d="M62.819 63.337l-2.599 1.479-1.324.35 18.164-10.6 2.598-1.48-16.84 10.252z" fill="#fff"/><path d="M62.819 63.337l.52.854-.013.008-.013.007-.494-.869zm-2.599 1.479l.495.87-.113.063-.126.034-.256-.967zm-1.324.35l.256.968-.76-1.83.504.863zm18.164-10.6l-.504-.864.01-.005.494.869zm2.598-1.48l-.494-.868 1.014 1.723-.52-.854zM63.313 64.207l-2.598 1.48-.99-1.74 2.599-1.478.99 1.738zm-2.837 1.577l-1.324.35-.513-1.933 1.325-.35.512 1.933zm-2.084-1.48l18.165-10.602 1.008 1.727L59.4 66.031l-1.008-1.728zm18.174-10.607l2.599-1.48.99 1.74-2.6 1.478-.989-1.738zm3.614.244l-16.842 10.25-1.04-1.708L79.14 52.232l1.04 1.708z" fill="#036063" mask="url(#path-148-inside-38_129_51381)"/><path d="M85.718 69.628h0l.009-.005 2.145-1.254-8.392-14.59-15.987 9.732 8.396 14.596 13.829-8.479z" fill="#036063" stroke="#036063"/><path d="M68.528 80.078l.113-.064v-.022l.25-.144 2.14-1.23-8.397-14.6-2.164 1.232-.343.2 8.4 14.628z" fill="#E5EAEB" stroke="#036063"/><path d="M45.41 31.032l-11.277 6.976L45.82 44.76l15.867-9.658-11.686-6.752-4.591 2.682z" fill="#036063" stroke="#036063"/><path d="M115.934 52.736a4.91 4.91 0 01.463-.119l-8.988-5.304a3.738 3.738 0 00-3.018-.034l10.063 5.938c.326-.163.659-.312.998-.446l.089-.035h.393zM99.38 60.995l8.861 5.24a3.732 3.732 0 01-.079-.311 2.46 2.46 0 01-.131-.384l-.009-.037-.004-.038a7.557 7.557 0 01-.001-1.387 13.702 13.702 0 011.8-6.072 13.643 13.643 0 013.697-4.157l-10.101-5.96a12.647 12.647 0 00-3.754 4.126 12.69 12.69 0 00-1.638 5.657v.016l-.002.016a3.697 3.697 0 001.361 3.291z" fill="#fff" stroke="#036063"/><path d="M109.586 66.485l.036.04.027.047c.075.13.159.256.251.375l.248.206a3.438 3.438 0 004.045-.009l.01-.007.01-.007a12.638 12.638 0 004.028-4.273 12.68 12.68 0 001.669-5.637l.001-.013.001-.012a3.616 3.616 0 00-1.521-3.337 1.25 1.25 0 00-.343-.134l-.038-.01-.036-.014-.285-.114h-.765a4.105 4.105 0 00-.633.15l-.075.025h-.358a11.69 11.69 0 00-1.041.483 12.637 12.637 0 00-4.008 4.26 12.68 12.68 0 00-1.669 5.637l-.001.01-.001.01c-.036.389-.037.78-.003 1.17.021.077.049.153.084.226l.026.056.011.06c.041.209.103.413.187.608a1 1 0 00.143.204z" fill="#fff" stroke="#036063"/><path d="M113.973 52.928a13.17 13.17 0 011.297-.596l.736 1.86a10.94 10.94 0 00-1.101.506l-.932-1.77zm2.033 1.264a10.94 10.94 0 00-1.101.506l-.932-1.77a13.17 13.17 0 011.297-.596l.736 1.86z" fill="#036063" mask="url(#path-156-inside-39_129_51381)"/><path d="M116.907 54c-.199.03-.395.075-.587.137l-.617-1.902c.298-.097.603-.168.913-.214l.291 1.98zm-1.204-1.765c.298-.097.603-.168.913-.214l.291 1.98a3.494 3.494 0 00-.587.136l-.617-1.902z" fill="#036063" mask="url(#path-158-inside-40_129_51381)"/><path d="M118.152 54.271a.758.758 0 00-.214-.086l.45-1.949c.277.064.542.17.786.316l-1.022 1.719zm.236-2.035c.277.064.542.17.786.316l-1.022 1.719a.758.758 0 00-.214-.086l.45-1.949z" fill="#036063" mask="url(#path-160-inside-41_129_51381)"/><path d="M109.882 66.04c.02.04.045.077.075.11l-1.482 1.342a2.538 2.538 0 01-.375-.542l1.782-.91zm-1.407 1.452a2.538 2.538 0 01-.375-.542l1.782-.91c.02.04.045.077.075.11l-1.482 1.342z" fill="#036063" mask="url(#path-162-inside-42_129_51381)"/><mask id="path-164-inside-43_129_51381" fill="#fff"><path d="M109.541 67.348l.3.25-.3-.25z"/></mask><path d="M109.541 67.348l.3.25-.3-.25z" fill="#fff"/><path d="M110.182 66.58l.3.251-1.283 1.534-.299-.25 1.282-1.535zm-.983 1.785l-.299-.25 1.282-1.535.3.251-1.283 1.534z" fill="#036063" mask="url(#path-164-inside-43_129_51381)"/><path d="M109.611 65.174a.944.944 0 00.062.171l-1.812.847a2.931 2.931 0 01-.189-.53l1.939-.488zm-1.75 1.018a2.931 2.931 0 01-.189-.53l1.939-.488a.944.944 0 00.062.171l-1.812.847z" fill="#036063" mask="url(#path-166-inside-44_129_51381)"/></g><defs><clipPath id="clip0_129_51381"><path fill="#fff" transform="matrix(-1 0 0 1 140 0)" d="M0 0h140v195H0z"/></clipPath></defs></svg>