<svg width="238" height="195" fill="none" xmlns="http://www.w3.org/2000/svg"><g clip-path="url(#clip0_129_51853)"><path d="M120.25 179.423l-12.903 7.43-24.078-13.878 12.902-7.445 24.079 13.893z" fill="#fff" stroke="#036063"/><g style="mix-blend-mode:multiply"><path d="M105.606 174.561l13.893 19.939h-17.204l-12.244-6.361a5.023 5.023 0 01-.058-.514 6.72 6.72 0 01.175-1.954c.375-1.586 1.438-3.692 4.274-5.632a44.85 44.85 0 0111.164-5.478zm-15.514 13.782z" fill="#fff"/><path d="M105.606 174.561l13.893 19.939h-17.204l-12.244-6.361a5.023 5.023 0 01-.058-.514 6.72 6.72 0 01.175-1.954c.375-1.586 1.438-3.692 4.274-5.632a44.85 44.85 0 0111.164-5.478zm-15.514 13.782s0 0 0 0h0z" stroke="#036063"/></g><g style="mix-blend-mode:multiply"><path d="M170.612 108.186l49.724 28.698-78.086 44.969-2.623-4.697 30.985-68.97z" fill="#fff"/><path d="M170.612 108.186l49.724 28.698-78.086 44.969-2.623-4.697 30.985-68.97z" stroke="#036063"/></g><g style="mix-blend-mode:multiply"><path d="M16.12 122.941l13.908 19.939h-17.22L.566 136.534a4.987 4.987 0 01-.057-.514 6.714 6.714 0 01.175-1.953c.374-1.586 1.438-3.693 4.274-5.633a44.572 44.572 0 0111.164-5.493z" fill="#fff"/><path d="M16.12 122.941l13.908 19.939h-17.22L.566 136.534a4.987 4.987 0 01-.057-.514 6.714 6.714 0 01.175-1.953c.374-1.586 1.438-3.693 4.274-5.633a44.572 44.572 0 0111.164-5.493z" stroke="#036063"/></g><path d="M68.953 149.828l-12.902 7.43-24.064-13.878 12.888-7.444 24.078 13.892z" fill="#fff" stroke="#036063"/><g style="mix-blend-mode:multiply"><path d="M57.242 146.757l23.88 25.718h-17.01l-22.473-12.119a5.043 5.043 0 01-.058-.519 6.727 6.727 0 01.174-1.954c.375-1.586 1.439-3.692 4.275-5.632a44.17 44.17 0 0111.212-5.494zm-15.563 13.798v-.001.001z" fill="#fff"/><path d="M57.242 146.757l23.88 25.718h-17.01l-22.473-12.119a5.043 5.043 0 01-.058-.519 6.727 6.727 0 01.174-1.954c.375-1.586 1.439-3.692 4.275-5.632a44.17 44.17 0 0111.212-5.494zm-15.563 13.798v-.001.001z" stroke="#036063"/></g><path d="M167.667 43.8l-12.888 7.445-24.08-13.893 12.888-7.445 24.08 13.894zM18.452 135.573l1.674-5.725 12.219 7.056-1.662 5.724-12.231-7.055z" fill="#fff" stroke="#036063"/><path d="M133.383 1.043l12.292 7.07-30.48 27.732-.029.027-.025.03-65.855 82.236-21.657 18.124-12.36-7.086a4.312 4.312 0 01-1.363-1.708l-.457.202.457-.202a4.313 4.313 0 01-.347-2.184l.003-.025v-.636a14.666 14.666 0 016.559-11.503l16.15-9.338h0l.01-.006a23.735 23.735 0 006.543-5.901l.002-.002 63.561-81.522.003-.005a22.733 22.733 0 016.264-5.651l16.159-9.343.024-.014.022-.016a4.176 4.176 0 014.524-.279z" fill="#036063" stroke="#036063"/><path d="M20.858 112.695l15.163-8.738 12.108 6.978-15.163 8.752-12.108-6.992zm104.585-95.437l-12.108-6.993 15.163-8.738 12.108 6.978-15.163 8.753z" fill="#fff" stroke="#036063"/><path d="M49.38 110.557h0l.007-.004a23.252 23.252 0 006.545-5.887l.002-.003 63.498-81.537.004-.005a22.492 22.492 0 016.262-5.65l16.158-9.25h.001c2.007-1.155 3.706-1.208 4.871-.544 1.163.663 1.971 2.14 1.971 4.441v.547a16.226 16.226 0 01-7.352 12.671l-19.612 11.24-.085.048-.061.078-69.334 89.081-19.538 11.213-.002.001c-2.006 1.163-3.706 1.215-4.87.551-1.163-.663-1.97-2.141-1.97-4.433v-.547a16.19 16.19 0 017.352-12.671l16.153-9.34zm-17.566 31.768l1.545-5.326 18.732-10.806v4.422l-20.277 11.71z" fill="#fff" stroke="#036063"/><path d="M122.484 40.925v-4.422l18.921-10.916 1.545 3.533-20.466 11.805z" fill="#fff" stroke="#036063"/><path d="M49.38 111.352h0l-16.153 9.34a14.665 14.665 0 00-6.666 11.472v.547c0 2.082.73 3.408 1.768 4.001 1.04.593 2.568.553 4.387-.494l16.664-24.866zm0 0l.01-.005a23.49 23.49 0 006.545-5.905l63.498-81.52.004-.006a22.489 22.489 0 016.262-5.65l.005-.003 16.152-9.34h.002c1.819-1.038 3.346-1.076 4.386-.479 1.039.596 1.77 1.927 1.77 4.017v.532a14.674 14.674 0 01-6.666 11.503l-19.613 11.286-.085.049-.06.077-69.334 89.035-19.54 11.275 16.664-24.866z" fill="#fff" stroke="#036063"/><path d="M53.09 129.447v-3.948l68.394-87.828v3.949L53.09 129.447z" fill="#fff" stroke="#036063"/><path d="M47.666 109.576h0l-16.153 9.34a16.194 16.194 0 00-7.352 12.671v.532c0 2.3.808 3.778 1.97 4.441 1.165.663 2.865.611 4.871-.544l16.664-26.44zm0 0l.01-.005a23.49 23.49 0 006.543-5.902l.002-.002 63.513-81.553h0l.006-.007A22.059 22.059 0 01124 16.46l.004-.002 16.136-9.34h.002c2.006-1.132 3.706-1.178 4.872-.51 1.163.666 1.971 2.144 1.971 4.452v.531a16.231 16.231 0 01-7.352 12.688L120.036 35.58l-.085.048-.06.077-69.35 89.036-19.538 11.275 16.663-26.44z" fill="#fff" stroke="#036063"/><path d="M120.785 39.945v-4.438l18.92-10.915 1.547 3.548-20.467 11.805zm-90.551 81.322l-.033.024-.028.03a17.785 17.785 0 00-4.81 10.212 7.319 7.319 0 001.042 5.147l.025.05-.306-.175-1.284-2.453-.193-3.937 1.358-4.9 2.54-3.56 4.355-3.375 13.92-7.864.018-.01.018-.012 4.192-2.866.05-.033.039-.044 3.787-4.174.013-.015.012-.015 54.086-69.656.001-.001 9.883-12.655 3.778-3.271 18.057-10.5 4.409-.47.16.093-3.346.456-.101.013-.087.053-18.907 11.261-.05.03-.042.04-3.539 3.427-.025.025-.021.027-64.822 83.151-3.89 3.781h-.001l-.155.091-.589.345-2.116 1.244a2216.489 2216.489 0 00-6.543 3.865 840.015 840.015 0 00-6.885 4.121c-1.973 1.196-3.493 2.142-3.97 2.5zm21.141 7.199v-3.964l68.409-87.829v3.965l-68.41 87.828z" fill="#fff" stroke="#036063"/><path d="M49.38 110.557h0l.007-.004a23.252 23.252 0 006.545-5.887l.002-.003 63.498-81.537.004-.005a22.492 22.492 0 016.262-5.65l16.158-9.25h.001c2.007-1.155 3.706-1.208 4.871-.544 1.163.663 1.971 2.14 1.971 4.441v.547a16.226 16.226 0 01-7.352 12.671l-19.612 11.24-.085.048-.061.078-69.334 89.081-19.538 11.213-.002.001c-2.006 1.163-3.706 1.215-4.87.551-1.163-.663-1.97-2.141-1.97-4.433v-.547a16.19 16.19 0 017.352-12.671l16.153-9.34zm-17.566 31.768l1.545-5.326 18.732-10.806v4.422l-20.277 11.71z" fill="#fff" stroke="#036063"/><path d="M122.484 40.925v-4.422l18.921-10.916 1.545 3.533-20.466 11.805z" fill="#fff" stroke="#036063"/><path d="M49.38 111.352h0l-16.153 9.34a14.665 14.665 0 00-6.666 11.472v.547c0 2.082.73 3.408 1.768 4.001 1.04.593 2.568.553 4.387-.494l16.664-24.866zm0 0l.01-.005a23.49 23.49 0 006.545-5.905l63.498-81.52.004-.006a22.489 22.489 0 016.262-5.65l.005-.003 16.152-9.34h.002c1.819-1.038 3.346-1.076 4.386-.479 1.039.596 1.77 1.927 1.77 4.017v.532a14.674 14.674 0 01-6.666 11.503l-19.613 11.286-.085.049-.06.077-69.334 89.035-19.54 11.275 16.664-24.866z" fill="#fff" stroke="#036063"/><path d="M30.328 136.946v.001a2.333 2.333 0 01-1.872-.862 4.67 4.67 0 01-.85-2.9v-.569a14.055 14.055 0 016.37-10.99l16.153-9.339h0l.008-.005a23.866 23.866 0 006.732-6.058l.002-.003 63.545-81.583h0l.004-.006a21.87 21.87 0 016.09-5.51l16.143-9.264h0l.011-.007a5.411 5.411 0 012.572-.784c.838.003 1.492.344 1.951.957.473.63.765 1.589.765 2.842v.547a14.09 14.09 0 01-6.37 10.99l-19.737 11.364-.085.048-.06.078-69.35 89.035-19.43 11.213-.008.004-.007.005a5.269 5.269 0 01-2.577.796z" fill="#fff" stroke="#036063"/><path d="M53.09 135.429v-9.93l68.394-87.828v9.93L53.09 135.429zm16.365 9.782v3.752l-24.08-13.893v-3.752l24.08 13.893z" fill="#fff" stroke="#036063"/><path d="M77.17 136.348v3.752l-24.08-13.893v-3.752l24.08 13.893zm7.7-8.863v3.752l-24.079-13.894v-3.752l24.08 13.894zm7.716-8.878v3.752l-24.08-13.878v-3.768l24.08 13.894zm7.715-8.863v3.752l-24.08-13.894V95.85l24.08 13.894zm7.7-8.863v3.752L83.936 90.74v-3.752l24.065 13.893zm7.716-8.863v3.752l-24.08-13.893v-3.752l24.08 13.893zm7.715-8.863v3.752l-24.08-13.894v-3.752l24.08 13.894zm7.716-8.864v3.752l-24.08-13.893v-3.752l24.08 13.893zm7.7-8.877v3.767l-24.079-13.893v-3.753l24.079 13.879zm7.716-8.864v3.752l-24.08-13.893v-3.752l24.08 13.893zM76.67 140.468l-6.715 3.877-24.08-13.893 6.716-3.878 24.08 13.894zm7.7-8.863l-6.7 3.877-24.08-13.894 6.7-3.877 24.08 13.894zm7.716-8.864l-6.715 3.877-24.08-13.893 6.716-3.877 24.08 13.893zm7.714-8.863l-6.714 3.863-24.078-13.893 6.713-3.863L99.8 113.878zm7.701-8.863l-6.7 3.862-24.078-13.892 6.714-3.863 24.064 13.893zm7.715-8.877l-6.715 3.877-24.064-13.893 6.7-3.862 24.079 13.878zm7.717-8.864l-6.716 3.878-24.08-13.894 6.716-3.877 24.08 13.893zm7.715-8.863l-6.716 3.877-24.08-13.893 6.716-3.877 24.08 13.893zm7.7-8.861l-6.701 3.876-24.08-13.894 6.701-3.876 24.08 13.893zm7.714-8.865l-6.714 3.862-24.079-13.878 6.715-3.877 24.078 13.893zm7.716-8.863l-6.714 3.863-24.079-13.893 6.714-3.862 24.079 13.892z" fill="#fff" stroke="#036063"/><path d="M72.746 124.046h0l-16.153 9.339a16.206 16.206 0 00-7.352 12.672v.531c0 2.301.807 3.779 1.97 4.441 1.165.664 2.864.612 4.87-.544l16.665-26.439zm0 0l.009-.005a23.49 23.49 0 006.543-5.902l.002-.003 63.514-81.52h0l.006-.008a21.988 21.988 0 016.244-5.648l.004-.003 16.155-9.34-92.477 102.429zm2.875 15.164l-19.539 11.275L165.224 21.616c2.007-1.155 3.706-1.207 4.87-.543 1.163.662 1.971 2.14 1.971 4.44v.532a16.202 16.202 0 01-7.352 12.672L145.1 50.048l-.085.05-.06.076-69.334 89.035z" fill="#fff" stroke="#036063"/><path d="M145.85 54.414v-4.437l18.921-10.916 1.546 3.548-20.467 11.805zm-90.538 81.325l-.031.023-.027.029a17.624 17.624 0 00-4.811 10.214 7.318 7.318 0 001.04 5.144l.032.064-.325-.187-1.27-2.452-.194-3.939 1.358-4.899 2.54-3.56 4.325-3.36 13.996-7.879.02-.011.02-.013 4.145-2.866.05-.034.04-.045 3.725-4.19.01-.013.011-.013 54.133-69.64.001-.001 9.898-12.656 3.779-3.271 18.01-10.56 4.405-.455.176.103-3.374.46-.1.014-.088.052-18.985 11.293-.054.032-.045.045-3.398 3.427-.021.021-.019.024-64.821 83.135-3.891 3.796v.001l-.155.09-.59.345a2057.044 2057.044 0 00-8.659 5.104 817.722 817.722 0 00-6.885 4.12c-1.971 1.197-3.493 2.145-3.971 2.508zm21.142 7.198v-3.965l68.394-87.828v3.965l-68.394 87.828z" fill="#fff" stroke="#036063"/><path d="M74.46 125.043h0l-16.154 9.34a16.199 16.199 0 00-7.352 12.656v.546c0 2.292.808 3.771 1.97 4.434 1.165.663 2.864.611 4.87-.552h.001l19.54-11.26 69.334-89.035.06-.077.084-.048 19.613-11.333a16.249 16.249 0 007.352-12.673v-.546c0-2.3-.808-3.778-1.97-4.441-1.165-.663-2.864-.611-4.87.544L74.459 125.043zm0 0l.008-.005a23.221 23.221 0 006.529-5.903l.002-.003 63.513-81.535.004-.006a22.489 22.489 0 016.262-5.65l.005-.003 16.154-9.34-92.478 102.445zm-17.58 31.736l1.557-5.309 18.732-10.806v4.421l-20.288 11.694z" fill="#fff" stroke="#036063"/><path d="M147.563 55.396v-4.422l18.922-10.916 1.545 3.533-20.467 11.805z" fill="#fff" stroke="#036063"/><path d="M74.46 125.822h0l.009-.005a23.22 23.22 0 006.528-5.903l.003-.003 63.512-81.52.005-.006a22.475 22.475 0 016.262-5.65l.004-.003 16.154-9.34h.001c1.819-1.046 3.347-1.087 4.387-.493 1.038.592 1.768 1.918 1.768 4v.532a14.67 14.67 0 01-6.666 11.487l-19.613 11.334-.085.049-.06.077-69.333 89.034-19.54 11.244v.001c-1.82 1.054-3.348 1.098-4.388.506-1.037-.59-1.767-1.916-1.767-3.998v-.547a14.668 14.668 0 016.666-11.457l16.153-9.339z" fill="#fff" stroke="#036063"/><path d="M78.17 143.918v-3.949l68.394-87.828v3.95L78.17 143.917zm-21.53 13.68l1.675-5.711 12.218 7.042-1.661 5.724-12.232-7.055zm90.923-102.202v-4.422l18.922-10.916 1.545 3.533-20.467 11.805z" fill="#fff" stroke="#036063"/><path d="M171.571 23.052l12.278 7.07-30.466 27.748-.029.027-.024.03-65.856 82.251-21.656 18.094-12.36-7.086a4.338 4.338 0 01-1.364-1.716l-.458.202.457-.202a4.324 4.324 0 01-.345-2.191l.002-.026v-.574a14.667 14.667 0 016.56-11.518l16.15-9.339v.001l.01-.006a23.218 23.218 0 006.528-5.902l.002-.004 63.513-81.52.004-.005a22.479 22.479 0 016.263-5.65l.004-.003 16.155-9.34.027-.016.025-.019a4.177 4.177 0 014.58-.306z" fill="#036063" stroke="#fff"/><path d="M59.046 134.735l15.164-8.752 12.108 6.992-15.164 8.738-12.108-6.978zm104.586-95.452l-12.108-6.977 15.163-8.753 12.108 6.992-15.163 8.738zM70.002 164.35l1.546-5.326 18.715-10.806v4.437L70.002 164.35zm90.67-101.384V58.53l18.921-10.916 1.546 3.548-20.467 11.805z" fill="#fff" stroke="#036063"/><path d="M87.569 133.377h0l-16.153 9.339a14.679 14.679 0 00-6.666 11.503v.532c0 2.074.73 3.396 1.767 3.987 1.04.592 2.568.551 4.388-.495l16.664-24.866zm0 0l.01-.006a23.477 23.477 0 006.527-5.901l.002-.004 63.513-81.52.003-.004a22.731 22.731 0 016.295-5.652l.004-.002 16.154-9.34h.001c1.819-1.047 3.347-1.088 4.387-.496 1.039.59 1.768 1.913 1.768 3.987v.547a14.66 14.66 0 01-6.666 11.472l-19.613 11.318-.085.048-.06.078-69.365 89.066-19.539 11.275 16.664-24.866z" fill="#fff" stroke="#036063"/><path d="M68.558 158.986l-.293.014-.034.069a2.352 2.352 0 01-1.603-.864 4.61 4.61 0 01-.82-2.911v-.576a14.106 14.106 0 016.371-10.99l16.152-9.339h0l.01-.006a23.874 23.874 0 006.7-6.105l.003-.004 63.511-81.534.005-.006a21.71 21.71 0 016.09-5.494l.004-.002 16.156-9.341.007-.004.007-.005a5.274 5.274 0 012.567-.796c.838.003 1.491.343 1.951.958.473.633.765 1.594.765 2.856v.532a14.053 14.053 0 01-6.37 10.99l-19.706 11.379-.085.049-.06.076-69.35 89.036-19.4 11.213-.006.004-.007.004a5.33 5.33 0 01-2.565.797z" fill="#fff" stroke="#036063"/><path d="M91.262 151.489v-3.965l68.41-87.828v3.964l-68.41 87.829zm127.702-78.093l-12.888 7.445-24.08-13.894 12.889-7.444 24.079 13.893zM69.765 165.168l1.661-5.725 12.216 7.055-1.675 5.725-12.202-7.055z" fill="#fff" stroke="#036063"/><path d="M184.711 30.607l12.277 7.07-30.542 27.763-.029.027-.025.03-65.809 82.236-21.657 18.124-12.36-7.086a4.328 4.328 0 01-1.71-3.906l.003-.026v-.621a14.668 14.668 0 016.56-11.503l16.15-9.338h0l.01-.006a23.463 23.463 0 006.528-5.901l.002-.003 63.513-81.52.003-.005a22.742 22.742 0 016.294-5.651l.005-.003 16.155-9.34.027-.016.025-.02a4.177 4.177 0 014.578-.306h.002z" fill="#036063" stroke="#fff"/><path d="M72.155 142.29l15.163-8.738 12.108 6.977-15.163 8.753-12.108-6.992zm104.586-95.438l-12.109-6.992 15.164-8.738 12.108 6.978-15.163 8.752z" fill="#fff" stroke="#036063"/><path d="M100.677 140.153h0l-16.153 9.339a16.203 16.203 0 00-7.352 12.718v.547c0 2.292.807 3.771 1.97 4.433 1.165.664 2.864.612 4.87-.551h.001l19.54-11.26 69.333-89.097.06-.077.085-.05 19.613-11.317a16.19 16.19 0 007.352-12.672v-.546c0-2.292-.807-3.77-1.971-4.435-1.165-.666-2.864-.617-4.87.538l-92.478 102.43zm0 0l.008-.005a23.27 23.27 0 006.547-5.89l63.497-81.536.005-.006a22.49 22.49 0 016.262-5.65l.005-.003 16.154-9.34-92.478 102.43zm-17.58 31.766l1.558-5.325 18.732-10.806v4.421l-20.29 11.71z" fill="#fff" stroke="#036063"/><path d="M173.781 70.536v-4.437l18.921-10.916 1.546 3.533-20.467 11.82z" fill="#fff" stroke="#036063"/><path d="M100.678 140.947h0l-16.153 9.339a14.665 14.665 0 00-6.666 11.472v.547c0 2.082.73 3.409 1.768 4.001 1.04.593 2.567.553 4.387-.493l16.664-24.866zm0 0l.009-.006a23.476 23.476 0 006.545-5.904L170.73 53.5l.004-.005a22.48 22.48 0 016.263-5.65l.004-.003 16.154-9.34s0 0 0 0c1.82-1.047 3.348-1.087 4.388-.494 1.038.592 1.768 1.919 1.768 4.001v.532a14.668 14.668 0 01-6.666 11.55l-19.613 11.317-.085.049-.06.077-69.334 89.004-19.539 11.274 16.664-24.865z" fill="#fff" stroke="#036063"/><path d="M104.387 159.043v-3.949l68.394-87.828v3.965l-68.394 87.812z" fill="#fff" stroke="#036063"/><path d="M99.026 139.171h0l-16.153 9.339a16.206 16.206 0 00-7.353 12.672v.531c0 2.3.808 3.779 1.971 4.441 1.165.664 2.864.612 4.87-.544l19.478-11.274 69.334-89.083.06-.077.085-.049 19.612-11.301a16.25 16.25 0 007.352-12.672v-.547c0-2.3-.807-3.778-1.97-4.44-1.165-.664-2.864-.612-4.87.543L99.026 139.17zm0 0l.009-.005a23.488 23.488 0 006.543-5.902l.002-.003 63.451-81.552h.001l.004-.007a22.232 22.232 0 016.246-5.649l.005-.002 16.154-9.34-92.415 102.46z" fill="#fff" stroke="#036063"/><path d="M172.082 69.54v-4.422l18.921-10.916 1.546 3.532-20.467 11.806zm-90.55 81.321l-.033.025-.029.03a17.782 17.782 0 00-4.81 10.212 7.32 7.32 0 001.042 5.147l.03.06-.325-.186-1.27-2.451-.193-3.938 1.358-4.899 2.556-3.561 4.34-3.375 13.903-7.864.019-.01.017-.012 4.208-2.866.051-.035.041-.045 3.725-4.175.011-.012.011-.014 54.132-69.655.002-.002 9.945-12.656 3.702-3.24 18.04-10.545 4.405-.47.176.104-3.374.46-.101.013-.087.052-19.001 11.324-.053.032-.044.043-3.382 3.365-.022.022-.02.025-64.821 83.15-3.891 3.781-.001.001-.155.091-.589.345-2.115 1.243a2023.625 2023.625 0 00-6.544 3.866 871.14 871.14 0 00-6.885 4.12c-1.972 1.197-3.492 2.143-3.97 2.5zm21.14 7.2v-3.965l68.41-87.813v3.95l-68.41 87.828z" fill="#fff" stroke="#036063"/><path d="M100.677 140.153h0l-16.153 9.339a16.203 16.203 0 00-7.352 12.718v.547c0 2.292.807 3.771 1.97 4.433 1.165.664 2.864.612 4.87-.551h.001l19.54-11.26 69.333-89.097.06-.077.085-.05 19.613-11.317a16.19 16.19 0 007.352-12.672v-.546c0-2.292-.807-3.77-1.971-4.435-1.165-.666-2.864-.617-4.87.538l-92.478 102.43zm0 0l.008-.005a23.27 23.27 0 006.547-5.89l63.497-81.536.005-.006a22.49 22.49 0 016.262-5.65l.005-.003 16.154-9.34-92.478 102.43zm-17.58 31.766l1.558-5.325 18.732-10.806v4.421l-20.29 11.71z" fill="#fff" stroke="#036063"/><path d="M173.781 70.536v-4.437l18.921-10.916 1.546 3.533-20.467 11.82z" fill="#fff" stroke="#036063"/><path d="M100.678 140.947h0l-16.153 9.339a14.665 14.665 0 00-6.666 11.472v.547c0 2.082.73 3.409 1.768 4.001 1.04.593 2.567.553 4.387-.493l16.664-24.866zm0 0l.009-.006a23.476 23.476 0 006.545-5.904L170.73 53.5l.004-.005a22.48 22.48 0 016.263-5.65l.004-.003 16.154-9.34s0 0 0 0c1.82-1.047 3.348-1.087 4.388-.494 1.038.592 1.768 1.919 1.768 4.001v.532a14.668 14.668 0 01-6.666 11.55l-19.613 11.317-.085.049-.06.077-69.334 89.004-19.539 11.274 16.664-24.865z" fill="#fff" stroke="#036063"/><path d="M84.201 165.735l-.008.005-.009.006a5.179 5.179 0 01-2.556.795 2.342 2.342 0 01-1.89-.86 4.667 4.667 0 01-.82-2.912v-.574a14.055 14.055 0 016.371-10.99l16.153-9.339h0l.008-.005a23.69 23.69 0 006.701-6.043l.002-.003 63.513-81.504.004-.006a22.026 22.026 0 016.092-5.51l16.158-9.343h0l.01-.006a5.412 5.412 0 012.572-.784c.838.003 1.492.344 1.951.956.473.632.765 1.59.765 2.843v.547a14.09 14.09 0 01-6.371 10.99L173.141 65.36l-.084.05-.06.076-69.35 89.035-19.446 11.213z" fill="#fff" stroke="#036063"/><path d="M104.387 165.024v-9.93l68.394-87.828v9.93l-68.394 87.828zm16.365 9.782v3.752l-24.08-13.893v-3.752l24.08 13.893z" fill="#fff" stroke="#036063"/><path d="M128.452 165.943v3.752l-24.065-13.894v-3.751l24.065 13.893zm7.716-8.864v3.752l-24.08-13.893v-3.752l24.08 13.893zm7.715-8.877v3.752l-24.08-13.878v-3.768l24.08 13.894zm7.716-8.864v3.752l-24.08-13.893v-3.752l24.08 13.893zm7.699-8.862v3.752l-24.064-13.893v-3.752l24.064 13.893zm7.717-8.863v3.752l-24.08-13.894v-3.752l24.08 13.894zm7.715-8.864v3.752l-24.08-13.893v-3.752l24.08 13.893zm7.715-8.862v3.752l-24.08-13.893v-3.752l24.08 13.893zm7.701-8.879v3.768l-24.08-13.894V81.13l24.08 13.878zm7.715-8.862v3.752l-24.08-13.894v-3.736l24.08 13.878zm-69.908 83.917l-6.701 3.877-24.08-13.894 6.716-3.877 24.065 13.894zm7.714-8.864l-6.715 3.877-24.065-13.893 6.701-3.877 24.079 13.893zm7.716-8.862l-6.715 3.877-24.079-13.893 6.715-3.877 24.079 13.893zm7.714-8.864l-6.713 3.863-24.079-13.893 6.714-3.863 24.078 13.893zm7.701-8.862l-6.699 3.862-24.079-13.893 6.714-3.862 24.064 13.893zm7.715-8.878l-6.715 3.877-24.064-13.893 6.7-3.863 24.079 13.879zm7.717-8.864l-6.716 3.877-24.079-13.893 6.716-3.877 24.079 13.893zm7.715-8.862l-6.715 3.877-24.08-13.893 6.716-3.878 24.079 13.894zm7.701-8.863l-6.701 3.877-24.08-13.894 6.701-3.877 24.08 13.894zm7.714-8.864l-6.714 3.862-24.079-13.878 6.715-3.877 24.078 13.892zm7.715-8.863l-6.714 3.863-24.079-13.878 6.715-3.877 24.078 13.892z" fill="#fff" stroke="#036063"/><path d="M124.043 153.642h0l-16.153 9.339a16.206 16.206 0 00-7.352 12.672v.531c0 2.3.808 3.778 1.971 4.441 1.164.664 2.864.611 4.87-.544l16.664-26.439zm0 0l.009-.006a23.478 23.478 0 006.544-5.901l.002-.003 63.498-81.537h0l.004-.006a22.25 22.25 0 016.262-5.65c.001 0 .003 0 .004-.002l16.155-9.34-92.478 102.445zm2.876 15.164l-19.539 11.275L216.522 51.196c2.006-1.155 3.705-1.207 4.87-.543 1.162.662 1.97 2.14 1.97 4.44v.532a16.189 16.189 0 01-7.352 12.671l-19.613 11.318-.084.049-.06.077-69.334 89.066z" fill="#fff" stroke="#036063"/><path d="M197.145 84.01v-4.438l18.922-10.917 1.56 3.55-20.482 11.805zm-90.536 81.324l-.031.023-.027.028a17.625 17.625 0 00-4.811 10.215 7.318 7.318 0 001.041 5.144l.031.064-.326-.187-1.269-2.437-.193-3.938 1.358-4.9 2.525-3.56 4.37-3.374 13.966-7.88.018-.01.018-.012 4.208-2.866.051-.035.041-.046 3.725-4.174.011-.013.011-.013 54.071-69.656.001-.002 9.898-12.655 3.763-3.271 18.009-10.498 4.406-.455.176.104-3.374.46-.1.013-.088.052-19 11.293-.054.032-.044.044-3.367 3.364-.022.022-.019.025-64.822 83.15-3.89 3.781h-.001l-.155.091-.589.345-2.116 1.242a2274.044 2274.044 0 00-6.543 3.861 821.916 821.916 0 00-6.885 4.121c-1.972 1.197-3.494 2.145-3.972 2.508zm21.143 7.197v-3.964l68.394-87.828v3.964l-68.394 87.828z" fill="#fff" stroke="#036063"/><path d="M125.757 154.639h0l-16.153 9.339a16.199 16.199 0 00-7.353 12.657v.546c0 2.292.808 3.77 1.971 4.433 1.164.664 2.864.612 4.87-.551h.001l19.524-11.26 69.349-89.05.06-.078.085-.049 19.612-11.317a16.233 16.233 0 007.353-12.672v-.546c0-2.3-.808-3.779-1.971-4.441-1.164-.664-2.864-.612-4.87.543L125.757 154.64zm0 0l.008-.005a23.224 23.224 0 006.529-5.903l.003-.003 63.512-81.536.004-.005a22.479 22.479 0 016.263-5.65l.004-.003 16.154-9.34-92.477 102.445zm-17.579 31.735l1.557-5.309 18.716-10.806v4.421l-20.273 11.694z" fill="#fff" stroke="#036063"/><path d="M198.861 84.99v-4.42l18.921-10.916 1.545 3.533-20.466 11.805z" fill="#fff" stroke="#036063"/><path d="M125.757 155.417h0l.009-.005a23.22 23.22 0 006.529-5.902l.002-.004 63.513-81.535.004-.006a22.49 22.49 0 016.262-5.65c.002 0 .003-.002.005-.003l16.154-9.34h.001c1.811-1.046 3.339-1.087 4.381-.493 1.04.593 1.774 1.92 1.774 4v.532a14.715 14.715 0 01-6.667 11.488l-19.613 11.317-.084.049-.06.077-69.35 89.066-19.523 11.244-.002.001c-1.819 1.054-3.347 1.097-4.386.506-1.038-.59-1.768-1.916-1.768-3.999v-.546a14.667 14.667 0 011.964-6.523l-.432-.251.432.251a14.67 14.67 0 014.702-4.934l16.153-9.34z" fill="#fff" stroke="#036063"/><path d="M129.451 173.513v-3.949l68.409-87.828v3.949l-68.409 87.828zm-21.513 13.681l1.674-5.711 12.203 7.041-1.661 5.724-12.216-7.054zM198.861 84.99v-4.42l18.921-10.916 1.545 3.533-20.466 11.805z" fill="#fff" stroke="#036063"/><path d="M222.867 52.631l12.278 7.07-30.465 27.733-.029.026-.024.031-65.856 82.282-21.657 18.094-12.407-7.071a4.322 4.322 0 01-1.363-1.716l-.457.202.457-.202a4.325 4.325 0 01-.346-2.191l.002-.025v-.575a14.666 14.666 0 016.605-11.533l16.152-9.339h0l.009-.005a23.224 23.224 0 006.529-5.903l.002-.003 63.513-81.535.004-.006a22.489 22.489 0 016.262-5.65l.005-.003 16.155-9.34.027-.016.024-.019a4.18 4.18 0 014.579-.306h.001z" fill="#036063" stroke="#036063"/><path d="M110.344 164.33l15.163-8.753 12.093 6.993-15.148 8.738-12.108-6.978zm104.585-95.452L202.821 61.9l15.163-8.752 12.108 6.992-15.163 8.738zm-93.646 125.068l1.546-5.327 19.017-10.971 1.695 3.461-22.258 12.837zm17.583-30.974v-.001l-16.153 9.34a14.698 14.698 0 00-6.666 11.503v.531c0 2.074.729 3.397 1.768 3.988 1.04.591 2.568.551 4.387-.495l16.664-24.866zm0 0l.01-.006a23.474 23.474 0 006.527-5.902l.003-.003 63.513-81.52.003-.005a22.732 22.732 0 016.264-5.651l16.158-9.343h.001c1.81-1.046 3.339-1.087 4.381-.495 1.041.591 1.773 1.914 1.773 3.987v.546a14.762 14.762 0 01-6.666 11.489L211.22 87.37l-.084.05-.06.076-69.35 89.067-19.523 11.274 16.663-24.865z" fill="#fff" stroke="#036063"/><path d="M119.809 188.581l-.328.015a2.348 2.348 0 01-1.556-.859 4.604 4.604 0 01-.82-2.91v-.576a14.118 14.118 0 016.371-10.99l16.153-9.339h0l.008-.005a23.887 23.887 0 006.7-6.043l.003-.003 63.513-81.536h0l.004-.006a21.74 21.74 0 016.09-5.494l.005-.002 16.155-9.341.007-.005.008-.004a5.269 5.269 0 012.566-.796c.838.002 1.492.343 1.951.957.473.633.766 1.595.766 2.857v.531a14.066 14.066 0 01-6.371 10.99l-19.706 11.38-.085.048-.06.077-69.349 89.035-19.446 11.213-.007.004-.007.005a5.33 5.33 0 01-2.565.797z" fill="#fff" stroke="#036063"/></g><defs><clipPath id="clip0_129_51853"><path fill="#fff" d="M0 0h238v195H0z"/></clipPath></defs></svg>