<svg width="703" height="521" fill="none" xmlns="http://www.w3.org/2000/svg"><path d="M99.984 443l-22.82 3.272-1.97.266M99.983 443l24.783-4.001M99.984 443L48.769 190.143l-19.291 94.784M99.984 443l40.071-218.732M4.427 506.653l-.662-50.192m.662 50.192l9.485-51.649m-9.485 51.649l20.66 1.716M3.205 414.013l17.032-83.683m679.187 101.581v-69.785l-37.747-1.77 40.032-66.489m-2.285 138.044L666.674 520m32.75-88.089l-167.561-2.339m167.561 2.339l-38.335-71.948-38.335-71.948m76.67 143.896L701.709 520h-35.035m0 0L578.5 356.938 391.15 29.161M37.731 451.5l17.726-2.307M37.731 451.5l-23.819 3.504m23.82-3.504l47.81-305.097L178.462 520h29.323M37.731 451.5l-6.485-47.4-11.01-73.77M37.732 451.5l-12.644 56.869m30.37-59.176l19.736-2.655m-19.736 2.655l9.547-57.203m-9.547 57.203l-25.98-164.266M1 246.963l2.765 209.498M1 246.963l12.912 208.041M1 246.963L142.63 78.5m556.794 72.366V76.505l-33.622-6.258m33.622 80.619l-33.622-80.62m33.622 80.62l-40.452 57.963m42.737 85.038l-2.285-75.591-40.452-9.447m42.737 85.038l-42.737-85.038M1.857 288.719l-.247-12.012 5.16-36.609 13.467 90.232m-17.6 40.621l17.278-146.487 9.563 60.463m164.979 142.36l-37.701 6.336-31.989 5.376m69.69-11.712l13.328-2.24 27.039.378m-40.367 1.862L207.785 520m-13.328-92.713l-38.148-142.36M207.785 520l27.039-94.575M207.785 520h69.141m-42.102-94.575L276.926 520m-42.102-94.575l103.658 1.472m-103.658-1.472l55.254-82.007M276.926 520l61.556-93.103M63.835 392.41l1.17-.42m59.762 47.009L66.402 169.17l-52.49 285.834m160.171-102.143l33.702-12.09 82.293 2.647M582.829 57.322l82.973 12.925m-82.973-12.925l-90.495-14.08m90.495 14.08L338.482 426.897M582.829 57.322l76.143 151.507m-417.625 50.547l48.731 84.042m-48.731-84.042h-33.562l-51.476 25.551m85.038-25.551l49.389-75.9M391.15 29.161L288.138 13.34M391.15 29.16l101.184 14.08M391.15 29.161L290.736 183.476m375.066-113.23L513.639 314l-24.375 39.047-47.021 75.323m0 0l89.62 1.202m-89.62-1.202l-103.761-1.473m103.761 1.473L290.736 183.476m-57.952-93.672l-24.999-3.766-51.017 46.998m76.016-43.232l55.354-76.464m-55.354 76.464l57.952 93.672m241.127 246.096l90.891-141.557m-90.891 141.557L341.221 103.994 288.138 13.34m0 0L207.785 1 142.63 78.5m349.704-35.259l130.42 244.774M492.334 43.241L290.078 343.418M33.06 208.829l42.133 237.709m98.288-404.735l-16.713 91.233m-16.713 91.232l-28.998-108.214L65.004 391.99m75.051-167.722l16.713-91.232m-16.713 91.232l16.254 60.659m-16.254-60.659l67.73-47.768 82.951 6.976M3.765 456.461l10.147-1.457m0 0l11.175 53.365m50.106-61.831L142.63 78.5M20.237 330.33l9.24-45.403m593.277 3.088l36.218-79.186m-320.49 218.068l-48.404-83.479" stroke-width="10" stroke="#036063"/><path d="M392.33 189.242l-50.475 78.384 49.287 80.76 49.287-73.634-48.099-85.51zM582.944 57.413l-47.505 71.852 44.536 80.76 44.537-69.477-41.568-83.135zm39.787 230.997L578.499 357l39.5 73.5 43.33-70.238-38.598-71.852zM66.32 168.458l-10.689 58.195 10.69 53.443 9.5-71.852-9.5-39.786zm32.66 149.049l-11.877 66.508 12.47 59.382 12.47-68.289-13.064-57.601z" fill="#036063"/></svg>