<svg width="220" height="82" fill="none" xmlns="http://www.w3.org/2000/svg"><path d="M68.099 68.636c-.684 0-1.238-.686-1.238-1.532s.554-1.532 1.238-1.532h150.063c.683 0 1.237.686 1.237 1.532s-.554 1.532-1.237 1.532H68.099z" fill="#00699D"/><path fill-rule="evenodd" clip-rule="evenodd" d="M36.829 18.232l-6.692 3.97v7.988l3.346-1.985 3.346-1.983v4.561l-6.692 3.97-3.848-2.28L9.447 22.48C6.377 27.929 4.62 34.256 4.62 41.005c0 3.924.593 7.704 1.693 11.254l-3.403 2.02A41.989 41.989 0 01.773 41.004c0-7.468 1.945-14.47 5.34-20.5l.006.003A42.141 42.141 0 018.2 17.18l1.755 1.04 16.333 9.688V19.97l-3.149-1.868-3.558-2.11a32.603 32.603 0 013.33-2.59l3.377 2.005v.243-4.258a31.233 31.233 0 013.848-1.662v7.91l6.692-3.97v4.563z" fill="#E10D13"/><path fill-rule="evenodd" clip-rule="evenodd" d="M57.944 26.192l-6.693-3.97-6.735 3.996 3.346 1.983 3.346 1.985-3.846 2.283-6.693-3.97v-4.564L40.671 0l-.002 3.953c-6.127-.006-12.34 1.595-18.028 4.97a36.193 36.193 0 00-8.64 7.134l-3.403-2.018a40.066 40.066 0 0110.12-8.54C27.014 1.765 33.889-.005 40.671 0c1.279 0 2.563.063 3.845.19v21.464l6.154-3.651.54-.319V9.727a31.583 31.583 0 013.845 1.667l.001 4.008-.206.122 3.59-2.129a31.962 31.962 0 013.326 2.591l-3.555 2.107-3.114 1.849 6.693 3.97-3.846 2.28z" fill="#E10D13"/><path fill-rule="evenodd" clip-rule="evenodd" d="M61.813 48.966v-7.938h.001l-6.735-3.995v7.937l-3.847-2.28v-7.94l3.845-2.28 20.179-11.967-3.334 1.975c-3.058-5.455-7.513-10.18-13.202-13.554a35.424 35.424 0 00-10.334-4.12V.769A39.211 39.211 0 0160.644 5.5c6.296 3.734 11.225 8.964 14.612 15.002a41.52 41.52 0 011.758 3.518l-18.09 10.73 6.155 3.65.54.32 3.15-1.87 3.558-2.11c.258 1.39.433 2.81.516 4.255l-3.377 2.006-.207-.123 3.59 2.13a33.927 33.927 0 01-.52 4.255l-3.557-2.11-3.112-1.846v7.94l-3.847-2.282z" fill="#00699D"/><path fill-rule="evenodd" clip-rule="evenodd" d="M44.523 63.773l6.693-3.972v-7.988l-3.347 1.984-3.345 1.985V51.22l6.692-3.97 3.847 2.283 16.843 9.99c3.07-5.45 4.826-11.775 4.826-18.523 0-3.924-.594-7.706-1.694-11.255l3.402-2.017A41.944 41.944 0 0180.579 41c0 7.467-1.944 14.47-5.34 20.499l-.007-.003a41.707 41.707 0 01-2.08 3.329l-6.138-3.639-11.953-7.09.002 7.3v.64l3.15 1.868 3.557 2.11a32.427 32.427 0 01-3.33 2.586l-3.378-2.003v-.243 4.257a31.492 31.492 0 01-3.847 1.665v-7.911l-6.694 3.97v-4.562z" fill="#00699D"/><path fill-rule="evenodd" clip-rule="evenodd" d="M19.563 33.037v7.937l6.734 3.994V37.03l3.848 2.283v7.938l-3.848 2.282-16.843 9.99c3.06 5.456 7.514 10.181 13.202 13.555a35.471 35.471 0 0010.334 4.119v4.037a39.186 39.186 0 01-12.257-4.733c-6.296-3.734-11.226-8.964-14.612-15.002a41.277 41.277 0 01-1.76-3.52l6.138-3.64 11.952-7.088-6.153-3.65-.54-.32-3.15 1.869-3.558 2.11a34.306 34.306 0 01-.517-4.255L11.91 41l.206.12-3.59-2.128c.083-1.42.256-2.84.52-4.255l3.555 2.109 3.114 1.848v-7.938l3.847 2.281z" fill="#E10D13"/><path fill-rule="evenodd" clip-rule="evenodd" d="M58.712 73.08c-5.689 3.375-11.9 4.975-18.027 4.968V58.066l-.002-4.562-6.691-3.969-3.847 2.28L33.49 53.8l3.346 1.985-6.735 3.996-6.691-3.97-3.847 2.281 6.693 3.97-3.115 1.846-3.554 2.109a32.076 32.076 0 003.326 2.59l3.59-2.128-.207.12v4.008a31.705 31.705 0 003.848 1.67v-7.96l.54-.32 6.153-3.648v21.465c1.283.127 2.566.189 3.846.187 6.784.008 13.658-1.765 19.952-5.499a40.1 40.1 0 0010.12-8.539l-3.404-2.017a36.234 36.234 0 01-8.64 7.134z" fill="#00699D"/><path fill-rule="evenodd" clip-rule="evenodd" d="M111.524 55.598l-.087-15.664h5.443v5.769h10.281v-5.725h5.184v15.665h-5.184v-5.68h-10.324v5.635h-5.313zm22.831.028h5.184V39.873h-5.184v15.753zm15.279.044c-3.146-.295-6.249-10.531-9.374-15.797h5.789l5.529 11.404 5.443-11.404h5.832l-7.689 15.798h-5.53zm20.56-15.714c3.146.296 6.249 10.532 9.374 15.798h-5.789l-5.529-11.405-5.443 11.405h-5.832l7.689-15.798h5.53z" fill="#E10D13"/><path fill-rule="evenodd" clip-rule="evenodd" d="M163.561 52.717l1.36-3.44h6.48l1.663 3.44h-9.503zm16.663 2.909h5.184V39.873h-5.184v15.753zm23.059.084h5.184V39.955h-5.184V55.71z" fill="#E10D13"/><path fill-rule="evenodd" clip-rule="evenodd" d="M184.825 45.571l2.765.022 5.875-5.658h7.581l-7.948 7.256 9.482 8.476h-7.387l-7.106-6.257h-3.262v-3.84zm-74.978-1.731c.065-.23.065-.658-.05-1.05-.116-.393-.346-.747-.656-1.095a5.606 5.606 0 00-1.159-.984 7.208 7.208 0 00-1.411-.695c-.417-.148-.72-.192-2.606-.215-1.887-.022-5.357-.022-7.12-.022-1.765 0-1.822 0-2.089.067a7.02 7.02 0 00-1.216.421 4.45 4.45 0 00-1.325.925 3.97 3.97 0 00-.828 1.346c-.18.48-.266.969-.324 1.568-.058.599-.087 1.309-.029 1.93.057.621.202 1.154.46 1.642.26.489.635.932 1.11 1.272.475.34 1.051.577 1.432.71.382.133.57.163 2.218.178 1.648.015 4.759.015 6.372.007 1.613-.007 1.728-.022 1.865.052a.981.981 0 01.381.421.77.77 0 01.043.563.896.896 0 01-.309.399c-.123.096-.238.155-2.498.185-2.261.03-6.668.03-8.907.044-2.239.015-2.31.045-2.282.303.029.26.158.748.417 1.243.26.496.649.998 1.145 1.398.497.4 1.102.695 1.577.873.475.177.821.236 2.851.266 2.03.03 5.746.03 7.69.008 1.944-.023 2.116-.068 2.447-.208a6.45 6.45 0 001.246-.687 4.14 4.14 0 001.044-1.103c.259-.406.418-.836.497-1.649.079-.814.079-2.012.065-2.677-.015-.666-.043-.799-.166-1.036a4.935 4.935 0 00-.619-.902 4.63 4.63 0 00-1.066-.91 5.942 5.942 0 00-1.411-.636c-.439-.126-.785-.14-2.426-.148-1.642-.007-4.58-.007-6.127-.022-1.548-.014-1.707-.044-1.829-.11a.573.573 0 01-.266-.327c-.058-.154-.087-.362-.022-.532.065-.17.223-.303.395-.395.172-.092.358-.143 2.46-.169 2.102-.026 6.121-.026 8.21-.014 2.089.01 2.248.031 2.341.042a.53.53 0 00.201-.004c.08-.014.209-.044.274-.273z" fill="#E10D13"/><path d="M101.504 24.87l-1.892 2.524h-5.76v1.262h7.116l-1.78 2.364h-5.336v3.554h-2.937v-9.703h10.589zm13.922 9.704h-3.911l-2.104-2.567h-4.49v2.567h-2.923v-4.96h8.218c.451 0 .833-.097 1.143-.29.311-.194.466-.46.466-.799 0-.377-.141-.66-.423-.848-.283-.188-.678-.283-1.186-.283h-8.218l1.907-2.523h6.071c.536 0 1.092.05 1.666.152a5.005 5.005 0 011.567.544c.47.26.859.613 1.165 1.058.306.445.458 1.016.458 1.712 0 .377-.056.735-.169 1.073a2.934 2.934 0 01-1.263 1.603 3.138 3.138 0 01-1.038.399c.16.126.339.285.536.479.198.193.462.46.791.797l1.737 1.886zm4.009 0h-2.922v-9.703h2.922v9.703zm7.653-6.063h6.043v6.063h-6.481a6.647 6.647 0 01-2.273-.377 5.584 5.584 0 01-1.8-1.037 4.776 4.776 0 01-1.186-1.567 4.523 4.523 0 01-.431-1.965c0-.706.144-1.351.431-1.936a4.562 4.562 0 011.186-1.51 5.369 5.369 0 011.8-.97 7.284 7.284 0 012.273-.341h6.763l-1.892 2.523h-4.871a3.38 3.38 0 00-1.101.174 2.67 2.67 0 00-.882.493 2.35 2.35 0 00-.587.747 2.114 2.114 0 00-.211.95c0 .349.068.665.204.95.137.286.33.53.579.733.25.203.544.36.883.471.339.111.71.167 1.115.167h3.572v-1.407h-4.885l1.751-2.161zm14.331-3.8c2.296 0 4.021.401 5.174 1.204 1.153.802 1.73 2.07 1.73 3.8 0 1.74-.575 3.012-1.723 3.815-1.148.802-2.875 1.203-5.181 1.203-2.316 0-4.045-.4-5.189-1.203-1.144-.803-1.715-2.074-1.715-3.815 0-1.73.574-2.998 1.722-3.8 1.148-.803 2.876-1.204 5.182-1.204zm0 7.499c.734 0 1.355-.032 1.863-.095.509-.062.92-.186 1.236-.37.315-.183.543-.437.684-.76.142-.325.212-.748.212-1.27s-.07-.945-.212-1.269a1.568 1.568 0 00-.684-.754c-.316-.18-.727-.3-1.236-.363a15.556 15.556 0 00-1.863-.094c-.735 0-1.356.031-1.864.094s-.92.184-1.236.363c-.315.178-.543.43-.684.754-.142.324-.212.747-.212 1.269 0 .522.07.945.212 1.27.141.323.369.577.684.76.316.184.728.308 1.236.37a15.48 15.48 0 001.864.095zm25.809-.13l-1.878 2.494h-4.744a6.647 6.647 0 01-2.273-.377 5.574 5.574 0 01-1.8-1.037 4.776 4.776 0 01-1.186-1.567 4.523 4.523 0 01-.431-1.965c0-.706.144-1.351.431-1.936a4.562 4.562 0 011.186-1.51 5.36 5.36 0 011.8-.97 7.284 7.284 0 012.273-.341h6.622l-1.878 2.523h-4.744a3.38 3.38 0 00-1.101.174 2.68 2.68 0 00-.876.486 2.279 2.279 0 00-.578.747 2.16 2.16 0 00-.212.957 2.098 2.098 0 00.784 1.683c.249.203.543.36.882.471.339.111.706.167 1.101.167h6.622zm7.624-7.37c2.297 0 4.022.402 5.175 1.205 1.153.802 1.729 2.07 1.729 3.8 0 1.74-.574 3.012-1.722 3.815-1.148.802-2.876 1.203-5.182 1.203-2.315 0-4.045-.4-5.188-1.203-1.144-.803-1.716-2.074-1.716-3.815 0-1.73.574-2.998 1.723-3.8 1.148-.803 2.875-1.204 5.181-1.204zm0 7.5c.734 0 1.356-.032 1.864-.095.508-.062.92-.186 1.235-.37.316-.183.544-.437.685-.76.141-.325.212-.748.212-1.27s-.071-.945-.212-1.269a1.565 1.565 0 00-.685-.754c-.315-.18-.727-.3-1.235-.363a15.574 15.574 0 00-1.864-.094c-.734 0-1.355.031-1.863.094-.509.063-.921.184-1.236.363-.315.178-.543.43-.685.754-.141.324-.211.747-.211 1.269 0 .522.07.945.211 1.27.142.323.37.577.685.76.315.184.727.308 1.236.37.508.063 1.129.095 1.863.095zm14.995-7.5c2.296 0 4.021.402 5.174 1.205 1.153.802 1.73 2.07 1.73 3.8 0 1.74-.574 3.012-1.723 3.815-1.148.802-2.875 1.203-5.181 1.203-2.316 0-4.046-.4-5.189-1.203-1.144-.803-1.716-2.074-1.716-3.815 0-1.73.575-2.998 1.723-3.8 1.148-.803 2.875-1.204 5.182-1.204zm0 7.5c.734 0 1.355-.032 1.863-.095.509-.062.92-.186 1.236-.37.315-.183.543-.437.684-.76.142-.325.212-.748.212-1.27s-.07-.945-.212-1.269a1.568 1.568 0 00-.684-.754c-.316-.18-.727-.3-1.236-.363a15.556 15.556 0 00-1.863-.094c-.735 0-1.356.031-1.864.094s-.92.184-1.236.363c-.315.178-.543.43-.684.754-.142.324-.212.747-.212 1.269 0 .522.07.945.212 1.27.141.323.369.577.684.76.316.184.728.308 1.236.37a15.48 15.48 0 001.864.095zm18.622-.13l-1.891 2.494h-8.345v-9.703h2.923v7.208h7.313z" fill="#00699D"/></svg>