<svg width="435" height="647" fill="none" xmlns="http://www.w3.org/2000/svg"><path d="M0 58.784L340.946 0v587.838L0 646.622V58.784z" fill="#6E8889"/><path fill="#036063" d="M0 58.784h435v587.838H0z"/><path d="M101.769 399.376l-10.552 1.513-.91.122m11.462-1.635l11.459-1.85m-11.459 1.85L78.088 282.458l-8.92 43.826m32.601 73.092l18.528-101.139M57.585 428.808l-.306-23.208m.306 23.208l4.385-23.882m-4.385 23.882l9.553.794m-10.119-43.629l7.876-38.695m314.048 46.97v-32.267l-17.454-.819L380 330.418m-1.057 63.83L363.8 434.98m15.143-40.732l-77.478-1.081m77.478 1.081l-17.725-33.268-17.726-33.268m35.451 66.536L380 434.98h-16.2m0 0l-40.771-75.398-86.628-151.561M72.984 403.306l8.196-1.067m-8.196 1.067l-11.014 1.62m11.014-1.62l22.107-141.073 42.966 172.747h13.558m-78.63-31.674l-3-21.917-5.09-34.111m8.09 56.028l-5.847 26.296m14.042-27.363l9.126-1.228m-9.126 1.228l4.415-26.449m-4.415 26.449l-12.012-75.955M56 308.73l1.279 96.87M56 308.73l5.97 96.196M56 308.73l65.488-77.895m257.455 33.461v-34.383l-15.546-2.894m15.546 37.277l-15.546-37.277m15.546 37.277l-18.704 26.802M380 330.418l-1.057-34.952-18.704-4.368M380 330.418l-19.761-39.32m-303.843 36.94l-.114-5.554 2.386-16.928 6.227 41.722m-8.138 18.783l7.99-67.734 4.42 27.957m76.285 65.826l-17.432 2.93-14.792 2.486m32.224-5.416l6.163-1.035 12.502.174m-18.665.861l6.163 42.87m-6.163-42.87l-17.639-65.826m23.802 108.696l12.502-43.731m-12.502 43.731h31.97m-19.468-43.731l19.468 43.731m-19.468-43.731l47.931.681m-47.931-.681l25.55-37.919m-6.082 81.65l28.463-43.05M85.054 375.983l.54-.193m27.634 21.736L86.241 272.76l-24.27 132.166m74.061-47.229l15.583-5.591 38.052 1.224m135.364-132.288l38.366 5.977m-38.366-5.977l-41.844-6.51m41.844 6.51L212.048 391.93m112.983-170.888l35.208 70.056M167.134 314.47l22.533 38.86m-22.533-38.86h-15.519l-23.802 11.814m39.321-11.814l22.836-35.095m46.431-71.354l-47.631-7.315m47.631 7.315l46.786 6.511m-46.786-6.511l-46.431 71.354m173.427-52.356l-70.359 112.709-11.27 18.054-21.742 34.829m0 0l41.439.556m-41.439-.556l-47.978-.681m47.978.681L189.97 279.375m-26.796-43.313l-11.559-1.741-23.59 21.731m35.149-19.99l25.596-35.356m-25.596 35.356l26.796 43.313m111.495 113.792l42.027-65.455m-42.027 65.455l-88.151-150.544-24.544-41.917m0 0L151.615 195l-30.127 35.835m161.699-16.303l60.305 113.18m-60.305-113.18l-93.52 138.798M70.824 291.098l19.482 109.913m45.447-187.144l-7.728 42.185m-7.728 42.185L106.889 248.2 85.595 375.79m34.702-77.553l7.728-42.185m-7.728 42.185l7.516 28.047m-7.516-28.047l31.318-22.088 38.355 3.226M57.279 405.6l4.691-.674m0 0l5.168 24.676m23.168-28.591l31.182-170.176M64.895 347.278l4.273-20.994m274.324 1.428l16.747-36.614M212.048 391.93l-22.381-38.6" stroke="#fff"/><path d="M236.947 282.041l-23.339 36.244 22.79 37.342 22.79-34.047-22.241-39.539zm88.139-60.956l-21.966 33.224 20.593 37.342 20.593-32.125-19.22-38.441zm18.397 106.811l-20.453 31.715 18.264 33.985 20.036-32.477-17.847-33.223zM86.205 272.431l-4.943 26.908 4.943 24.712 4.393-33.224-4.393-18.396zm15.099 68.918l-5.491 30.752 5.766 27.458 5.766-31.576-6.041-26.634z" fill="#fff"/></svg>