<svg width="30" height="30" fill="none" xmlns="http://www.w3.org/2000/svg"><path d="M10.933 26.817l.683-.083a.65.65 0 00.176.4.48.48 0 00.347.137.476.476 0 00.368-.165c.1-.11.149-.26.149-.447a.6.6 0 00-.143-.422.456.456 0 00-.35-.156c-.09 0-.198.018-.323.053l.078-.575c.19.005.336-.037.437-.125.1-.088.15-.204.15-.35a.4.4 0 00-.11-.296.397.397 0 00-.294-.11.425.425 0 00-.309.125.59.59 0 00-.155.366l-.65-.11c.044-.223.113-.4.204-.534a.924.924 0 01.381-.313c.164-.077.347-.115.55-.115.346 0 .624.11.833.332.172.18.258.385.258.612 0 .323-.176.581-.53.774a.857.857 0 01.696.874c0 .323-.118.598-.354.826a1.22 1.22 0 01-.881.341c-.333 0-.61-.095-.829-.287a1.13 1.13 0 01-.382-.752zm5.276-1.803l-.683.075a.498.498 0 00-.13-.311.38.38 0 00-.274-.1.462.462 0 00-.378.2c-.103.134-.168.413-.195.836a.825.825 0 01.656-.311 1 1 0 01.757.337c.21.224.315.514.315.868 0 .377-.11.68-.331.907-.221.228-.505.341-.852.341-.371 0-.677-.144-.916-.433-.24-.288-.36-.762-.36-1.42 0-.675.125-1.16.375-1.459.25-.298.573-.447.972-.447.28 0 .51.078.694.235.183.157.3.384.35.682zm-1.6 1.54c0 .229.053.405.159.53a.464.464 0 00.361.187.41.41 0 00.327-.153c.087-.102.13-.27.13-.502 0-.24-.046-.415-.14-.526a.441.441 0 00-.352-.167.442.442 0 00-.344.16c-.093.106-.14.263-.14.47zm3.263-2.457c.356 0 .635.127.836.382.24.301.359.801.359 1.5 0 .695-.12 1.196-.362 1.5-.199.252-.477.377-.833.377-.359 0-.647-.137-.867-.413-.219-.275-.329-.766-.329-1.472 0-.694.12-1.192.362-1.497.2-.251.477-.377.834-.377zm0 .585a.352.352 0 00-.229.082c-.067.054-.119.152-.155.293-.05.182-.073.49-.073.921 0 .432.021.729.065.89.043.162.098.27.164.323.067.053.142.08.228.08a.353.353 0 00.228-.081c.067-.055.12-.152.156-.293.048-.18.073-.487.073-.919 0-.432-.022-.729-.066-.89-.043-.162-.098-.27-.164-.324a.348.348 0 00-.227-.082zm1.193-1.61a.426.426 0 01-.3-.128.428.428 0 01-.128-.3.434.434 0 01.128-.304.439.439 0 01.604 0 .417.417 0 01.125.304.415.415 0 01-.03.163.433.433 0 01-.095.137.434.434 0 01-.304.129zm-4.905-5.927c-4.135 0-7.5-3.365-7.5-7.5 0-4.136 3.365-7.5 7.5-7.5 4.136 0 7.5 3.364 7.5 7.5 0 4.135-3.364 7.5-7.5 7.5zm0-14.143a6.65 6.65 0 00-6.643 6.643 6.65 6.65 0 006.643 6.642 6.65 6.65 0 006.643-6.642 6.65 6.65 0 00-6.643-6.643z" fill="#fff"/><path d="M14.16 15.001a5.363 5.363 0 01-5.358-5.357 5.363 5.363 0 015.358-5.357 5.363 5.363 0 015.357 5.357A5.363 5.363 0 0114.16 15z" fill="#fff"/><path d="M15.005 20.524C7.07 20.524.857 17.766.857 14.245c0-2.122 2.228-4.009 6.113-5.176a.428.428 0 11.247.821c-3.446 1.035-5.503 2.663-5.503 4.355 0 2.94 6.087 5.422 13.29 5.422.955 0 1.586-.029 2.502-.114a.43.43 0 01.08.854c-.946.087-1.597.117-2.581.117zm6.132-.617a.428.428 0 01-.09-.848c4.398-.94 7.239-2.83 7.239-4.814 0-1.97-2.816-3.85-7.175-4.787a.429.429 0 01.181-.838c4.842 1.042 7.85 3.198 7.85 5.626 0 2.442-3.032 4.608-7.915 5.651a.414.414 0 01-.09.01z" fill="#fff"/><path d="M15.515 22.11a.427.427 0 01-.275-.756l1.638-1.372-1.638-1.372a.428.428 0 11.55-.657l2.03 1.7a.427.427 0 010 .657l-2.03 1.7a.425.425 0 01-.275.1z" fill="#fff"/></svg>