<svg width="30" height="30" fill="none" xmlns="http://www.w3.org/2000/svg"><path d="M11.288 17.703c.475 0 .95-.119 1.337-.356l3.713 3.713a2.573 2.573 0 00-.357 1.336 2.713 2.713 0 002.703 2.703 2.713 2.713 0 002.703-2.703 2.713 2.713 0 00-2.703-2.703c-.475 0-.95.12-1.336.357l-3.713-3.713c.237-.386.356-.861.356-1.337 0-.475-.119-.95-.356-1.336l3.713-3.713c.386.237.861.356 1.336.356a2.713 2.713 0 002.703-2.703c0-1.485-1.188-2.732-2.673-2.732a2.713 2.713 0 00-2.703 2.703c0 .475.119.95.356 1.336l-3.742 3.743a2.572 2.572 0 00-1.337-.357A2.713 2.713 0 008.585 15a2.713 2.713 0 002.703 2.703zm8.703 4.723c0 .713-.564 1.277-1.277 1.277a1.268 1.268 0 01-1.277-1.277c0-.713.564-1.277 1.277-1.277.713-.03 1.277.564 1.277 1.277zM18.714 6.297c.713 0 1.277.565 1.277 1.278 0 .712-.564 1.277-1.277 1.277a1.268 1.268 0 01-1.277-1.277c0-.713.564-1.278 1.277-1.278zm-7.426 7.426c.713 0 1.277.564 1.277 1.277s-.564 1.277-1.277 1.277A1.268 1.268 0 0110.011 15c0-.713.564-1.277 1.277-1.277z" fill="#036063"/></svg>