<svg version="1.1" id="Слой_1" xmlns="http://www.w3.org/2000/svg" x="0" y="0" viewBox="0 0 703 521" xml:space="preserve"><path d="M100 443l-22.8 3.3-2 .3M100 443l24.8-4m-24.8 4L48.8 190.1l-19.3 94.8M100 443l40.1-218.7M4.4 506.7l-.7-50.2m.7 50.2l9.5-51.6m-9.5 51.6l20.7 1.7M3.2 414l17-83.7m679.2 101.6v-69.8l-37.7-1.8 40-66.5m-2.3 138.1L666.7 520m32.7-88.1l-167.6-2.3m167.6 2.3L661.1 360l-38.3-72m76.6 143.9l2.3 88.1h-35m0 0l-88.2-163.1L391.1 29.2M37.7 451.5l17.7-2.3m-17.7 2.3L13.9 455m23.8-3.5l47.8-305.1 93 373.6h29.3M37.7 451.5l-6.5-47.4-11-73.8m17.5 121.2l-12.6 56.9m30.4-59.2l19.7-2.7m-19.7 2.7L65 392m-9.5 57.2l-26-164.3M1 247l2.8 209.5M1 247l12.9 208M1 247L142.6 78.5m556.8 72.4V76.5l-33.6-6.3m33.6 80.7l-33.6-80.6m33.6 80.6l-40.5 58m42.8 85l-2.3-75.6-40.5-9.4m42.8 85l-42.7-85M1.9 288.7l-.2-12 5.2-36.6 13.5 90.2M2.6 371l17.3-146.5 9.6 60.5m165 142.3l-37.7 6.3-32 5.4m69.7-11.7l13.3-2.2 27 .4m-40.3 1.8l13.3 92.7m-13.3-92.7l-38.1-142.4M207.8 520l27-94.6m-27 94.6h69.1m-42.1-94.6l42.1 94.6m-42.1-94.6l103.7 1.5m-103.7-1.5l55.3-82M276.9 520l61.6-93.1M63.8 392.4l1.2-.4m59.8 47L66.4 169.2 13.9 455m160.2-102.1l33.7-12.1 82.3 2.6M582.8 57.3l83 12.9m-83-12.9l-90.5-14.1m90.5 14.1L338.5 426.9M582.8 57.3L659 208.8m-417.7 50.6l48.7 84m-48.7-84h-33.6L156.2 285m85.1-25.6l49.4-75.9M391.1 29.2l-103-15.8m103 15.8l101.2 14.1M391.1 29.2L290.7 183.5M665.8 70.2L513.6 314l-24.4 39-47 75.3m0 .1l89.6 1.2m-89.6-1.2l-103.8-1.5m103.8 1.5L290.7 183.5m-57.9-93.7l-25-3.8-51 47m76-43.2l55.4-76.5m-55.4 76.5l58 93.7m241.1 246.1L622.8 288m-90.9 141.6L341.2 104l-53.1-90.7m0 0L207.8 1l-65.2 77.5m349.7-35.3L622.8 288M492.3 43.2L290.1 343.4m-257-134.6l42.1 237.7m98.3-404.7L156.8 133m-16.7 91.3l-29-108.2L65 392m75.1-167.7l16.7-91.2m-16.7 91.2l16.3 60.7m-16.3-60.7l67.7-47.8 83 7m-287 273l10.1-1.5m0 0l11.2 53.4m50.1-61.9l67.4-368M20.2 330.3l9.2-45.4m593.4 3.1l36.2-79.2M338.5 426.9l-48.4-83.5" fill="none" stroke="#036063"/><path d="M392.3 189.2l-50.5 78.4 49.3 80.8 49.3-73.6-48.1-85.6zM582.9 57.4l-47.5 71.9L580 210l44.5-69.5-41.6-83.1zm39.8 231L578.5 357l39.5 73.5 43.3-70.2-38.6-71.9zM66.3 168.5l-10.7 58.2 10.7 53.4 9.5-71.9-9.5-39.7zm32.7 149L87.1 384l12.5 59.4 12.5-68.3L99 317.5z" fill="#036063"/></svg>