<svg width="210" height="194" fill="none" xmlns="http://www.w3.org/2000/svg"><g clip-path="url(#clip0_129_50227)"><path d="M209.499 124.332L90.306 193.133v-5.071l119.193-68.827v5.097zM.5 136.791l88.807 51.271v5.072L.5 141.862v-5.071zm119.693-69.693L209 118.37 89.807 187.196 1 135.925l119.193-68.827z" fill="#fff" stroke="#036063"/><path d="M46.29 76.353v74.143l-25.967-14.987V61.365l25.968 14.988zM136.532 24.8v74.143l-89.24 51.552V76.352l89.24-51.552zM46.79 75.486L20.825 60.5 110.09 8.972l25.941 14.962-89.24 51.552z" fill="#fff" stroke="#036063"/><path d="M46.79 73.24L24.701 60.499l85.388-49.306 22.064 12.742L46.79 73.24zM29.466 98.549a17.361 17.361 0 012.306 7.689c-.004 2.436-.866 4.032-2.118 4.759-1.25.726-3.062.685-5.183-.53a17.364 17.364 0 01-7.824-13.52c.004-2.436.866-4.032 2.118-4.759 1.25-.726 3.062-.685 5.183.53a17.36 17.36 0 015.518 5.83z" fill="#fff" stroke="#036063"/><path d="M31.566 88.432l.011.009.013.008a17.36 17.36 0 017.836 13.567v.008l.002.008a5.218 5.218 0 01-2.073 4.64l-5.19 2.959c.035-.071.07-.142.102-.214.442-.971.624-2.04.529-3.102a18.362 18.362 0 00-8.277-14.333 6.138 6.138 0 00-3.216-1.164l5.053-2.88a5.062 5.062 0 015.21.494z" fill="#036063" stroke="#036063"/><path d="M29.471 126.807a17.364 17.364 0 012.3 7.704c-.003 2.437-.865 4.032-2.116 4.755-1.25.724-3.062.677-5.183-.551a17.365 17.365 0 01-7.825-13.545c.004-2.437.866-4.032 2.117-4.756 1.25-.723 3.062-.676 5.183.552a17.357 17.357 0 015.524 5.841z" fill="#fff" stroke="#036063"/><path d="M31.569 116.478l.009.007.01.006a17.358 17.358 0 017.762 13.666v.012l.001.012a5.141 5.141 0 01-2.07 4.636l-5.193 2.977.099-.207a6.194 6.194 0 00.532-3.101 18.363 18.363 0 00-8.274-14.331 6.128 6.128 0 00-3.265-1.207l5.175-2.966a5.133 5.133 0 015.214.496z" fill="#036063" stroke="#036063"/><path d="M28.286 78.938l-.004-.01-.005-.008a.189.189 0 01-.015-.137l3.124-3.588a.88.88 0 01.352.404h0l3.205 7.388-6.287-3.625a1.03 1.03 0 01-.37-.424z" fill="#fff" stroke="#036063"/><path d="M33.97 82.019l-5.288-3.05 2.634-3.069 2.654 6.119z" fill="#fff" stroke="#036063"/><path d="M31.68 79.474l.037-.062h-.001l-.001-.001-.038.063m.003 0h-.003m.003 0l-.006.01h-.002m.008-.01l.111.01h-.12m.006-.01l-.005.01m.005-.01l-.03-.003m.025.012l-.034-.114m.009.102l.048-.072a1.08 1.08 0 00-.057-.03m.009.102h-.009v.012l.009-.012zm-.009-.102a.899.899 0 00-.303-.088l.28.187.023-.099zm-.33-.106l.009-.096-.061.061m.052.035l.016-.18-.005.05-.063.095m.052.035l-.052-.035m.052.035l-.052-.035m.214-1.855l.114 1.473.206.137h.001v.001l.04.027.139-1.62-.548-.626.002.015a.049.049 0 00.002-.01l-.002.019.042.535m.004.05l.002-.025v-.001c0 .001 0 .001 0 0a.17.17 0 00-.006-.024m.004.05l-.004-.05m.004.05l-.11 1.295.106-1.345m-.44 2.695c0-.105.063-.202.166-.232l.169.112.045.03v.001l.074.049-.108.01h-.001l-.345.03zm0 0a.893.893 0 00.434.69m-.434-.69h.5a.26.26 0 01-.14.226.224.224 0 01-.18.024h-.003a.347.347 0 000 0h0l.002.002a.393.393 0 01.19.303l.147-.013-.082.147m0 0c.23.128.433 0 .433-.178m-.433.178l.087-.148.346-.03m0 0a.894.894 0 00-.251-.547h-.001 0-.002 0-.114a.392.392 0 00.19.295l-.15.252h.328zm-.08-1.31l-.02.24h-.002v-.206l.023-.034zm-.11 1.051l-.144.259h-.166c0-.114.07-.207.153-.247.088-.042.151-.015.157-.012zm59.626 74.262l-6.213 3.608-3.9-17.12 6.212-3.585 3.9 17.097zM76.59 130.787l10.173 5.877-6.118 3.531-10.152-5.855 6.097-3.553zm7.446 27.122L65.86 147.405l3.925-12.319 10.422 6.011 3.83 16.812zm-12.581 8.081l-6.213 3.608-3.9-17.096 6.213-3.607 3.9 17.095zm-14.739-23.721l10.174 5.854-6.12 3.554-10.151-5.854 6.097-3.554zm7.448 27.097l-18.151-10.479 3.9-12.318 10.422 6.01 3.83 16.787zM96 128.464a5.622 5.622 0 001.638-1.329 12.107 12.107 0 01-2.028 4.453 8.15 8.15 0 00.39-3.124z" fill="#fff" stroke="#036063"/><path d="M92.257 134.855h0l-11.36 6.61a8.156 8.156 0 001.075-4.942l13.726-7.987a5.603 5.603 0 002.129-1.718l-.042.251-.345 1.329-.317.829c-.196.44-.489 1.026-.712 1.449l-.468.763c-.358.505-.755.982-1.185 1.427l-.653.628c-.565.519-1.185.975-1.848 1.361z" fill="#fff" stroke="#036063"/><path d="M67.075 116.163a7.76 7.76 0 00-.746-.029l11.193-6.513.374-.2h0l.005-.002a11.116 11.116 0 016.25-1.319v.001h.006a13.275 13.275 0 016.808 2.457 17.36 17.36 0 016.989 13.256 4.603 4.603 0 01-2.667 3.695l-.022.011-.022.012-13.333 7.759a20.908 20.908 0 00-1.854-7.021 25.65 25.65 0 00-4.185-6.603 18.677 18.677 0 00-4.957-4.102 7.823 7.823 0 00-3.839-1.402z" fill="#036063" stroke="#036063"/><path d="M77.789 126.08a22.896 22.896 0 013.147 10.193c-.003 3.312-1.121 5.528-2.807 6.563-1.68 1.031-4.1.996-6.949-.578a22.979 22.979 0 01-10.573-17.882c.004-3.298 1.121-5.514 2.807-6.549 1.681-1.032 4.1-.996 6.949.591a22.887 22.887 0 017.426 7.662zm17.268 4.064l.038-.022.048.092-.044.002-.042-.072zm.254-3.068l-13.333 7.759a12.697 12.697 0 00-.029-.253l13.77-7.997v-.001a9.824 9.824 0 001.422-.995c-.383.456-.96.946-1.83 1.487zm-.676-2.895l-13.207 7.685a16.795 16.795 0 00-.114-.403l13.714-7.965.001-.001c.976-.563 1.754-1.136 2.313-1.693-.283.557-.953 1.28-2.466 2.237l-.121.07h-.12v.07zm1.911-5.606c.083-.068.162-.135.235-.202a.64.64 0 01-.056.21c-.084.192-.283.464-.736.854-.448.385-1.112.86-2.081 1.465l-13.526 7.87a25.245 25.245 0 00-.193-.451l13.639-7.961.001-.001c1.208-.694 2.122-1.296 2.717-1.784zm-4.353-1.148l.57-.324-.137-.138a13.093 13.093 0 012.837-1.37c.04.062.078.124.116.187a24.11 24.11 0 01-3.197 1.964l.14.273h-.012l-.151-.26-13.62 7.886a34.338 34.338 0 00-.26-.434l13.714-7.784zm-6.624-7.058a4.31 4.31 0 011.676-.8 5.18 5.18 0 00-1.222.733l-13.713 7.98a8.027 8.027 0 00-.215-.151l13.146-7.636.117.039.211-.165zm2.941 2.225v.001l-.157-.271-13.734 7.977-.287-.273 13.652-7.781-.012-.025c1.506-.901 2.468-1.125 3.116-1.081-.794.196-1.716.594-2.734 1.182l.156.271zm5.242.93a.232.232 0 00.026.001 8.282 8.282 0 00-.268.091c-.654.238-1.536.663-2.664 1.264a.536.536 0 00-.228-.036.501.501 0 00-.454.418l-13.324 7.739-.298-.381 13.505-7.934.057.06c1.13-.651 2.114-.988 2.825-1.133a3.71 3.71 0 01.823-.089zm-2.612 1.687c.005.019.01.043.014.071l-.382.205.368-.276z" fill="#fff" stroke="#036063"/><path d="M62.077 154.966l-16.974-29.119 17.558-10.223a8.385 8.385 0 018.476.95l.012.009.012.008a26.523 26.523 0 0111.844 21.037l.001.011.001.011a7.971 7.971 0 01-3.368 7.191l-17.562 10.125z" fill="#036063" stroke="#036063"/><path opacity=".5" d="M58.519 148.813l24.28-14.111c.147.959.214 1.929.203 2.9v.024l.002.024a7.971 7.971 0 01-3.368 7.191l-17.56 10.124-3.557-6.152z" fill="#fff" stroke="#036063"/><path d="M39.304 136.119h0v-.005a11.57 11.57 0 015.353-10.084 8.298 8.298 0 018.465.928l.012.009.013.009a26.592 26.592 0 0111.845 21.038v.01l.001.01a7.996 7.996 0 01-3.37 7.194 10.39 10.39 0 01-6.088 1.427 13.916 13.916 0 01-5.827-1.967 22.46 22.46 0 01-10.404-18.569z" fill="#036063" stroke="#036063"/><path d="M43.399 148.539c2.73 1.731 6.276 1.97 9.742 1.425 4.407-.693 8.842-2.671 11.688-4.702.131.903.194 1.815.188 2.728v.022l.001.021a8.024 8.024 0 01-3.367 7.193 10.42 10.42 0 01-6.089 1.328 13.683 13.683 0 01-5.829-1.968 22.038 22.038 0 01-6.334-6.047z" fill="#fff" stroke="#036063"/><path d="M43.368 134.907c1.172-.63 2.855-.543 4.844.6a15.804 15.804 0 016.984 12.496c-.002 2.213-.819 3.618-1.99 4.233-1.18.62-2.898.532-4.899-.636a15.798 15.798 0 01-7.035-12.337c.09-2.296.928-3.729 2.096-4.356z" fill="#fff" stroke="#036063"/><mask id="path-31-inside-1_129_50227" fill="#fff"><path d="M47.706 151.055a11.978 11.978 0 01-1.888-1.557l4.899 2.807a5.912 5.912 0 01-1.888-.587l-1.123-.663zm-.51-7.119a2.872 2.872 0 01-.204-.613l-5.46-3.164c-.013.17-.013.341 0 .511l5.664 3.266zm4.95 8.318a2.36 2.36 0 00.56-.179l-8.852-5.103.535.817 7.757 4.465zm-5.103-9.798c.041-.14.11-.271.204-.383l-5.69-3.266a2.953 2.953 0 000 .485l5.486 3.164zm6.531 9.186c.129-.081.24-.185.332-.306l-11.022-6.354.332.689 10.358 5.971zm.817-.893c.078-.122.146-.25.204-.383l-12.374-7.145c.056.208.125.413.204.613l11.966 6.915zm.51-1.072v-.434l-13.19-7.655c0 .204 0 .383.127.587l13.063 7.502zm-5.103-4.848a.716.716 0 01-.23.357l5.64 3.266a2.846 2.846 0 000-.485l-5.41-3.138zm-.204-1.506c.08.201.148.405.204.613l5.46 3.164v-.51l-5.664-3.267zm-7.654-5.741c-.009.145-.009.29 0 .434l13.19 7.655c0-.204 0-.383-.127-.561l-13.063-7.528zm.51-1.071l-.23.382 12.4 7.145-.204-.613-11.965-6.914zm.791-.893c-.123.087-.234.19-.331.306l11.047 6.353-.383-.689-10.333-5.97zm1.327-.613a2.088 2.088 0 00-.561.179l8.853 5.103a9.239 9.239 0 00-.561-.817l-7.73-4.465zm3.291.536a5.604 5.604 0 00-1.862-.587l4.745 2.832a10.774 10.774 0 00-1.862-1.582l-1.02-.663z"/></mask><path d="M47.706 151.055a11.978 11.978 0 01-1.888-1.557l4.899 2.807a5.912 5.912 0 01-1.888-.587l-1.123-.663zm-.51-7.119a2.872 2.872 0 01-.204-.613l-5.46-3.164c-.013.17-.013.341 0 .511l5.664 3.266zm4.95 8.318a2.36 2.36 0 00.56-.179l-8.852-5.103.535.817 7.757 4.465zm-5.103-9.798c.041-.14.11-.271.204-.383l-5.69-3.266a2.953 2.953 0 000 .485l5.486 3.164zm6.531 9.186c.129-.081.24-.185.332-.306l-11.022-6.354.332.689 10.358 5.971zm.817-.893c.078-.122.146-.25.204-.383l-12.374-7.145c.056.208.125.413.204.613l11.966 6.915zm.51-1.072v-.434l-13.19-7.655c0 .204 0 .383.127.587l13.063 7.502zm-5.103-4.848a.716.716 0 01-.23.357l5.64 3.266a2.846 2.846 0 000-.485l-5.41-3.138zm-.204-1.506c.08.201.148.405.204.613l5.46 3.164v-.51l-5.664-3.267zm-7.654-5.741c-.009.145-.009.29 0 .434l13.19 7.655c0-.204 0-.383-.127-.561l-13.063-7.528zm.51-1.071l-.23.382 12.4 7.145-.204-.613-11.965-6.914zm.791-.893c-.123.087-.234.19-.331.306l11.047 6.353-.383-.689-10.333-5.97zm1.327-.613a2.088 2.088 0 00-.561.179l8.853 5.103a9.239 9.239 0 00-.561-.817l-7.73-4.465zm3.291.536a5.604 5.604 0 00-1.862-.587l4.745 2.832a10.774 10.774 0 00-1.862-1.582l-1.02-.663z" fill="#fff"/><path d="M47.706 151.055l-.554.832.022.015.023.014.51-.861zm-1.888-1.557l.497-.867-1.208 1.57.711-.703zm4.899 2.807l-.133.991.63-1.859-.497.868zm-1.888-.587l-.509.861.028.017.029.014.452-.892zm-1.633-7.782l-.5.866 2.734 1.576-1.327-2.863-.907.421zm-.204-.613l.978-.208-.092-.434-.385-.223-.501.865zm-5.46-3.164l.501-.865-1.373-.796-.125 1.583.997.078zm0 .511l-.997.078.042.525.456.263.499-.866zm10.614 11.584l-.5.867.32.184.364-.068-.184-.983zm.56-.179l.419.909 1.757-.809-1.676-.966-.5.866zm-8.852-5.103l.5-.866-1.336 1.415.836-.549zm.535.817l-.836.548.131.2.207.118.498-.866zm2.654-5.333l-.5.866 1.1.635.36-1.219-.96-.282zm.204-.383l.769.64.76-.915-1.031-.592-.498.867zm-5.69-3.266l.498-.867-1.364-.783-.13 1.567.996.083zm0 .485l-.996.082.043.522.454.262.5-.866zm12.017 12.35l-.5.866.524.302.51-.323-.534-.845zm.332-.306l.8.6.677-.903-.978-.564-.499.867zm-11.022-6.354l.5-.866-2.805-1.617 1.404 2.917.901-.434zm.332.689l-.901.434.134.278.268.154.499-.866zm11.175 5.078l-.5.865.828.479.515-.806-.843-.538zm.204-.383l.916.4.358-.819-.774-.447-.5.866zm-12.374-7.145l.5-.866-2.102-1.213.637 2.342.965-.263zm.204.613l-.93.369.129.323.3.174.501-.866zm12.476 5.843l-.498.867 1.498.86v-1.727h-1zm0-.434h1v-.576l-.498-.289-.502.865zm-13.19-7.655l.502-.865-1.502-.871v1.736h1zm.127.587l-.848.53.133.213.217.124.498-.867zm7.96 2.654l.502-.865-1.12-.65-.346 1.249.964.266zm-.23.357l-.642-.766-1.093.916 1.235.715.5-.865zm5.64 3.266l-.502.866 1.363.789.134-1.569-.996-.086zm0-.485l.995-.085-.044-.518-.45-.262-.502.865zm-5.614-4.644l.5-.866-2.49-1.435 1.06 2.67.93-.369zm.204.613l-.965.262.108.397.356.206.501-.865zm5.46 3.164l-.501.865 1.501.87V147.1h-1zm0-.51h1v-.578l-.5-.289-.5.867zm-13.318-9.008l.5-.866-1.397-.805-.1 1.609.997.062zm0 .434l-.998.063.034.533.462.269.502-.865zm13.19 7.655l-.501.865 1.502.871v-1.736h-1zm-.127-.561l.814-.582-.126-.176-.189-.109-.499.867zm-12.553-8.599l.5-.866-.85-.492-.507.843.857.515zm-.23.382l-.857-.514-.523.873.882.508.499-.867zm12.4 7.145l-.499.866 2.28 1.314-.832-2.496-.949.316zm-.204-.613l.949-.316-.12-.36-.328-.189-.5.865zm-11.175-7.807l.5-.866-.557-.323-.524.375.581.814zm-.331.306l-.765-.645-.771.915 1.037.597.499-.867zm11.047 6.353l-.498.867 3.12 1.795-1.748-3.147-.874.485zm-.383-.689l.875-.485-.135-.242-.24-.139-.5.866zm-9.006-6.583l.5-.866-.31-.179-.354.059.164.986zm-.561.179l-.436-.9-1.7.823 1.636.943.5-.866zm8.853 5.103l-.5.866 1.353-1.387-.853.521zm-.561-.817l.792-.609-.12-.157-.172-.099-.5.865zm-4.44-3.929l.545-.838-.04-.027-.043-.022-.462.887zm-1.862-.587l.13-.991-.643 1.85.513-.859zm4.745 2.832l-.512.859 1.242-1.542-.73.683zm-1.862-1.582l.556-.831-.011-.007-.545.838zm-.62 14.018a10.987 10.987 0 01-1.73-1.426l-1.423 1.405c.622.63 1.308 1.195 2.045 1.686l1.108-1.665zm-2.939.144l4.899 2.807.994-1.736-4.899-2.806-.994 1.735zm5.529.948a4.893 4.893 0 01-1.569-.488l-.904 1.784a6.905 6.905 0 002.207.686l.266-1.982zm-1.512-.457l-1.123-.663-1.018 1.722 1.123.663 1.018-1.722zm-1.235-7.342a1.867 1.867 0 01-.133-.4l-1.956.416c.06.285.152.561.275.825l1.814-.841zm-.61-1.057l-5.46-3.164-1.002 1.731 5.46 3.164 1.002-1.731zm-6.958-2.377a4.244 4.244 0 000 .667l1.994-.157a2.26 2.26 0 010-.353l-1.994-.157zm.498 1.455l5.663 3.266 1-1.732-5.664-3.267-1 1.733zm11.297 11.701c.274-.051.541-.136.795-.253l-.836-1.817a1.393 1.393 0 01-.327.104l.367 1.966zm.876-2.028l-8.853-5.103-.999 1.733 8.854 5.103.998-1.733zm-10.188-3.688l.535.816 1.673-1.097-.536-.816-1.672 1.097zm.873 1.134l7.756 4.466.998-1.734-7.757-4.465-.997 1.733zm4.111-5.917a.07.07 0 01.014-.025l-1.538-1.279a2.07 2.07 0 00-.394.74l1.918.564zm-.257-1.532l-5.69-3.266-.995 1.734 5.69 3.266.995-1.734zm-7.184-2.482a3.919 3.919 0 000 .65l1.993-.165a1.93 1.93 0 010-.319l-1.993-.166zm.497 1.434l5.485 3.164 1-1.732-5.486-3.164-1 1.732zm13.05 12.329c.232-.146.434-.333.598-.551l-1.6-1.201a.256.256 0 01-.066.062l1.069 1.69zm.297-2.018l-11.021-6.353-1 1.732 11.023 6.354.998-1.733zm-12.422-5.053l.332.689 1.802-.868-.332-.689-1.802.868zm.734 1.121l10.358 5.971.999-1.733-10.359-5.97-.998 1.732zm12.517 4.75c.106-.166.198-.34.277-.521l-1.833-.8a1.74 1.74 0 01-.13.245l1.686 1.076zm-.14-1.787l-12.373-7.145-1 1.732 12.374 7.145 1-1.732zm-13.838-6.016c.066.244.146.484.24.719l1.858-.738a4.763 4.763 0 01-.168-.506l-1.93.525zm.669 1.216l11.965 6.914 1.001-1.731-11.966-6.915-1 1.732zm13.976 4.977v-.434h-2v.434h2zm-.498-1.299l-13.19-7.655-1.004 1.73 13.19 7.655 1.004-1.73zm-14.692-6.79c0 .202-.015.647.28 1.117l1.695-1.06a.22.22 0 01.027.072l-.001-.02-.001-.043v-.066h-2zm.63 1.454l13.062 7.502.996-1.734-13.063-7.502-.996 1.734zm7.493 1.521a.284.284 0 01.092-.143l1.285 1.532c.267-.223.459-.522.551-.857l-1.928-.532zm.233 1.488l5.639 3.267 1.002-1.731-5.638-3.266-1.002 1.73zm7.136 2.487a3.842 3.842 0 000-.656l-1.992.171a1.83 1.83 0 010 .314l1.992.171zm-.494-1.436l-5.409-3.138-1.003 1.73 5.408 3.138 1.004-1.73zm-7.044-3.41c.065.166.122.335.168.506l1.93-.525a6.732 6.732 0 00-.24-.719l-1.858.738zm.632 1.109l5.46 3.164 1.003-1.73-5.46-3.164-1.003 1.73zm6.961 2.299v-.51h-2v.51h2zm-.5-1.377l-5.664-3.266-1 1.733 5.665 3.266.999-1.733zm-14.816-8.203a4.456 4.456 0 000 .559l1.996-.125a2.489 2.489 0 010-.309l-1.996-.125zm.496 1.361l13.19 7.655 1.005-1.73-13.19-7.655-1.005 1.73zm14.693 6.79c0-.176.023-.671-.314-1.143l-1.628 1.163a.386.386 0 01-.06-.14c-.002-.01 0-.009 0 .013l.001.042v.065h2zm-.629-1.428l-13.063-7.527-.998 1.733 13.063 7.527.998-1.733zm-13.909-8.247l-.23.383 1.715 1.029.23-.383-1.715-1.029zm.129 1.764l12.4 7.144.998-1.733-12.4-7.144-.998 1.733zm13.847 5.962l-.204-.613-1.897.633.204.612 1.897-.632zm-.652-1.162l-11.966-6.915-1 1.731 11.965 6.915 1-1.731zm-12.257-7.756a2.83 2.83 0 00-.515.475l1.53 1.289a.826.826 0 01.148-.137l-1.163-1.627zm-.249 1.987l11.047 6.353.998-1.734-11.048-6.353-.997 1.734zm12.42 5.001l-.383-.689-1.748.971.383.689 1.748-.971zm-.756-1.07l-10.333-5.97-1 1.731 10.332 5.971 1-1.732zm-9.671-6.703a3.05 3.05 0 00-.833.265l.872 1.8c.091-.045.189-.076.29-.092l-.33-1.973zm-.897 2.031l8.854 5.103.998-1.732-8.853-5.104-.999 1.733zm10.206 3.716a10.126 10.126 0 00-.622-.905l-1.585 1.219c.18.234.347.477.5.728l1.707-1.042zm-.914-1.161l-7.73-4.466-1.001 1.732 7.73 4.465 1-1.731zm-4.478-3.951a6.599 6.599 0 00-2.194-.691l-.26 1.983a4.61 4.61 0 011.53.482l.924-1.774zm-2.837 1.159l4.746 2.832 1.025-1.717-4.746-2.833-1.025 1.718zm5.988 1.29a11.737 11.737 0 00-2.036-1.729l-1.113 1.661a9.771 9.771 0 011.69 1.435l1.46-1.367zm-2.047-1.737l-1.02-.663-1.09 1.676 1.02.664 1.09-1.677z" fill="#036063" mask="url(#path-31-inside-1_129_50227)"/><path d="M134.618 96v43.856l-8.415-4.858V91.142L134.618 96zm4.237-1.85v43.858l-3.235 1.852V96.001l3.235-1.852zm-3.736.985l-8.412-4.857 3.231-1.849 8.412 4.857-3.231 1.849zm32.207-18.017v43.856l-8.414-4.858V72.26l8.414 4.858zm4.237-1.85v43.834l-3.235 1.871V77.119l3.235-1.851zm-3.736.985l-8.412-4.856 3.231-1.85 8.412 4.857-3.231 1.849z" fill="#fff" stroke="#036063"/><path d="M169.167 101.782h0c-6.056 3.392-13.95 5.058-21.827 4.982-7.876-.076-15.679-1.893-21.555-5.408-5.776-3.466-8.533-7.87-8.533-12.151V24.666l61.048.251V89.46c0 4.346-2.973 8.877-9.133 12.322z" fill="#fff" stroke="#036063"/><path d="M166.721 5.363l.003.001A22.06 22.06 0 01178.3 24.423c-.002 4.345-2.975 8.874-9.133 12.318h-.001c-6.055 3.405-13.949 5.07-21.825 4.991-7.877-.079-15.68-1.902-21.556-5.418h-.001c-5.769-3.437-8.527-7.834-8.532-12.137a23.481 23.481 0 0115.937-20.999l.011-.003.01-.004a39.76 39.76 0 0133.511 2.192z" fill="#036063" stroke="#036063"/><path d="M147.912 7.941c1.86.021 3.687.484 5.333 1.35 1.418.85 1.996 1.876 1.971 2.784-.025.91-.662 1.91-2.135 2.689a11.769 11.769 0 01-10.678.006c-1.427-.85-2.012-1.882-1.989-2.81.022-.932.664-1.963 2.135-2.791a11.75 11.75 0 015.363-1.228zm25.346 43.479c-.726.418-1.244.39-1.548.215-.303-.173-.573-.596-.578-1.372a5.85 5.85 0 012.766-4.465c.728-.42 1.239-.39 1.534-.218.296.172.563.594.568 1.375a5.82 5.82 0 01-2.742 4.465z" fill="#fff" stroke="#036063"/><path d="M171.227 44.289l.013-.008.013-.01a1.567 1.567 0 011.551-.142l.946.532a2.564 2.564 0 00-.513.292 6.85 6.85 0 00-3.228 5.235 2.436 2.436 0 00-.009.519l-.98-.579a1.407 1.407 0 01-.463-.576l-.453.197.453-.197a1.41 1.41 0 01-.106-.75l.002-.012.001-.011a5.845 5.845 0 012.773-4.49zm2.333 6.332h0l-.006.005c-.614.44-1.095.512-1.379.434-.234-.064-.469-.271-.534-.794a4.837 4.837 0 011.98-3.825c.613-.406 1.132-.473 1.443-.383a.587.587 0 01.334.234c.078.114.141.29.141.555a4.607 4.607 0 01-1.979 3.774z" fill="#fff" stroke="#036063"/><mask id="path-45-inside-2_129_50227" fill="#fff"><path d="M174.204 46.643a2.726 2.726 0 00-1.531 1.123l-.357-.357a3.647 3.647 0 012.117-1.531l-.229.765z"/></mask><path d="M174.204 46.643a2.726 2.726 0 00-1.531 1.123l-.357-.357a3.647 3.647 0 012.117-1.531l-.229.765z" fill="#fff"/><path d="M174.204 46.643l.274.962.526-.15.157-.524-.957-.288zm-1.531 1.123l-.707.707.867.867.675-1.023-.835-.55zm-.357-.357l-.838-.547-.444.68.574.574.708-.707zm2.117-1.531l.958.287.514-1.713-1.729.46.257.966zm-.504-.196c-.858.244-1.6.789-2.091 1.534l1.67 1.1c.227-.345.572-.597.97-.71l-.549-1.924zm-.549 1.377l-.357-.357-1.415 1.414.358.357 1.414-1.414zm-.227.897a2.646 2.646 0 011.537-1.112l-.514-1.933a4.65 4.65 0 00-2.698 1.951l1.675 1.094zm.322-2.365l-.229.765 1.915.575.23-.766-1.916-.574z" fill="#036063" mask="url(#path-45-inside-2_129_50227)"/><mask id="path-47-inside-3_129_50227" fill="#fff"><path d="M172.777 47.64c-.304.348-.53.756-.663 1.199h-.587a5.115 5.115 0 01.918-1.71l.332.51z"/></mask><path d="M172.777 47.64c-.304.348-.53.756-.663 1.199h-.587a5.115 5.115 0 01.918-1.71l.332.51z" fill="#fff"/><path d="M172.777 47.64l.754.656.496-.569-.412-.633-.838.545zm-.663 1.199v1h.742l.215-.71-.957-.29zm-.587 0l-.955-.298-.404 1.298h1.359v-1zm.918-1.71l.839-.545-.747-1.15-.867 1.063.775.632zm-.422-.147a4.276 4.276 0 00-.867 1.567l1.915.58c.093-.308.249-.591.46-.833l-1.508-1.314zm.091.857h-.587v2h.587v-2zm.368 1.297c.156-.502.406-.968.738-1.375l-1.55-1.264a6.112 6.112 0 00-1.098 2.044l1.91.595zm-.875-1.462l.331.51 1.677-1.09-.331-.51-1.677 1.09z" fill="#036063" mask="url(#path-47-inside-3_129_50227)"/><mask id="path-49-inside-4_129_50227" fill="#fff"><path d="M174.945 46.847a.893.893 0 00-.817-.204l.205-.765a1.196 1.196 0 011.122.255l-.51.714z"/></mask><path d="M174.945 46.847a.893.893 0 00-.817-.204l.205-.765a1.196 1.196 0 011.122.255l-.51.714z" fill="#fff"/><path d="M174.945 46.847l-.671.742.832.753.653-.913-.814-.582zm-.817-.204l-.966-.257-.437 1.64 1.647-.413-.244-.97zm.205-.765l-.274-.962-.546.155-.147.55.967.257zm1.122.255l.814.581.524-.733-.675-.597-.663.749zm.161-.027a1.893 1.893 0 00-.811-.433l-.485 1.94a.108.108 0 01-.046-.024l1.342-1.483zm-.811-.433a1.894 1.894 0 00-.92 0l.487 1.94a.108.108 0 01-.052 0l.485-1.94zm.29 1.228l.204-.766-1.933-.515-.204.766 1.933.515zm-.489-.061a.201.201 0 01.099-.003l.443-1.95a2.198 2.198 0 00-1.089.029l.547 1.924zm.099-.003a.203.203 0 01.088.045l1.325-1.498a2.203 2.203 0 00-.97-.497l-.443 1.95zm-.064-1.285l-.51.714 1.628 1.163.51-.715-1.628-1.162z" fill="#036063" mask="url(#path-49-inside-4_129_50227)"/><path d="M173.616 49.115l-.165-.164.165.164zm0 0l.042.042-.042-.042zm13.301 45.345h-.001l.006.002a9.302 9.302 0 014.721 8.161v13.348c0 .177-.096.352-.362.51-.271.162-.666.264-1.087.272-.422.009-.809-.078-1.072-.231-.246-.143-.357-.321-.357-.551v-13.346a6.566 6.566 0 00-3.281-5.67 6.568 6.568 0 00-6.55-.02l-.002.002-57.71 33.324h-.001c-.218.125-.465.19-.716.188h-.02a1.413 1.413 0 01-.716-2.657l.007-.004.006-.004 57.711-33.324h.001a9.375 9.375 0 019.423 0z" fill="#fff" stroke="#036063"/><path d="M192.834 97.878h0l.006.003a9.301 9.301 0 014.697 8.16v13.324c0 .189-.1.368-.361.527-.269.163-.659.266-1.075.274-.417.009-.8-.079-1.059-.233-.243-.144-.358-.327-.358-.568v-13.32a6.568 6.568 0 00-6.573-6.57 6.573 6.573 0 00-3.285.881l-57.711 33.324h0l-.009.006a1.268 1.268 0 01-.676.183l-.013-.001-.012.001a1.417 1.417 0 01-1.411-1.045 1.416 1.416 0 01.695-1.613l.006-.004.007-.003 57.711-33.324.003-.002a9.297 9.297 0 019.418 0zM83.236 139.582v43.855l-8.39-4.856v-43.855l8.39 4.856zm4.234-1.871v43.855l-3.235 1.871v-43.855l3.235-1.871zm-3.734 1.005l-8.39-4.856 3.21-1.849 8.414 4.834-3.234 1.871z" fill="#fff" stroke="#036063"/><path d="M126.071 114.856v43.83l-8.389-4.856V110l8.389 4.856zm4.235-1.871v43.854l-3.235 1.852v-43.835l3.235-1.871zm-3.735 1.005l-8.393-4.858 3.215-1.87 8.414 4.857-3.236 1.871zM83.287 81.175v58.019l-8.44-4.86V76.293l8.44 4.882z" fill="#fff" stroke="#036063"/><path d="M130.332 54.578v58.017l-46.046 26.598V81.175l46.046-26.597zM83.787 80.309l-8.441-4.883 46.047-26.598 8.441 4.883L83.787 80.31z" fill="#fff" stroke="#036063"/><path d="M125.944 71.025v1.132l-.2.118v-1.132l.2-.118z" fill="#fff" stroke="#036063"/><mask id="path-64-inside-5_129_50227" fill="#fff"><path d="M125.806 69.787l-1.199.689v2.296l.637.383V70.86l1.2-.715-.638-.357z"/></mask><path d="M125.806 69.787l-1.199.689v2.296l.637.383V70.86l1.2-.715-.638-.357z" fill="#fff"/><path d="M125.806 69.787l.488-.872-.495-.278-.491.283.498.867zm-1.199.689l-.499-.867-.501.288v.579h1zm0 2.296h-1v.567l.485.291.515-.858zm.637.383l-.514.858 1.514.908v-1.766h-1zm0-2.296l-.511-.86-.489.292v.568h1zm1.2-.715l.511.86 1.487-.886-1.51-.846-.488.872zm-1.136-1.224l-1.2.689.997 1.734 1.199-.689-.996-1.734zm-1.701 1.556v2.296h2v-2.296h-2zm.485 3.154l.638.383 1.029-1.715-.638-.383-1.029 1.715zm2.152-.475V70.86h-2v2.296h2zm-.488-1.437l1.199-.715-1.023-1.718-1.199.715 1.023 1.718zm1.176-2.446l-.638-.357-.977 1.745.638.357.977-1.745z" fill="#036063" mask="url(#path-64-inside-5_129_50227)"/><path d="M121.938 73.33v1.143l-.2.114v-1.143l.2-.114z" fill="#fff" stroke="#036063"/><mask id="path-67-inside-6_129_50227" fill="#fff"><path d="M121.8 72.083l-1.199.715v2.296l.637.357v-2.296l1.2-.69-.638-.382z"/></mask><path d="M121.8 72.083l-1.199.715v2.296l.637.357v-2.296l1.2-.69-.638-.382z" fill="#fff"/><path d="M121.8 72.083l.514-.858-.512-.307-.514.306.512.859zm-1.199.715l-.512-.86-.488.291v.569h1zm0 2.296h-1v.586l.511.286.489-.872zm.637.357l-.488.873 1.488.833v-1.706h-1zm0-2.296l-.498-.867-.502.288v.579h1zm1.2-.69l.498.868 1.476-.849-1.46-.876-.514.858zm-1.15-1.241l-1.199.714 1.023 1.718 1.2-.714-1.024-1.718zm-1.687 1.573v2.297h2v-2.296h-2zm.511 3.17l.638.357.977-1.745-.638-.358-.977 1.745zm2.126-.516v-2.296h-2v2.296h2zm-.501-1.43l1.199-.688-.997-1.734-1.199.689.997 1.734zm1.215-2.413l-.638-.383-1.029 1.716.638.382 1.029-1.715z" fill="#036063" mask="url(#path-67-inside-6_129_50227)"/><path d="M117.932 75.643v1.152l-.2.115v-1.15l.2-.118z" fill="#fff" stroke="#036063"/><mask id="path-70-inside-7_129_50227" fill="#fff"><path d="M117.794 74.405l-1.199.69v2.321l.637.357v-2.296l1.2-.715-.638-.357z"/></mask><path d="M117.794 74.405l-1.199.69v2.321l.637.357v-2.296l1.2-.715-.638-.357z" fill="#fff"/><path d="M117.794 74.405l.488-.872-.495-.277-.491.282.498.867zm-1.199.69l-.499-.868-.501.288v.58h1zm0 2.321h-1v.586l.511.287.489-.873zm.637.357l-.488.873 1.488.834v-1.707h-1zm0-2.296l-.511-.86-.489.292v.568h1zm1.2-.715l.511.86 1.487-.886-1.51-.846-.488.873zm-1.136-1.224l-1.2.69.997 1.733 1.199-.689-.996-1.734zm-1.701 1.556v2.322h2v-2.322h-2zm.511 3.195l.638.357.977-1.745-.638-.357-.977 1.745zm2.126-.516v-2.296h-2v2.296h2zm-.488-1.437l1.199-.714-1.023-1.719-1.199.715 1.023 1.718zm1.176-2.446l-.638-.357-.977 1.745.638.357.977-1.745z" fill="#036063" mask="url(#path-70-inside-7_129_50227)"/><path d="M125.944 79.096v1.149l-.2.118v-1.152l.2-.115z" fill="#fff" stroke="#036063"/><mask id="path-73-inside-8_129_50227" fill="#fff"><path d="M125.806 77.875l-1.199.689v2.296l.637.383v-2.322l1.2-.689-.638-.357z"/></mask><path d="M125.806 77.875l-1.199.689v2.296l.637.383v-2.322l1.2-.689-.638-.357z" fill="#fff"/><path d="M125.806 77.875l.488-.873-.495-.277-.491.283.498.867zm-1.199.689l-.499-.867-.501.288v.579h1zm0 2.296h-1v.567l.485.29.515-.857zm.637.383l-.514.858 1.514.908v-1.766h-1zm0-2.322l-.498-.867-.502.288v.58h1zm1.2-.689l.498.867 1.528-.878-1.538-.861-.488.872zm-1.136-1.224l-1.2.689.997 1.734 1.199-.689-.996-1.734zm-1.701 1.556v2.296h2v-2.296h-2zm.485 3.154l.638.383 1.029-1.715-.638-.383-1.029 1.715zm2.152-.475v-2.322h-2v2.322h2zm-.501-1.455l1.199-.689-.997-1.734-1.199.69.997 1.733zm1.189-2.428l-.638-.358-.977 1.746.638.357.977-1.745z" fill="#036063" mask="url(#path-73-inside-8_129_50227)"/><path d="M121.938 81.419v1.143l-.2.114v-1.143l.2-.114z" fill="#fff" stroke="#036063"/><mask id="path-76-inside-9_129_50227" fill="#fff"><path d="M121.8 80.172l-1.199.714v2.297l.637.357v-2.296l1.2-.69-.638-.382z"/></mask><path d="M121.8 80.172l-1.199.714v2.297l.637.357v-2.296l1.2-.69-.638-.382z" fill="#fff"/><path d="M121.8 80.172l.514-.858-.512-.307-.514.306.512.859zm-1.199.714l-.512-.859-.488.291v.568h1zm0 2.297h-1v.586l.511.286.489-.872zm.637.357l-.488.872 1.488.834V83.54h-1zm0-2.296l-.498-.868-.502.289v.579h1zm1.2-.69l.498.868 1.476-.849-1.46-.876-.514.858zm-1.15-1.241l-1.199.714 1.023 1.718 1.2-.714-1.024-1.718zm-1.687 1.573v2.297h2v-2.297h-2zm.511 3.17l.638.356.977-1.745-.638-.357-.977 1.745zm2.126-.516v-2.296h-2v2.296h2zm-.501-1.43l1.199-.688-.997-1.734-1.199.688.997 1.735zm1.215-2.413l-.638-.383-1.029 1.715.638.383 1.029-1.715z" fill="#036063" mask="url(#path-76-inside-9_129_50227)"/><path d="M117.932 83.731v1.153l-.2.115V83.85l.2-.118z" fill="#fff" stroke="#036063"/><mask id="path-79-inside-10_129_50227" fill="#fff"><path d="M117.794 82.494l-1.199.69v2.296l.637.382v-2.296l1.2-.715-.638-.357z"/></mask><path d="M117.794 82.494l-1.199.69v2.296l.637.382v-2.296l1.2-.715-.638-.357z" fill="#fff"/><path d="M117.794 82.494l.488-.872-.495-.278-.491.283.498.867zm-1.199.69l-.499-.868-.501.288v.58h1zm0 2.296h-1v.566l.485.291.515-.858zm.637.382l-.514.858 1.514.909v-1.767h-1zm0-2.296l-.511-.86-.489.292v.568h1zm1.2-.715l.511.86 1.487-.886-1.51-.846-.488.872zm-1.136-1.224l-1.2.689.997 1.734 1.199-.689-.996-1.734zm-1.701 1.556v2.296h2v-2.296h-2zm.485 3.154l.638.383 1.029-1.715-.638-.383-1.029 1.715zm2.152-.475v-2.296h-2v2.296h2zm-.488-1.437l1.199-.715-1.023-1.718-1.199.715 1.023 1.718zm1.176-2.446l-.638-.357-.977 1.745.638.357.977-1.745z" fill="#036063" mask="url(#path-79-inside-10_129_50227)"/><path d="M98.494 86.87v1.152l-.199.114v-1.148l.2-.119z" fill="#fff" stroke="#036063"/><mask id="path-82-inside-11_129_50227" fill="#fff"><path d="M98.354 85.632l-1.224.689v2.322l.663.357v-2.296l1.2-.715-.639-.357z"/></mask><path d="M98.354 85.632l-1.224.689v2.322l.663.357v-2.296l1.2-.715-.639-.357z" fill="#fff"/><path d="M98.354 85.632l.489-.873-.49-.274-.489.275.49.872zm-1.224.689l-.49-.872-.51.287v.585h1zm0 2.322h-1v.597l.526.283.474-.88zm.663.357l-.474.88 1.474.794V89h-1zm0-2.296l-.512-.86-.488.291v.569h1zm1.2-.715l.511.86 1.487-.887-1.51-.845-.489.872zm-1.129-1.229l-1.225.69.98 1.742 1.226-.689-.981-1.743zm-1.734 1.56v2.323h2V86.32h-2zm.526 3.203l.663.357.948-1.76-.663-.358-.948 1.761zM98.793 89v-2.296h-2V89h2zm-.488-1.437l1.199-.715-1.024-1.718-1.199.714 1.024 1.719zm1.176-2.446l-.638-.358-.977 1.745.638.358.977-1.745z" fill="#036063" mask="url(#path-82-inside-11_129_50227)"/><path d="M90.482 91.498v1.143l-.199.114v-1.143l.2-.114z" fill="#fff" stroke="#036063"/><mask id="path-85-inside-12_129_50227" fill="#fff"><path d="M90.344 90.251l-1.199.714v2.297l.638.357v-2.296l1.2-.69-.639-.382z"/></mask><path d="M90.344 90.251l-1.199.714v2.297l.638.357v-2.296l1.2-.69-.639-.382z" fill="#fff"/><path d="M90.344 90.251l.515-.858-.513-.307-.513.306.511.859zm-1.199.714l-.511-.859-.489.291v.568h1zm0 2.297h-1v.586l.512.286.488-.872zm.638.357l-.488.873 1.488.833V93.62h-1zm0-2.296l-.498-.867-.502.288v.579h1zm1.2-.69l.498.868 1.476-.849-1.46-.876-.515.858zm-1.15-1.241l-1.2.714 1.024 1.719 1.2-.715-1.024-1.718zm-1.688 1.573v2.297h2v-2.297h-2zm.512 3.17l.638.357.977-1.745-.638-.358-.977 1.745zm2.126-.516v-2.296h-2v2.296h2zm-.502-1.43l1.2-.688-.997-1.734-1.199.689.996 1.734zm1.216-2.413l-.638-.382-1.029 1.714.638.383 1.029-1.715z" fill="#036063" mask="url(#path-85-inside-12_129_50227)"/><path d="M98.494 94.958v1.153l-.199.114v-1.148l.2-.119z" fill="#fff" stroke="#036063"/><mask id="path-88-inside-13_129_50227" fill="#fff"><path d="M98.354 93.72l-1.224.69v2.322l.663.357v-2.297l1.2-.714-.639-.357z"/></mask><path d="M98.354 93.72l-1.224.69v2.322l.663.357v-2.297l1.2-.714-.639-.357z" fill="#fff"/><path d="M98.354 93.72l.489-.872-.49-.274-.489.275.49.872zm-1.224.69l-.49-.872-.51.287v.585h1zm0 2.322h-1v.597l.526.283.474-.88zm.663.357l-.474.88 1.474.794V97.09h-1zm0-2.297l-.512-.859-.488.291v.568h1zm1.2-.714l.511.859 1.487-.886-1.51-.846-.489.873zm-1.129-1.229l-1.225.69.98 1.742 1.226-.689-.981-1.743zm-1.734 1.56v2.323h2V94.41h-2zm.526 3.203l.663.357.948-1.76-.663-.358-.948 1.761zm2.137-.523v-2.297h-2v2.297h2zm-.488-1.438l1.199-.714-1.024-1.718-1.199.714 1.024 1.718zm1.176-2.446l-.638-.357-.977 1.745.638.357.977-1.745z" fill="#036063" mask="url(#path-88-inside-13_129_50227)"/><path d="M90.482 99.586v1.143l-.199.114V99.7l.2-.114z" fill="#fff" stroke="#036063"/><mask id="path-91-inside-14_129_50227" fill="#fff"><path d="M90.344 98.339l-1.199.689v2.322l.638.357v-2.296l1.2-.69-.639-.382z"/></mask><path d="M90.344 98.339l-1.199.689v2.322l.638.357v-2.296l1.2-.69-.639-.382z" fill="#fff"/><path d="M90.344 98.339l.515-.858-.503-.302-.51.293.498.867zm-1.199.689l-.498-.867-.502.288v.579h1zm0 2.322h-1v.586l.512.286.488-.872zm.638.357l-.488.873 1.488.833v-1.706h-1zm0-2.296l-.498-.868-.502.289v.579h1zm1.2-.69l.498.868 1.476-.849-1.46-.876-.515.858zm-1.137-1.25l-1.199.69.997 1.734 1.199-.69-.997-1.733zm-1.7 1.557v2.322h2v-2.322h-2zm.51 3.194l.639.358.977-1.745-.638-.358-.977 1.745zm2.127-.515v-2.296h-2v2.296h2zm-.502-1.429l1.2-.69-.997-1.733-1.199.688.996 1.735zm1.216-2.414l-.638-.383-1.029 1.715.638.383 1.029-1.715z" fill="#036063" mask="url(#path-91-inside-14_129_50227)"/><path d="M81.144 101.518v.131l-4.384-2.43v-.11l4.384 2.409z" fill="#fff" stroke="#036063"/><mask id="path-94-inside-15_129_50227" fill="#fff"><path d="M81.26 102.065l-5.408-3.138.331-.74 5.46 2.985-.383.893z"/></mask><path d="M81.26 102.065l-5.408-3.138.331-.74 5.46 2.985-.383.893z" fill="#fff"/><path d="M81.26 102.065l-.501.865.976.566.445-1.037-.92-.394zm-5.408-3.138l-.913-.41-.368.822.779.452.502-.864zm.331-.74l.48-.878-.95-.52-.442.989.912.408zm5.46 2.985l.92.394.357-.835-.797-.436-.48.877zm.12.028l-5.41-3.138-1.003 1.73 5.409 3.138 1.003-1.73zm-4.999-1.865l.332-.74-1.825-.817-.332.74 1.825.817zm-1.06-.271l5.46 2.985.959-1.754-5.46-2.986-.96 1.755zm5.02 1.714l-.383.893 1.839.788.382-.893-1.838-.788z" fill="#036063" mask="url(#path-94-inside-15_129_50227)"/><path d="M81.145 104.445v.099l-4.256-2.438v-.12l4.256 2.459z" fill="#fff" stroke="#036063"/><mask id="path-97-inside-16_129_50227" fill="#fff"><path d="M81.26 104.871l-5.408-3.139.331-.765 5.46 3.138-.383.766z"/></mask><path d="M81.26 104.871l-5.408-3.139.331-.765 5.46 3.138-.383.766z" fill="#fff"/><path d="M81.26 104.871l-.501.865.92.534.476-.952-.895-.447zm-5.408-3.139l-.918-.397-.353.816.769.446.502-.865zm.331-.765l.499-.867-.971-.558-.445 1.027.917.398zm5.46 3.138l.895.447.422-.843-.818-.471-.499.867zm.12-.099l-5.41-3.139-1.003 1.73 5.409 3.139 1.003-1.73zm-4.994-1.876l.332-.766-1.835-.795-.332.766 1.835.795zm-1.084-.296l5.46 3.138.997-1.734-5.46-3.138-.997 1.734zm5.064 1.824l-.383.766 1.789.894.383-.766-1.79-.894z" fill="#036063" mask="url(#path-97-inside-16_129_50227)"/><path d="M81.145 107.454v.022l-4.256-2.459v-.084l4.256 2.521z" fill="#fff" stroke="#036063"/><mask id="path-100-inside-17_129_50227" fill="#fff"><path d="M81.26 107.781l-5.408-3.164.331-.765 5.46 3.164-.383.765z"/></mask><path d="M81.26 107.781l-5.408-3.164.331-.765 5.46 3.164-.383.765z" fill="#fff"/><path d="M81.26 107.781l-.504.863.921.539.478-.955-.895-.447zm-5.408-3.164l-.918-.398-.352.814.765.447.505-.863zm.331-.765l.502-.866-.972-.563-.447 1.031.917.398zm5.46 3.164l.895.447.42-.841-.813-.472-.502.866zm.122-.098l-5.408-3.164-1.01 1.726 5.409 3.164 1.01-1.726zm-4.996-1.903l.332-.766-1.835-.795-.332.765 1.835.796zm-1.087-.298l5.46 3.164 1.003-1.731-5.46-3.164-1.003 1.731zm5.067 1.851l-.383.766 1.789.894.383-.765-1.79-.895z" fill="#036063" mask="url(#path-100-inside-17_129_50227)"/><path d="M81.145 110.29v.12l-4.256-2.459v-.099l4.256 2.438z" fill="#fff" stroke="#036063"/><mask id="path-103-inside-18_129_50227" fill="#fff"><path d="M81.26 110.714l-5.408-3.113.331-.765 5.46 3.113-.383.765z"/></mask><path d="M81.26 110.714l-5.408-3.113.331-.765 5.46 3.113-.383.765z" fill="#fff"/><path d="M81.26 110.714l-.498.867.919.529.474-.948-.895-.448zm-5.408-3.113l-.918-.397-.355.819.774.445.499-.867zm.331-.765l.496-.869-.97-.552-.443 1.023.917.398zm5.46 3.113l.895.447.423-.847-.823-.469-.495.869zm.116-.101l-5.409-3.113-.997 1.733 5.409 3.113.997-1.733zm-4.99-1.849l.332-.765-1.835-.796-.332.766 1.835.795zm-1.08-.294l5.459 3.113.99-1.738-5.46-3.113-.99 1.738zm5.06 1.797l-.383.765 1.789.895.383-.766-1.79-.894z" fill="#036063" mask="url(#path-103-inside-18_129_50227)"/><path d="M81.145 83.038v.095l-4.256-2.458v-.096l4.256 2.459z" fill="#fff" stroke="#036063"/><mask id="path-106-inside-19_129_50227" fill="#fff"><path d="M81.26 83.438l-5.408-3.113.331-.765 5.46 3.113-.383.765z"/></mask><path d="M81.26 83.438l-5.408-3.113.331-.765 5.46 3.113-.383.765z" fill="#fff"/><path d="M81.26 83.438l-.498.867.919.529.474-.949-.895-.447zm-5.408-3.113l-.918-.398-.355.82.774.445.499-.867zm.331-.765l.496-.87-.97-.552-.443 1.024.917.398zm5.46 3.113l.895.447.423-.847-.823-.47-.495.87zm.116-.102l-5.409-3.113-.997 1.734 5.409 3.113.997-1.734zm-4.99-1.848l.332-.766-1.835-.795-.332.765 1.835.796zm-1.08-.295l5.459 3.113.99-1.737-5.46-3.113-.99 1.737zm5.06 1.797l-.383.766 1.789.894.383-.765-1.79-.895z" fill="#036063" mask="url(#path-106-inside-19_129_50227)"/><path d="M81.145 85.948v.12l-4.256-2.459v-.099l4.256 2.438z" fill="#fff" stroke="#036063"/><mask id="path-109-inside-20_129_50227" fill="#fff"><path d="M81.26 86.373l-5.408-3.139.331-.74 5.46 3.113-.383.766z"/></mask><path d="M81.26 86.373l-5.408-3.139.331-.74 5.46 3.113-.383.766z" fill="#fff"/><path d="M81.26 86.373l-.501.864.92.535.476-.952-.895-.447zm-5.408-3.139l-.913-.409-.368.822.779.452.502-.865zm.331-.74l.496-.869-.957-.545-.451 1.005.912.41zm5.46 3.113l.895.447.423-.847-.823-.469-.495.87zm.12-.1l-5.41-3.138-1.003 1.73 5.409 3.138 1.003-1.73zm-4.999-1.864l.332-.74-1.825-.818-.332.74 1.825.818zm-1.076-.28l5.46 3.113.99-1.738-5.46-3.113-.99 1.738zm5.06 1.797l-.382.765 1.789.895.383-.766-1.79-.894z" fill="#036063" mask="url(#path-109-inside-20_129_50227)"/><path d="M81.144 88.88v.1l-4.384-2.514v-.12l4.384 2.535z" fill="#fff" stroke="#036063"/><mask id="path-112-inside-21_129_50227" fill="#fff"><path d="M81.26 89.307l-5.408-3.138.331-.766 5.46 3.139-.383.765z"/></mask><path d="M81.26 89.307l-5.408-3.138.331-.766 5.46 3.139-.383.765z" fill="#fff"/><path d="M81.26 89.307l-.501.865.92.534.476-.952-.895-.447zm-5.408-3.138l-.918-.398-.353.816.769.447.502-.865zm.331-.766l.499-.867-.971-.558-.445 1.028.917.397zm5.46 3.139l.895.447.422-.844-.818-.47-.499.867zm.12-.1l-5.41-3.138-1.003 1.73 5.409 3.138 1.003-1.73zm-4.994-1.876l.332-.765-1.835-.795-.332.765 1.835.795zm-1.084-.296l5.46 3.139.997-1.734-5.46-3.139-.997 1.734zm5.064 1.825l-.383.765 1.789.894.383-.765-1.79-.894z" fill="#036063" mask="url(#path-112-inside-21_129_50227)"/><path d="M81.145 91.815v.096l-4.256-2.46v-.094l4.256 2.458z" fill="#fff" stroke="#036063"/><mask id="path-115-inside-22_129_50227" fill="#fff"><path d="M81.26 92.215l-5.408-3.113.331-.765 5.46 3.113-.383.765z"/></mask><path d="M81.26 92.215l-5.408-3.113.331-.765 5.46 3.113-.383.765z" fill="#fff"/><path d="M81.26 92.215l-.498.867.919.529.474-.948-.895-.448zm-5.408-3.113l-.918-.397-.355.819.774.445.499-.867zm.331-.765l.496-.869-.97-.552-.443 1.023.917.398zm5.46 3.113l.895.447.423-.847-.823-.469-.495.869zm.116-.101l-5.409-3.113-.997 1.733 5.409 3.113.997-1.733zM76.77 89.5l.332-.766-1.835-.795-.332.766 1.835.795zm-1.08-.294l5.459 3.113.99-1.738-5.46-3.113-.99 1.738zm5.06 1.797l-.383.765 1.789.895.383-.766-1.79-.894z" fill="#036063" mask="url(#path-115-inside-22_129_50227)"/><path d="M102.245 106.044v12.496l-12.65 7.307v-12.496l12.65-7.307z" fill="#fff" stroke="#036063"/><g opacity=".3"><mask id="path-118-inside-23_129_50227" fill="#fff"><path d="M106.849 126.739l.484-.281V67.286l-.484.28v59.173z"/></mask><path d="M106.849 126.739l.484-.281V67.286l-.484.28v59.173z" fill="#fff"/><path d="M106.849 126.739h-1v1.735l1.501-.87-.501-.865zm.484-.281l.501.866.499-.289v-.577h-1zm0-59.172h1v-1.734l-1.501.869.501.865zm-.484.28l-.502-.865-.498.29v.576h1zm.501 60.038l.484-.28-1.002-1.731-.485.281 1.003 1.73zm.983-1.146V67.286h-2v59.172h2zm-1.501-60.037l-.485.28 1.003 1.731.484-.28-1.002-1.731zm-.983 1.146v59.172h2V67.567h-2z" fill="#036063" mask="url(#path-118-inside-23_129_50227)"/></g><path d="M120.865 95.377v1.015l-9.231 5.318v-1.015l9.231-5.318zM60.417 42.675l-.026-.002-.026.001a.853.853 0 01-.544-.161l-.283.389.283-.39a.853.853 0 01.11-1.446l.01-.005.01-.006 8.01-4.618.024-.014.022-.016a2.434 2.434 0 012.596-.173c.662.395 1.029 1.154 1.221 1.97.185.786.185 1.527.184 1.81v.021c0 .005 0 .015-.016.037a.465.465 0 01-.146.115c-.167.093-.42.161-.696.172-.278.01-.517-.04-.666-.119-.125-.067-.152-.127-.154-.195a4.684 4.684 0 00-.372-2.07l-.13-.302h-.33v0h-.023a.49.49 0 00-.094.01 1.2 1.2 0 00-.18.05 1.463 1.463 0 00-.429.26l-7.965 4.593a.724.724 0 01-.39.089zm-11.522 5.742a10.192 10.192 0 011.35 4.542c-.002 1.43-.502 2.304-1.168 2.69-.667.385-1.675.383-2.918-.323a10.242 10.242 0 01-4.608-7.982c.003-1.445.505-2.324 1.17-2.708.664-.384 1.671-.379 2.916.34a10.192 10.192 0 013.258 3.441z" fill="#fff" stroke="#036063"/><path d="M60.147 36.56l.01.008.011.007a10.241 10.241 0 014.622 8.004h0l.001.014a2.946 2.946 0 01-1.274 2.674l-12.426 7.28a3.89 3.89 0 00.155-1.562 11.192 11.192 0 00-5.036-8.845 3.894 3.894 0 00-1.47-.66l12.467-7.188a2.868 2.868 0 012.94.268z" fill="#036063" stroke="#036063"/><path d="M34.971 58.458h0v-.007a5.063 5.063 0 012.507-4.435s0 0 0 0l7.423-4.286h0a.45.45 0 01.453-.02c.165.078.337.245.464.474.126.228.179.468.161.652-.015.167-.083.274-.21.342l-.008.004-.007.004-7.45 4.287h0l-.003.001a3.382 3.382 0 00-1.677 2.989v2.01c0 .039-.013.11-.166.2-.158.092-.4.157-.67.162-.27.005-.506-.05-.654-.136-.134-.076-.163-.148-.163-.226v-2.015zm35.615-9.89h-.033a.852.852 0 01-.418-1.609l.01-.005.01-.005 8.01-4.619.024-.013.022-.016a2.434 2.434 0 012.594-.174c.651.395 1.018 1.155 1.214 1.972a7.98 7.98 0 01.192 1.834c0 .002-.003.01-.013.022a.475.475 0 01-.147.114 1.657 1.657 0 01-.7.174c-.279.012-.518-.037-.666-.114-.124-.065-.15-.124-.152-.191a4.429 4.429 0 00-.403-2.056l-.211-.457-.456.214-.433.204-.02.01-.018.01-7.986 4.63c-.133.054-.276.08-.42.075zM59.098 54.3c.8 1.391 1.263 2.95 1.35 4.553-.002 1.431-.503 2.304-1.168 2.686-.665.382-1.673.376-2.917-.344a10.217 10.217 0 01-4.635-7.982c.003-1.428.508-2.302 1.181-2.688.674-.387 1.69-.384 2.931.322a10.242 10.242 0 013.258 3.453z" fill="#fff" stroke="#036063"/><path d="M70.32 42.452l.014.01.013.008a10.19 10.19 0 014.62 8.002v.009l.002.008a2.946 2.946 0 01-1.25 2.672l-12.537 7.237c.161-.505.218-1.04.164-1.57a11.244 11.244 0 00-5.065-8.796 3.918 3.918 0 00-1.426-.626l12.528-7.244a2.867 2.867 0 012.938.29z" fill="#036063" stroke="#036063"/><path d="M45.148 64.301V64.3a4.987 4.987 0 012.505-4.337h0l7.422-4.286h.001a.478.478 0 01.47-.024c.165.077.334.24.458.464.124.223.175.458.156.64-.016.163-.084.272-.215.34l-.008.005-.008.005-7.422 4.311a3.332 3.332 0 00-1.68 2.993v1.931c0 .048-.019.125-.173.216a1.44 1.44 0 01-.676.165c-.272.005-.51-.052-.661-.139-.135-.078-.169-.154-.169-.242v-2.041z" fill="#fff" stroke="#036063"/></g><defs><clipPath id="clip0_129_50227"><path fill="#fff" d="M0 0h210v194H0z"/></clipPath></defs></svg>