<svg width="140" height="49" fill="none" xmlns="http://www.w3.org/2000/svg"><path fill-rule="evenodd" clip-rule="evenodd" d="M8.198 15.162v5.317H.242V10.443l15.66-9.287c1.6-.94 4.023-1.117 5.682-.159l15.927 9.446v10.036h-7.956v-5.317L18.877 8.828l-10.68 6.334z" fill="#29B5F2"/><path fill-rule="evenodd" clip-rule="evenodd" d="M18.876 36.487l10.679-6.334v-5.317h7.955v10.036l-15.956 9.463c-1.63.941-4.051.764-5.653-.176L.241 34.872V24.836h7.957v5.317l10.678 6.334z" fill="#5B5B5B"/><path d="M97.325 34.314c-1.587-.42-2.99-1.295-4.197-2.63a10.08 10.08 0 01-2.11-3.733 18.123 18.123 0 01-.797-4.293v-1.557c0-.208.016-.413.047-.632.09-1.398.354-2.774.795-4.125a10.056 10.056 0 012.065-3.615c1.208-1.368 2.61-2.26 4.197-2.682 1.59-.42 3.232-.632 4.924-.632l9.215-.042-2.869 5.128h-5.482c-1.756.031-3.168.18-4.22.813-1.01.613-1.62 1.8-1.68 3.848l14.251-.046-2.869 5.131H97.213c.06 2.145.616 3.395 1.588 3.916 1 .534 2.422.7 4.267.7l8.396-.05-2.869 5.132h-6.346a19.16 19.16 0 01-4.924-.631zM74.608 10.373V4.415l6.308-2.95v8.909h7.822l-2.869 4.894h-4.953v9.933c-.029 2.456.516 3.883 1.635 4.286 1.121.407 2.661.61 4.63.61h.409l-2.868 4.846h-2.898c-2.39 0-4.188-.682-5.399-2.05-1.21-1.369-1.817-3.231-1.817-5.595v-12.03h-5.022l2.871-4.895h2.151zm61.939 1.914c-1.755-1.242-4.207-1.88-7.353-1.91h-13.078l-2.871 5.415h4.056v19.154h6.31V15.793h.953l4.13.04c1.695 0 2.813.293 3.359.883.544.593.816 1.742.816 3.45v14.78h6.311V19.42c0-3.51-.879-5.891-2.633-7.134zM58.755 29.953c.058.033 3.49.134 3.49-2.514 0-2.601-3.314-2.381-3.403-2.381l-5.45-.046c-2.54.033-4.545-.323-6.012-1.074-1.47-.744-2.218-2.639-2.246-5.687-.033-2.858.726-4.879 2.268-6.064 1.543-1.178 3.599-1.77 6.175-1.77l14.718-.044-2.907 5.327-10.556.047c-.197 0-3.165-.105-3.165 2.043 0 2.151 2.075 2.187 2.951 2.187l5.722-.047c2.237.03 4.114.567 5.629 1.609 1.51 1.04 2.313 2.837 2.405 5.385v.14a9.058 9.058 0 01-1.657 5.432c-1.134 1.631-2.763 2.45-4.879 2.45H45.541l2.783-4.993h10.431zM49.76 40.127v.812h-3.284v2.15h3.13v.803h-3.13v2.296h3.362v.839h-4.29v-6.9h4.212zm2.478.01v6.89h-.876v-6.89h.876zm5.576 4.654H54.46v.073c0 .518.117.922.35 1.214.232.293.562.44.989.44.31 0 .562-.085.756-.254.194-.169.307-.416.34-.737h.871c-.03.487-.226.882-.588 1.186-.36.304-.834.457-1.417.457-.715 0-1.254-.215-1.62-.643-.366-.43-.549-1.047-.549-1.853 0-.83.192-1.465.577-1.906.384-.441.927-.663 1.63-.663.668 0 1.17.193 1.508.579.337.385.506.96.506 1.724v.383zm-.89-.631v-.07c0-.426-.095-.755-.286-.992-.19-.236-.479-.354-.866-.354-.379 0-.686.13-.922.389-.235.26-.353.602-.353 1.027h2.427zm4.839-.392c-.019-.334-.11-.586-.274-.752-.166-.165-.385-.248-.656-.248-.394 0-.694.151-.9.452-.206.301-.308.755-.308 1.362 0 .64.097 1.115.293 1.424.194.309.483.463.868.463.295 0 .532-.09.713-.272.182-.181.28-.436.3-.766h.885c-.036.507-.226.92-.572 1.24-.344.321-.782.48-1.307.48-.673 0-1.191-.213-1.556-.642-.364-.427-.547-1.032-.547-1.815 0-.818.199-1.455.596-1.909.395-.453.9-.68 1.516-.68.532 0 .966.152 1.303.453.336.3.513.704.531 1.21h-.885zm2.966-1.557h1.043v.657H64.73v2.937c0 .215.053.367.161.454.107.086.26.131.46.131.08 0 .154-.005.227-.013.073-.008.138-.019.195-.035v.696a2.914 2.914 0 01-.307.04 4.652 4.652 0 01-.41.016c-.414 0-.717-.075-.906-.225-.19-.15-.284-.406-.284-.769v-3.232h-.828v-.657h.828v-1.002l.864-.289v1.29zm4.746-.02v.878a.686.686 0 00-.167-.038 2.173 2.173 0 00-.224-.01c-.44 0-.767.112-.981.335-.212.223-.32.583-.32 1.08v2.591h-.885v-4.023l-.01-.228-.035-.547h.886l.013.574c0 .156.002.274.005.355.075-.314.242-.556.498-.724.257-.168.58-.252.966-.252l.254.01zm3.027 4.998c-.735 0-1.315-.227-1.738-.683-.424-.455-.636-1.088-.636-1.895 0-.763.206-1.37.617-1.824.412-.454.972-.682 1.68-.682.717 0 1.29.233 1.717.698.43.465.644 1.086.644 1.863 0 .781-.202 1.396-.605 1.847-.402.45-.961.677-1.68.677zm-1.46-2.505c0 .567.135 1.016.407 1.35.273.33.623.498 1.053.498.423 0 .755-.163.995-.488.24-.325.362-.772.362-1.34 0-.595-.128-1.063-.382-1.409-.254-.346-.602-.518-1.044-.518-.426 0-.764.17-1.015.51-.251.341-.377.808-.377 1.397zm9.203 2.343h-.89v-3.144c0-.336-.102-.594-.308-.776a1.123 1.123 0 00-.771-.274c-.352 0-.642.132-.871.395-.23.263-.346.599-.346 1.01v2.789h-.876V42.58c0-.094-.003-.21-.01-.35h.878c.005.195.008.358.008.485v.289c.145-.292.344-.51.595-.654.251-.144.552-.216.903-.216.493 0 .897.145 1.214.433.316.29.474.688.474 1.195v3.265zm2.562-6.88v.983h-1.053v-.984h1.053zm-.084 2.083v4.797h-.876V42.23h.876zm4.36 1.538c-.019-.334-.11-.586-.274-.752-.166-.165-.385-.248-.656-.248-.394 0-.693.151-.9.452-.206.301-.308.755-.308 1.362 0 .64.098 1.115.293 1.424.194.309.484.463.868.463.295 0 .532-.09.713-.272.182-.181.281-.436.3-.766h.885c-.036.507-.226.92-.572 1.24-.344.321-.782.48-1.307.48-.673 0-1.19-.213-1.555-.642-.365-.427-.548-1.032-.548-1.815 0-.818.199-1.455.596-1.909.395-.453.9-.68 1.516-.68.532 0 .966.152 1.303.453.336.3.513.704.531 1.21h-.885zm8.548-1.538l-.019 1.068-.009 2.617v.723c-.006.657-.073 1.125-.198 1.402-.126.279-.346.5-.663.663-.314.164-.749.245-1.303.245-.461 0-.831-.053-1.11-.156-.28-.104-.488-.26-.625-.467-.138-.207-.215-.514-.23-.925h.932c.025.339.124.58.3.723.176.142.438.213.787.213.44 0 .755-.124.944-.372.19-.249.287-.672.293-1.27l.005-.57a1.233 1.233 0 01-.555.597c-.26.147-.587.22-.98.22-.676 0-1.172-.221-1.49-.663-.318-.44-.478-1.008-.478-1.697 0-.744.19-1.334.569-1.767.38-.435.882-.651 1.504-.651.324 0 .608.059.851.175.244.116.45.3.62.55l.01-.658h.845zm-.873 2.196c0-.575-.135-.99-.403-1.244a1.37 1.37 0 00-.97-.38c-.398 0-.705.152-.922.456-.218.306-.327.74-.327 1.303 0 .548.107.969.323 1.265.214.295.534.443.96.443.297 0 .54-.064.731-.193.19-.13.34-.307.447-.535.107-.226.161-.599.161-1.115zm6.06 1.406c0 .153.006.35.02.591.012.24.031.442.051.604h-.789a1.794 1.794 0 01-.069-.325 3.622 3.622 0 01-.018-.393c-.143.272-.33.487-.561.64-.233.155-.53.23-.89.23-.492 0-.887-.13-1.188-.39-.3-.259-.45-.6-.45-1.022 0-.498.19-.91.574-1.234.381-.325.978-.488 1.792-.488h.286c.131 0 .27.01.418.029v-.323c0-.289-.03-.496-.09-.622a.702.702 0 00-.324-.31c-.153-.081-.353-.121-.6-.121-.271 0-.488.068-.646.207-.16.139-.245.34-.258.605h-.873c.031-.498.206-.86.528-1.085.32-.226.756-.339 1.303-.339.501 0 .93.108 1.286.325.355.215.533.575.533 1.08l-.035 2.341zm-.84-.64l.016-.498-.1-.015-.14-.008-.26-.005c-.559 0-.98.082-1.263.244-.283.164-.426.405-.426.722 0 .252.088.454.262.608.175.153.41.231.709.231.368 0 .659-.118.868-.35.21-.233.32-.542.333-.929zm5.75-1.634h-.891v-.06c0-.233-.076-.412-.227-.534-.15-.124-.377-.187-.679-.187-.304 0-.538.06-.704.176a.587.587 0 00-.248.51c0 .296.191.49.569.582l1.082.276c.413.105.718.261.918.467.2.205.301.482.301.834 0 .454-.167.824-.502 1.11-.335.285-.831.429-1.489.429-.592 0-1.049-.134-1.37-.403-.321-.27-.483-.655-.483-1.155h.923c0 .274.087.486.263.639.176.153.432.227.768.227.305 0 .541-.066.709-.199a.677.677 0 00.249-.555c0-.23-.087-.389-.262-.478-.174-.088-.428-.168-.761-.236a6.355 6.355 0 01-.909-.252 1.509 1.509 0 01-.648-.428c-.16-.186-.239-.436-.239-.752 0-.422.166-.77.498-1.043.332-.274.774-.411 1.326-.411.513 0 .941.106 1.287.319.346.213.519.543.519.989v.135zm7.791-.554c.169-.301.386-.526.647-.676a1.83 1.83 0 01.916-.223c.529 0 .949.148 1.258.446.308.297.462.71.462 1.238v3.238h-.881v-3.173c0-.34-.096-.602-.29-.78-.194-.179-.448-.27-.763-.27-.319 0-.6.11-.839.327-.238.218-.358.569-.358 1.05v2.846h-.885v-3.18c0-.316-.091-.568-.274-.757-.185-.19-.433-.286-.748-.286-.316 0-.598.112-.849.332-.253.221-.379.557-.379 1.008v2.883h-.885v-4.159c0-.052-.002-.134-.005-.242l-.014-.396h.887v.696a1.62 1.62 0 01.609-.623c.242-.132.531-.198.866-.198.39 0 .708.074.953.222.245.146.436.372.572.677zm8.808 1.787h-3.353v.073c0 .518.117.922.349 1.214.233.293.563.44.989.44.31 0 .563-.085.757-.254.194-.169.307-.416.34-.737h.871c-.03.487-.226.882-.588 1.186-.361.304-.834.457-1.417.457-.715 0-1.254-.215-1.62-.643-.366-.43-.549-1.047-.549-1.853 0-.83.192-1.465.577-1.906.384-.441.927-.663 1.629-.663.669 0 1.171.193 1.509.579.336.385.506.96.506 1.724v.383zm-.891-.631v-.07c0-.426-.094-.755-.285-.992-.191-.236-.479-.354-.867-.354-.378 0-.685.13-.921.389-.235.26-.353.602-.353 1.027h2.426zm3.154-1.95h1.044v.658h-1.044v2.937c0 .215.053.367.162.454.107.086.26.131.46.131.079 0 .154-.005.227-.013.072-.008.137-.019.195-.035v.696a2.936 2.936 0 01-.307.04 4.66 4.66 0 01-.411.016c-.414 0-.716-.075-.906-.225-.189-.15-.283-.406-.283-.769v-3.232h-.828v-.657h.828v-1.002l.863-.289v1.29zm6.009 2.58h-3.353v.074c0 .518.117.922.349 1.214.233.293.563.44.989.44.311 0 .563-.085.757-.254.194-.169.307-.416.34-.737h.871a1.611 1.611 0 01-.588 1.186c-.361.304-.834.457-1.417.457-.715 0-1.254-.215-1.62-.643-.366-.43-.549-1.047-.549-1.853 0-.83.192-1.465.577-1.906.384-.441.927-.663 1.629-.663.669 0 1.171.193 1.509.579.337.385.506.96.506 1.724v.383zm-.89-.63v-.07c0-.426-.095-.755-.286-.992-.19-.236-.479-.354-.866-.354-.379 0-.686.13-.922.389-.235.26-.353.602-.353 1.027h2.427zm4.802-1.969v.878a.684.684 0 00-.168-.038 2.168 2.168 0 00-.223-.01c-.44 0-.768.112-.982.335-.212.223-.319.583-.319 1.08v2.591h-.885v-4.023l-.01-.228-.035-.547h.885l.014.574c0 .156.002.274.005.355.074-.314.242-.556.497-.724.258-.168.58-.252.966-.252l.255.01zm4.301 1.367h-.892v-.06c0-.233-.076-.412-.226-.534-.151-.124-.377-.187-.679-.187-.304 0-.538.06-.704.176a.585.585 0 00-.248.51c0 .296.19.49.569.582l1.082.276c.412.105.718.261.918.467.2.205.301.482.301.834 0 .454-.168.824-.503 1.11-.335.285-.831.429-1.488.429-.592 0-1.05-.134-1.371-.403-.321-.27-.482-.655-.482-1.155h.923c0 .274.086.486.263.639.175.153.431.227.768.227.305 0 .541-.066.708-.199a.675.675 0 00.25-.555c0-.23-.087-.389-.262-.478-.174-.088-.428-.168-.761-.236a6.319 6.319 0 01-.909-.252 1.509 1.509 0 01-.648-.428c-.16-.186-.239-.436-.239-.752 0-.422.166-.77.498-1.043.332-.274.773-.411 1.325-.411.514 0 .942.106 1.287.319.346.213.52.543.52.989v.135z" fill="#5B5B5B"/></svg>